<svg width="163" height="54" viewBox="0 0 163 54" fill="none" xmlns="http://www.w3.org/2000/svg">
<path d="M114 8.58057V7.08057L116.5 8.58081L114 8.58057Z" fill="#C2B510"/>
<path d="M154 34.5808V32.0808L156.5 34.5811L154 34.5808Z" fill="#C2B510"/>
<path d="M148.81 53.4843H5.49182C2.51364 53.4843 0 51.0368 0 48.0649V13.2157C0 10.2406 2.51364 7.71371 5.49182 7.71371H148.81C151.785 7.71371 154 10.2406 154 13.2157V48.0649C154 51.04 151.709 53.4843 148.734 53.4843H148.81Z" fill="#B1B3B6"/>
<path d="M153.189 48.0649C153.189 50.4806 151.232 52.4354 148.811 52.4354H5.49197C3.0706 52.4354 1.10742 50.4806 1.10742 48.0649V13.2157C1.10742 10.8032 3.07379 8.8389 5.49197 8.8389H148.811C151.232 8.8389 153.189 10.8032 153.189 13.2157V48.0649Z" fill="black"/>
<path d="M34.5036 30.3988C34.4686 26.7213 37.5168 24.9318 37.6568 24.8491C35.9322 22.3349 33.2563 21.9917 32.3145 21.9631C30.0681 21.7279 27.8886 23.3076 26.7431 23.3076C25.5754 23.3076 23.8127 21.9885 21.9131 22.0266C19.4695 22.0648 17.1818 23.4792 15.9281 25.6724C13.3381 30.1477 15.2695 36.7272 17.7481 40.3444C18.989 42.1148 20.4368 44.095 22.3363 44.0251C24.1913 43.9488 24.8849 42.8427 27.1249 42.8427C29.3427 42.8427 29.9949 44.0251 31.9295 43.9806C33.9213 43.9488 35.1749 42.2006 36.3713 40.4111C37.8031 38.3801 38.379 36.3808 38.4045 36.2759C38.3631 36.2632 34.5418 34.8074 34.5036 30.3988Z" fill="white"/>
<path d="M30.8478 19.5823C31.8469 18.3332 32.5278 16.639 32.3401 14.9163C30.8956 14.9798 29.0883 15.9143 28.0478 17.1349C27.1283 18.2092 26.3042 19.9701 26.5174 21.6293C28.1401 21.7501 29.8074 20.8124 30.8478 19.5823Z" fill="white"/>
<path d="M56.9227 37.4392L55.6372 33.4724C55.5004 33.0687 55.2459 32.1152 54.8704 30.6117H54.8259C54.6763 31.2602 54.4345 32.2105 54.1036 33.4724L52.8404 37.4392H56.9227ZM61.3677 43.7708H58.7745L57.3554 39.3082H52.4172L51.0649 43.7708H48.5386L53.4322 28.587H56.4549L61.3677 43.7708Z" fill="white"/>
<path d="M71.47 38.2497C71.47 37.1849 71.2282 36.3044 70.7477 35.6147C70.2195 34.8932 69.5132 34.534 68.6286 34.534C68.0272 34.534 67.4832 34.7343 66.9932 35.1316C66.5032 35.5289 66.185 36.0502 66.0354 36.6986C65.9591 37.0005 65.9209 37.2453 65.9209 37.4424V39.2668C65.9209 40.0615 66.1659 40.7353 66.6527 41.282C67.1427 41.8319 67.7759 42.1052 68.5586 42.1052C69.475 42.1052 70.1909 41.7524 70.7 41.0468C71.2154 40.338 71.47 39.4067 71.47 38.2497ZM73.9518 38.1607C73.9518 40.0233 73.4491 41.495 72.4404 42.5757C71.5368 43.5388 70.4168 44.0187 69.0804 44.0187C67.6359 44.0187 66.5986 43.5006 65.9686 42.4644H65.9241V48.2303H63.4868V36.4284C63.4868 35.2587 63.4582 34.0572 63.3977 32.824H65.5391L65.6759 34.5594H65.7204C66.5318 33.2531 67.7663 32.5983 69.4177 32.5983C70.7095 32.5983 71.7881 33.11 72.6536 34.1303C73.5191 35.1506 73.9518 36.4952 73.9518 38.1607Z" fill="white"/>
<path d="M84.0764 38.2497C84.0764 37.1849 83.8346 36.3044 83.3541 35.6147C82.826 34.8932 82.1228 34.534 81.2351 34.534C80.6337 34.534 80.0896 34.7343 79.5996 35.1316C79.1096 35.5289 78.7914 36.0502 78.6419 36.6986C78.5687 37.0005 78.5305 37.2453 78.5305 37.4424V39.2668C78.5305 40.0615 78.7755 40.7353 79.2623 41.282C79.7523 41.8319 80.3887 42.1052 81.1714 42.1052C82.0878 42.1052 82.8005 41.7524 83.3128 41.0468C83.8219 40.338 84.0764 39.4067 84.0764 38.2497ZM86.5582 38.1607C86.5582 40.0233 86.0523 41.495 85.0469 42.5757C84.1464 43.5388 83.0264 44.0187 81.6869 44.0187C80.2423 44.0187 79.2051 43.5006 78.5751 42.4644H78.5305V48.2303H76.0932V36.4284C76.0932 35.2587 76.0614 34.0572 76.001 32.824H78.1423L78.2792 34.5594H78.3237C79.1351 33.2531 80.3664 32.5983 82.021 32.5983C83.3128 32.5983 84.3914 33.11 85.2569 34.1303C86.1255 35.1506 86.5582 36.4952 86.5582 38.1607Z" fill="white"/>
<path d="M100.654 39.5147C100.654 40.8052 100.205 41.8573 99.3045 42.6678C98.3149 43.5546 96.934 43.9964 95.1649 43.9964C93.5295 43.9964 92.2154 43.6786 91.2227 43.0492L91.789 41.0213C92.8581 41.6698 94.0322 41.9908 95.3081 41.9908C96.2245 41.9908 96.9372 41.7842 97.4527 41.371C97.9649 40.9578 98.2195 40.4047 98.2195 39.7118C98.2195 39.0952 98.0095 38.5771 97.5895 38.1543C97.1695 37.7348 96.4695 37.3438 95.4927 36.9783C92.8295 35.9866 91.4995 34.534 91.4995 32.6237C91.4995 31.3746 91.964 30.3511 92.8995 29.5533C93.8286 28.7555 95.0695 28.355 96.6222 28.355C98.0063 28.355 99.1549 28.5965 100.071 29.0765L99.4636 31.0599C98.6077 30.5958 97.6404 30.3606 96.5554 30.3606C95.6995 30.3606 95.0281 30.5704 94.5508 30.9931C94.1436 31.3682 93.9431 31.8259 93.9431 32.3663C93.9431 32.967 94.1754 33.4628 94.6399 33.8538C95.0472 34.2162 95.7822 34.6039 96.8513 35.0267C98.159 35.5543 99.1199 36.1678 99.7372 36.8734C100.345 37.5822 100.654 38.4626 100.654 39.5147Z" fill="white"/>
<path d="M108.704 34.6453H106.022V39.9629C106.022 41.3138 106.492 41.9908 107.441 41.9908C107.877 41.9908 108.236 41.9527 108.522 41.8764L108.589 43.7231C108.112 43.9043 107.479 43.9933 106.696 43.9933C105.735 43.9933 104.981 43.6977 104.44 43.1128C103.899 42.528 103.629 41.5426 103.629 40.16V34.6453H102.028V32.8208H103.629V30.8151L106.022 30.0936V32.8176H108.704V34.6453" fill="white"/>
<path d="M118.291 38.2847C118.291 37.2739 118.074 36.4094 117.638 35.6847C117.126 34.8106 116.397 34.3751 115.449 34.3751C114.469 34.3751 113.728 34.8106 113.216 35.6847C112.78 36.4062 112.563 37.2866 112.563 38.3292C112.563 39.34 112.78 40.2045 113.216 40.926C113.744 41.8001 114.479 42.2356 115.427 42.2356C116.359 42.2356 117.088 41.7906 117.613 40.9038C118.065 40.1696 118.291 39.2955 118.291 38.2847ZM120.817 38.2052C120.817 39.8867 120.333 41.2693 119.372 42.35C118.364 43.4625 117.024 44.0187 115.357 44.0187C113.747 44.0187 112.468 43.4847 111.513 42.4199C110.559 41.352 110.082 40.0075 110.082 38.3864C110.082 36.6891 110.572 35.3001 111.558 34.2194C112.541 33.1355 113.871 32.5952 115.538 32.5952C117.145 32.5952 118.44 33.1291 119.42 34.1971C120.352 35.2333 120.817 36.5715 120.817 38.2052Z" fill="white"/>
<path d="M128.733 34.9632C128.491 34.9187 128.234 34.8964 127.966 34.8964C127.11 34.8964 126.449 35.2206 125.981 35.8659C125.574 36.4348 125.373 37.1563 125.373 38.0273V43.7708H122.939L122.961 36.2695C122.961 35.0077 122.93 33.857 122.869 32.8208H124.991L125.08 34.9155H125.147C125.405 34.194 125.809 33.6155 126.366 33.18C126.91 32.789 127.495 32.5952 128.129 32.5952C128.355 32.5952 128.555 32.611 128.736 32.6397V34.9632" fill="white"/>
<path d="M137.302 37.1467C137.318 36.4252 137.159 35.8022 136.831 35.2778C136.408 34.6039 135.762 34.2638 134.89 34.2638C134.095 34.2638 133.446 34.5944 132.953 35.2555C132.545 35.78 132.307 36.4125 132.23 37.1467H137.302V37.1467ZM139.625 37.7793C139.625 38.2147 139.596 38.5834 139.536 38.8822H132.23C132.259 39.9661 132.612 40.7893 133.29 41.3614C133.904 41.8732 134.703 42.1275 135.679 42.1275C136.761 42.1275 137.748 41.9526 138.635 41.6094L139.017 43.3003C137.98 43.7517 136.755 43.9774 135.342 43.9774C133.643 43.9774 132.307 43.4783 131.336 42.4771C130.369 41.4791 129.882 40.1377 129.882 38.4563C129.882 36.8035 130.334 35.4303 131.234 34.3338C132.183 33.1609 133.458 32.576 135.068 32.576C136.647 32.576 137.843 33.1609 138.654 34.3338C139.3 35.2619 139.625 36.4125 139.625 37.7793Z" fill="white"/>
<path d="M54.8543 19.2772C54.8543 18.4063 54.622 17.7388 54.1607 17.2747C53.6993 16.8107 53.0248 16.5755 52.137 16.5755C51.7584 16.5755 51.437 16.6009 51.1729 16.6549V22.2332C51.3193 22.2555 51.5897 22.265 51.9811 22.265C52.8975 22.265 53.6038 22.0107 54.1034 21.5022C54.6029 20.9936 54.8543 20.253 54.8543 19.2772ZM56.1175 19.2454C56.1175 20.5899 55.7134 21.6007 54.9084 22.2777C54.1639 22.9039 53.1011 23.2186 51.7297 23.2186C51.0488 23.2186 50.4666 23.19 49.9797 23.1296V15.7904C50.6161 15.6886 51.3034 15.6378 52.0416 15.6378C53.3493 15.6378 54.3357 15.9207 55.0007 16.4896C55.7452 17.1285 56.1175 18.0503 56.1175 19.2454Z" fill="white"/>
<path d="M61.568 20.4564C61.568 19.9605 61.4598 19.5346 61.2466 19.1786C60.9953 18.7495 60.6389 18.5334 60.1712 18.5334C59.6907 18.5334 59.3248 18.7495 59.0734 19.1786C58.8603 19.5346 58.7521 19.9669 58.7521 20.4754C58.7521 20.9713 58.8603 21.3972 59.0734 21.7532C59.3344 22.1823 59.6939 22.3952 60.1584 22.3952C60.6166 22.3952 60.9762 22.1759 61.2339 21.7405C61.4566 21.3813 61.568 20.9522 61.568 20.4564ZM62.8089 20.4182C62.8089 21.2446 62.5734 21.9216 62.0994 22.4556C61.6062 23.0023 60.9475 23.2757 60.1266 23.2757C59.3344 23.2757 58.7075 23.0151 58.2366 22.4906C57.7689 21.9661 57.5334 21.305 57.5334 20.5104C57.5334 19.6776 57.7753 18.9942 58.2589 18.4634C58.7425 17.9326 59.3948 17.6656 60.2157 17.6656C61.0048 17.6656 61.6412 17.9263 62.1216 18.4507C62.5798 18.9561 62.8089 19.614 62.8089 20.4182Z" fill="white"/>
<path d="M71.785 17.7705L70.1018 23.1518H69.0041L68.3041 20.8156C68.1259 20.2339 67.9827 19.6522 67.8713 19.0801H67.8491C67.7472 19.6713 67.6009 20.2498 67.4163 20.8156L66.675 23.1518H65.5677L63.9832 17.7705H65.2145L65.8222 20.3261C65.9686 20.9332 66.0927 21.5053 66.1882 22.052H66.2104C66.2995 21.6038 66.4459 21.0317 66.6527 20.3356L67.4163 17.7674H68.39L69.1218 20.2816C69.3 20.895 69.4432 21.4862 69.5545 22.052H69.5895C69.6722 21.4989 69.7932 20.9077 69.9554 20.2816L70.6077 17.7674H71.785" fill="white"/>
<path d="M77.9894 23.1517H76.793V20.0717C76.793 19.1214 76.4303 18.6478 75.708 18.6478C75.3517 18.6478 75.0653 18.7781 74.8426 19.0387C74.623 19.2994 74.5117 19.6077 74.5117 19.9605V23.1517H73.3153V19.3089C73.3153 18.8385 73.2994 18.3236 73.2708 17.7705H74.3207L74.378 18.6096H74.413C74.553 18.349 74.7598 18.1328 75.0335 17.9612C75.358 17.761 75.7207 17.6592 76.1185 17.6592C76.6212 17.6592 77.038 17.8213 77.3721 18.1456C77.7857 18.5429 77.9926 19.1373 77.9926 19.9287V23.1517" fill="white"/>
<path d="M81.2892 23.1518H80.0928V15.304H81.2892V23.1518Z" fill="white"/>
<path d="M87.0959 20.4564C87.0959 19.9605 86.9877 19.5346 86.7745 19.1786C86.5231 18.7495 86.1668 18.5334 85.7022 18.5334C85.2186 18.5334 84.8558 18.7495 84.6045 19.1786C84.3913 19.5346 84.2831 19.9669 84.2831 20.4754C84.2831 20.9713 84.3913 21.3972 84.6045 21.7532C84.8622 22.1823 85.2249 22.3952 85.6895 22.3952C86.1477 22.3952 86.504 22.1759 86.7618 21.7405C86.9877 21.3813 87.0959 20.9522 87.0959 20.4564ZM88.34 20.4182C88.34 21.2446 88.1013 21.9216 87.6304 22.4556C87.134 23.0023 86.4786 23.2757 85.6577 23.2757C84.8654 23.2757 84.2386 23.0151 83.7676 22.4906C83.2967 21.9661 83.0645 21.305 83.0645 20.5104C83.0645 19.6776 83.3063 18.9942 83.7899 18.4634C84.2736 17.9326 84.9258 17.6656 85.7436 17.6656C86.5359 17.6656 87.169 17.9263 87.6527 18.4507C88.1077 18.9561 88.34 19.614 88.34 20.4182Z" fill="white"/>
<path d="M92.8903 21.3019V20.4723C91.5698 20.45 90.9112 20.8124 90.9112 21.5562C90.9112 21.8359 90.9844 22.0456 91.1403 22.1855C91.2962 22.3254 91.4903 22.3953 91.7257 22.3953C91.9898 22.3953 92.2348 22.3126 92.4575 22.1474C92.6834 21.9821 92.8203 21.7691 92.8712 21.5117C92.8839 21.4544 92.8903 21.3845 92.8903 21.3019ZM94.1312 23.1518H93.0557L92.9666 22.532H92.9316C92.5625 23.0278 92.0407 23.2757 91.3598 23.2757C90.8507 23.2757 90.4403 23.1136 90.1317 22.7862C89.8517 22.4906 89.7117 22.1283 89.7117 21.6897C89.7117 21.0317 89.9853 20.5327 90.5358 20.1831C91.0862 19.8366 91.8594 19.6681 92.8585 19.6745V19.576C92.8585 18.8672 92.4862 18.5143 91.7416 18.5143C91.2103 18.5143 90.7426 18.6478 90.3385 18.9117L90.0935 18.1266C90.593 17.8183 91.2103 17.6625 91.9421 17.6625C93.3484 17.6625 94.0548 18.4031 94.0548 19.8875V21.8677C94.0548 22.4048 94.0803 22.8339 94.1312 23.1518Z" fill="white"/>
<path d="M99.6926 20.8822V19.9859C99.6926 19.8302 99.6799 19.7062 99.6576 19.6108C99.5908 19.3216 99.4476 19.0832 99.2249 18.8861C99.0022 18.6922 98.7349 18.5937 98.4231 18.5937C97.9776 18.5937 97.6276 18.7685 97.3699 19.1245C97.1154 19.4773 96.9849 19.9319 96.9849 20.4849C96.9849 21.0157 97.109 21.448 97.354 21.7786C97.6117 22.1314 97.9617 22.3094 98.4008 22.3094C98.7922 22.3094 99.1072 22.1632 99.3458 21.8676C99.5813 21.5942 99.6926 21.2668 99.6926 20.8822ZM100.934 23.1517H99.8708L99.8135 22.2872H99.7785C99.4381 22.9451 98.8622 23.2725 98.0508 23.2725C97.4017 23.2725 96.8608 23.0182 96.4345 22.5096C96.0049 22.0011 95.7917 21.34 95.7917 20.5294C95.7917 19.6585 96.024 18.9529 96.4917 18.4157C96.9436 17.9135 97.4972 17.6624 98.1558 17.6624C98.8781 17.6624 99.384 17.9072 99.6735 18.3935H99.6958V15.3071H100.895V21.7055C100.892 22.2268 100.905 22.7099 100.934 23.1517Z" fill="white"/>
<path d="M109.932 20.4564C109.932 19.9605 109.824 19.5346 109.611 19.1786C109.359 18.7495 109.003 18.5334 108.535 18.5334C108.055 18.5334 107.689 18.7495 107.437 19.1786C107.224 19.5346 107.116 19.9669 107.116 20.4754C107.116 20.9713 107.224 21.3972 107.437 21.7532C107.698 22.1823 108.058 22.3952 108.526 22.3952C108.984 22.3952 109.343 22.1759 109.601 21.7405C109.821 21.3813 109.932 20.9522 109.932 20.4564ZM111.173 20.4182C111.173 21.2446 110.937 21.9216 110.463 22.4556C109.967 23.0023 109.312 23.2757 108.491 23.2757C107.702 23.2757 107.072 23.0151 106.601 22.4906C106.133 21.9661 105.897 21.305 105.897 20.5104C105.897 19.6776 106.139 18.9942 106.623 18.4634C107.107 17.9326 107.759 17.6656 108.58 17.6656C109.369 17.6656 110.005 17.9263 110.482 18.4507C110.944 18.9561 111.173 19.614 111.173 20.4182Z" fill="white"/>
<path d="M117.61 23.1517H116.413V20.0717C116.413 19.1214 116.051 18.6478 115.325 18.6478C114.972 18.6478 114.682 18.7781 114.463 19.0387C114.243 19.2994 114.129 19.6077 114.129 19.9605V23.1517H112.932V19.3089C112.932 18.8385 112.92 18.3236 112.891 17.7705H113.941L113.998 18.6096H114.033C114.173 18.349 114.38 18.1328 114.654 17.9612C114.978 17.761 115.341 17.6592 115.739 17.6592C116.242 17.6592 116.658 17.8213 116.989 18.1456C117.403 18.5429 117.61 19.1373 117.61 19.9287V23.1517" fill="white"/>
<path d="M125.666 18.6669H124.348V21.2796C124.348 21.9439 124.581 22.2777 125.045 22.2777C125.262 22.2777 125.437 22.2586 125.58 22.2205L125.612 23.1295C125.373 23.2185 125.064 23.263 124.679 23.263C124.208 23.263 123.839 23.12 123.572 22.8308C123.305 22.5415 123.171 22.0584 123.171 21.3813V18.6701H122.385V17.7737H123.171V16.7884L124.345 16.4356V17.7737H125.663V18.6669" fill="white"/>
<path d="M132.004 23.1518H130.804V20.094C130.804 19.1278 130.442 18.6478 129.719 18.6478C129.163 18.6478 128.784 18.9275 128.577 19.4869C128.542 19.6045 128.52 19.7476 128.52 19.9192V23.1549H127.323V15.304H128.52V18.5461H128.545C128.921 17.9581 129.462 17.6625 130.162 17.6625C130.658 17.6625 131.069 17.8246 131.393 18.1488C131.8 18.5556 132.001 19.1564 132.001 19.9542V23.1518" fill="white"/>
<path d="M137.397 19.897C137.407 19.5442 137.331 19.2359 137.165 18.9784C136.958 18.6447 136.64 18.4794 136.211 18.4794C135.819 18.4794 135.501 18.6415 135.259 18.9657C135.062 19.2232 134.941 19.5346 134.903 19.897H137.397ZM138.54 20.2053C138.54 20.4215 138.524 20.5995 138.495 20.7488H134.906C134.922 21.2797 135.094 21.6865 135.425 21.9662C135.73 22.2173 136.121 22.3413 136.602 22.3413C137.133 22.3413 137.617 22.2555 138.053 22.087L138.241 22.9166C137.728 23.1391 137.13 23.2472 136.433 23.2472C135.6 23.2472 134.944 23.0024 134.467 22.5097C133.99 22.0203 133.754 21.3591 133.754 20.5359C133.754 19.7254 133.977 19.0483 134.419 18.508C134.884 17.9327 135.511 17.6466 136.303 17.6466C137.076 17.6466 137.668 17.9359 138.062 18.508C138.381 18.972 138.54 19.5378 138.54 20.2053Z" fill="white"/>
<path d="M131 6.98621L156.5 23.0808L156.5 34.5808L114 7.08071L131 6.98621Z" fill="#F8E71C"/>
<path d="M130.005 10.1191C129.86 10.0282 129.714 9.97298 129.567 9.95353C129.421 9.93495 129.277 9.95063 129.137 10.0006C128.997 10.0491 128.862 10.1308 128.732 10.2455C128.604 10.3588 128.485 10.503 128.375 10.6781C128.228 10.9126 128.134 11.1354 128.094 11.3466C128.055 11.5564 128.074 11.7492 128.152 11.9251C128.231 12.0995 128.374 12.2517 128.581 12.3816C128.709 12.4621 128.841 12.528 128.978 12.5794C129.115 12.6307 129.262 12.6757 129.418 12.7144L129.153 13.1363C129.001 13.1076 128.854 13.0648 128.715 13.0081C128.576 12.9514 128.424 12.8715 128.26 12.7685C127.952 12.5746 127.735 12.3494 127.612 12.093C127.49 11.8375 127.451 11.5616 127.497 11.2654C127.544 10.97 127.665 10.6658 127.861 10.3527C128.005 10.1238 128.168 9.93409 128.351 9.7836C128.533 9.63312 128.729 9.52702 128.936 9.46529C129.145 9.40219 129.361 9.38925 129.586 9.42646C129.813 9.46316 130.041 9.55379 130.271 9.69837C130.423 9.7936 130.561 9.90434 130.685 10.0306C130.812 10.1563 130.919 10.2896 131.005 10.4304L130.575 10.7309C130.501 10.6155 130.418 10.5039 130.327 10.3962C130.235 10.2885 130.127 10.1961 130.005 10.1191ZM132.439 13.7327C132.32 13.923 132.189 14.0763 132.047 14.1927C131.905 14.3091 131.754 14.3885 131.595 14.4308C131.437 14.4717 131.274 14.4771 131.107 14.4469C130.94 14.4153 130.773 14.3467 130.605 14.2411C130.448 14.1424 130.32 14.0257 130.222 13.8911C130.125 13.7551 130.059 13.6064 130.026 13.4451C129.995 13.2833 129.999 13.1122 130.039 12.9318C130.08 12.7513 130.159 12.5659 130.279 12.3756C130.437 12.1233 130.614 11.9368 130.811 11.8162C131.01 11.6951 131.219 11.6394 131.44 11.6491C131.661 11.6589 131.883 11.7343 132.108 11.8755C132.319 12.0079 132.476 12.171 132.579 12.3647C132.682 12.5584 132.724 12.772 132.705 13.0057C132.685 13.2393 132.596 13.4817 132.439 13.7327ZM130.779 12.6899C130.674 12.8567 130.605 13.012 130.57 13.1557C130.537 13.3003 130.544 13.4312 130.589 13.5483C130.636 13.664 130.727 13.7643 130.862 13.8491C130.997 13.934 131.127 13.9722 131.251 13.9638C131.376 13.9541 131.496 13.9024 131.61 13.8089C131.725 13.7154 131.834 13.5853 131.939 13.4184C132.043 13.2515 132.112 13.0976 132.145 12.9567C132.178 12.8144 132.171 12.686 132.124 12.5717C132.077 12.4559 131.986 12.3552 131.849 12.2695C131.648 12.1431 131.459 12.1185 131.282 12.1956C131.105 12.2728 130.937 12.4375 130.779 12.6899ZM136.325 14.5246C136.582 14.6856 136.733 14.873 136.78 15.0868C136.828 15.3014 136.76 15.5549 136.577 15.8473L135.638 17.3449L135.152 17.0398L136.036 15.629C136.145 15.4552 136.194 15.303 136.181 15.1723C136.169 15.0416 136.094 14.933 135.956 14.8464C135.763 14.7252 135.585 14.6999 135.422 14.7703C135.261 14.8402 135.107 14.9924 134.96 15.2268L134.199 16.4411L133.713 16.1359L134.597 14.7252C134.67 14.6093 134.715 14.5033 134.734 14.407C134.754 14.3102 134.746 14.2235 134.709 14.1468C134.674 14.0687 134.61 14.0006 134.517 13.9426C134.384 13.8586 134.258 13.8219 134.14 13.8324C134.023 13.8437 133.911 13.8978 133.802 13.9948C133.694 14.0904 133.586 14.2237 133.479 14.3947L132.762 15.5386L132.276 15.2334L133.712 12.9435L134.09 13.1811L133.965 13.5322L133.992 13.5491C134.089 13.4985 134.188 13.4694 134.289 13.4617C134.392 13.4534 134.494 13.4637 134.595 13.4926C134.697 13.52 134.794 13.5628 134.886 13.6208C135.057 13.7281 135.182 13.8489 135.261 13.9832C135.341 14.1161 135.372 14.2621 135.353 14.4212L135.39 14.4445C135.539 14.3654 135.697 14.3365 135.862 14.3577C136.028 14.3789 136.182 14.4346 136.325 14.5246ZM138.237 15.7861L136.802 18.076L136.316 17.7709L137.751 15.4809L138.237 15.7861ZM138.547 14.7584C138.622 14.8052 138.673 14.8654 138.702 14.9392C138.732 15.0138 138.716 15.1 138.655 15.198C138.594 15.2945 138.524 15.3461 138.443 15.3529C138.364 15.3591 138.287 15.3388 138.213 15.2921C138.135 15.2436 138.083 15.1825 138.054 15.1087C138.027 15.0345 138.044 14.9491 138.105 14.8525C138.166 14.7546 138.236 14.7021 138.313 14.695C138.392 14.6888 138.47 14.7099 138.547 14.7584ZM140.154 16.9296C140.412 17.0915 140.57 17.2843 140.63 17.5081C140.692 17.7314 140.63 17.9899 140.446 18.2837L139.51 19.7772L139.024 19.472L139.903 18.0695C140.015 17.8916 140.062 17.7356 140.044 17.6015C140.027 17.4659 139.942 17.3501 139.789 17.254C139.567 17.1147 139.37 17.086 139.198 17.1679C139.027 17.2508 138.86 17.4219 138.698 17.6811L137.984 18.8188L137.499 18.5137L138.934 16.2237L139.312 16.4614L139.186 16.8145L139.213 16.8314C139.313 16.7826 139.415 16.7556 139.52 16.7505C139.627 16.7448 139.735 16.7575 139.842 16.7884C139.951 16.8202 140.055 16.8673 140.154 16.9296ZM140.206 21.6325C139.895 21.4377 139.693 21.2326 139.597 21.017C139.502 20.8014 139.517 20.5929 139.644 20.3916C139.732 20.2509 139.851 20.1593 140 20.1168C140.149 20.0757 140.317 20.088 140.504 20.1538C140.46 20.0873 140.433 20.0107 140.424 19.9243C140.417 19.8373 140.436 19.7579 140.481 19.6862C140.534 19.6007 140.604 19.5427 140.69 19.5124C140.777 19.482 140.886 19.4688 141.018 19.4729C140.93 19.3465 140.885 19.2032 140.884 19.0429C140.885 18.882 140.934 18.7237 141.032 18.5678C141.135 18.4023 141.259 18.2837 141.402 18.2121C141.545 18.139 141.704 18.1145 141.877 18.1387C142.051 18.1615 142.234 18.233 142.425 18.3534C142.467 18.3794 142.51 18.4103 142.555 18.4461C142.602 18.4814 142.644 18.5155 142.681 18.5483C142.72 18.5807 142.748 18.6072 142.766 18.628L143.558 19.1253L143.388 19.3963L142.954 19.2246C142.958 19.3004 142.95 19.379 142.93 19.4604C142.911 19.5404 142.876 19.6198 142.827 19.6984C142.678 19.9356 142.479 20.0709 142.23 20.1044C141.982 20.1374 141.715 20.0639 141.429 19.8838C141.361 19.8378 141.298 19.7903 141.238 19.7413C141.17 19.7405 141.111 19.7504 141.061 19.7712C141.012 19.7906 140.974 19.8231 140.945 19.8686C140.922 19.9058 140.916 19.9444 140.928 19.9843C140.94 20.0228 140.968 20.0636 141.012 20.1067C141.058 20.1506 141.118 20.1959 141.192 20.2427L141.587 20.4907C141.838 20.6483 141.996 20.8217 142.062 21.011C142.128 21.2003 142.096 21.3977 141.967 21.6032C141.804 21.8638 141.571 21.9969 141.267 22.0025C140.963 22.0095 140.609 21.8862 140.206 21.6325ZM140.438 21.3029C140.608 21.4094 140.761 21.4824 140.897 21.5221C141.034 21.5617 141.151 21.5691 141.249 21.5443C141.347 21.5208 141.422 21.467 141.474 21.3829C141.521 21.3084 141.538 21.2395 141.526 21.1761C141.514 21.1128 141.475 21.0501 141.41 20.9882C141.346 20.9263 141.258 20.8607 141.148 20.7914L140.788 20.5655C140.698 20.5092 140.611 20.4732 140.524 20.4575C140.437 20.4432 140.358 20.4508 140.285 20.4803C140.214 20.5108 140.155 20.5639 140.108 20.6397C140.042 20.7445 140.037 20.8542 140.094 20.9688C140.153 21.0842 140.267 21.1956 140.438 21.3029ZM141.651 19.5795C141.793 19.6687 141.923 19.6963 142.04 19.6624C142.158 19.627 142.262 19.5384 142.351 19.3963C142.448 19.2419 142.484 19.1035 142.461 18.9813C142.439 18.8599 142.359 18.7555 142.219 18.668C142.083 18.5823 141.954 18.5563 141.833 18.5899C141.714 18.6243 141.606 18.7188 141.509 18.8732C141.421 19.0125 141.388 19.1435 141.409 19.2663C141.433 19.3885 141.513 19.4929 141.651 19.5795ZM145.587 22.683C145.492 22.8333 145.376 22.9372 145.238 22.9948C145.101 23.0523 144.944 23.0638 144.77 23.0293C144.598 22.9943 144.411 22.9131 144.208 22.7859C144.048 22.6854 143.918 22.5871 143.817 22.491C143.716 22.3971 143.63 22.2946 143.557 22.1837L143.82 21.7637C143.897 21.8832 143.991 22.0039 144.103 22.126C144.216 22.2489 144.333 22.3485 144.455 22.4247C144.615 22.5251 144.745 22.5726 144.847 22.5671C144.949 22.5602 145.026 22.5147 145.079 22.4306C145.11 22.3809 145.123 22.3277 145.119 22.2709C145.116 22.2136 145.089 22.14 145.038 22.0502C144.989 21.9598 144.909 21.8387 144.799 21.6867C144.691 21.5379 144.605 21.4034 144.542 21.2831C144.479 21.1629 144.448 21.046 144.448 20.9326C144.449 20.8179 144.489 20.6964 144.57 20.5681C144.697 20.3654 144.873 20.2618 145.099 20.2574C145.326 20.2526 145.573 20.3332 145.837 20.4994C145.978 20.5877 146.101 20.6853 146.207 20.7922C146.315 20.8986 146.412 21.0163 146.499 21.1454L146.116 21.4154C146.041 21.305 145.96 21.2024 145.874 21.1077C145.79 21.0124 145.694 20.931 145.586 20.8635C145.461 20.7847 145.353 20.7438 145.262 20.7409C145.173 20.7388 145.106 20.7736 145.062 20.8453C145.028 20.8991 145.015 20.9546 145.023 21.0117C145.032 21.0689 145.063 21.1403 145.117 21.226C145.172 21.3126 145.252 21.4272 145.357 21.5698C145.46 21.7079 145.543 21.8371 145.606 21.9573C145.672 22.0771 145.705 22.1952 145.707 22.3117C145.709 22.4282 145.669 22.552 145.587 22.683ZM148.449 23.789C148.33 23.9793 148.199 24.1326 148.057 24.249C147.915 24.3654 147.764 24.4448 147.605 24.4871C147.447 24.528 147.284 24.5334 147.117 24.5032C146.95 24.4716 146.783 24.403 146.615 24.2974C146.457 24.1987 146.33 24.0821 146.232 23.9474C146.135 23.8114 146.069 23.6627 146.036 23.5015C146.005 23.3397 146.009 23.1686 146.049 22.9881C146.089 22.8076 146.169 22.6223 146.289 22.432C146.447 22.1796 146.624 21.9931 146.821 21.8725C147.02 21.7514 147.229 21.6957 147.45 21.7055C147.67 21.7152 147.893 21.7907 148.118 21.9318C148.329 22.0642 148.486 22.2273 148.589 22.421C148.692 22.6147 148.734 22.8284 148.714 23.062C148.695 23.2957 148.606 23.538 148.449 23.789ZM146.789 22.7462C146.684 22.9131 146.615 23.0684 146.58 23.2121C146.547 23.3566 146.554 23.4875 146.599 23.6046C146.646 23.7203 146.737 23.8206 146.872 23.9055C147.007 23.9903 147.137 24.0285 147.261 24.0201C147.386 24.0104 147.506 23.9588 147.62 23.8653C147.735 23.7718 147.844 23.6416 147.949 23.4747C148.053 23.3079 148.122 23.154 148.154 23.013C148.188 22.8707 148.181 22.7423 148.134 22.628C148.087 22.5123 147.996 22.4115 147.859 22.3258C147.658 22.1994 147.469 22.1748 147.292 22.2519C147.115 22.3291 146.947 22.4938 146.789 22.7462ZM151.033 25.4122C150.914 25.6025 150.783 25.7559 150.641 25.8723C150.499 25.9887 150.348 26.068 150.189 26.1103C150.031 26.1513 149.868 26.1566 149.701 26.1265C149.534 26.0949 149.367 26.0263 149.199 25.9207C149.042 25.822 148.914 25.7053 148.816 25.5707C148.719 25.4346 148.653 25.286 148.62 25.1247C148.589 24.9629 148.593 24.7918 148.634 24.6113C148.674 24.4309 148.753 24.2455 148.873 24.0552C149.031 23.8028 149.208 23.6163 149.405 23.4957C149.604 23.3746 149.814 23.319 150.034 23.3287C150.255 23.3385 150.477 23.4139 150.702 23.555C150.913 23.6875 151.07 23.8506 151.173 24.0442C151.277 24.2379 151.318 24.4516 151.299 24.6853C151.279 24.9189 151.191 25.1612 151.033 25.4122ZM149.373 24.3695C149.268 24.5363 149.199 24.6916 149.165 24.8353C149.132 24.9799 149.138 25.1107 149.184 25.2278C149.23 25.3436 149.321 25.4439 149.456 25.5287C149.591 25.6135 149.721 25.6518 149.845 25.6434C149.97 25.6336 150.09 25.582 150.204 25.4885C150.319 25.395 150.428 25.2648 150.533 25.098C150.637 24.9311 150.706 24.7772 150.739 24.6363C150.772 24.4939 150.765 24.3656 150.718 24.2512C150.671 24.1355 150.58 24.0348 150.443 23.9491C150.242 23.8227 150.053 23.798 149.876 23.8752C149.699 23.9523 149.531 24.1171 149.373 24.3695ZM153.526 25.3289C153.784 25.4908 153.942 25.6837 154.002 25.9075C154.064 26.1307 154.002 26.3893 153.818 26.683L152.882 28.1765L152.396 27.8713L153.275 26.4688C153.387 26.291 153.434 26.1349 153.416 26.0008C153.399 25.8653 153.314 25.7495 153.161 25.6534C152.939 25.514 152.742 25.4853 152.57 25.5673C152.399 25.6501 152.232 25.8212 152.069 26.0804L151.356 27.2182L150.87 26.913L152.306 24.6231L152.684 24.8607L152.558 25.2138L152.585 25.2307C152.685 25.1819 152.787 25.1549 152.892 25.1498C152.999 25.1441 153.107 25.1568 153.214 25.1877C153.323 25.2195 153.427 25.2666 153.526 25.3289Z" fill="#03174C"/>
</svg>
