<svg width="246" height="165" viewBox="0 0 246 165" fill="none" xmlns="http://www.w3.org/2000/svg">
<rect width="246" height="165" rx="8" fill="white"/>
<path d="M62.4996 105.039C75.478 105.039 85.9992 94.733 85.9992 82.0196C85.9992 69.3062 75.478 59 62.4996 59C49.5211 59 39 69.3062 39 82.0196C39 94.733 49.5211 105.039 62.4996 105.039Z" fill="#F99D1C"/>
<path d="M61.9467 75.457C63.0081 75.4531 63.8758 76.2951 63.8798 77.3348C63.8838 78.3745 63.0243 79.2245 61.9629 79.2284C60.9015 79.2324 60.0338 78.3903 60.0298 77.3506C60.0258 76.3109 60.8854 75.461 61.9467 75.457Z" fill="white"/>
<path d="M48.3748 88.4671H43.641V86.9688H43.9921C44.2221 86.9688 44.2988 86.8384 44.2988 86.6328V81.9917C44.2988 81.7822 44.2221 81.6557 43.9921 81.6557H43.641V80.11H47.8946V81.4106C48.4636 80.4934 49.4765 79.936 50.5702 79.936C52.2531 79.936 52.8181 80.5962 53.0118 81.5727C53.5606 80.5646 54.6301 79.936 55.7964 79.936C57.9312 79.936 58.2178 80.9402 58.2178 82.4305V86.6367C58.2178 86.8423 58.3146 86.9728 58.5769 86.9728H58.8473V88.471H54.2104V86.9728H54.3516C54.5655 86.9728 54.6623 86.8423 54.6623 86.6367V82.814C54.6623 82.1261 54.4202 81.9008 53.9279 81.9008C53.2781 81.9008 53.0642 82.4305 53.0642 83.2449V86.6209C53.0642 86.8423 53.1651 86.9728 53.379 86.9728H53.5445V88.471H49.0286V86.9728H49.1577C49.3676 86.9728 49.4644 86.8423 49.4644 86.6367V82.814C49.4644 82.1261 49.2223 81.9008 48.734 81.9008C48.0842 81.9008 47.8704 82.4305 47.8704 83.2449V86.6209C47.8704 86.8423 47.9551 86.9728 48.1811 86.9728H48.3748V88.4671Z" fill="white"/>
<path d="M60.1831 81.9921C60.1831 81.7826 60.1024 81.6561 59.8723 81.6561H59.5212V80.1104H63.7546V86.6174C63.7546 86.8387 63.8353 86.9692 64.0654 86.9692H64.3842V88.4675H59.5212V86.9692H59.8723C60.1024 86.9692 60.1831 86.8387 60.1831 86.6332V81.9921Z" fill="white"/>
<path d="M69.8566 88.4671H65.1188V86.9688H65.4699C65.6999 86.9688 65.7806 86.8384 65.7806 86.6328V81.9917C65.7806 81.7822 65.6999 81.6557 65.4699 81.6557H65.1188V80.11H69.3522V81.4304C69.9817 80.4935 71.0512 79.9321 72.1973 79.9361C74.1748 79.9361 74.5985 80.9402 74.5985 82.4305V86.6368C74.5985 86.8423 74.6792 86.9728 74.9415 86.9728H75.2281V88.4711H70.4943V86.9728H70.688C70.8978 86.9728 70.9947 86.8423 70.9947 86.6368V82.814C70.9947 82.1261 70.7364 81.9008 70.2642 81.9008C69.7921 81.9008 69.336 82.2685 69.336 83.0868V86.6249C69.3158 86.7988 69.441 86.957 69.6185 86.9767C69.6427 86.9767 69.6629 86.9767 69.6871 86.9767H69.8405L69.8566 88.4671Z" fill="white"/>
<path d="M75.1514 80.1062L76.4065 80.0587L76.5598 78.1572H79.748V80.1062H81.2613V81.6875H79.748V85.4746C79.748 86.4629 79.9457 86.7871 81.0555 86.7871H81.338V88.4791C80.6358 88.5542 79.9296 88.5937 79.2233 88.5898C77.2055 88.5898 76.1764 87.977 76.1764 86.3246V81.6756H75.1514V80.1062Z" fill="white"/>
<path d="M88.0089 97.1091V96.6782L88.5335 96.5082C89.5222 96.2592 90.1881 95.3539 90.1195 94.3537V71.3183C90.1518 70.8558 90.0267 70.3932 89.7644 70.0058C89.4415 69.654 89.0097 69.4208 88.5335 69.3417L87.9645 69.2112V68.7764L96.0075 66.9263L96.5362 67.3216L96.3586 73.3503V88.076C96.3586 89.1394 96.3586 90.191 96.3828 91.2386C96.4071 92.2862 96.403 93.3259 96.403 94.3577C96.3788 94.8479 96.5039 95.3341 96.7541 95.7571C97.0406 96.1485 97.4604 96.4292 97.9406 96.5478L98.5137 96.6743V97.1052H88.0089V97.1091Z" fill="black"/>
<path d="M113.785 76.8131C115.645 77.5524 117.275 78.7541 118.518 80.2959C119.64 81.7349 120.302 83.4703 120.423 85.2769C120.536 87.2891 120.141 89.2974 119.277 91.1277C118.51 92.9936 117.259 94.6303 115.645 95.8716C114.164 96.9785 112.392 97.6466 110.536 97.8047C106.629 98.0538 102.84 96.4448 100.358 93.4799C99.22 92.0528 98.5218 90.341 98.3402 88.5423C98.1626 86.5222 98.5299 84.4942 99.4056 82.6599C100.18 80.7821 101.415 79.1257 103.001 77.8291C104.43 76.6945 106.161 75.9908 107.989 75.805C109.979 75.639 111.977 75.9869 113.785 76.8131ZM113.438 77.6037C112.63 77.2124 111.698 77.1531 110.847 77.4338C110.056 77.7184 109.236 78.4735 108.393 79.695C107.271 81.4305 106.307 83.2569 105.508 85.1544C104.624 87.0401 103.905 88.993 103.365 90.9973C103.026 92.4402 103.022 93.5392 103.365 94.3022C103.736 95.1047 104.418 95.7293 105.257 96.0416C106.072 96.429 107.009 96.4922 107.868 96.2195C108.675 95.9388 109.499 95.1877 110.342 93.9661C111.472 92.2069 112.441 90.3568 113.244 88.4316C114.124 86.5617 114.834 84.6168 115.371 82.6243C115.71 81.1854 115.706 80.0824 115.371 79.3155C114.979 78.5169 114.285 77.9002 113.438 77.5958V77.6037Z" fill="black"/>
<path d="M128.495 97.7575C127.409 97.7693 126.339 97.5479 125.351 97.1091C124.39 96.6703 123.603 95.939 123.111 95.0218C122.518 93.8398 122.251 92.5273 122.34 91.2109L122.473 80.1419C122.518 79.6438 122.393 79.1417 122.122 78.7187C121.836 78.4025 121.444 78.193 121.02 78.1179L120.492 77.9439V77.513L128.361 76.0068L128.801 76.4377L128.583 82.5534V92.9306C128.583 93.8477 128.854 94.5237 129.39 94.9546C129.976 95.3974 130.698 95.6267 131.437 95.599C132.183 95.6109 132.926 95.4923 133.632 95.2551C134.326 95.0021 134.976 94.6542 135.569 94.2193L135.743 80.1854C135.787 79.6991 135.678 79.2129 135.436 78.7859C135.137 78.4618 134.734 78.2562 134.294 78.2048L133.854 78.0783V77.6435L141.546 76.0068L141.986 76.4377L141.853 82.5534V94.2193C141.828 94.7214 141.917 95.2234 142.115 95.686C142.377 96.1011 142.785 96.4055 143.261 96.5478L143.701 96.6743V97.1052L136.005 97.5361L135.601 94.9981C134.641 95.7769 133.583 96.441 132.462 96.9747C131.215 97.5242 129.859 97.7891 128.495 97.7575Z" fill="black"/>
<path d="M143.261 97.1092V96.6783L143.878 96.5083C144.903 96.2197 145.416 95.5161 145.416 94.3973V80.9208C145.452 80.4345 145.347 79.9483 145.109 79.5213C144.811 79.1695 144.387 78.9442 143.923 78.8967L143.261 78.7228V78.2919L150.779 75.7974L151.219 76.2283L151.57 78.8097C152.608 77.9124 153.782 77.1731 155.045 76.6157C156.24 76.0623 157.543 75.7658 158.867 75.7539C160.8 75.7539 162.285 76.2718 163.33 77.3036C164.375 78.3354 164.892 79.9166 164.888 82.0474V94.4487C164.803 95.4686 165.526 96.3858 166.559 96.5597L166.962 96.6862V97.1171H156.591V96.6862L157.16 96.5162C158.132 96.279 158.786 95.3856 158.701 94.4052V80.6599C158.701 78.8137 157.761 77.8926 155.876 77.8926C154.585 77.8926 153.177 78.5251 151.655 79.7901V94.4171C151.655 95.5358 152.168 96.2395 153.193 96.5281L153.596 96.6546V97.0855L143.261 97.1092Z" fill="black"/>
<path d="M176.055 89.6611C174.287 89.7125 172.527 89.3725 170.913 88.6688V90.1355C170.849 90.938 171.454 91.6417 172.273 91.7168L180.538 93.2229C181.813 93.4522 183.061 93.7922 184.275 94.235C185.304 94.5947 186.228 95.2035 186.955 96.0021C187.673 96.8836 188.032 97.9945 187.968 99.1211C187.964 100.54 187.467 101.912 186.559 103.019C185.462 104.324 184.029 105.32 182.407 105.905C180.575 106.636 178.294 107.004 175.57 107C173.226 107 171.365 106.763 169.989 106.292C168.609 105.818 167.636 105.209 167.063 104.462C166.518 103.786 166.216 102.952 166.208 102.09C166.236 100.967 166.611 99.8762 167.285 98.967C167.971 97.947 168.879 97.0892 169.945 96.4488C169.17 96.1958 168.484 95.7332 167.967 95.1126C167.572 94.6066 167.354 93.9859 167.35 93.3494C167.35 92.7802 167.507 92.2188 167.814 91.7326C168.145 91.1949 168.52 90.685 168.932 90.2027L170.385 88.3961C168.246 87.1903 167.176 85.2928 167.176 82.7113C167.116 80.7822 167.947 78.9321 169.44 77.6749C170.95 76.3822 173.169 75.7339 176.099 75.7379C177.431 75.7141 178.754 75.8881 180.034 76.2518C181.059 76.5443 182.007 77.0424 182.822 77.7184C183.734 77.584 184.626 77.3429 185.482 77.0068C186.309 76.6827 187.076 76.2241 187.746 75.6509L188.363 76.0818V78.2758H183.395C185.744 81.0945 185.446 85.2177 182.713 87.6845C181.204 89.0049 178.985 89.665 176.055 89.6611ZM169.46 100.73C169.46 102.426 169.997 103.707 171.075 104.565C172.152 105.423 173.843 105.853 176.151 105.853C178.573 105.853 180.405 105.466 181.644 104.691C182.822 104.011 183.529 102.758 183.492 101.422C183.517 100.671 183.182 99.9553 182.588 99.4809C181.991 98.9946 180.974 98.623 179.533 98.3621L171.579 96.8994L170.877 96.7255C170.449 97.3343 170.11 98.0024 169.864 98.7021C169.614 99.3504 169.477 100.034 169.46 100.726V100.73ZM176.01 88.8072C177.076 88.8665 178.081 88.313 178.581 87.388C179.118 86.4392 179.388 84.8579 179.388 82.6441C179.388 80.4303 179.118 78.8728 178.581 77.9754C177.754 76.6471 175.986 76.2241 174.626 77.0306C174.218 77.2757 173.875 77.6117 173.637 78.0189C173.08 78.9518 172.802 80.5212 172.802 82.7311C172.802 84.9409 173.06 86.5025 173.573 87.4236C174.033 88.317 174.989 88.8586 176.01 88.8032V88.8072Z" fill="black"/>
<path d="M197.944 75.7539C199.643 75.7064 201.326 76.0978 202.823 76.8924C204.135 77.6198 205.208 78.695 205.922 79.9957C206.657 81.3674 207.028 82.9013 207 84.4509C207.008 84.7751 206.992 85.0993 206.956 85.4195C206.931 85.7199 206.875 86.0164 206.782 86.301H193.682C193.711 89.4043 194.276 91.6379 195.373 92.9978C196.471 94.3577 198.105 95.0377 200.277 95.0377C201.503 95.0851 202.722 94.8519 203.836 94.3498C204.809 93.8398 205.672 93.152 206.387 92.3258L206.822 92.7211C205.967 94.247 204.712 95.5239 203.19 96.4252C201.54 97.3503 199.663 97.8128 197.762 97.7614C195.829 97.797 193.92 97.3424 192.221 96.445C190.615 95.5753 189.304 94.2668 188.444 92.6776C187.492 90.871 187.024 88.8548 187.08 86.8229C187.015 84.7118 187.564 82.6206 188.67 80.8061C189.655 79.2169 191.063 77.9123 192.738 77.0386C194.336 76.1927 196.128 75.7539 197.944 75.7539ZM197.815 76.6157C197.02 76.5959 196.241 76.8608 195.636 77.3668C195.034 77.8688 194.566 78.7623 194.231 80.0352C193.84 81.8102 193.654 83.6247 193.682 85.4392H201.197C201.491 82.3122 201.374 80.0589 200.846 78.6792C200.442 77.3905 199.191 76.5366 197.815 76.6157Z" fill="black"/>
</svg>
