<svg width="246" height="165" viewBox="0 0 246 165" fill="none" xmlns="http://www.w3.org/2000/svg">
<rect width="246" height="165" rx="8" fill="white"/>
<path fill-rule="evenodd" clip-rule="evenodd" d="M75.9042 85.5351V97.9906H72V68.9372H75.9042V81.3927H80.3333V68.9372H84.303V97.9906H80.3333V85.5351H75.9042ZM92.3164 73.089V81.1865H97.6806V85.3383H92.3164V93.8482H99.0667V98H88.4041V68.9372H99.0667V73.089H92.3164ZM113.83 97.9906H109.803C109.59 97.2409 109.442 96.791 109.442 94.4199V89.8557C109.442 87.1565 108.647 86.1631 106.85 86.1631H105.481V97.9906H101.519V68.9372H107.49C111.591 68.9372 113.355 71.1396 113.355 75.6195V77.9063C113.355 80.896 112.526 82.8079 110.763 83.7545V83.8388C112.739 84.7948 113.387 86.9503 113.387 89.9775V94.4574C113.387 95.8632 113.42 96.9035 113.822 97.9813L113.83 97.9906ZM107.621 72.686H105.628V81.1209H107.244C108.786 81.1209 109.729 80.418 109.729 78.2156V75.507C109.729 73.5483 109.09 72.686 107.621 72.686ZM116.398 75.3758C116.398 70.6804 118.325 68 122.073 68C125.822 68 127.741 70.6804 127.741 75.3758V76.2943H124.099V75.0759C124.099 72.9766 123.402 72.1893 122.172 72.1893C120.942 72.1893 120.244 72.9859 120.244 75.0759C120.244 77.1659 121.015 78.806 123.533 81.4396C126.757 84.8322 127.766 87.2596 127.766 90.6148C127.766 95.3102 125.805 97.9906 122.024 97.9906C118.243 97.9906 116.283 95.3102 116.283 90.6148V88.8154H119.924V90.9147C119.924 93.0141 120.695 93.7638 121.918 93.7638C123.14 93.7638 123.911 93.0141 123.911 90.9147C123.911 88.8154 123.14 87.1846 120.622 84.5511C117.398 81.1584 116.381 78.731 116.389 75.3758H116.398ZM129.414 73.089V68.9372H141.717V73.089H137.559V97.9906H133.581V73.089H129.422H129.414ZM147.459 75.5726V91.3552C147.459 93.4452 148.246 94.2418 149.509 94.2418C150.772 94.2418 151.56 93.4452 151.56 91.3552V75.5726C151.56 73.4827 150.772 72.686 149.509 72.686C148.246 72.686 147.459 73.4827 147.459 75.5726ZM143.358 90.6242V75.3758C143.358 70.6804 145.531 68 149.509 68C153.487 68 155.661 70.6804 155.661 75.3758V90.6148C155.661 95.3102 153.487 97.9906 149.509 97.9906C145.531 97.9906 143.358 95.3102 143.358 90.6148V90.6242ZM170.424 98H166.397C166.184 97.2502 166.036 96.8004 166.036 94.4292V89.865C166.036 87.1659 165.249 86.1724 163.444 86.1724H162.075V98H158.121V68.9372H164.092C168.193 68.9372 169.957 71.1396 169.957 75.6195V77.9063C169.957 80.896 169.128 82.8079 167.365 83.7545V83.8388C169.342 84.7948 169.99 86.9503 169.99 89.9775V94.4574C169.99 95.8632 170.022 96.9035 170.424 97.9813V98ZM164.215 72.6954H162.222V81.1209H163.838C165.38 81.1209 166.323 80.418 166.323 78.2156V75.507C166.323 73.5483 165.684 72.686 164.215 72.686V72.6954ZM176.535 98V88.3749L171.245 68.9372H175.616L178.774 82.1799H178.848L182.006 68.9372H186L180.71 88.3655V97.9906H176.527L176.535 98Z" fill="#6354A3"/>
</svg>
