<svg width="99" height="128" viewBox="0 0 99 128" fill="none" xmlns="http://www.w3.org/2000/svg">
<path d="M44.4126 50.1439C70.0883 93.4621 123.424 112.497 170.743 95.2267C175.98 93.316 181.807 95.7147 184.193 100.752L193.931 121.302C196.63 127.002 193.885 133.774 187.993 136.031C172.97 141.783 157.262 145.038 141.154 145.72C121.855 146.538 102.813 143.651 84.552 137.135C66.291 130.619 49.7242 120.798 35.3109 107.949C23.2788 97.221 13.1841 84.7643 5.20376 70.8014C2.07506 65.3257 4.24238 58.3461 9.94308 55.6432L30.5006 45.9033C35.5402 43.5169 41.5734 45.3504 44.4126 50.1439Z" fill="#252D6C"/>
</svg>
