<svg width="13" height="14" viewBox="0 0 13 14" fill="none" xmlns="http://www.w3.org/2000/svg">
<path fill-rule="evenodd" clip-rule="evenodd" d="M7.91938 9.28287C7.43971 9.74676 6.81522 10.0024 6.16082 10.0024C4.73353 10.0024 3.57255 8.78999 3.57255 7.3C3.57255 5.81001 4.73353 4.59761 6.16082 4.59761C6.8145 4.59761 7.43871 4.85279 7.9181 5.31579C8.03444 5.42784 8.21532 5.42037 8.32264 5.29935C8.42997 5.17834 8.4231 4.98919 8.3069 4.87714C7.72119 4.3115 6.95918 4 6.16082 4C4.41785 4 3 5.48028 3 7.3C3 9.11972 4.41785 10.6 6.16067 10.6C6.95989 10.6 7.72248 10.288 8.30848 9.72136C8.42425 9.60931 8.43111 9.42002 8.32379 9.29915C8.21632 9.17799 8.03544 9.17082 7.91938 9.28287Z" fill="white"/>
<path d="M7.91938 9.28287C7.43971 9.74676 6.81522 10.0024 6.16082 10.0024C4.73353 10.0024 3.57255 8.78999 3.57255 7.3C3.57255 5.81001 4.73353 4.59761 6.16082 4.59761C6.8145 4.59761 7.43871 4.85279 7.9181 5.31579C8.03444 5.42784 8.21532 5.42037 8.32264 5.29935C8.42997 5.17834 8.4231 4.98919 8.3069 4.87714C7.72119 4.3115 6.95918 4 6.16082 4C4.41785 4 3 5.48028 3 7.3C3 9.11972 4.41785 10.6 6.16067 10.6C6.95989 10.6 7.72248 10.288 8.30848 9.72136C8.42425 9.60931 8.43111 9.42002 8.32379 9.29915C8.21632 9.17799 8.03544 9.17082 7.91938 9.28287" stroke="white" stroke-width="0.3"/>
<path fill-rule="evenodd" clip-rule="evenodd" d="M6 12.4286C3.05743 12.4286 0.571429 9.94257 0.571429 7C0.571429 4.05743 3.05743 1.57143 6 1.57143C8.94257 1.57143 11.4286 4.05743 11.4286 7C11.4286 9.94257 8.94257 12.4286 6 12.4286ZM6 1C2.74771 1 0 3.74757 0 7C0 10.2524 2.74771 13 6 13C9.25229 13 12 10.2524 12 7C12 3.74757 9.25229 1 6 1Z" fill="white"/>
<path d="M6 12.2786C3.14027 12.2786 0.721429 9.85973 0.721429 7H0.421429C0.421429 10.0254 2.97459 12.5786 6 12.5786V12.2786ZM0.721429 7C0.721429 4.14027 3.14027 1.72143 6 1.72143V1.42143C2.97459 1.42143 0.421429 3.97459 0.421429 7H0.721429ZM6 1.72143C8.85973 1.72143 11.2786 4.14027 11.2786 7H11.5786C11.5786 3.97459 9.02541 1.42143 6 1.42143V1.72143ZM11.2786 7C11.2786 9.85973 8.85973 12.2786 6 12.2786V12.5786C9.02541 12.5786 11.5786 10.0254 11.5786 7H11.2786ZM6 0.85C2.66487 0.85 -0.15 3.66473 -0.15 7H0.15C0.15 3.83042 2.83055 1.15 6 1.15V0.85ZM-0.15 7C-0.15 10.3353 2.66487 13.15 6 13.15V12.85C2.83055 12.85 0.15 10.1696 0.15 7H-0.15ZM6 13.15C9.33513 13.15 12.15 10.3353 12.15 7H11.85C11.85 10.1696 9.16945 12.85 6 12.85V13.15ZM12.15 7C12.15 3.66473 9.33513 0.85 6 0.85V1.15C9.16945 1.15 11.85 3.83042 11.85 7H12.15Z" fill="white"/>
</svg>
