<svg width="155" height="47" viewBox="0 0 155 47" fill="none" xmlns="http://www.w3.org/2000/svg">
<path d="M6.5787 0.541992H149.171C152.32 0.541992 154.875 3.10525 154.875 6.26355V40.5929C154.875 43.7512 152.32 46.3144 149.171 46.3144H6.5787C3.43026 46.3144 0.875 43.7512 0.875 40.5929V6.26355C0.875 3.10525 3.43026 0.541992 6.5787 0.541992Z" fill="black"/>
<path d="M149.171 1.45744C151.818 1.45744 153.962 3.60874 153.962 6.26355V40.5929C153.962 43.2477 151.818 45.399 149.171 45.399H6.5787C3.93219 45.399 1.78759 43.2477 1.78759 40.5929V6.26355C1.78759 3.60874 3.93219 1.45744 6.5787 1.45744H149.171ZM149.171 0.541992H6.5787C3.43026 0.541992 0.875 3.10525 0.875 6.26355V40.5929C0.875 43.7512 3.43026 46.3144 6.5787 46.3144H149.171C152.32 46.3144 154.875 43.7512 154.875 40.5929V6.26355C154.875 3.10525 152.32 0.541992 149.171 0.541992Z" fill="#A6A6A6"/>
<path d="M54.969 12.2596C55.0032 13.1064 54.6952 13.9303 54.1134 14.5483C53.4632 15.2348 52.5506 15.601 51.6038 15.5667C49.6189 15.5553 48.0219 13.9303 48.0333 11.9392C48.0447 11.0009 48.4097 10.0969 49.0827 9.42173C49.7444 8.74659 50.657 8.36897 51.6038 8.39185C52.0829 8.39185 52.562 8.4834 53.0069 8.67793C53.4176 8.84958 53.7826 9.11277 54.0792 9.44462L53.4746 10.0511C53.0183 9.50184 52.3225 9.20431 51.6038 9.23864C50.1436 9.2272 48.9573 10.4173 48.9459 11.882C48.9459 11.882 48.9459 11.9507 48.9459 11.985C48.923 13.4726 50.1094 14.697 51.6038 14.7199C52.3111 14.7313 53.0069 14.4567 53.5088 13.9647C53.8625 13.587 54.0678 13.0835 54.0792 12.5686H51.6038V11.7447H54.9234C54.9576 11.9163 54.969 12.088 54.969 12.2596Z" fill="white" stroke="white" stroke-width="0.2" stroke-miterlimit="10"/>
<path d="M60.1933 9.39903H57.1133V11.5732H59.9195V12.3971H57.1133V14.5713H60.1933V15.4181H56.2007V8.55225H60.1933V9.39903Z" fill="white" stroke="white" stroke-width="0.2" stroke-miterlimit="10"/>
<path d="M63.935 15.4181H63.0566V9.39903H61.1401V8.55225H65.897V9.39903H63.935V15.4181Z" fill="white" stroke="white" stroke-width="0.2" stroke-miterlimit="10"/>
<path d="M69.251 15.4181V8.55225H70.1293V15.4181H69.251Z" fill="white" stroke="white" stroke-width="0.2" stroke-miterlimit="10"/>
<path d="M74.0306 15.4181H73.1523V9.39903H71.2358V8.55225H75.9357V9.39903H74.0306V15.4181Z" fill="white" stroke="white" stroke-width="0.2" stroke-miterlimit="10"/>
<path d="M84.8452 14.5256C83.4535 15.9102 81.2177 15.9102 79.826 14.5256C78.4799 13.0952 78.4799 10.8638 79.826 9.43337C81.2062 8.04874 83.4421 8.04874 84.8224 9.43337C86.1799 10.8523 86.1913 13.0952 84.8452 14.5256ZM80.4762 13.9534C81.5028 14.9833 83.1683 14.9833 84.195 13.9534C85.2102 12.832 85.2102 11.1384 84.195 10.017C83.1683 8.98708 81.5028 8.98708 80.4762 10.017C79.4609 11.1384 79.4609 12.832 80.4762 13.9534Z" fill="white" stroke="white" stroke-width="0.2" stroke-miterlimit="10"/>
<path d="M87.0923 15.4181V8.55225H88.1646L91.4955 13.8962V8.55225H92.3739V15.4181H91.4613L87.9821 9.82243V15.4181H87.0923Z" fill="white" stroke="white" stroke-width="0.2" stroke-miterlimit="10"/>
<path d="M78.605 25.4308C75.9242 25.4422 73.7682 27.6279 73.7796 30.317C73.7911 33.0061 75.9699 35.1689 78.6506 35.1574C81.3199 35.146 83.4759 32.9718 83.4759 30.2941C83.5102 27.6507 81.3998 25.4651 78.7647 25.4308H78.605ZM78.605 33.2464C76.9851 33.3609 75.5706 32.1364 75.4565 30.5115C75.3425 28.8866 76.5631 27.4677 78.1829 27.3532C79.8028 27.2388 81.2173 28.4632 81.3313 30.0881C81.3313 30.0881 81.3313 30.0881 81.3313 30.0996C81.3313 30.1682 81.3313 30.2369 81.3313 30.2941C81.4112 31.8504 80.2134 33.1663 78.6734 33.2464C78.6734 33.2464 78.6734 33.2464 78.662 33.2464H78.605ZM67.9847 25.4308C65.3039 25.4422 63.1365 27.6164 63.1479 30.3055C63.1594 32.9947 65.3268 35.1689 68.0075 35.1574C70.6768 35.146 72.8442 32.9718 72.8442 30.2941C72.8785 27.6622 70.8023 25.488 68.1786 25.4308H68.0303H67.9847ZM67.9847 33.2464C66.3648 33.3723 64.9503 32.1479 64.8248 30.523C64.6994 28.898 65.9199 27.4791 67.5398 27.3532C69.1596 27.2274 70.5742 28.4518 70.6996 30.0767C70.6996 30.0767 70.6996 30.0767 70.6996 30.0881C70.6996 30.1568 70.6996 30.2254 70.6996 30.2941C70.7795 31.8504 69.5817 33.1663 68.0417 33.2464C68.0417 33.2464 68.0417 33.2464 68.0303 33.2464H67.9847ZM55.3339 26.9298V28.9896H60.2619C60.182 29.9623 59.7828 30.8777 59.1211 31.5872C58.1287 32.6056 56.7484 33.1549 55.3225 33.0977C52.2995 33.0977 49.8469 30.6374 49.8469 27.605C49.8469 24.5726 52.2995 22.1123 55.3225 22.1123C56.7142 22.0894 58.0488 22.6158 59.0527 23.5884L60.5014 22.1352C59.1325 20.7506 57.2731 19.9839 55.3339 19.9953C51.1702 19.8122 47.6567 23.0506 47.4742 27.2274C47.2917 31.4041 50.5199 34.9286 54.6837 35.1116C54.7065 35.1116 54.7293 35.1116 54.7521 35.1116H55.3339C59.0071 35.3176 62.1555 32.5026 62.3722 28.8179C62.3837 28.6005 62.3837 28.3831 62.3722 28.1657C62.3722 27.7308 62.338 27.296 62.2582 26.8726L55.3339 26.9298ZM107.021 28.5319C106.268 26.1746 103.747 24.8815 101.397 25.6368C99.5148 26.2432 98.2599 28.0169 98.2942 29.9966C98.2942 30.0996 98.2942 30.1911 98.2942 30.2941C98.2371 32.926 100.313 35.1002 102.937 35.1574H103.108C104.728 35.1689 106.245 34.3564 107.146 33.0061L105.492 31.8618C104.99 32.6972 104.089 33.2121 103.108 33.2121C102.093 33.2464 101.169 32.6628 100.758 31.7359L107.249 29.0468L107.021 28.5319ZM100.405 30.1568C100.302 28.6921 101.42 27.4219 102.88 27.3189C103.633 27.2731 104.34 27.6736 104.682 28.3488L100.405 30.1568ZM95.1343 34.8713H97.2675V20.5675H95.1343V34.8713ZM91.6436 26.5179H91.5638C90.9136 25.7855 89.9896 25.3736 89.0085 25.3736C86.3278 25.4994 84.2631 27.7881 84.3885 30.4772C84.514 32.9832 86.5103 34.9858 89.0085 35.1116C89.9896 35.1231 90.925 34.7111 91.5638 33.9673H91.6322V34.6654C91.6322 36.5306 90.6398 37.5261 89.0428 37.5261C87.9591 37.5033 86.9894 36.8167 86.6016 35.7982L84.7422 36.5764C85.4608 38.3272 87.1605 39.46 89.0428 39.4486C91.541 39.4486 93.6057 37.9724 93.6057 34.3793V25.7169H91.6436V26.5179ZM89.2025 33.2464C87.5826 33.0977 86.3734 31.6673 86.5217 30.0309C86.6472 28.6005 87.7765 27.4677 89.2025 27.3418C90.7082 27.4219 91.8718 28.715 91.7919 30.2254V30.2941C91.9174 31.7931 90.8109 33.1091 89.3165 33.235H89.2025V33.2464ZM117.014 20.5675H111.915V34.8713H114.048V29.4473H117.025C119.466 29.619 121.588 27.7766 121.771 25.3278C121.942 22.879 120.105 20.7506 117.664 20.5675C117.447 20.556 117.242 20.556 117.025 20.5675H117.014ZM117.014 27.4333H114.036V22.5586H117.059C118.405 22.5586 119.501 23.6571 119.501 25.0074C119.501 26.3577 118.405 27.4677 117.059 27.4677L117.014 27.4333ZM130.166 25.3736C128.581 25.2706 127.075 26.1288 126.356 27.5592L128.25 28.3488C128.626 27.6393 129.391 27.2274 130.189 27.296C131.319 27.1587 132.334 27.9712 132.471 29.104V29.2871C131.786 28.9209 131.022 28.7378 130.246 28.7378C128.204 28.7378 126.14 29.8822 126.14 31.9534C126.231 33.7614 127.748 35.1689 129.562 35.1002H129.653C130.748 35.1803 131.798 34.6539 132.391 33.727H132.459V34.8713H134.513V29.3672C134.513 26.8612 132.619 25.4079 130.189 25.4079L130.166 25.3736ZM129.904 33.2121C129.208 33.2121 128.239 32.8574 128.239 31.9991C128.239 30.8548 129.448 30.4772 130.52 30.4772C131.193 30.4657 131.866 30.626 132.459 30.9578C132.311 32.2394 131.25 33.2121 129.961 33.2464L129.904 33.2121ZM142.03 25.7169L139.589 31.919H139.521L136.988 25.7169H134.707L138.505 34.3907L136.338 39.2083H138.562L144.403 25.7169H142.03ZM122.854 34.8713H124.987V20.5675H122.854V34.8713Z" fill="white"/>
<path d="M12.7842 9.17007C12.4192 9.61635 12.2367 10.1885 12.2823 10.7721V36.0842C12.2481 36.6678 12.4306 37.24 12.807 37.6863L12.8869 37.7664L26.9979 23.5998V23.268L12.8641 9.08997L12.7842 9.17007Z" fill="url(#paint0_linear_3411_507)"/>
<path d="M31.6751 28.3258L26.998 23.5998V23.2679L31.6751 18.5305H31.7777L37.3788 21.7803C38.9758 22.6843 38.9758 24.1719 37.3788 25.0874L31.8006 28.2686L31.6751 28.3258Z" fill="url(#paint1_linear_3411_507)"/>
<path d="M31.8118 28.2572L26.9978 23.4282L12.7842 37.6863C13.4572 38.2814 14.4497 38.3042 15.1569 37.755L31.8118 28.2572Z" fill="url(#paint2_linear_3411_507)"/>
<path d="M31.8119 18.5993L15.1457 9.10153C14.4384 8.55226 13.446 8.57515 12.7729 9.17019L26.998 23.4283L31.8119 18.5993Z" fill="url(#paint3_linear_3411_507)"/>
<path opacity="0.2" d="M31.6749 28.1542L15.1455 37.5948C14.4725 38.0983 13.5371 38.0983 12.864 37.5948L12.7842 37.6749L12.864 37.755C13.5371 38.2699 14.4725 38.2699 15.1455 37.755L31.8118 28.2572L31.6749 28.1542Z" fill="black"/>
<path opacity="0.12" d="M12.7847 37.5268C12.4082 37.0803 12.2257 36.508 12.2599 35.9242V36.0959C12.2257 36.6797 12.4082 37.252 12.7847 37.6985L12.8645 37.6183L12.7847 37.5268Z" fill="black"/>
<path opacity="0.12" d="M37.3785 24.9158L31.6748 28.1542L31.7775 28.2572L37.3785 25.076C38.0287 24.7671 38.4622 24.1377 38.5192 23.4282C38.3937 24.069 37.9717 24.6183 37.3785 24.9158Z" fill="black"/>
<path opacity="0.25" d="M15.1455 9.2617L37.3785 21.9407C37.9717 22.2382 38.3938 22.7874 38.5193 23.4283C38.4622 22.7188 38.0288 22.0894 37.3785 21.7804L15.1455 9.10149C13.5485 8.19749 12.2822 8.95273 12.2822 10.7836V10.9553C12.2822 9.11294 13.5599 8.35769 15.1455 9.2617Z" fill="white"/>
<defs>
<linearGradient id="paint0_linear_3411_507" x1="25.7488" y1="10.5146" x2="6.54733" y2="29.6562" gradientUnits="userSpaceOnUse">
<stop stop-color="#00A0FF"/>
<stop offset="0.01" stop-color="#00A1FF"/>
<stop offset="0.26" stop-color="#00BEFF"/>
<stop offset="0.51" stop-color="#00D2FF"/>
<stop offset="0.76" stop-color="#00DFFF"/>
<stop offset="1" stop-color="#00E3FF"/>
</linearGradient>
<linearGradient id="paint1_linear_3411_507" x1="39.4663" y1="23.4281" x2="11.8719" y2="23.4281" gradientUnits="userSpaceOnUse">
<stop stop-color="#FFE000"/>
<stop offset="0.41" stop-color="#FFBD00"/>
<stop offset="0.78" stop-color="#FFA500"/>
<stop offset="1" stop-color="#FF9C00"/>
</linearGradient>
<linearGradient id="paint2_linear_3411_507" x1="29.1966" y1="26.0572" x2="3.15229" y2="52.0089" gradientUnits="userSpaceOnUse">
<stop stop-color="#FF3A44"/>
<stop offset="1" stop-color="#C31162"/>
</linearGradient>
<linearGradient id="paint3_linear_3411_507" x1="9.19958" y1="0.750929" x2="20.8257" y2="12.3408" gradientUnits="userSpaceOnUse">
<stop stop-color="#32A071"/>
<stop offset="0.07" stop-color="#2DA771"/>
<stop offset="0.48" stop-color="#15CF74"/>
<stop offset="0.8" stop-color="#06E775"/>
<stop offset="1" stop-color="#00F076"/>
</linearGradient>
</defs>
</svg>
