<svg width="1440" height="259" viewBox="0 0 1440 259" fill="none" xmlns="http://www.w3.org/2000/svg">
<rect y="53" width="1440" height="142" fill="#937DE2"/>
<g filter="url(#filter0_d_7_53)">
<rect x="318.244" y="23.7062" width="200" height="200" rx="8" fill="#937DE2"/>
</g>
<path d="M577.795 107.462L576.259 103.101H570.254L568.718 107.462H566L571.844 91.6929H574.701L580.534 107.462H577.795ZM575.593 100.888L574.1 96.5913C574.042 96.4051 573.96 96.1437 573.853 95.8071C573.745 95.4634 573.638 95.116 573.53 94.7651C573.423 94.4071 573.333 94.1063 573.262 93.8628C573.19 94.1564 573.101 94.4858 572.993 94.8511C572.893 95.2091 572.793 95.5457 572.692 95.8608C572.599 96.1759 572.528 96.4194 572.478 96.5913L570.974 100.888H575.593ZM590.522 91.7573H595.195C597.222 91.7573 598.751 92.0509 599.782 92.6382C600.813 93.2254 601.329 94.2388 601.329 95.6782C601.329 96.2798 601.221 96.8241 601.007 97.311C600.799 97.7909 600.495 98.1883 600.094 98.5034C599.693 98.8114 599.198 99.019 598.611 99.1265V99.2339C599.22 99.3413 599.761 99.5311 600.233 99.8032C600.713 100.075 601.089 100.466 601.361 100.974C601.64 101.483 601.78 102.141 601.78 102.951C601.78 103.91 601.551 104.727 601.093 105.4C600.641 106.073 599.993 106.585 599.148 106.936C598.31 107.287 597.315 107.462 596.162 107.462H590.522V91.7573ZM593.1 98.2349H595.571C596.738 98.2349 597.548 98.0451 597.999 97.6655C598.45 97.286 598.676 96.731 598.676 96.0005C598.676 95.2557 598.407 94.7186 597.87 94.3892C597.34 94.0597 596.495 93.895 595.335 93.895H593.1V98.2349ZM593.1 100.319V105.303H595.818C597.021 105.303 597.866 105.07 598.353 104.605C598.84 104.139 599.084 103.509 599.084 102.714C599.084 102.227 598.973 101.805 598.751 101.447C598.536 101.089 598.181 100.813 597.687 100.62C597.193 100.419 596.527 100.319 595.689 100.319H593.1ZM608.391 95.5708V107.462H605.866V95.5708H608.391ZM607.145 91.0161C607.531 91.0161 607.864 91.12 608.144 91.3276C608.43 91.5353 608.573 91.8934 608.573 92.4019C608.573 92.9032 608.43 93.2612 608.144 93.4761C607.864 93.6838 607.531 93.7876 607.145 93.7876C606.744 93.7876 606.404 93.6838 606.124 93.4761C605.852 93.2612 605.716 92.9032 605.716 92.4019C605.716 91.8934 605.852 91.5353 606.124 91.3276C606.404 91.12 606.744 91.0161 607.145 91.0161ZM616.505 112.748C614.894 112.748 613.659 112.458 612.799 111.877C611.94 111.297 611.51 110.485 611.51 109.439C611.51 108.708 611.74 108.089 612.198 107.581C612.656 107.079 613.311 106.732 614.164 106.539C613.841 106.395 613.562 106.173 613.326 105.873C613.097 105.565 612.982 105.224 612.982 104.852C612.982 104.408 613.107 104.028 613.358 103.713C613.609 103.398 613.985 103.094 614.486 102.8C613.863 102.535 613.362 102.106 612.982 101.511C612.61 100.91 612.423 100.204 612.423 99.395C612.423 98.5356 612.606 97.8052 612.971 97.2036C613.337 96.5949 613.87 96.133 614.572 95.8179C615.274 95.4956 616.122 95.3345 617.118 95.3345C617.333 95.3345 617.565 95.3488 617.816 95.3774C618.074 95.3989 618.31 95.4276 618.525 95.4634C618.747 95.492 618.915 95.5243 619.03 95.5601H623.144V96.9673L621.125 97.3433C621.318 97.6154 621.472 97.9269 621.587 98.2778C621.701 98.6216 621.758 98.9976 621.758 99.4058C621.758 100.638 621.332 101.608 620.48 102.317C619.635 103.019 618.468 103.37 616.978 103.37C616.62 103.355 616.273 103.327 615.936 103.284C615.678 103.441 615.481 103.617 615.345 103.81C615.209 103.996 615.141 104.208 615.141 104.444C615.141 104.637 615.209 104.795 615.345 104.917C615.481 105.031 615.682 105.117 615.947 105.174C616.219 105.232 616.548 105.26 616.935 105.26H618.987C620.29 105.26 621.286 105.536 621.973 106.087C622.661 106.639 623.004 107.448 623.004 108.515C623.004 109.869 622.446 110.911 621.329 111.641C620.212 112.379 618.604 112.748 616.505 112.748ZM616.602 110.975C617.483 110.975 618.224 110.889 618.826 110.717C619.427 110.545 619.882 110.298 620.19 109.976C620.498 109.661 620.652 109.285 620.652 108.848C620.652 108.461 620.555 108.164 620.362 107.957C620.169 107.749 619.879 107.606 619.492 107.527C619.105 107.448 618.625 107.409 618.052 107.409H616.183C615.718 107.409 615.306 107.48 614.948 107.624C614.59 107.774 614.31 107.989 614.11 108.268C613.917 108.547 613.82 108.884 613.82 109.278C613.82 109.822 614.06 110.241 614.54 110.535C615.027 110.828 615.714 110.975 616.602 110.975ZM617.096 101.715C617.834 101.715 618.382 101.515 618.74 101.114C619.098 100.706 619.277 100.133 619.277 99.395C619.277 98.5929 619.091 97.9914 618.718 97.5903C618.353 97.1893 617.809 96.9888 617.086 96.9888C616.377 96.9888 615.836 97.1929 615.463 97.6011C615.098 98.0093 614.916 98.6144 614.916 99.4165C614.916 100.14 615.098 100.706 615.463 101.114C615.836 101.515 616.38 101.715 617.096 101.715ZM639.825 98.9331H645.69V106.818C644.866 107.09 644.014 107.301 643.133 107.452C642.252 107.602 641.264 107.677 640.168 107.677C638.571 107.677 637.218 107.362 636.108 106.732C635.005 106.095 634.167 105.174 633.594 103.971C633.021 102.761 632.735 101.304 632.735 99.5991C632.735 97.9591 633.053 96.5376 633.691 95.3345C634.328 94.1242 635.256 93.1896 636.473 92.5308C637.69 91.8647 639.166 91.5317 640.899 91.5317C641.751 91.5317 642.575 91.6177 643.37 91.7896C644.172 91.9543 644.906 92.1834 645.572 92.4771L644.669 94.604C644.139 94.3534 643.545 94.1421 642.886 93.9702C642.227 93.7983 641.543 93.7124 640.834 93.7124C639.71 93.7124 638.74 93.9559 637.923 94.4429C637.114 94.9299 636.491 95.6174 636.054 96.5054C635.617 97.3862 635.399 98.4282 635.399 99.6313C635.399 100.799 635.574 101.823 635.925 102.704C636.276 103.584 636.824 104.272 637.569 104.766C638.321 105.253 639.291 105.497 640.48 105.497C641.074 105.497 641.579 105.464 641.995 105.4C642.41 105.335 642.793 105.264 643.144 105.185V101.135H639.825V98.9331ZM660.819 101.49C660.819 102.478 660.69 103.355 660.432 104.122C660.175 104.888 659.799 105.536 659.304 106.066C658.81 106.589 658.216 106.99 657.521 107.269C656.827 107.541 656.042 107.677 655.169 107.677C654.352 107.677 653.604 107.541 652.924 107.269C652.243 106.99 651.652 106.589 651.151 106.066C650.657 105.536 650.274 104.888 650.002 104.122C649.73 103.355 649.594 102.478 649.594 101.49C649.594 100.179 649.819 99.0692 650.27 98.1597C650.729 97.243 651.38 96.5448 652.225 96.0649C653.07 95.5851 654.077 95.3452 655.244 95.3452C656.34 95.3452 657.306 95.5851 658.144 96.0649C658.982 96.5448 659.637 97.243 660.11 98.1597C660.583 99.0763 660.819 100.186 660.819 101.49ZM652.193 101.49C652.193 102.356 652.297 103.097 652.505 103.713C652.72 104.329 653.049 104.802 653.493 105.131C653.937 105.454 654.51 105.615 655.212 105.615C655.914 105.615 656.486 105.454 656.93 105.131C657.374 104.802 657.7 104.329 657.908 103.713C658.116 103.097 658.22 102.356 658.22 101.49C658.22 100.623 658.116 99.8892 657.908 99.2876C657.7 98.6789 657.374 98.217 656.93 97.9019C656.486 97.5796 655.91 97.4185 655.201 97.4185C654.155 97.4185 653.393 97.7694 652.913 98.4712C652.433 99.173 652.193 100.179 652.193 101.49ZM669.482 95.3452C670.986 95.3452 672.121 95.6782 672.887 96.3442C673.66 97.0103 674.047 98.0487 674.047 99.4595V107.462H672.253L671.77 105.776H671.684C671.347 106.206 671 106.56 670.642 106.839C670.284 107.119 669.868 107.326 669.396 107.462C668.93 107.606 668.361 107.677 667.688 107.677C666.979 107.677 666.345 107.548 665.786 107.291C665.228 107.026 664.787 106.625 664.465 106.087C664.143 105.55 663.982 104.87 663.982 104.046C663.982 102.822 664.436 101.902 665.346 101.286C666.263 100.67 667.645 100.33 669.492 100.265L671.555 100.19V99.5669C671.555 98.7433 671.362 98.1561 670.975 97.8052C670.595 97.4543 670.058 97.2788 669.363 97.2788C668.769 97.2788 668.193 97.3647 667.634 97.5366C667.075 97.7085 666.531 97.9198 666.001 98.1704L665.185 96.3872C665.765 96.0793 666.424 95.8286 667.161 95.6353C667.906 95.4419 668.68 95.3452 669.482 95.3452ZM671.544 101.78L670.008 101.833C668.748 101.876 667.863 102.091 667.355 102.478C666.846 102.865 666.592 103.395 666.592 104.068C666.592 104.655 666.767 105.085 667.118 105.357C667.469 105.622 667.931 105.754 668.504 105.754C669.378 105.754 670.101 105.507 670.674 105.013C671.254 104.512 671.544 103.778 671.544 102.811V101.78ZM681.216 107.462H678.681V90.7476H681.216V107.462ZM698.939 95.3452C700.278 95.3452 701.32 95.6925 702.065 96.3872C702.817 97.0747 703.193 98.1812 703.193 99.7065V107.462H700.668V100.179C700.668 99.2554 700.479 98.5643 700.099 98.106C699.719 97.6405 699.132 97.4077 698.337 97.4077C697.184 97.4077 696.382 97.7622 695.931 98.4712C695.487 99.1802 695.265 100.208 695.265 101.554V107.462H692.741V95.5708H694.706L695.061 97.1821H695.201C695.458 96.7668 695.777 96.4266 696.157 96.1616C696.543 95.8895 696.973 95.6854 697.446 95.5493C697.926 95.4132 698.423 95.3452 698.939 95.3452ZM712.564 95.3452C713.624 95.3452 714.534 95.5636 715.293 96.0005C716.052 96.4373 716.636 97.0568 717.044 97.8589C717.452 98.661 717.656 99.6206 717.656 100.738V102.091H709.718C709.746 103.244 710.054 104.132 710.641 104.755C711.236 105.378 712.067 105.69 713.134 105.69C713.893 105.69 714.573 105.618 715.175 105.475C715.783 105.325 716.41 105.106 717.054 104.82V106.872C716.46 107.151 715.855 107.355 715.239 107.484C714.623 107.613 713.886 107.677 713.026 107.677C711.859 107.677 710.831 107.452 709.943 107C709.062 106.542 708.371 105.862 707.87 104.959C707.376 104.057 707.129 102.936 707.129 101.597C707.129 100.265 707.354 99.1336 707.805 98.2026C708.257 97.2716 708.89 96.5627 709.707 96.0757C710.523 95.5887 711.476 95.3452 712.564 95.3452ZM712.564 97.2466C711.769 97.2466 711.125 97.5044 710.631 98.02C710.144 98.5356 709.857 99.2912 709.771 100.287H715.185C715.178 99.6922 715.078 99.1659 714.885 98.7075C714.698 98.2492 714.412 97.8911 714.025 97.6333C713.646 97.3755 713.159 97.2466 712.564 97.2466ZM726.34 95.3452C727.4 95.3452 728.309 95.5636 729.069 96.0005C729.828 96.4373 730.411 97.0568 730.82 97.8589C731.228 98.661 731.432 99.6206 731.432 100.738V102.091H723.493C723.522 103.244 723.83 104.132 724.417 104.755C725.012 105.378 725.842 105.69 726.909 105.69C727.668 105.69 728.349 105.618 728.95 105.475C729.559 105.325 730.186 105.106 730.83 104.82V106.872C730.236 107.151 729.631 107.355 729.015 107.484C728.399 107.613 727.661 107.677 726.802 107.677C725.635 107.677 724.607 107.452 723.719 107C722.838 106.542 722.147 105.862 721.646 104.959C721.152 104.057 720.904 102.936 720.904 101.597C720.904 100.265 721.13 99.1336 721.581 98.2026C722.032 97.2716 722.666 96.5627 723.483 96.0757C724.299 95.5887 725.252 95.3452 726.34 95.3452ZM726.34 97.2466C725.545 97.2466 724.901 97.5044 724.406 98.02C723.919 98.5356 723.633 99.2912 723.547 100.287H728.961C728.954 99.6922 728.854 99.1659 728.66 98.7075C728.474 98.2492 728.188 97.8911 727.801 97.6333C727.421 97.3755 726.934 97.2466 726.34 97.2466ZM739.375 107.677C737.957 107.677 736.818 107.162 735.959 106.13C735.106 105.092 734.68 103.563 734.68 101.543C734.68 99.5024 735.114 97.9591 735.98 96.9136C736.854 95.868 738.003 95.3452 739.428 95.3452C740.03 95.3452 740.556 95.4276 741.007 95.5923C741.459 95.7498 741.845 95.9647 742.168 96.2368C742.497 96.509 742.776 96.8133 743.005 97.1499H743.124C743.088 96.9279 743.045 96.6092 742.995 96.1938C742.952 95.7713 742.93 95.381 742.93 95.0229V90.7476H745.465V107.462H743.489L743.038 105.84H742.93C742.715 106.184 742.443 106.496 742.114 106.775C741.792 107.047 741.405 107.265 740.954 107.43C740.51 107.595 739.983 107.677 739.375 107.677ZM740.084 105.625C741.165 105.625 741.928 105.314 742.372 104.691C742.816 104.068 743.045 103.133 743.059 101.887V101.554C743.059 100.222 742.844 99.2017 742.415 98.4927C741.985 97.7765 741.201 97.4185 740.062 97.4185C739.153 97.4185 738.458 97.7873 737.978 98.5249C737.505 99.2554 737.269 100.276 737.269 101.586C737.269 102.897 737.505 103.9 737.978 104.594C738.458 105.282 739.16 105.625 740.084 105.625ZM758.178 104.068C758.178 104.848 757.988 105.507 757.608 106.044C757.229 106.582 756.674 106.99 755.943 107.269C755.22 107.541 754.332 107.677 753.279 107.677C752.449 107.677 751.732 107.616 751.131 107.495C750.536 107.38 749.974 107.201 749.444 106.958V104.777C750.01 105.042 750.644 105.271 751.346 105.464C752.055 105.658 752.724 105.754 753.354 105.754C754.185 105.754 754.783 105.625 755.148 105.368C755.514 105.103 755.696 104.752 755.696 104.315C755.696 104.057 755.621 103.828 755.471 103.627C755.327 103.42 755.055 103.208 754.654 102.994C754.26 102.772 753.68 102.507 752.914 102.199C752.162 101.898 751.528 101.597 751.013 101.296C750.497 100.996 750.107 100.634 749.842 100.211C749.577 99.7817 749.444 99.2339 749.444 98.5679C749.444 97.5151 749.86 96.7166 750.69 96.1724C751.528 95.6209 752.635 95.3452 754.01 95.3452C754.74 95.3452 755.428 95.4204 756.072 95.5708C756.724 95.714 757.361 95.9253 757.984 96.2046L757.189 98.106C756.652 97.8696 756.112 97.6763 755.567 97.5259C755.03 97.3683 754.482 97.2896 753.924 97.2896C753.272 97.2896 752.774 97.3898 752.431 97.5903C752.094 97.7909 751.926 98.0773 751.926 98.4497C751.926 98.729 752.008 98.9653 752.173 99.1587C752.338 99.3521 752.62 99.5454 753.021 99.7388C753.43 99.9321 753.995 100.172 754.719 100.458C755.428 100.731 756.04 101.017 756.556 101.318C757.078 101.611 757.479 101.973 757.759 102.403C758.038 102.833 758.178 103.388 758.178 104.068ZM772.216 112.748C770.604 112.748 769.369 112.458 768.51 111.877C767.65 111.297 767.221 110.485 767.221 109.439C767.221 108.708 767.45 108.089 767.908 107.581C768.366 107.079 769.022 106.732 769.874 106.539C769.552 106.395 769.272 106.173 769.036 105.873C768.807 105.565 768.692 105.224 768.692 104.852C768.692 104.408 768.818 104.028 769.068 103.713C769.319 103.398 769.695 103.094 770.196 102.8C769.573 102.535 769.072 102.106 768.692 101.511C768.32 100.91 768.134 100.204 768.134 99.395C768.134 98.5356 768.316 97.8052 768.681 97.2036C769.047 96.5949 769.58 96.133 770.282 95.8179C770.984 95.4956 771.832 95.3345 772.828 95.3345C773.043 95.3345 773.276 95.3488 773.526 95.3774C773.784 95.3989 774.02 95.4276 774.235 95.4634C774.457 95.492 774.625 95.5243 774.74 95.5601H778.854V96.9673L776.835 97.3433C777.028 97.6154 777.182 97.9269 777.297 98.2778C777.411 98.6216 777.469 98.9976 777.469 99.4058C777.469 100.638 777.042 101.608 776.19 102.317C775.345 103.019 774.178 103.37 772.688 103.37C772.33 103.355 771.983 103.327 771.646 103.284C771.388 103.441 771.192 103.617 771.055 103.81C770.919 103.996 770.851 104.208 770.851 104.444C770.851 104.637 770.919 104.795 771.055 104.917C771.192 105.031 771.392 105.117 771.657 105.174C771.929 105.232 772.259 105.26 772.645 105.26H774.697C776 105.26 776.996 105.536 777.683 106.087C778.371 106.639 778.715 107.448 778.715 108.515C778.715 109.869 778.156 110.911 777.039 111.641C775.922 112.379 774.314 112.748 772.216 112.748ZM772.312 110.975C773.193 110.975 773.934 110.889 774.536 110.717C775.137 110.545 775.592 110.298 775.9 109.976C776.208 109.661 776.362 109.285 776.362 108.848C776.362 108.461 776.265 108.164 776.072 107.957C775.879 107.749 775.589 107.606 775.202 107.527C774.815 107.448 774.335 107.409 773.762 107.409H771.893C771.428 107.409 771.016 107.48 770.658 107.624C770.3 107.774 770.021 107.989 769.82 108.268C769.627 108.547 769.53 108.884 769.53 109.278C769.53 109.822 769.77 110.241 770.25 110.535C770.737 110.828 771.424 110.975 772.312 110.975ZM772.806 101.715C773.544 101.715 774.092 101.515 774.45 101.114C774.808 100.706 774.987 100.133 774.987 99.395C774.987 98.5929 774.801 97.9914 774.429 97.5903C774.063 97.1893 773.519 96.9888 772.796 96.9888C772.087 96.9888 771.546 97.1929 771.174 97.6011C770.808 98.0093 770.626 98.6144 770.626 99.4165C770.626 100.14 770.808 100.706 771.174 101.114C771.546 101.515 772.09 101.715 772.806 101.715ZM788.151 95.3452C788.351 95.3452 788.57 95.356 788.806 95.3774C789.042 95.3989 789.246 95.4276 789.418 95.4634L789.182 97.8267C789.031 97.7837 788.845 97.7515 788.623 97.73C788.408 97.7085 788.215 97.6978 788.043 97.6978C787.592 97.6978 787.162 97.7729 786.754 97.9233C786.346 98.0666 785.984 98.2886 785.669 98.5894C785.354 98.883 785.107 99.2518 784.928 99.6958C784.749 100.14 784.659 100.655 784.659 101.243V107.462H782.124V95.5708H784.101L784.445 97.6655H784.563C784.799 97.243 785.093 96.8563 785.444 96.5054C785.794 96.1545 786.196 95.8752 786.647 95.6675C787.105 95.4526 787.606 95.3452 788.151 95.3452ZM797.458 95.3452C798.518 95.3452 799.427 95.5636 800.186 96.0005C800.945 96.4373 801.529 97.0568 801.937 97.8589C802.345 98.661 802.549 99.6206 802.549 100.738V102.091H794.611C794.64 103.244 794.948 104.132 795.535 104.755C796.129 105.378 796.96 105.69 798.027 105.69C798.786 105.69 799.466 105.618 800.068 105.475C800.677 105.325 801.303 105.106 801.948 104.82V106.872C801.353 107.151 800.748 107.355 800.132 107.484C799.517 107.613 798.779 107.677 797.92 107.677C796.752 107.677 795.725 107.452 794.837 107C793.956 106.542 793.265 105.862 792.763 104.959C792.269 104.057 792.022 102.936 792.022 101.597C792.022 100.265 792.248 99.1336 792.699 98.2026C793.15 97.2716 793.784 96.5627 794.6 96.0757C795.417 95.5887 796.369 95.3452 797.458 95.3452ZM797.458 97.2466C796.663 97.2466 796.018 97.5044 795.524 98.02C795.037 98.5356 794.751 99.2912 794.665 100.287H800.079C800.072 99.6922 799.971 99.1659 799.778 98.7075C799.592 98.2492 799.305 97.8911 798.919 97.6333C798.539 97.3755 798.052 97.2466 797.458 97.2466ZM811.158 95.3452C812.662 95.3452 813.797 95.6782 814.563 96.3442C815.337 97.0103 815.724 98.0487 815.724 99.4595V107.462H813.93L813.446 105.776H813.36C813.024 106.206 812.676 106.56 812.318 106.839C811.96 107.119 811.545 107.326 811.072 107.462C810.607 107.606 810.037 107.677 809.364 107.677C808.655 107.677 808.021 107.548 807.463 107.291C806.904 107.026 806.464 106.625 806.142 106.087C805.819 105.55 805.658 104.87 805.658 104.046C805.658 102.822 806.113 101.902 807.022 101.286C807.939 100.67 809.321 100.33 811.169 100.265L813.231 100.19V99.5669C813.231 98.7433 813.038 98.1561 812.651 97.8052C812.272 97.4543 811.735 97.2788 811.04 97.2788C810.446 97.2788 809.869 97.3647 809.311 97.5366C808.752 97.7085 808.208 97.9198 807.678 98.1704L806.861 96.3872C807.441 96.0793 808.1 95.8286 808.838 95.6353C809.583 95.4419 810.356 95.3452 811.158 95.3452ZM813.221 101.78L811.685 101.833C810.424 101.876 809.54 102.091 809.031 102.478C808.523 102.865 808.269 103.395 808.269 104.068C808.269 104.655 808.444 105.085 808.795 105.357C809.146 105.622 809.608 105.754 810.181 105.754C811.054 105.754 811.778 105.507 812.351 105.013C812.931 104.512 813.221 103.778 813.221 102.811V101.78ZM824.784 105.636C825.113 105.636 825.439 105.608 825.761 105.55C826.083 105.486 826.377 105.411 826.642 105.325V107.237C826.363 107.359 826.001 107.462 825.557 107.548C825.113 107.634 824.651 107.677 824.171 107.677C823.498 107.677 822.893 107.566 822.356 107.344C821.819 107.115 821.393 106.725 821.078 106.173C820.762 105.622 820.605 104.859 820.605 103.885V97.4937H818.983V96.3657L820.723 95.4741L821.55 92.9282H823.14V95.5708H826.545V97.4937H823.14V103.853C823.14 104.455 823.29 104.902 823.591 105.196C823.892 105.489 824.289 105.636 824.784 105.636ZM843.075 95.3452C844.486 95.3452 845.618 95.8608 846.47 96.8921C847.329 97.9233 847.759 99.4559 847.759 101.49C847.759 102.836 847.558 103.971 847.157 104.895C846.764 105.812 846.209 106.506 845.492 106.979C844.783 107.444 843.956 107.677 843.011 107.677C842.409 107.677 841.887 107.598 841.443 107.441C840.999 107.283 840.619 107.079 840.304 106.829C839.989 106.571 839.724 106.292 839.509 105.991H839.359C839.394 106.277 839.427 106.596 839.455 106.947C839.491 107.291 839.509 107.606 839.509 107.892V112.737H836.974V95.5708H839.036L839.391 97.2144H839.509C839.731 96.8778 840 96.5662 840.315 96.2798C840.637 95.9933 841.024 95.7677 841.475 95.603C841.933 95.4312 842.467 95.3452 843.075 95.3452ZM842.399 97.4077C841.704 97.4077 841.145 97.5474 840.723 97.8267C840.307 98.0988 840.003 98.5106 839.81 99.062C839.624 99.6134 839.523 100.305 839.509 101.135V101.49C839.509 102.371 839.598 103.119 839.778 103.735C839.964 104.344 840.268 104.809 840.691 105.131C841.12 105.446 841.7 105.604 842.431 105.604C843.047 105.604 843.555 105.436 843.956 105.099C844.364 104.763 844.669 104.283 844.869 103.66C845.07 103.037 845.17 102.303 845.17 101.458C845.17 100.176 844.941 99.1802 844.483 98.4712C844.031 97.7622 843.337 97.4077 842.399 97.4077ZM856.518 95.3452C857.578 95.3452 858.488 95.5636 859.247 96.0005C860.006 96.4373 860.589 97.0568 860.998 97.8589C861.406 98.661 861.61 99.6206 861.61 100.738V102.091H853.671C853.7 103.244 854.008 104.132 854.595 104.755C855.19 105.378 856.02 105.69 857.087 105.69C857.847 105.69 858.527 105.618 859.129 105.475C859.737 105.325 860.364 105.106 861.008 104.82V106.872C860.414 107.151 859.809 107.355 859.193 107.484C858.577 107.613 857.839 107.677 856.98 107.677C855.813 107.677 854.785 107.452 853.897 107C853.016 106.542 852.325 105.862 851.824 104.959C851.33 104.057 851.083 102.936 851.083 101.597C851.083 100.265 851.308 99.1336 851.759 98.2026C852.211 97.2716 852.844 96.5627 853.661 96.0757C854.477 95.5887 855.43 95.3452 856.518 95.3452ZM856.518 97.2466C855.723 97.2466 855.079 97.5044 854.585 98.02C854.098 98.5356 853.811 99.2912 853.725 100.287H859.139C859.132 99.6922 859.032 99.1659 858.838 98.7075C858.652 98.2492 858.366 97.8911 857.979 97.6333C857.6 97.3755 857.113 97.2466 856.518 97.2466ZM876.084 101.49C876.084 102.478 875.955 103.355 875.697 104.122C875.439 104.888 875.063 105.536 874.569 106.066C874.075 106.589 873.481 106.99 872.786 107.269C872.091 107.541 871.307 107.677 870.434 107.677C869.617 107.677 868.869 107.541 868.188 107.269C867.508 106.99 866.917 106.589 866.416 106.066C865.922 105.536 865.539 104.888 865.267 104.122C864.994 103.355 864.858 102.478 864.858 101.49C864.858 100.179 865.084 99.0692 865.535 98.1597C865.993 97.243 866.645 96.5448 867.49 96.0649C868.335 95.5851 869.341 95.3452 870.509 95.3452C871.604 95.3452 872.571 95.5851 873.409 96.0649C874.247 96.5448 874.902 97.243 875.375 98.1597C875.848 99.0763 876.084 100.186 876.084 101.49ZM867.458 101.49C867.458 102.356 867.562 103.097 867.77 103.713C867.984 104.329 868.314 104.802 868.758 105.131C869.202 105.454 869.775 105.615 870.477 105.615C871.178 105.615 871.751 105.454 872.195 105.131C872.639 104.802 872.965 104.329 873.173 103.713C873.381 103.097 873.484 102.356 873.484 101.49C873.484 100.623 873.381 99.8892 873.173 99.2876C872.965 98.6789 872.639 98.217 872.195 97.9019C871.751 97.5796 871.175 97.4185 870.466 97.4185C869.42 97.4185 868.658 97.7694 868.178 98.4712C867.698 99.173 867.458 100.179 867.458 101.49ZM886.186 95.3452C887.597 95.3452 888.728 95.8608 889.58 96.8921C890.44 97.9233 890.87 99.4559 890.87 101.49C890.87 102.836 890.669 103.971 890.268 104.895C889.874 105.812 889.319 106.506 888.603 106.979C887.894 107.444 887.067 107.677 886.121 107.677C885.52 107.677 884.997 107.598 884.553 107.441C884.109 107.283 883.73 107.079 883.414 106.829C883.099 106.571 882.834 106.292 882.62 105.991H882.469C882.505 106.277 882.537 106.596 882.566 106.947C882.602 107.291 882.62 107.606 882.62 107.892V112.737H880.084V95.5708H882.147L882.501 97.2144H882.62C882.842 96.8778 883.11 96.5662 883.425 96.2798C883.747 95.9933 884.134 95.7677 884.585 95.603C885.044 95.4312 885.577 95.3452 886.186 95.3452ZM885.509 97.4077C884.815 97.4077 884.256 97.5474 883.833 97.8267C883.418 98.0988 883.114 98.5106 882.92 99.062C882.734 99.6134 882.634 100.305 882.62 101.135V101.49C882.62 102.371 882.709 103.119 882.888 103.735C883.074 104.344 883.379 104.809 883.801 105.131C884.231 105.446 884.811 105.604 885.541 105.604C886.157 105.604 886.666 105.436 887.067 105.099C887.475 104.763 887.779 104.283 887.98 103.66C888.18 103.037 888.281 102.303 888.281 101.458C888.281 100.176 888.052 99.1802 887.593 98.4712C887.142 97.7622 886.447 97.4077 885.509 97.4077ZM897.427 107.462H894.891V90.7476H897.427V107.462ZM906.873 95.3452C907.933 95.3452 908.843 95.5636 909.602 96.0005C910.361 96.4373 910.945 97.0568 911.353 97.8589C911.761 98.661 911.965 99.6206 911.965 100.738V102.091H904.027C904.055 103.244 904.363 104.132 904.95 104.755C905.545 105.378 906.376 105.69 907.443 105.69C908.202 105.69 908.882 105.618 909.484 105.475C910.092 105.325 910.719 105.106 911.363 104.82V106.872C910.769 107.151 910.164 107.355 909.548 107.484C908.932 107.613 908.195 107.677 907.335 107.677C906.168 107.677 905.14 107.452 904.252 107C903.371 106.542 902.68 105.862 902.179 104.959C901.685 104.057 901.438 102.936 901.438 101.597C901.438 100.265 901.663 99.1336 902.114 98.2026C902.566 97.2716 903.199 96.5627 904.016 96.0757C904.832 95.5887 905.785 95.3452 906.873 95.3452ZM906.873 97.2466C906.078 97.2466 905.434 97.5044 904.94 98.02C904.453 98.5356 904.166 99.2912 904.08 100.287H909.494C909.487 99.6922 909.387 99.1659 909.194 98.7075C909.007 98.2492 908.721 97.8911 908.334 97.6333C907.955 97.3755 907.468 97.2466 906.873 97.2466ZM927.389 95.3452C928.893 95.3452 930.028 95.6782 930.794 96.3442C931.567 97.0103 931.954 98.0487 931.954 99.4595V107.462H930.16L929.677 105.776H929.591C929.254 106.206 928.907 106.56 928.549 106.839C928.191 107.119 927.775 107.326 927.303 107.462C926.837 107.606 926.268 107.677 925.595 107.677C924.886 107.677 924.252 107.548 923.693 107.291C923.135 107.026 922.694 106.625 922.372 106.087C922.05 105.55 921.889 104.87 921.889 104.046C921.889 102.822 922.343 101.902 923.253 101.286C924.17 100.67 925.552 100.33 927.399 100.265L929.462 100.19V99.5669C929.462 98.7433 929.269 98.1561 928.882 97.8052C928.502 97.4543 927.965 97.2788 927.271 97.2788C926.676 97.2788 926.1 97.3647 925.541 97.5366C924.982 97.7085 924.438 97.9198 923.908 98.1704L923.092 96.3872C923.672 96.0793 924.331 95.8286 925.068 95.6353C925.813 95.4419 926.587 95.3452 927.389 95.3452ZM929.451 101.78L927.915 101.833C926.655 101.876 925.77 102.091 925.262 102.478C924.753 102.865 924.499 103.395 924.499 104.068C924.499 104.655 924.674 105.085 925.025 105.357C925.376 105.622 925.838 105.754 926.411 105.754C927.285 105.754 928.008 105.507 928.581 105.013C929.161 104.512 929.451 103.778 929.451 102.811V101.78ZM942.787 95.3452C944.126 95.3452 945.168 95.6925 945.913 96.3872C946.664 97.0747 947.04 98.1812 947.04 99.7065V107.462H944.516V100.179C944.516 99.2554 944.326 98.5643 943.947 98.106C943.567 97.6405 942.98 97.4077 942.185 97.4077C941.032 97.4077 940.23 97.7622 939.779 98.4712C939.335 99.1802 939.113 100.208 939.113 101.554V107.462H936.588V95.5708H938.554L938.909 97.1821H939.048C939.306 96.7668 939.625 96.4266 940.004 96.1616C940.391 95.8895 940.821 95.6854 941.293 95.5493C941.773 95.4132 942.271 95.3452 942.787 95.3452ZM955.671 107.677C954.253 107.677 953.114 107.162 952.255 106.13C951.402 105.092 950.976 103.563 950.976 101.543C950.976 99.5024 951.41 97.9591 952.276 96.9136C953.15 95.868 954.299 95.3452 955.724 95.3452C956.326 95.3452 956.852 95.4276 957.304 95.5923C957.755 95.7498 958.141 95.9647 958.464 96.2368C958.793 96.509 959.072 96.8133 959.302 97.1499H959.42C959.384 96.9279 959.341 96.6092 959.291 96.1938C959.248 95.7713 959.226 95.381 959.226 95.0229V90.7476H961.762V107.462H959.785L959.334 105.84H959.226C959.012 106.184 958.739 106.496 958.41 106.775C958.088 107.047 957.701 107.265 957.25 107.43C956.806 107.595 956.279 107.677 955.671 107.677ZM956.38 105.625C957.461 105.625 958.224 105.314 958.668 104.691C959.112 104.068 959.341 103.133 959.355 101.887V101.554C959.355 100.222 959.14 99.2017 958.711 98.4927C958.281 97.7765 957.497 97.4185 956.358 97.4185C955.449 97.4185 954.754 97.7873 954.274 98.5249C953.802 99.2554 953.565 100.276 953.565 101.586C953.565 102.897 953.802 103.9 954.274 104.594C954.754 105.282 955.456 105.625 956.38 105.625ZM983.018 107.452L981.514 101.919C981.443 101.647 981.357 101.318 981.256 100.931C981.156 100.544 981.056 100.147 980.956 99.7388C980.855 99.3234 980.762 98.9403 980.676 98.5894C980.598 98.2384 980.537 97.9663 980.494 97.7729H980.408C980.372 97.9663 980.315 98.2384 980.236 98.5894C980.157 98.9403 980.068 99.3234 979.967 99.7388C979.867 100.154 979.767 100.559 979.667 100.953C979.573 101.347 979.488 101.683 979.409 101.962L977.83 107.452H975.058L971.728 95.5601H974.285L975.832 101.468C975.932 101.869 976.029 102.303 976.122 102.768C976.222 103.234 976.308 103.678 976.379 104.1C976.451 104.523 976.505 104.87 976.541 105.142H976.627C976.655 104.949 976.695 104.705 976.745 104.412C976.795 104.111 976.852 103.799 976.917 103.477C976.981 103.148 977.046 102.84 977.11 102.553C977.174 102.26 977.235 102.023 977.293 101.844L979.119 95.5601H981.879L983.63 101.844C983.709 102.116 983.795 102.46 983.888 102.875C983.981 103.284 984.064 103.695 984.135 104.111C984.214 104.519 984.264 104.859 984.286 105.131H984.372C984.4 104.888 984.45 104.558 984.522 104.143C984.601 103.721 984.69 103.273 984.791 102.8C984.891 102.32 984.995 101.876 985.102 101.468L986.681 95.5601H989.195L985.843 107.452H983.018ZM997.073 95.3452C998.133 95.3452 999.043 95.5636 999.802 96.0005C1000.56 96.4373 1001.14 97.0568 1001.55 97.8589C1001.96 98.661 1002.17 99.6206 1002.17 100.738V102.091H994.227C994.255 103.244 994.563 104.132 995.15 104.755C995.745 105.378 996.576 105.69 997.643 105.69C998.402 105.69 999.082 105.618 999.684 105.475C1000.29 105.325 1000.92 105.106 1001.56 104.82V106.872C1000.97 107.151 1000.36 107.355 999.748 107.484C999.132 107.613 998.395 107.677 997.535 107.677C996.368 107.677 995.34 107.452 994.452 107C993.571 106.542 992.88 105.862 992.379 104.959C991.885 104.057 991.638 102.936 991.638 101.597C991.638 100.265 991.863 99.1336 992.314 98.2026C992.766 97.2716 993.399 96.5627 994.216 96.0757C995.032 95.5887 995.985 95.3452 997.073 95.3452ZM997.073 97.2466C996.278 97.2466 995.634 97.5044 995.14 98.02C994.653 98.5356 994.366 99.2912 994.28 100.287H999.694C999.687 99.6922 999.587 99.1659 999.394 98.7075C999.207 98.2492 998.921 97.8911 998.534 97.6333C998.155 97.3755 997.668 97.2466 997.073 97.2466ZM1019.12 95.3452C1020.46 95.3452 1021.51 95.6925 1022.25 96.3872C1023 97.0747 1023.38 98.1812 1023.38 99.7065V107.462H1020.85V100.179C1020.85 99.2554 1020.66 98.5643 1020.28 98.106C1019.91 97.6405 1019.32 97.4077 1018.52 97.4077C1017.37 97.4077 1016.57 97.7622 1016.12 98.4712C1015.67 99.1802 1015.45 100.208 1015.45 101.554V107.462H1012.93V95.5708H1014.89L1015.25 97.1821H1015.39C1015.64 96.7668 1015.96 96.4266 1016.34 96.1616C1016.73 95.8895 1017.16 95.6854 1017.63 95.5493C1018.11 95.4132 1018.61 95.3452 1019.12 95.3452ZM1032.75 95.3452C1033.81 95.3452 1034.72 95.5636 1035.48 96.0005C1036.24 96.4373 1036.82 97.0568 1037.23 97.8589C1037.64 98.661 1037.84 99.6206 1037.84 100.738V102.091H1029.9C1029.93 103.244 1030.24 104.132 1030.83 104.755C1031.42 105.378 1032.25 105.69 1033.32 105.69C1034.08 105.69 1034.76 105.618 1035.36 105.475C1035.97 105.325 1036.6 105.106 1037.24 104.82V106.872C1036.65 107.151 1036.04 107.355 1035.42 107.484C1034.81 107.613 1034.07 107.677 1033.21 107.677C1032.04 107.677 1031.02 107.452 1030.13 107C1029.25 106.542 1028.56 105.862 1028.06 104.959C1027.56 104.057 1027.31 102.936 1027.31 101.597C1027.31 100.265 1027.54 99.1336 1027.99 98.2026C1028.44 97.2716 1029.08 96.5627 1029.89 96.0757C1030.71 95.5887 1031.66 95.3452 1032.75 95.3452ZM1032.75 97.2466C1031.96 97.2466 1031.31 97.5044 1030.82 98.02C1030.33 98.5356 1030.04 99.2912 1029.96 100.287H1035.37C1035.36 99.6922 1035.26 99.1659 1035.07 98.7075C1034.88 98.2492 1034.6 97.8911 1034.21 97.6333C1033.83 97.3755 1033.34 97.2466 1032.75 97.2466ZM1046.53 95.3452C1047.59 95.3452 1048.5 95.5636 1049.25 96.0005C1050.01 96.4373 1050.6 97.0568 1051.01 97.8589C1051.41 98.661 1051.62 99.6206 1051.62 100.738V102.091H1043.68C1043.71 103.244 1044.02 104.132 1044.6 104.755C1045.2 105.378 1046.03 105.69 1047.1 105.69C1047.85 105.69 1048.53 105.618 1049.14 105.475C1049.75 105.325 1050.37 105.106 1051.02 104.82V106.872C1050.42 107.151 1049.82 107.355 1049.2 107.484C1048.58 107.613 1047.85 107.677 1046.99 107.677C1045.82 107.677 1044.79 107.452 1043.9 107C1043.02 106.542 1042.33 105.862 1041.83 104.959C1041.34 104.057 1041.09 102.936 1041.09 101.597C1041.09 100.265 1041.32 99.1336 1041.77 98.2026C1042.22 97.2716 1042.85 96.5627 1043.67 96.0757C1044.48 95.5887 1045.44 95.3452 1046.53 95.3452ZM1046.53 97.2466C1045.73 97.2466 1045.09 97.5044 1044.59 98.02C1044.11 98.5356 1043.82 99.2912 1043.73 100.287H1049.15C1049.14 99.6922 1049.04 99.1659 1048.85 98.7075C1048.66 98.2492 1048.37 97.8911 1047.99 97.6333C1047.61 97.3755 1047.12 97.2466 1046.53 97.2466ZM1059.56 107.677C1058.14 107.677 1057 107.162 1056.14 106.13C1055.29 105.092 1054.87 103.563 1054.87 101.543C1054.87 99.5024 1055.3 97.9591 1056.17 96.9136C1057.04 95.868 1058.19 95.3452 1059.61 95.3452C1060.22 95.3452 1060.74 95.4276 1061.19 95.5923C1061.64 95.7498 1062.03 95.9647 1062.35 96.2368C1062.68 96.509 1062.96 96.8133 1063.19 97.1499H1063.31C1063.27 96.9279 1063.23 96.6092 1063.18 96.1938C1063.14 95.7713 1063.12 95.381 1063.12 95.0229V90.7476H1065.65V107.462H1063.67L1063.22 105.84H1063.12C1062.9 106.184 1062.63 106.496 1062.3 106.775C1061.98 107.047 1061.59 107.265 1061.14 107.43C1060.7 107.595 1060.17 107.677 1059.56 107.677ZM1060.27 105.625C1061.35 105.625 1062.11 105.314 1062.56 104.691C1063 104.068 1063.23 103.133 1063.25 101.887V101.554C1063.25 100.222 1063.03 99.2017 1062.6 98.4927C1062.17 97.7765 1061.39 97.4185 1060.25 97.4185C1059.34 97.4185 1058.64 97.7873 1058.16 98.5249C1057.69 99.2554 1057.46 100.276 1057.46 101.586C1057.46 102.897 1057.69 103.9 1058.16 104.594C1058.64 105.282 1059.35 105.625 1060.27 105.625ZM1081.89 98.9224L1085.62 91.7573H1088.4L1083.18 101.361V107.462H1080.61V101.458L1075.38 91.7573H1078.19L1081.89 98.9224ZM1105.51 99.5884C1105.51 100.799 1105.35 101.902 1105.05 102.897C1104.74 103.885 1104.29 104.737 1103.68 105.454C1103.07 106.163 1102.31 106.71 1101.39 107.097C1100.48 107.484 1099.4 107.677 1098.17 107.677C1096.92 107.677 1095.83 107.484 1094.9 107.097C1093.99 106.71 1093.23 106.159 1092.62 105.443C1092.01 104.727 1091.56 103.871 1091.26 102.875C1090.96 101.88 1090.81 100.777 1090.81 99.5669C1090.81 97.9484 1091.08 96.5376 1091.61 95.3345C1092.14 94.1242 1092.96 93.186 1094.05 92.52C1095.14 91.8468 1096.52 91.5103 1098.19 91.5103C1099.82 91.5103 1101.18 91.8433 1102.26 92.5093C1103.34 93.1753 1104.15 94.1134 1104.69 95.3237C1105.23 96.5269 1105.51 97.9484 1105.51 99.5884ZM1093.52 99.5884C1093.52 100.799 1093.68 101.848 1094.01 102.736C1094.34 103.617 1094.85 104.297 1095.53 104.777C1096.22 105.25 1097.1 105.486 1098.17 105.486C1099.25 105.486 1100.13 105.25 1100.81 104.777C1101.49 104.297 1101.99 103.617 1102.32 102.736C1102.64 101.848 1102.8 100.799 1102.8 99.5884C1102.8 97.7479 1102.43 96.3084 1101.69 95.27C1100.96 94.2244 1099.8 93.7017 1098.19 93.7017C1097.12 93.7017 1096.23 93.938 1095.54 94.4106C1094.85 94.8833 1094.34 95.5601 1094.01 96.4409C1093.68 97.3146 1093.52 98.3638 1093.52 99.5884ZM1122.31 91.7573V101.919C1122.31 103.015 1122.08 103.996 1121.61 104.863C1121.16 105.729 1120.46 106.417 1119.53 106.925C1118.6 107.427 1117.43 107.677 1116.02 107.677C1114 107.677 1112.47 107.151 1111.42 106.098C1110.37 105.038 1109.85 103.631 1109.85 101.876V91.7573H1112.43V101.651C1112.43 102.961 1112.74 103.928 1113.35 104.551C1113.97 105.174 1114.89 105.486 1116.11 105.486C1116.96 105.486 1117.65 105.339 1118.18 105.045C1118.71 104.745 1119.11 104.308 1119.36 103.735C1119.62 103.155 1119.74 102.457 1119.74 101.64V91.7573H1122.31ZM1126.81 106.13C1126.81 105.543 1126.96 105.131 1127.26 104.895C1127.57 104.652 1127.94 104.53 1128.38 104.53C1128.81 104.53 1129.18 104.652 1129.49 104.895C1129.81 105.131 1129.96 105.543 1129.96 106.13C1129.96 106.703 1129.81 107.119 1129.49 107.376C1129.18 107.627 1128.81 107.752 1128.38 107.752C1127.94 107.752 1127.57 107.627 1127.26 107.376C1126.96 107.119 1126.81 106.703 1126.81 106.13ZM1133.94 106.13C1133.94 105.543 1134.09 105.131 1134.39 104.895C1134.7 104.652 1135.08 104.53 1135.51 104.53C1135.95 104.53 1136.32 104.652 1136.63 104.895C1136.94 105.131 1137.1 105.543 1137.1 106.13C1137.1 106.703 1136.94 107.119 1136.63 107.376C1136.32 107.627 1135.95 107.752 1135.51 107.752C1135.08 107.752 1134.7 107.627 1134.39 107.376C1134.09 107.119 1133.94 106.703 1133.94 106.13ZM1141.08 106.13C1141.08 105.543 1141.23 105.131 1141.53 104.895C1141.84 104.652 1142.21 104.53 1142.65 104.53C1143.09 104.53 1143.46 104.652 1143.77 104.895C1144.08 105.131 1144.24 105.543 1144.24 106.13C1144.24 106.703 1144.08 107.119 1143.77 107.376C1143.46 107.627 1143.09 107.752 1142.65 107.752C1142.21 107.752 1141.84 107.627 1141.53 107.376C1141.23 107.119 1141.08 106.703 1141.08 106.13ZM569.261 138.462H567.767V125.613H574.93V126.94H569.261V131.642H574.587V132.969H569.261V138.462ZM581.815 138.638C580.391 138.638 579.266 138.205 578.44 137.337C577.62 136.47 577.21 135.266 577.21 133.725C577.21 132.172 577.59 130.939 578.352 130.025C579.12 129.111 580.148 128.654 581.437 128.654C582.644 128.654 583.599 129.052 584.302 129.849C585.005 130.64 585.357 131.686 585.357 132.987V133.91H578.721C578.751 135.041 579.035 135.899 579.574 136.485C580.119 137.071 580.883 137.364 581.868 137.364C582.905 137.364 583.93 137.147 584.944 136.713V138.014C584.428 138.237 583.939 138.395 583.476 138.489C583.019 138.588 582.465 138.638 581.815 138.638ZM581.42 129.875C580.646 129.875 580.028 130.127 579.565 130.631C579.108 131.135 578.838 131.833 578.756 132.723H583.793C583.793 131.803 583.587 131.1 583.177 130.614C582.767 130.122 582.181 129.875 581.42 129.875ZM592.822 138.638C591.399 138.638 590.274 138.205 589.447 137.337C588.627 136.47 588.217 135.266 588.217 133.725C588.217 132.172 588.598 130.939 589.36 130.025C590.127 129.111 591.155 128.654 592.445 128.654C593.652 128.654 594.607 129.052 595.31 129.849C596.013 130.64 596.364 131.686 596.364 132.987V133.91H589.729C589.758 135.041 590.042 135.899 590.581 136.485C591.126 137.071 591.891 137.364 592.875 137.364C593.912 137.364 594.938 137.147 595.951 136.713V138.014C595.436 138.237 594.946 138.395 594.484 138.489C594.027 138.588 593.473 138.638 592.822 138.638ZM592.427 129.875C591.654 129.875 591.035 130.127 590.572 130.631C590.115 131.135 589.846 131.833 589.764 132.723H594.8C594.8 131.803 594.595 131.1 594.185 130.614C593.775 130.122 593.189 129.875 592.427 129.875ZM601.22 138.462H599.761V124.787H601.22V138.462ZM615.131 129.963H612.679V138.462H611.22V129.963H609.497V129.304L611.22 128.777V128.241C611.22 125.874 612.254 124.69 614.322 124.69C614.832 124.69 615.43 124.792 616.115 124.998L615.737 126.167C615.175 125.985 614.694 125.894 614.296 125.894C613.745 125.894 613.338 126.079 613.074 126.448C612.811 126.811 612.679 127.397 612.679 128.206V128.83H615.131V129.963ZM622.183 128.654C622.611 128.654 622.995 128.689 623.335 128.759L623.132 130.113C622.734 130.025 622.382 129.981 622.078 129.981C621.298 129.981 620.63 130.297 620.074 130.93C619.523 131.563 619.248 132.351 619.248 133.294V138.462H617.789V128.83H618.993L619.16 130.614H619.23C619.588 129.987 620.018 129.503 620.522 129.164C621.026 128.824 621.58 128.654 622.183 128.654ZM630.106 138.638C628.682 138.638 627.557 138.205 626.731 137.337C625.91 136.47 625.5 135.266 625.5 133.725C625.5 132.172 625.881 130.939 626.643 130.025C627.41 129.111 628.439 128.654 629.728 128.654C630.935 128.654 631.89 129.052 632.593 129.849C633.296 130.64 633.648 131.686 633.648 132.987V133.91H627.012C627.041 135.041 627.325 135.899 627.864 136.485C628.409 137.071 629.174 137.364 630.158 137.364C631.196 137.364 632.221 137.147 633.235 136.713V138.014C632.719 138.237 632.23 138.395 631.767 138.489C631.31 138.588 630.756 138.638 630.106 138.638ZM629.71 129.875C628.937 129.875 628.319 130.127 627.856 130.631C627.399 131.135 627.129 131.833 627.047 132.723H632.083C632.083 131.803 631.878 131.1 631.468 130.614C631.058 130.122 630.472 129.875 629.71 129.875ZM641.113 138.638C639.689 138.638 638.564 138.205 637.738 137.337C636.918 136.47 636.508 135.266 636.508 133.725C636.508 132.172 636.888 130.939 637.65 130.025C638.418 129.111 639.446 128.654 640.735 128.654C641.942 128.654 642.897 129.052 643.6 129.849C644.304 130.64 644.655 131.686 644.655 132.987V133.91H638.019C638.049 135.041 638.333 135.899 638.872 136.485C639.417 137.071 640.181 137.364 641.166 137.364C642.203 137.364 643.228 137.147 644.242 136.713V138.014C643.726 138.237 643.237 138.395 642.774 138.489C642.317 138.588 641.763 138.638 641.113 138.638ZM640.718 129.875C639.944 129.875 639.326 130.127 638.863 130.631C638.406 131.135 638.137 131.833 638.054 132.723H643.091C643.091 131.803 642.886 131.1 642.475 130.614C642.065 130.122 641.479 129.875 640.718 129.875ZM656.738 137.434C656.996 137.434 657.245 137.417 657.485 137.381C657.726 137.34 657.916 137.299 658.057 137.258V138.375C657.898 138.451 657.664 138.512 657.354 138.559C657.049 138.612 656.773 138.638 656.527 138.638C654.664 138.638 653.732 137.657 653.732 135.694V129.963H652.353V129.26L653.732 128.654L654.348 126.597H655.191V128.83H657.986V129.963H655.191V135.632C655.191 136.212 655.329 136.658 655.604 136.968C655.88 137.279 656.258 137.434 656.738 137.434ZM669.205 133.637C669.205 135.208 668.809 136.435 668.018 137.32C667.227 138.199 666.134 138.638 664.74 138.638C663.879 138.638 663.114 138.436 662.446 138.032C661.778 137.627 661.262 137.047 660.899 136.292C660.536 135.536 660.354 134.651 660.354 133.637C660.354 132.067 660.747 130.845 661.532 129.972C662.317 129.093 663.407 128.654 664.801 128.654C666.149 128.654 667.218 129.102 668.009 129.999C668.806 130.895 669.205 132.108 669.205 133.637ZM661.866 133.637C661.866 134.868 662.112 135.805 662.604 136.45C663.096 137.094 663.82 137.417 664.775 137.417C665.73 137.417 666.454 137.097 666.946 136.458C667.444 135.814 667.693 134.874 667.693 133.637C667.693 132.413 667.444 131.484 666.946 130.851C666.454 130.212 665.724 129.893 664.757 129.893C663.802 129.893 663.082 130.207 662.595 130.833C662.109 131.46 661.866 132.395 661.866 133.637ZM684.804 137.17H684.724C684.051 138.149 683.043 138.638 681.701 138.638C680.441 138.638 679.46 138.208 678.757 137.346C678.059 136.485 677.711 135.26 677.711 133.672C677.711 132.084 678.062 130.851 678.765 129.972C679.469 129.093 680.447 128.654 681.701 128.654C683.008 128.654 684.01 129.128 684.707 130.078H684.821L684.76 129.383L684.724 128.707V124.787H686.183V138.462H684.997L684.804 137.17ZM681.886 137.417C682.882 137.417 683.602 137.147 684.048 136.608C684.499 136.063 684.724 135.187 684.724 133.98V133.672C684.724 132.307 684.496 131.334 684.039 130.754C683.588 130.168 682.864 129.875 681.868 129.875C681.012 129.875 680.356 130.209 679.899 130.877C679.448 131.54 679.222 132.477 679.222 133.69C679.222 134.92 679.448 135.849 679.899 136.476C680.35 137.103 681.012 137.417 681.886 137.417ZM694.58 128.654C695.008 128.654 695.392 128.689 695.732 128.759L695.53 130.113C695.131 130.025 694.78 129.981 694.475 129.981C693.696 129.981 693.028 130.297 692.471 130.93C691.92 131.563 691.645 132.351 691.645 133.294V138.462H690.186V128.83H691.39L691.557 130.614H691.627C691.985 129.987 692.415 129.503 692.919 129.164C693.423 128.824 693.977 128.654 694.58 128.654ZM706.748 133.637C706.748 135.208 706.353 136.435 705.562 137.32C704.771 138.199 703.678 138.638 702.283 138.638C701.422 138.638 700.657 138.436 699.989 138.032C699.321 137.627 698.806 137.047 698.442 136.292C698.079 135.536 697.897 134.651 697.897 133.637C697.897 132.067 698.29 130.845 699.075 129.972C699.86 129.093 700.95 128.654 702.345 128.654C703.692 128.654 704.762 129.102 705.553 129.999C706.35 130.895 706.748 132.108 706.748 133.637ZM699.409 133.637C699.409 134.868 699.655 135.805 700.147 136.45C700.64 137.094 701.363 137.417 702.318 137.417C703.273 137.417 703.997 137.097 704.489 136.458C704.987 135.814 705.236 134.874 705.236 133.637C705.236 132.413 704.987 131.484 704.489 130.851C703.997 130.212 703.268 129.893 702.301 129.893C701.346 129.893 700.625 130.207 700.139 130.833C699.652 131.46 699.409 132.395 699.409 133.637ZM714.697 138.638C714.07 138.638 713.496 138.524 712.974 138.295C712.459 138.061 712.025 137.704 711.673 137.223H711.568C711.638 137.786 711.673 138.319 711.673 138.823V142.787H710.214V128.83H711.401L711.603 130.148H711.673C712.048 129.621 712.485 129.24 712.983 129.005C713.481 128.771 714.052 128.654 714.697 128.654C715.974 128.654 716.959 129.09 717.65 129.963C718.347 130.836 718.696 132.061 718.696 133.637C718.696 135.219 718.341 136.45 717.632 137.329C716.929 138.202 715.951 138.638 714.697 138.638ZM714.486 129.893C713.502 129.893 712.79 130.166 712.35 130.71C711.911 131.255 711.685 132.123 711.673 133.312V133.637C711.673 134.991 711.899 135.96 712.35 136.546C712.801 137.126 713.525 137.417 714.521 137.417C715.353 137.417 716.004 137.08 716.472 136.406C716.947 135.732 717.184 134.803 717.184 133.62C717.184 132.418 716.947 131.499 716.472 130.86C716.004 130.215 715.341 129.893 714.486 129.893ZM733.653 138.462L733.363 137.091H733.293C732.812 137.695 732.332 138.105 731.851 138.322C731.377 138.533 730.782 138.638 730.067 138.638C729.112 138.638 728.362 138.392 727.817 137.9C727.278 137.408 727.009 136.708 727.009 135.799C727.009 133.854 728.564 132.834 731.676 132.741L733.31 132.688V132.09C733.31 131.334 733.146 130.778 732.818 130.42C732.496 130.057 731.977 129.875 731.262 129.875C730.46 129.875 729.552 130.122 728.538 130.614L728.09 129.498C728.564 129.24 729.083 129.038 729.645 128.891C730.214 128.745 730.782 128.671 731.35 128.671C732.499 128.671 733.348 128.926 733.899 129.436C734.456 129.946 734.734 130.763 734.734 131.888V138.462H733.653ZM730.357 137.434C731.265 137.434 731.977 137.185 732.493 136.687C733.014 136.189 733.275 135.492 733.275 134.595V133.725L731.816 133.787C730.656 133.828 729.818 134.009 729.303 134.332C728.793 134.648 728.538 135.143 728.538 135.817C728.538 136.344 728.696 136.746 729.012 137.021C729.335 137.296 729.783 137.434 730.357 137.434ZM745.241 138.462V132.231C745.241 131.446 745.062 130.86 744.704 130.473C744.347 130.086 743.788 129.893 743.026 129.893C742.018 129.893 741.28 130.166 740.811 130.71C740.342 131.255 740.108 132.155 740.108 133.409V138.462H738.649V128.83H739.835L740.073 130.148H740.143C740.442 129.673 740.861 129.307 741.4 129.049C741.939 128.786 742.539 128.654 743.202 128.654C744.362 128.654 745.235 128.935 745.821 129.498C746.407 130.054 746.7 130.948 746.7 132.178V138.462H745.241ZM760.251 138.638C758.827 138.638 757.702 138.205 756.876 137.337C756.055 136.47 755.645 135.266 755.645 133.725C755.645 132.172 756.026 130.939 756.788 130.025C757.555 129.111 758.584 128.654 759.873 128.654C761.08 128.654 762.035 129.052 762.738 129.849C763.441 130.64 763.793 131.686 763.793 132.987V133.91H757.157C757.186 135.041 757.47 135.899 758.009 136.485C758.554 137.071 759.319 137.364 760.303 137.364C761.34 137.364 762.366 137.147 763.379 136.713V138.014C762.864 138.237 762.375 138.395 761.912 138.489C761.455 138.588 760.901 138.638 760.251 138.638ZM759.855 129.875C759.082 129.875 758.463 130.127 758.001 130.631C757.544 131.135 757.274 131.833 757.192 132.723H762.228C762.228 131.803 762.023 131.1 761.613 130.614C761.203 130.122 760.617 129.875 759.855 129.875ZM779.467 138.462V132.196C779.467 131.428 779.303 130.854 778.975 130.473C778.647 130.086 778.137 129.893 777.446 129.893C776.537 129.893 775.866 130.154 775.433 130.675C774.999 131.197 774.782 132 774.782 133.083V138.462H773.323V132.196C773.323 131.428 773.159 130.854 772.831 130.473C772.503 130.086 771.99 129.893 771.293 129.893C770.379 129.893 769.708 130.168 769.28 130.719C768.859 131.264 768.648 132.161 768.648 133.409V138.462H767.189V128.83H768.375L768.613 130.148H768.683C768.958 129.679 769.345 129.313 769.843 129.049C770.347 128.786 770.909 128.654 771.53 128.654C773.036 128.654 774.021 129.199 774.484 130.289H774.554C774.841 129.785 775.257 129.386 775.802 129.093C776.347 128.8 776.968 128.654 777.665 128.654C778.755 128.654 779.57 128.935 780.109 129.498C780.654 130.054 780.926 130.948 780.926 132.178V138.462H779.467ZM790.764 138.462L790.474 137.091H790.404C789.924 137.695 789.443 138.105 788.963 138.322C788.488 138.533 787.893 138.638 787.179 138.638C786.223 138.638 785.473 138.392 784.929 137.9C784.389 137.408 784.12 136.708 784.12 135.799C784.12 133.854 785.676 132.834 788.787 132.741L790.422 132.688V132.09C790.422 131.334 790.258 130.778 789.929 130.42C789.607 130.057 789.089 129.875 788.374 129.875C787.571 129.875 786.663 130.122 785.649 130.614L785.201 129.498C785.676 129.24 786.194 129.038 786.757 128.891C787.325 128.745 787.893 128.671 788.462 128.671C789.61 128.671 790.46 128.926 791.011 129.436C791.567 129.946 791.846 130.763 791.846 131.888V138.462H790.764ZM787.469 137.434C788.377 137.434 789.089 137.185 789.604 136.687C790.126 136.189 790.387 135.492 790.387 134.595V133.725L788.928 133.787C787.767 133.828 786.929 134.009 786.414 134.332C785.904 134.648 785.649 135.143 785.649 135.817C785.649 136.344 785.807 136.746 786.124 137.021C786.446 137.296 786.894 137.434 787.469 137.434ZM797.219 138.462H795.76V128.83H797.219V138.462ZM795.637 126.219C795.637 125.885 795.719 125.642 795.883 125.49C796.047 125.332 796.252 125.252 796.498 125.252C796.733 125.252 796.935 125.332 797.105 125.49C797.275 125.648 797.36 125.891 797.36 126.219C797.36 126.547 797.275 126.793 797.105 126.958C796.935 127.116 796.733 127.195 796.498 127.195C796.252 127.195 796.047 127.116 795.883 126.958C795.719 126.793 795.637 126.547 795.637 126.219ZM802.672 138.462H801.213V124.787H802.672V138.462ZM815.353 137.434C815.611 137.434 815.86 137.417 816.1 137.381C816.34 137.34 816.53 137.299 816.671 137.258V138.375C816.513 138.451 816.279 138.512 815.968 138.559C815.663 138.612 815.388 138.638 815.142 138.638C813.279 138.638 812.347 137.657 812.347 135.694V129.963H810.967V129.26L812.347 128.654L812.962 126.597H813.806V128.83H816.601V129.963H813.806V135.632C813.806 136.212 813.944 136.658 814.219 136.968C814.494 137.279 814.872 137.434 815.353 137.434ZM827.819 133.637C827.819 135.208 827.424 136.435 826.633 137.32C825.842 138.199 824.749 138.638 823.354 138.638C822.493 138.638 821.728 138.436 821.06 138.032C820.392 137.627 819.877 137.047 819.513 136.292C819.15 135.536 818.969 134.651 818.969 133.637C818.969 132.067 819.361 130.845 820.146 129.972C820.931 129.093 822.021 128.654 823.416 128.654C824.763 128.654 825.833 129.102 826.624 129.999C827.421 130.895 827.819 132.108 827.819 133.637ZM820.48 133.637C820.48 134.868 820.726 135.805 821.219 136.45C821.711 137.094 822.434 137.417 823.389 137.417C824.345 137.417 825.068 137.097 825.56 136.458C826.058 135.814 826.307 134.874 826.307 133.637C826.307 132.413 826.058 131.484 825.56 130.851C825.068 130.212 824.339 129.893 823.372 129.893C822.417 129.893 821.696 130.207 821.21 130.833C820.723 131.46 820.48 132.395 820.48 133.637ZM838.232 128.83V135.079C838.232 135.864 838.411 136.45 838.769 136.836C839.126 137.223 839.686 137.417 840.447 137.417C841.455 137.417 842.19 137.141 842.653 136.59C843.122 136.04 843.356 135.14 843.356 133.892V128.83H844.815V138.462H843.611L843.4 137.17H843.321C843.022 137.645 842.606 138.008 842.073 138.26C841.546 138.512 840.942 138.638 840.263 138.638C839.091 138.638 838.212 138.36 837.626 137.803C837.046 137.247 836.756 136.356 836.756 135.131V128.83H838.232ZM855.032 135.834C855.032 136.731 854.698 137.422 854.03 137.909C853.362 138.395 852.424 138.638 851.217 138.638C849.94 138.638 848.944 138.436 848.229 138.032V136.678C848.692 136.913 849.187 137.097 849.714 137.232C850.248 137.367 850.76 137.434 851.253 137.434C852.014 137.434 852.6 137.314 853.01 137.074C853.421 136.828 853.626 136.456 853.626 135.958C853.626 135.583 853.462 135.263 853.133 135C852.811 134.73 852.178 134.414 851.235 134.05C850.338 133.716 849.7 133.426 849.319 133.18C848.944 132.928 848.663 132.644 848.475 132.328C848.294 132.011 848.203 131.633 848.203 131.194C848.203 130.409 848.522 129.791 849.161 129.339C849.799 128.882 850.675 128.654 851.789 128.654C852.826 128.654 853.839 128.865 854.83 129.287L854.311 130.473C853.344 130.075 852.468 129.875 851.683 129.875C850.992 129.875 850.47 129.984 850.119 130.201C849.767 130.417 849.591 130.716 849.591 131.097C849.591 131.355 849.656 131.575 849.785 131.756C849.92 131.938 850.133 132.111 850.426 132.275C850.719 132.439 851.282 132.676 852.114 132.987C853.256 133.403 854.027 133.822 854.425 134.244C854.83 134.666 855.032 135.196 855.032 135.834ZM869.813 138.462L869.523 137.091H869.453C868.972 137.695 868.492 138.105 868.012 138.322C867.537 138.533 866.942 138.638 866.227 138.638C865.272 138.638 864.522 138.392 863.977 137.9C863.438 137.408 863.169 136.708 863.169 135.799C863.169 133.854 864.724 132.834 867.836 132.741L869.471 132.688V132.09C869.471 131.334 869.306 130.778 868.978 130.42C868.656 130.057 868.138 129.875 867.423 129.875C866.62 129.875 865.712 130.122 864.698 130.614L864.25 129.498C864.724 129.24 865.243 129.038 865.805 128.891C866.374 128.745 866.942 128.671 867.511 128.671C868.659 128.671 869.509 128.926 870.059 129.436C870.616 129.946 870.894 130.763 870.894 131.888V138.462H869.813ZM866.517 137.434C867.426 137.434 868.138 137.185 868.653 136.687C869.175 136.189 869.435 135.492 869.435 134.595V133.725L867.976 133.787C866.816 133.828 865.978 134.009 865.463 134.332C864.953 134.648 864.698 135.143 864.698 135.817C864.698 136.344 864.856 136.746 865.173 137.021C865.495 137.296 865.943 137.434 866.517 137.434ZM877.92 137.434C878.178 137.434 878.427 137.417 878.667 137.381C878.908 137.34 879.098 137.299 879.239 137.258V138.375C879.08 138.451 878.846 138.512 878.536 138.559C878.231 138.612 877.955 138.638 877.709 138.638C875.846 138.638 874.914 137.657 874.914 135.694V129.963H873.535V129.26L874.914 128.654L875.53 126.597H876.373V128.83H879.168V129.963H876.373V135.632C876.373 136.212 876.511 136.658 876.787 136.968C877.062 137.279 877.44 137.434 877.92 137.434Z" fill="white"/>
<path d="M891.498 138.638C890.103 138.638 889.022 138.21 888.254 137.355C887.493 136.494 887.112 135.278 887.112 133.708C887.112 132.096 887.499 130.851 888.272 129.972C889.051 129.093 890.159 128.654 891.594 128.654C892.057 128.654 892.52 128.704 892.983 128.803C893.446 128.903 893.809 129.02 894.073 129.155L893.625 130.394C893.302 130.265 892.951 130.16 892.57 130.078C892.189 129.99 891.852 129.946 891.559 129.946C889.602 129.946 888.624 131.194 888.624 133.69C888.624 134.874 888.861 135.782 889.336 136.415C889.816 137.047 890.525 137.364 891.462 137.364C892.265 137.364 893.088 137.191 893.932 136.845V138.137C893.288 138.471 892.476 138.638 891.498 138.638ZM903.05 138.462L902.76 137.091H902.69C902.209 137.695 901.729 138.105 901.248 138.322C900.774 138.533 900.179 138.638 899.464 138.638C898.509 138.638 897.759 138.392 897.214 137.9C896.675 137.408 896.405 136.708 896.405 135.799C896.405 133.854 897.961 132.834 901.072 132.741L902.707 132.688V132.09C902.707 131.334 902.543 130.778 902.215 130.42C901.893 130.057 901.374 129.875 900.659 129.875C899.857 129.875 898.948 130.122 897.935 130.614L897.487 129.498C897.961 129.24 898.48 129.038 899.042 128.891C899.611 128.745 900.179 128.671 900.747 128.671C901.896 128.671 902.745 128.926 903.296 129.436C903.853 129.946 904.131 130.763 904.131 131.888V138.462H903.05ZM899.754 137.434C900.662 137.434 901.374 137.185 901.89 136.687C902.411 136.189 902.672 135.492 902.672 134.595V133.725L901.213 133.787C900.053 133.828 899.215 134.009 898.699 134.332C898.19 134.648 897.935 135.143 897.935 135.817C897.935 136.344 898.093 136.746 898.409 137.021C898.732 137.296 899.18 137.434 899.754 137.434ZM912.44 128.654C912.868 128.654 913.252 128.689 913.592 128.759L913.389 130.113C912.991 130.025 912.639 129.981 912.335 129.981C911.555 129.981 910.888 130.297 910.331 130.93C909.78 131.563 909.505 132.351 909.505 133.294V138.462H908.046V128.83H909.25L909.417 130.614H909.487C909.845 129.987 910.275 129.503 910.779 129.164C911.283 128.824 911.837 128.654 912.44 128.654ZM920.363 138.638C918.939 138.638 917.814 138.205 916.988 137.337C916.167 136.47 915.757 135.266 915.757 133.725C915.757 132.172 916.138 130.939 916.9 130.025C917.667 129.111 918.696 128.654 919.985 128.654C921.192 128.654 922.147 129.052 922.85 129.849C923.553 130.64 923.905 131.686 923.905 132.987V133.91H917.269C917.298 135.041 917.582 135.899 918.121 136.485C918.666 137.071 919.431 137.364 920.415 137.364C921.453 137.364 922.478 137.147 923.492 136.713V138.014C922.976 138.237 922.487 138.395 922.024 138.489C921.567 138.588 921.013 138.638 920.363 138.638ZM919.967 129.875C919.194 129.875 918.576 130.127 918.113 130.631C917.656 131.135 917.386 131.833 917.304 132.723H922.34C922.34 131.803 922.135 131.1 921.725 130.614C921.315 130.122 920.729 129.875 919.967 129.875ZM931.37 138.638C929.946 138.638 928.821 138.205 927.995 137.337C927.175 136.47 926.765 135.266 926.765 133.725C926.765 132.172 927.146 130.939 927.907 130.025C928.675 129.111 929.703 128.654 930.992 128.654C932.199 128.654 933.154 129.052 933.857 129.849C934.561 130.64 934.912 131.686 934.912 132.987V133.91H928.276C928.306 135.041 928.59 135.899 929.129 136.485C929.674 137.071 930.438 137.364 931.423 137.364C932.46 137.364 933.485 137.147 934.499 136.713V138.014C933.983 138.237 933.494 138.395 933.031 138.489C932.574 138.588 932.021 138.638 931.37 138.638ZM930.975 129.875C930.201 129.875 929.583 130.127 929.12 130.631C928.663 131.135 928.394 131.833 928.312 132.723H933.348C933.348 131.803 933.143 131.1 932.732 130.614C932.322 130.122 931.736 129.875 930.975 129.875ZM942.703 128.654C943.13 128.654 943.514 128.689 943.854 128.759L943.652 130.113C943.254 130.025 942.902 129.981 942.597 129.981C941.818 129.981 941.15 130.297 940.593 130.93C940.043 131.563 939.767 132.351 939.767 133.294V138.462H938.308V128.83H939.512L939.679 130.614H939.75C940.107 129.987 940.538 129.503 941.042 129.164C941.546 128.824 942.099 128.654 942.703 128.654ZM960.126 132.055C960.126 132.887 959.997 133.649 959.739 134.34C959.482 135.032 959.118 135.568 958.65 135.949C958.181 136.33 957.642 136.52 957.032 136.52C956.529 136.52 956.104 136.368 955.758 136.063C955.412 135.758 955.207 135.369 955.143 134.894H955.072C954.838 135.404 954.501 135.802 954.062 136.089C953.628 136.376 953.112 136.52 952.515 136.52C951.636 136.52 950.947 136.221 950.449 135.624C949.957 135.02 949.711 134.203 949.711 133.171C949.711 131.976 950.057 131.006 950.748 130.262C951.44 129.512 952.348 129.137 953.473 129.137C953.871 129.137 954.322 129.175 954.826 129.251C955.33 129.322 955.784 129.421 956.189 129.55L955.969 133.681V133.875C955.969 134.917 956.359 135.439 957.138 135.439C957.671 135.439 958.105 135.125 958.439 134.499C958.773 133.866 958.94 133.045 958.94 132.038C958.94 130.977 958.723 130.048 958.289 129.251C957.856 128.455 957.237 127.842 956.435 127.415C955.638 126.981 954.721 126.764 953.684 126.764C952.377 126.764 951.24 127.037 950.274 127.582C949.307 128.121 948.569 128.894 948.059 129.902C947.549 130.904 947.294 132.064 947.294 133.382C947.294 135.169 947.766 136.543 948.709 137.504C949.653 138.465 951.012 138.946 952.787 138.946C954.018 138.946 955.295 138.694 956.619 138.19V139.359C955.494 139.851 954.217 140.097 952.787 140.097C950.66 140.097 949.008 139.514 947.83 138.348C946.658 137.176 946.072 135.542 946.072 133.444C946.072 131.92 946.386 130.564 947.013 129.375C947.64 128.185 948.533 127.265 949.694 126.615C950.854 125.958 952.184 125.63 953.684 125.63C954.944 125.63 956.063 125.897 957.041 126.43C958.026 126.958 958.784 127.71 959.318 128.689C959.857 129.662 960.126 130.784 960.126 132.055ZM951.038 133.207C951.038 134.695 951.61 135.439 952.752 135.439C953.965 135.439 954.624 134.522 954.73 132.688L954.853 130.394C954.431 130.277 953.971 130.218 953.473 130.218C952.711 130.218 952.113 130.482 951.68 131.009C951.252 131.537 951.038 132.269 951.038 133.207ZM970.237 138.462V132.231C970.237 131.446 970.058 130.86 969.701 130.473C969.344 130.086 968.784 129.893 968.022 129.893C967.014 129.893 966.276 130.166 965.807 130.71C965.339 131.255 965.104 132.155 965.104 133.409V138.462H963.645V128.83H964.832L965.069 130.148H965.139C965.438 129.673 965.857 129.307 966.396 129.049C966.935 128.786 967.536 128.654 968.198 128.654C969.358 128.654 970.231 128.935 970.817 129.498C971.403 130.054 971.696 130.948 971.696 132.178V138.462H970.237ZM979.671 138.638C978.247 138.638 977.122 138.205 976.296 137.337C975.476 136.47 975.066 135.266 975.066 133.725C975.066 132.172 975.447 130.939 976.208 130.025C976.976 129.111 978.004 128.654 979.293 128.654C980.5 128.654 981.455 129.052 982.159 129.849C982.862 130.64 983.213 131.686 983.213 132.987V133.91H976.578C976.607 135.041 976.891 135.899 977.43 136.485C977.975 137.071 978.74 137.364 979.724 137.364C980.761 137.364 981.787 137.147 982.8 136.713V138.014C982.285 138.237 981.795 138.395 981.332 138.489C980.875 138.588 980.322 138.638 979.671 138.638ZM979.276 129.875C978.502 129.875 977.884 130.127 977.421 130.631C976.964 131.135 976.695 131.833 976.613 132.723H981.649C981.649 131.803 981.444 131.1 981.034 130.614C980.623 130.122 980.038 129.875 979.276 129.875ZM990.679 138.638C989.255 138.638 988.13 138.205 987.304 137.337C986.483 136.47 986.073 135.266 986.073 133.725C986.073 132.172 986.454 130.939 987.216 130.025C987.983 129.111 989.012 128.654 990.301 128.654C991.508 128.654 992.463 129.052 993.166 129.849C993.869 130.64 994.221 131.686 994.221 132.987V133.91H987.585C987.614 135.041 987.898 135.899 988.438 136.485C988.982 137.071 989.747 137.364 990.731 137.364C991.769 137.364 992.794 137.147 993.808 136.713V138.014C993.292 138.237 992.803 138.395 992.34 138.489C991.883 138.588 991.329 138.638 990.679 138.638ZM990.283 129.875C989.51 129.875 988.892 130.127 988.429 130.631C987.972 131.135 987.702 131.833 987.62 132.723H992.656C992.656 131.803 992.451 131.1 992.041 130.614C991.631 130.122 991.045 129.875 990.283 129.875ZM1004.21 138.462V132.231C1004.21 131.446 1004.03 130.86 1003.67 130.473C1003.32 130.086 1002.76 129.893 1001.99 129.893C1000.99 129.893 1000.25 130.166 999.779 130.71C999.31 131.255 999.076 132.155 999.076 133.409V138.462H997.617V128.83H998.803L999.041 130.148H999.111C999.41 129.673 999.829 129.307 1000.37 129.049C1000.91 128.786 1001.51 128.654 1002.17 128.654C1003.33 128.654 1004.2 128.935 1004.79 129.498C1005.37 130.054 1005.67 130.948 1005.67 132.178V138.462H1004.21ZM1016.13 137.17H1016.05C1015.38 138.149 1014.37 138.638 1013.03 138.638C1011.77 138.638 1010.79 138.208 1010.08 137.346C1009.39 136.485 1009.04 135.26 1009.04 133.672C1009.04 132.084 1009.39 130.851 1010.09 129.972C1010.8 129.093 1011.77 128.654 1013.03 128.654C1014.33 128.654 1015.34 129.128 1016.03 130.078H1016.15L1016.09 129.383L1016.05 128.707V124.787H1017.51V138.462H1016.32L1016.13 137.17ZM1013.21 137.417C1014.21 137.417 1014.93 137.147 1015.37 136.608C1015.83 136.063 1016.05 135.187 1016.05 133.98V133.672C1016.05 132.307 1015.82 131.334 1015.37 130.754C1014.91 130.168 1014.19 129.875 1013.19 129.875C1012.34 129.875 1011.68 130.209 1011.23 130.877C1010.77 131.54 1010.55 132.477 1010.55 133.69C1010.55 134.92 1010.77 135.849 1011.23 136.476C1011.68 137.103 1012.34 137.417 1013.21 137.417ZM1021.3 137.531C1021.3 137.138 1021.39 136.842 1021.57 136.643C1021.75 136.438 1022 136.335 1022.34 136.335C1022.68 136.335 1022.94 136.438 1023.13 136.643C1023.32 136.842 1023.42 137.138 1023.42 137.531C1023.42 137.912 1023.32 138.205 1023.13 138.41C1022.94 138.615 1022.67 138.717 1022.34 138.717C1022.04 138.717 1021.79 138.626 1021.59 138.445C1021.4 138.257 1021.3 137.953 1021.3 137.531ZM1033.14 138.462L1032.85 137.091H1032.77C1032.29 137.695 1031.81 138.105 1031.33 138.322C1030.86 138.533 1030.26 138.638 1029.55 138.638C1028.59 138.638 1027.84 138.392 1027.3 137.9C1026.76 137.408 1026.49 136.708 1026.49 135.799C1026.49 133.854 1028.05 132.834 1031.16 132.741L1032.79 132.688V132.09C1032.79 131.334 1032.63 130.778 1032.3 130.42C1031.98 130.057 1031.46 129.875 1030.74 129.875C1029.94 129.875 1029.03 130.122 1028.02 130.614L1027.57 129.498C1028.05 129.24 1028.56 129.038 1029.13 128.891C1029.7 128.745 1030.26 128.671 1030.83 128.671C1031.98 128.671 1032.83 128.926 1033.38 129.436C1033.94 129.946 1034.22 130.763 1034.22 131.888V138.462H1033.14ZM1029.84 137.434C1030.75 137.434 1031.46 137.185 1031.98 136.687C1032.5 136.189 1032.76 135.492 1032.76 134.595V133.725L1031.3 133.787C1030.14 133.828 1029.3 134.009 1028.78 134.332C1028.27 134.648 1028.02 135.143 1028.02 135.817C1028.02 136.344 1028.18 136.746 1028.49 137.021C1028.82 137.296 1029.27 137.434 1029.84 137.434ZM1042.61 138.638C1041.99 138.638 1041.41 138.524 1040.89 138.295C1040.38 138.061 1039.94 137.704 1039.59 137.223H1039.48C1039.55 137.786 1039.59 138.319 1039.59 138.823V142.787H1038.13V128.83H1039.32L1039.52 130.148H1039.59C1039.96 129.621 1040.4 129.24 1040.9 129.005C1041.4 128.771 1041.97 128.654 1042.61 128.654C1043.89 128.654 1044.88 129.09 1045.57 129.963C1046.26 130.836 1046.61 132.061 1046.61 133.637C1046.61 135.219 1046.26 136.45 1045.55 137.329C1044.85 138.202 1043.87 138.638 1042.61 138.638ZM1042.4 129.893C1041.42 129.893 1040.71 130.166 1040.27 130.71C1039.83 131.255 1039.6 132.123 1039.59 133.312V133.637C1039.59 134.991 1039.82 135.96 1040.27 136.546C1040.72 137.126 1041.44 137.417 1042.44 137.417C1043.27 137.417 1043.92 137.08 1044.39 136.406C1044.86 135.732 1045.1 134.803 1045.1 133.62C1045.1 132.418 1044.86 131.499 1044.39 130.86C1043.92 130.215 1043.26 129.893 1042.4 129.893ZM1054.55 138.638C1053.93 138.638 1053.35 138.524 1052.83 138.295C1052.31 138.061 1051.88 137.704 1051.53 137.223H1051.42C1051.49 137.786 1051.53 138.319 1051.53 138.823V142.787H1050.07V128.83H1051.26L1051.46 130.148H1051.53C1051.9 129.621 1052.34 129.24 1052.84 129.005C1053.34 128.771 1053.91 128.654 1054.55 128.654C1055.83 128.654 1056.81 129.09 1057.51 129.963C1058.2 130.836 1058.55 132.061 1058.55 133.637C1058.55 135.219 1058.2 136.45 1057.49 137.329C1056.78 138.202 1055.81 138.638 1054.55 138.638ZM1054.34 129.893C1053.36 129.893 1052.65 130.166 1052.21 130.71C1051.77 131.255 1051.54 132.123 1051.53 133.312V133.637C1051.53 134.991 1051.75 135.96 1052.21 136.546C1052.66 137.126 1053.38 137.417 1054.38 137.417C1055.21 137.417 1055.86 137.08 1056.33 136.406C1056.8 135.732 1057.04 134.803 1057.04 133.62C1057.04 132.418 1056.8 131.499 1056.33 130.86C1055.86 130.215 1055.2 129.893 1054.34 129.893Z" fill="#F8E71C"/>
<path d="M353.156 118.463V102.044H355.852V116.172H362.826V118.463H353.156ZM377.553 112.218C377.553 113.252 377.419 114.169 377.149 114.97C376.879 115.771 376.486 116.449 375.97 117.003C375.453 117.549 374.832 117.968 374.106 118.26C373.379 118.545 372.56 118.687 371.646 118.687C370.793 118.687 370.01 118.545 369.299 118.26C368.588 117.968 367.97 117.549 367.446 117.003C366.929 116.449 366.529 115.771 366.244 114.97C365.96 114.169 365.817 113.252 365.817 112.218C365.817 110.848 366.053 109.688 366.525 108.737C367.004 107.779 367.685 107.049 368.569 106.547C369.452 106.045 370.504 105.795 371.725 105.795C372.87 105.795 373.881 106.045 374.757 106.547C375.633 107.049 376.318 107.779 376.812 108.737C377.306 109.695 377.553 110.856 377.553 112.218ZM368.535 112.218C368.535 113.124 368.644 113.899 368.861 114.543C369.086 115.187 369.43 115.681 369.894 116.026C370.358 116.362 370.957 116.531 371.691 116.531C372.425 116.531 373.024 116.362 373.488 116.026C373.952 115.681 374.293 115.187 374.51 114.543C374.727 113.899 374.836 113.124 374.836 112.218C374.836 111.313 374.727 110.545 374.51 109.916C374.293 109.28 373.952 108.797 373.488 108.467C373.024 108.131 372.421 107.962 371.68 107.962C370.587 107.962 369.789 108.329 369.288 109.063C368.786 109.796 368.535 110.848 368.535 112.218ZM392.741 112.218C392.741 113.252 392.607 114.169 392.337 114.97C392.068 115.771 391.675 116.449 391.158 117.003C390.641 117.549 390.02 117.968 389.294 118.26C388.567 118.545 387.748 118.687 386.834 118.687C385.981 118.687 385.198 118.545 384.487 118.26C383.776 117.968 383.158 117.549 382.634 117.003C382.117 116.449 381.717 115.771 381.432 114.97C381.148 114.169 381.006 113.252 381.006 112.218C381.006 110.848 381.241 109.688 381.713 108.737C382.192 107.779 382.874 107.049 383.757 106.547C384.64 106.045 385.692 105.795 386.913 105.795C388.058 105.795 389.069 106.045 389.945 106.547C390.821 107.049 391.506 107.779 392 108.737C392.494 109.695 392.741 110.856 392.741 112.218ZM383.723 112.218C383.723 113.124 383.832 113.899 384.049 114.543C384.274 115.187 384.618 115.681 385.082 116.026C385.546 116.362 386.145 116.531 386.879 116.531C387.613 116.531 388.212 116.362 388.676 116.026C389.14 115.681 389.481 115.187 389.698 114.543C389.915 113.899 390.024 113.124 390.024 112.218C390.024 111.313 389.915 110.545 389.698 109.916C389.481 109.28 389.14 108.797 388.676 108.467C388.212 108.131 387.609 107.962 386.868 107.962C385.775 107.962 384.977 108.329 384.476 109.063C383.974 109.796 383.723 110.848 383.723 112.218ZM399.563 100.988V109.433C399.563 109.815 399.548 110.234 399.518 110.691C399.488 111.14 399.458 111.563 399.428 111.96H399.484C399.679 111.698 399.911 111.391 400.18 111.039C400.457 110.687 400.72 110.38 400.967 110.118L404.763 106.03H407.795L402.82 111.376L408.12 118.463H405.021L401.045 113.005L399.563 114.274V118.463H396.924V100.988H399.563ZM413.897 106.03V118.463H411.258V106.03H413.897ZM412.595 101.269C412.999 101.269 413.347 101.377 413.639 101.594C413.939 101.812 414.088 102.186 414.088 102.717C414.088 103.242 413.939 103.616 413.639 103.841C413.347 104.058 412.999 104.166 412.595 104.166C412.175 104.166 411.82 104.058 411.528 103.841C411.243 103.616 411.101 103.242 411.101 102.717C411.101 102.186 411.243 101.812 411.528 101.594C411.82 101.377 412.175 101.269 412.595 101.269ZM425.312 105.795C426.712 105.795 427.801 106.158 428.58 106.884C429.366 107.603 429.759 108.759 429.759 110.354V118.463H427.12V110.848C427.12 109.883 426.922 109.16 426.525 108.681C426.128 108.194 425.514 107.951 424.683 107.951C423.478 107.951 422.639 108.321 422.167 109.063C421.703 109.804 421.471 110.878 421.471 112.286V118.463H418.832V106.03H420.887L421.258 107.715H421.404C421.673 107.281 422.007 106.925 422.403 106.648C422.808 106.364 423.257 106.15 423.751 106.008C424.253 105.866 424.773 105.795 425.312 105.795ZM438.153 123.988C436.468 123.988 435.177 123.685 434.278 123.078C433.38 122.472 432.931 121.622 432.931 120.529C432.931 119.765 433.17 119.118 433.65 118.586C434.129 118.062 434.814 117.699 435.705 117.497C435.368 117.347 435.076 117.115 434.829 116.8C434.589 116.479 434.469 116.123 434.469 115.734C434.469 115.269 434.6 114.873 434.862 114.543C435.124 114.214 435.518 113.896 436.042 113.589C435.39 113.312 434.866 112.862 434.469 112.241C434.08 111.612 433.885 110.875 433.885 110.029C433.885 109.13 434.076 108.366 434.458 107.737C434.84 107.101 435.398 106.618 436.131 106.289C436.865 105.952 437.752 105.783 438.793 105.783C439.018 105.783 439.261 105.798 439.523 105.828C439.793 105.851 440.04 105.881 440.264 105.918C440.496 105.948 440.672 105.982 440.792 106.019H445.093V107.49L442.982 107.883C443.184 108.168 443.345 108.494 443.465 108.861C443.585 109.22 443.645 109.613 443.645 110.04C443.645 111.327 443.199 112.342 442.308 113.083C441.425 113.817 440.204 114.184 438.647 114.184C438.273 114.169 437.91 114.139 437.558 114.094C437.288 114.259 437.082 114.442 436.94 114.644C436.798 114.839 436.727 115.06 436.727 115.307C436.727 115.509 436.798 115.674 436.94 115.801C437.082 115.921 437.292 116.011 437.569 116.07C437.853 116.13 438.198 116.16 438.602 116.16H440.747C442.11 116.16 443.15 116.449 443.869 117.025C444.588 117.602 444.947 118.448 444.947 119.563C444.947 120.978 444.363 122.068 443.195 122.831C442.027 123.602 440.347 123.988 438.153 123.988ZM438.254 122.135C439.175 122.135 439.95 122.045 440.579 121.865C441.208 121.686 441.683 121.427 442.005 121.091C442.327 120.761 442.488 120.368 442.488 119.911C442.488 119.507 442.387 119.196 442.185 118.979C441.983 118.762 441.679 118.612 441.275 118.53C440.871 118.448 440.369 118.406 439.77 118.406H437.816C437.329 118.406 436.899 118.481 436.525 118.631C436.15 118.788 435.858 119.013 435.649 119.305C435.446 119.597 435.345 119.949 435.345 120.361C435.345 120.93 435.596 121.368 436.098 121.674C436.607 121.981 437.326 122.135 438.254 122.135ZM438.771 112.454C439.542 112.454 440.115 112.245 440.489 111.825C440.863 111.399 441.05 110.8 441.05 110.029C441.05 109.19 440.856 108.561 440.466 108.142C440.085 107.723 439.516 107.513 438.759 107.513C438.018 107.513 437.453 107.726 437.064 108.153C436.682 108.58 436.491 109.212 436.491 110.051C436.491 110.807 436.682 111.399 437.064 111.825C437.453 112.245 438.022 112.454 438.771 112.454ZM461.847 108.041H458.826V118.463H456.187V108.041H454.154V106.772L456.187 105.997V105.132C456.187 104.076 456.352 103.238 456.681 102.616C457.018 101.995 457.497 101.549 458.118 101.28C458.747 101.003 459.496 100.864 460.365 100.864C460.934 100.864 461.454 100.913 461.926 101.01C462.397 101.1 462.794 101.205 463.116 101.325L462.431 103.324C462.176 103.242 461.892 103.167 461.577 103.099C461.263 103.024 460.926 102.987 460.567 102.987C459.968 102.987 459.526 103.174 459.242 103.549C458.964 103.923 458.826 104.469 458.826 105.188V106.03H461.847V108.041ZM476.125 112.218C476.125 113.252 475.991 114.169 475.721 114.97C475.452 115.771 475.058 116.449 474.542 117.003C474.025 117.549 473.404 117.968 472.678 118.26C471.951 118.545 471.132 118.687 470.218 118.687C469.365 118.687 468.582 118.545 467.871 118.26C467.16 117.968 466.542 117.549 466.018 117.003C465.501 116.449 465.101 115.771 464.816 114.97C464.532 114.169 464.39 113.252 464.39 112.218C464.39 110.848 464.625 109.688 465.097 108.737C465.576 107.779 466.258 107.049 467.141 106.547C468.024 106.045 469.076 105.795 470.297 105.795C471.442 105.795 472.453 106.045 473.329 106.547C474.205 107.049 474.89 107.779 475.384 108.737C475.878 109.695 476.125 110.856 476.125 112.218ZM467.107 112.218C467.107 113.124 467.216 113.899 467.433 114.543C467.658 115.187 468.002 115.681 468.466 116.026C468.93 116.362 469.529 116.531 470.263 116.531C470.997 116.531 471.596 116.362 472.06 116.026C472.524 115.681 472.865 115.187 473.082 114.543C473.299 113.899 473.408 113.124 473.408 112.218C473.408 111.313 473.299 110.545 473.082 109.916C472.865 109.28 472.524 108.797 472.06 108.467C471.596 108.131 470.993 107.962 470.252 107.962C469.159 107.962 468.361 108.329 467.86 109.063C467.358 109.796 467.107 110.848 467.107 112.218ZM486.608 105.795C486.818 105.795 487.046 105.806 487.293 105.828C487.54 105.851 487.753 105.881 487.933 105.918L487.686 108.389C487.529 108.344 487.334 108.31 487.102 108.288C486.877 108.265 486.675 108.254 486.496 108.254C486.024 108.254 485.575 108.333 485.148 108.49C484.721 108.64 484.343 108.872 484.014 109.186C483.684 109.493 483.426 109.879 483.239 110.343C483.052 110.807 482.958 111.346 482.958 111.96V118.463H480.308V106.03H482.374L482.733 108.22H482.857C483.104 107.779 483.411 107.374 483.778 107.008C484.145 106.641 484.564 106.349 485.036 106.132C485.515 105.907 486.039 105.795 486.608 105.795Z" fill="#F8E71C"/>
<path d="M384.331 86.4626L382.725 81.903H376.447L374.841 86.4626H372L378.109 69.9763H381.097L387.195 86.4626H384.331ZM382.029 79.5895L380.468 75.0974C380.408 74.9027 380.322 74.6294 380.209 74.2775C380.097 73.9182 379.985 73.555 379.873 73.1882C379.76 72.8138 379.667 72.4994 379.592 72.2448C379.517 72.5518 379.423 72.8962 379.311 73.278C379.206 73.6524 379.101 74.0043 378.997 74.3337C378.899 74.6631 378.824 74.9177 378.772 75.0974L377.2 79.5895H382.029ZM392.893 86.4626H390.243V68.988H392.893V86.4626ZM407.98 86.4514L406.408 80.6677C406.333 80.3832 406.243 80.0388 406.138 79.6345C406.034 79.2302 405.929 78.8146 405.824 78.3879C405.719 77.9536 405.622 77.5531 405.532 77.1862C405.45 76.8194 405.386 76.5349 405.341 76.3327H405.251C405.214 76.5349 405.154 76.8194 405.071 77.1862C404.989 77.5531 404.896 77.9536 404.791 78.3879C404.686 78.8221 404.581 79.2451 404.476 79.6569C404.379 80.0687 404.289 80.4206 404.207 80.7126L402.556 86.4514H399.658L396.177 74.0192H398.85L400.467 80.196C400.572 80.6153 400.673 81.0682 400.77 81.5549C400.875 82.0415 400.965 82.5057 401.04 82.9474C401.115 83.3892 401.171 83.7523 401.208 84.0368H401.298C401.328 83.8347 401.369 83.5801 401.422 83.2731C401.474 82.9587 401.534 82.633 401.601 82.2961C401.669 81.9517 401.736 81.6297 401.803 81.3303C401.871 81.0233 401.934 80.7762 401.994 80.5891L403.904 74.0192H406.79L408.62 80.5891C408.703 80.8736 408.793 81.2329 408.89 81.6672C408.987 82.0939 409.073 82.5244 409.148 82.9587C409.231 83.3854 409.283 83.7411 409.305 84.0256H409.395C409.425 83.771 409.478 83.4266 409.552 82.9924C409.635 82.5506 409.728 82.0827 409.833 81.5886C409.938 81.0869 410.047 80.6227 410.159 80.196L411.81 74.0192H414.438L410.934 86.4514H407.98ZM422.596 73.7946C424.168 73.7946 425.354 74.1428 426.156 74.8391C426.964 75.5353 427.368 76.621 427.368 78.0959V86.4626H425.493L424.988 84.6994H424.898C424.546 85.1486 424.183 85.5192 423.808 85.8112C423.434 86.1032 423 86.3203 422.506 86.4626C422.019 86.6123 421.424 86.6872 420.72 86.6872C419.979 86.6872 419.316 86.5524 418.732 86.2829C418.148 86.0059 417.688 85.5866 417.351 85.0251C417.014 84.4636 416.846 83.7523 416.846 82.8913C416.846 81.611 417.321 80.6489 418.272 80.0051C419.23 79.3612 420.675 79.0056 422.607 78.9382L424.763 78.8596V78.2082C424.763 77.3472 424.561 76.7333 424.157 76.3664C423.76 75.9995 423.198 75.8161 422.472 75.8161C421.851 75.8161 421.248 75.9059 420.664 76.0856C420.08 76.2653 419.511 76.4862 418.957 76.7482L418.103 74.884C418.71 74.562 419.399 74.3 420.17 74.0978C420.948 73.8957 421.757 73.7946 422.596 73.7946ZM424.752 80.5217L423.146 80.5778C421.828 80.6227 420.903 80.8474 420.372 81.2516C419.84 81.6559 419.575 82.21 419.575 82.9138C419.575 83.5277 419.758 83.9769 420.125 84.2614C420.492 84.5384 420.975 84.6769 421.574 84.6769C422.487 84.6769 423.243 84.4186 423.842 83.902C424.449 83.378 424.752 82.6105 424.752 81.5998V80.5217ZM430.338 74.0305H433.213L435.762 81.1281C435.874 81.4501 435.975 81.7682 436.065 82.0827C436.163 82.3897 436.245 82.6929 436.312 82.9924C436.387 83.2918 436.447 83.5913 436.492 83.8908H436.559C436.634 83.5015 436.739 83.0672 436.874 82.5881C437.016 82.1014 437.173 81.6148 437.346 81.1281L439.794 74.0305H442.635L437.301 88.1696C436.994 88.9782 436.616 89.667 436.166 90.236C435.725 90.8125 435.201 91.2468 434.594 91.5388C433.988 91.8382 433.295 91.988 432.517 91.988C432.142 91.988 431.816 91.9655 431.539 91.9206C431.262 91.8832 431.027 91.842 430.832 91.7971V89.6857C430.989 89.7232 431.188 89.7569 431.427 89.7868C431.667 89.8168 431.914 89.8317 432.168 89.8317C432.64 89.8317 433.048 89.7381 433.392 89.551C433.737 89.3638 434.029 89.098 434.268 88.7536C434.508 88.4167 434.706 88.0311 434.864 87.5969L435.302 86.4289L430.338 74.0305ZM454.027 82.9138C454.027 83.7298 453.829 84.4186 453.432 84.9802C453.035 85.5417 452.455 85.9684 451.691 86.2604C450.935 86.5449 450.007 86.6872 448.906 86.6872C448.038 86.6872 447.289 86.6236 446.66 86.4963C446.039 86.3765 445.451 86.1893 444.897 85.9348V83.655C445.488 83.932 446.151 84.1716 446.885 84.3737C447.626 84.5759 448.326 84.6769 448.985 84.6769C449.853 84.6769 450.479 84.5422 450.86 84.2726C451.242 83.9956 451.433 83.6288 451.433 83.1721C451.433 82.9025 451.354 82.6629 451.197 82.4533C451.048 82.2362 450.763 82.0153 450.344 81.7907C449.932 81.5586 449.326 81.2816 448.524 80.9597C447.738 80.6452 447.076 80.3307 446.537 80.0163C445.998 79.7018 445.59 79.3238 445.312 78.882C445.035 78.4328 444.897 77.86 444.897 77.1638C444.897 76.0632 445.331 75.2284 446.2 74.6594C447.076 74.0829 448.232 73.7946 449.67 73.7946C450.434 73.7946 451.152 73.8732 451.826 74.0305C452.507 74.1802 453.174 74.4011 453.825 74.6931L452.994 76.6808C452.433 76.4338 451.867 76.2316 451.298 76.0744C450.737 75.9097 450.164 75.8273 449.58 75.8273C448.899 75.8273 448.378 75.9321 448.019 76.1418C447.667 76.3514 447.491 76.6509 447.491 77.0402C447.491 77.3322 447.577 77.5793 447.75 77.7814C447.922 77.9836 448.217 78.1857 448.637 78.3879C449.063 78.59 449.655 78.8408 450.411 79.1403C451.152 79.4248 451.792 79.7243 452.332 80.0388C452.878 80.3457 453.297 80.7238 453.589 81.173C453.881 81.6223 454.027 82.2025 454.027 82.9138ZM460.692 83.7897L460.849 84.048C460.714 84.5871 460.542 85.1673 460.332 85.7888C460.122 86.4102 459.894 87.0316 459.647 87.653C459.4 88.2819 459.149 88.8734 458.895 89.4274H456.963C457.12 88.821 457.27 88.1846 457.412 87.5182C457.562 86.8594 457.697 86.208 457.817 85.5641C457.944 84.9128 458.045 84.3213 458.12 83.7897H460.692Z" fill="#F8E71C"/>
<path d="M362.762 154.308C363.331 154.308 363.894 154.259 364.45 154.16C365.007 154.049 365.514 153.919 365.972 153.77V157.073C365.489 157.283 364.865 157.463 364.098 157.611C363.331 157.759 362.533 157.834 361.704 157.834C360.541 157.834 359.496 157.642 358.568 157.258C357.641 156.863 356.905 156.188 356.36 155.236C355.816 154.284 355.544 152.966 355.544 151.284V140.244H352.742V138.296L355.748 136.756L357.177 132.358H359.923V136.923H365.805V140.244H359.923V151.228C359.923 152.267 360.183 153.04 360.702 153.548C361.222 154.055 361.908 154.308 362.762 154.308ZM380.099 136.533C382.697 136.533 384.657 137.108 385.981 138.258C387.317 139.409 387.985 141.202 387.985 143.639V157.463H384.886L384.051 154.549H383.903C383.322 155.292 382.722 155.904 382.103 156.386C381.485 156.869 380.767 157.228 379.951 157.463C379.147 157.71 378.163 157.834 377.001 157.834C375.776 157.834 374.681 157.611 373.716 157.166C372.752 156.708 371.991 156.015 371.434 155.088C370.878 154.16 370.599 152.985 370.599 151.562C370.599 149.447 371.385 147.857 372.956 146.794C374.539 145.73 376.926 145.142 380.118 145.031L383.68 144.901V143.825C383.68 142.402 383.346 141.388 382.678 140.782C382.023 140.176 381.095 139.873 379.895 139.873C378.868 139.873 377.873 140.021 376.908 140.318C375.943 140.615 375.003 140.98 374.087 141.413L372.677 138.333C373.679 137.801 374.817 137.368 376.091 137.034C377.378 136.7 378.714 136.533 380.099 136.533ZM383.662 147.647L381.008 147.74C378.831 147.814 377.304 148.185 376.425 148.853C375.547 149.521 375.108 150.437 375.108 151.599C375.108 152.614 375.411 153.356 376.017 153.826C376.623 154.284 377.421 154.512 378.411 154.512C379.92 154.512 381.169 154.086 382.159 153.232C383.161 152.366 383.662 151.098 383.662 149.428V147.647ZM400.368 157.463H395.989V128.591H400.368V157.463ZM416.685 136.533C418.516 136.533 420.087 136.91 421.398 137.665C422.709 138.419 423.718 139.489 424.423 140.875C425.128 142.26 425.48 143.918 425.48 145.847V148.185H411.768C411.818 150.177 412.35 151.711 413.364 152.787C414.391 153.863 415.826 154.401 417.669 154.401C418.98 154.401 420.155 154.277 421.194 154.03C422.246 153.77 423.328 153.393 424.441 152.898V156.442C423.415 156.924 422.369 157.277 421.305 157.5C420.242 157.722 418.968 157.834 417.483 157.834C415.467 157.834 413.692 157.444 412.158 156.665C410.637 155.873 409.443 154.698 408.577 153.139C407.723 151.581 407.297 149.645 407.297 147.332C407.297 145.031 407.686 143.077 408.466 141.468C409.245 139.86 410.34 138.636 411.75 137.795C413.16 136.953 414.805 136.533 416.685 136.533ZM416.685 139.817C415.312 139.817 414.199 140.262 413.346 141.153C412.504 142.044 412.01 143.349 411.861 145.068H421.213C421.2 144.041 421.027 143.132 420.693 142.341C420.372 141.549 419.877 140.93 419.209 140.485C418.553 140.04 417.712 139.817 416.685 139.817ZM443.003 136.533C445.316 136.533 447.116 137.133 448.403 138.333C449.702 139.52 450.351 141.431 450.351 144.066V157.463H445.991V144.883C445.991 143.287 445.663 142.093 445.007 141.301C444.352 140.497 443.337 140.095 441.964 140.095C439.973 140.095 438.587 140.708 437.808 141.932C437.041 143.157 436.658 144.932 436.658 147.258V157.463H432.297V136.923H435.693L436.305 139.706H436.546C436.992 138.988 437.542 138.401 438.198 137.943C438.866 137.473 439.608 137.12 440.424 136.885C441.253 136.65 442.113 136.533 443.003 136.533ZM466 154.308C466.569 154.308 467.132 154.259 467.688 154.16C468.245 154.049 468.752 153.919 469.21 153.77V157.073C468.728 157.283 468.103 157.463 467.336 157.611C466.569 157.759 465.771 157.834 464.942 157.834C463.78 157.834 462.734 157.642 461.807 157.258C460.879 156.863 460.143 156.188 459.599 155.236C459.054 154.284 458.782 152.966 458.782 151.284V140.244H455.98V138.296L458.986 136.756L460.415 132.358H463.161V136.923H469.043V140.244H463.161V151.228C463.161 152.267 463.421 153.04 463.94 153.548C464.46 154.055 465.146 154.308 466 154.308ZM479.051 149.187H475.767L474.877 130.336H479.942L479.051 149.187ZM474.654 155.162C474.654 154.147 474.914 153.436 475.433 153.028C475.965 152.607 476.615 152.397 477.381 152.397C478.136 152.397 478.779 152.607 479.311 153.028C479.843 153.436 480.109 154.147 480.109 155.162C480.109 156.151 479.843 156.869 479.311 157.314C478.779 157.747 478.136 157.964 477.381 157.964C476.615 157.964 475.965 157.747 475.433 157.314C474.914 156.869 474.654 156.151 474.654 155.162Z" fill="#F8E71C"/>
<g filter="url(#filter1_d_7_53)">
<path d="M293.013 69.5073C291.646 65.3059 293.943 60.7915 298.145 59.4241L385.627 30.9501L473.11 2.47602C477.311 1.10856 481.826 3.40588 483.193 7.60721L540.141 182.573C541.509 186.774 539.212 191.288 535.01 192.656L360.045 249.604C355.843 250.971 351.329 248.674 349.962 244.473L293.013 69.5073Z" stroke="#F8E71C" stroke-width="2" shape-rendering="crispEdges"/>
</g>
<rect x="320.274" y="41.8151" width="43.5992" height="21" transform="rotate(-19.0327 320.274 41.8151)" fill="#937DE2"/>
<rect x="298.228" y="105.95" width="10.6415" height="30.4963" transform="rotate(-17.4766 298.228 105.95)" fill="#7769C4"/>
<g filter="url(#filter2_d_7_53)">
<circle cx="329.975" cy="48.3021" r="8.88181" transform="rotate(2.76458 329.975 48.3021)" fill="#F8E71C"/>
</g>
<rect width="9.23754" height="80.1765" rx="4.61877" transform="matrix(0.895724 -0.444609 0.445006 0.895527 273.37 53.2798)" fill="#D15460"/>
<rect width="9.23754" height="10.5894" rx="4.61877" transform="matrix(0.895724 -0.444609 0.445006 0.895527 271.154 69.5795)" fill="white"/>
<path d="M279.832 75.8186C277.123 76.0459 275.532 72.8428 277.35 70.8229L313.361 30.8186C314.778 29.2447 317.336 29.5948 318.279 31.4915L335.921 66.9936C336.863 68.8904 335.596 71.1393 333.485 71.3164L279.832 75.8186Z" fill="white"/>
<path d="M274.15 65.2301C272.921 62.7571 273.93 59.7571 276.404 58.5294L293.99 49.8002L306.107 74.1852L288.521 82.9144C286.048 84.1421 283.047 83.1327 281.818 80.6598L274.15 65.2301Z" fill="#D15460"/>
<rect width="5.13664" height="51.434" rx="2.56832" transform="matrix(0.895724 -0.444609 0.445006 0.895527 313.675 27.4261)" fill="#D15460"/>
<rect width="6.15836" height="37.8191" rx="3.07918" transform="matrix(0.895724 -0.444609 0.445006 0.895527 290.983 45.5946)" fill="#D15460"/>
<path d="M343.345 44.186C342.96 44.2178 342.591 44.0219 342.464 43.6943C342.314 43.3062 342.564 42.8803 343.016 42.7435L355.923 38.8071C356.375 38.6703 356.866 38.871 357.012 39.2567C357.162 39.6448 356.912 40.0707 356.46 40.2075L343.553 44.1439C343.485 44.1669 343.417 44.18 343.345 44.186Z" fill="#F8E71C"/>
<path d="M339.727 36.9689C339.497 37.0213 339.247 36.9733 339.058 36.8163C338.749 36.5599 338.727 36.1061 339.008 35.8054L348.354 25.8621C348.635 25.5614 349.117 25.5274 349.427 25.7838C349.736 26.0401 349.758 26.4939 349.477 26.7946L340.131 36.7379C340.019 36.856 339.878 36.9345 339.727 36.9689Z" fill="#F8E71C"/>
<path d="M356.03 53.4155C355.987 53.4144 355.944 53.4112 355.902 53.4059L343.96 51.9657C343.46 51.9047 343.118 51.5797 343.198 51.2382C343.278 50.8967 343.746 50.6678 344.246 50.7287L356.188 52.169C356.688 52.2299 357.03 52.555 356.95 52.8965C356.88 53.211 356.479 53.427 356.03 53.4155Z" fill="#F8E71C"/>
<defs>
<filter id="filter0_d_7_53" x="314.244" y="23.7062" width="208" height="208" filterUnits="userSpaceOnUse" color-interpolation-filters="sRGB">
<feFlood flood-opacity="0" result="BackgroundImageFix"/>
<feColorMatrix in="SourceAlpha" type="matrix" values="0 0 0 0 0 0 0 0 0 0 0 0 0 0 0 0 0 0 127 0" result="hardAlpha"/>
<feOffset dy="4"/>
<feGaussianBlur stdDeviation="2"/>
<feComposite in2="hardAlpha" operator="out"/>
<feColorMatrix type="matrix" values="0 0 0 0 0 0 0 0 0 0 0 0 0 0 0 0 0 0 0.25 0"/>
<feBlend mode="normal" in2="BackgroundImageFix" result="effect1_dropShadow_7_53"/>
<feBlend mode="normal" in="SourceGraphic" in2="effect1_dropShadow_7_53" result="shape"/>
</filter>
<filter id="filter1_d_7_53" x="287.618" y="1.08081" width="257.918" height="257.918" filterUnits="userSpaceOnUse" color-interpolation-filters="sRGB">
<feFlood flood-opacity="0" result="BackgroundImageFix"/>
<feColorMatrix in="SourceAlpha" type="matrix" values="0 0 0 0 0 0 0 0 0 0 0 0 0 0 0 0 0 0 127 0" result="hardAlpha"/>
<feOffset dy="4"/>
<feGaussianBlur stdDeviation="2"/>
<feComposite in2="hardAlpha" operator="out"/>
<feColorMatrix type="matrix" values="0 0 0 0 0 0 0 0 0 0 0 0 0 0 0 0 0 0 0.25 0"/>
<feBlend mode="normal" in2="BackgroundImageFix" result="effect1_dropShadow_7_53"/>
<feBlend mode="normal" in="SourceGraphic" in2="effect1_dropShadow_7_53" result="shape"/>
</filter>
<filter id="filter2_d_7_53" x="317.093" y="39.4201" width="25.764" height="25.764" filterUnits="userSpaceOnUse" color-interpolation-filters="sRGB">
<feFlood flood-opacity="0" result="BackgroundImageFix"/>
<feColorMatrix in="SourceAlpha" type="matrix" values="0 0 0 0 0 0 0 0 0 0 0 0 0 0 0 0 0 0 127 0" result="hardAlpha"/>
<feOffset dy="4"/>
<feGaussianBlur stdDeviation="2"/>
<feComposite in2="hardAlpha" operator="out"/>
<feColorMatrix type="matrix" values="0 0 0 0 0 0 0 0 0 0 0 0 0 0 0 0 0 0 0.25 0"/>
<feBlend mode="normal" in2="BackgroundImageFix" result="effect1_dropShadow_7_53"/>
<feBlend mode="normal" in="SourceGraphic" in2="effect1_dropShadow_7_53" result="shape"/>
</filter>
</defs>
</svg>
