<svg width="1440" height="269" viewBox="0 0 1440 269" fill="none" xmlns="http://www.w3.org/2000/svg">
<rect y="69" width="1440" height="122" fill="#A795E6"/>
<g filter="url(#filter0_d_103_50)">
<rect x="331.244" y="33.0827" width="200" height="200" rx="8" fill="#937DE2"/>
</g>
<path d="M590.795 116.839L589.259 112.478H583.254L581.718 116.839H579L584.844 101.069H587.701L593.534 116.839H590.795ZM588.593 110.265L587.1 105.968C587.042 105.782 586.96 105.52 586.853 105.184C586.745 104.84 586.638 104.493 586.53 104.142C586.423 103.784 586.333 103.483 586.262 103.239C586.19 103.533 586.101 103.862 585.993 104.228C585.893 104.586 585.793 104.922 585.692 105.237C585.599 105.552 585.528 105.796 585.478 105.968L583.974 110.265H588.593ZM603.522 101.134H608.195C610.222 101.134 611.751 101.427 612.782 102.015C613.813 102.602 614.329 103.615 614.329 105.055C614.329 105.656 614.221 106.201 614.007 106.688C613.799 107.167 613.495 107.565 613.094 107.88C612.693 108.188 612.198 108.396 611.611 108.503V108.61C612.22 108.718 612.761 108.908 613.233 109.18C613.713 109.452 614.089 109.842 614.361 110.351C614.64 110.859 614.78 111.518 614.78 112.327C614.78 113.287 614.551 114.103 614.093 114.776C613.641 115.45 612.993 115.962 612.148 116.313C611.31 116.663 610.315 116.839 609.162 116.839H603.522V101.134ZM606.1 107.611H608.571C609.738 107.611 610.548 107.422 610.999 107.042C611.45 106.662 611.676 106.107 611.676 105.377C611.676 104.632 611.407 104.095 610.87 103.766C610.34 103.436 609.495 103.272 608.335 103.272H606.1V107.611ZM606.1 109.695V114.68H608.818C610.021 114.68 610.866 114.447 611.353 113.981C611.84 113.516 612.084 112.886 612.084 112.091C612.084 111.604 611.973 111.181 611.751 110.823C611.536 110.465 611.181 110.189 610.687 109.996C610.193 109.796 609.527 109.695 608.689 109.695H606.1ZM621.391 104.947V116.839H618.866V104.947H621.391ZM620.145 100.393C620.531 100.393 620.864 100.496 621.144 100.704C621.43 100.912 621.573 101.27 621.573 101.778C621.573 102.28 621.43 102.638 621.144 102.853C620.864 103.06 620.531 103.164 620.145 103.164C619.744 103.164 619.404 103.06 619.124 102.853C618.852 102.638 618.716 102.28 618.716 101.778C618.716 101.27 618.852 100.912 619.124 100.704C619.404 100.496 619.744 100.393 620.145 100.393ZM629.505 122.124C627.894 122.124 626.659 121.834 625.799 121.254C624.94 120.674 624.51 119.861 624.51 118.815C624.51 118.085 624.74 117.466 625.198 116.957C625.656 116.456 626.311 116.108 627.164 115.915C626.841 115.772 626.562 115.55 626.326 115.249C626.097 114.941 625.982 114.601 625.982 114.229C625.982 113.785 626.107 113.405 626.358 113.09C626.609 112.775 626.985 112.47 627.486 112.177C626.863 111.912 626.362 111.482 625.982 110.888C625.61 110.286 625.423 109.581 625.423 108.772C625.423 107.912 625.606 107.182 625.971 106.58C626.337 105.971 626.87 105.509 627.572 105.194C628.274 104.872 629.122 104.711 630.118 104.711C630.333 104.711 630.565 104.725 630.816 104.754C631.074 104.775 631.31 104.804 631.525 104.84C631.747 104.869 631.915 104.901 632.03 104.937H636.144V106.344L634.125 106.72C634.318 106.992 634.472 107.303 634.587 107.654C634.701 107.998 634.758 108.374 634.758 108.782C634.758 110.014 634.332 110.984 633.48 111.693C632.635 112.395 631.468 112.746 629.978 112.746C629.62 112.732 629.273 112.703 628.936 112.66C628.678 112.818 628.481 112.993 628.345 113.187C628.209 113.373 628.141 113.584 628.141 113.82C628.141 114.014 628.209 114.171 628.345 114.293C628.481 114.408 628.682 114.494 628.947 114.551C629.219 114.608 629.548 114.637 629.935 114.637H631.987C633.29 114.637 634.286 114.912 634.973 115.464C635.661 116.015 636.004 116.825 636.004 117.892C636.004 119.245 635.446 120.287 634.329 121.018C633.212 121.755 631.604 122.124 629.505 122.124ZM629.602 120.352C630.483 120.352 631.224 120.266 631.826 120.094C632.427 119.922 632.882 119.675 633.19 119.353C633.498 119.037 633.652 118.661 633.652 118.225C633.652 117.838 633.555 117.541 633.362 117.333C633.169 117.125 632.879 116.982 632.492 116.903C632.105 116.825 631.625 116.785 631.052 116.785H629.183C628.718 116.785 628.306 116.857 627.948 117C627.59 117.15 627.31 117.365 627.11 117.645C626.917 117.924 626.82 118.26 626.82 118.654C626.82 119.199 627.06 119.618 627.54 119.911C628.027 120.205 628.714 120.352 629.602 120.352ZM630.096 111.092C630.834 111.092 631.382 110.891 631.74 110.49C632.098 110.082 632.277 109.509 632.277 108.772C632.277 107.969 632.091 107.368 631.718 106.967C631.353 106.566 630.809 106.365 630.086 106.365C629.377 106.365 628.836 106.569 628.463 106.978C628.098 107.386 627.916 107.991 627.916 108.793C627.916 109.516 628.098 110.082 628.463 110.49C628.836 110.891 629.38 111.092 630.096 111.092ZM652.825 108.31H658.69V116.194C657.866 116.467 657.014 116.678 656.133 116.828C655.252 116.979 654.264 117.054 653.168 117.054C651.571 117.054 650.218 116.739 649.108 116.108C648.005 115.471 647.167 114.551 646.594 113.348C646.021 112.137 645.735 110.68 645.735 108.976C645.735 107.336 646.053 105.914 646.691 104.711C647.328 103.501 648.256 102.566 649.473 101.907C650.69 101.241 652.166 100.908 653.899 100.908C654.751 100.908 655.575 100.994 656.37 101.166C657.172 101.331 657.906 101.56 658.572 101.854L657.669 103.98C657.139 103.73 656.545 103.519 655.886 103.347C655.227 103.175 654.543 103.089 653.834 103.089C652.71 103.089 651.74 103.332 650.923 103.819C650.114 104.306 649.491 104.994 649.054 105.882C648.617 106.763 648.399 107.805 648.399 109.008C648.399 110.175 648.574 111.199 648.925 112.08C649.276 112.961 649.824 113.648 650.569 114.143C651.321 114.63 652.291 114.873 653.48 114.873C654.074 114.873 654.579 114.841 654.995 114.776C655.41 114.712 655.793 114.64 656.144 114.562V110.512H652.825V108.31ZM673.819 110.866C673.819 111.855 673.69 112.732 673.432 113.498C673.175 114.264 672.799 114.912 672.304 115.442C671.81 115.965 671.216 116.366 670.521 116.646C669.827 116.918 669.042 117.054 668.169 117.054C667.352 117.054 666.604 116.918 665.924 116.646C665.243 116.366 664.652 115.965 664.151 115.442C663.657 114.912 663.274 114.264 663.002 113.498C662.73 112.732 662.594 111.855 662.594 110.866C662.594 109.556 662.819 108.446 663.27 107.536C663.729 106.619 664.38 105.921 665.225 105.441C666.07 104.962 667.077 104.722 668.244 104.722C669.34 104.722 670.306 104.962 671.144 105.441C671.982 105.921 672.637 106.619 673.11 107.536C673.583 108.453 673.819 109.563 673.819 110.866ZM665.193 110.866C665.193 111.733 665.297 112.474 665.505 113.09C665.72 113.706 666.049 114.178 666.493 114.508C666.937 114.83 667.51 114.991 668.212 114.991C668.914 114.991 669.486 114.83 669.93 114.508C670.374 114.178 670.7 113.706 670.908 113.09C671.116 112.474 671.22 111.733 671.22 110.866C671.22 110 671.116 109.266 670.908 108.664C670.7 108.055 670.374 107.593 669.93 107.278C669.486 106.956 668.91 106.795 668.201 106.795C667.155 106.795 666.393 107.146 665.913 107.848C665.433 108.55 665.193 109.556 665.193 110.866ZM682.482 104.722C683.986 104.722 685.121 105.055 685.887 105.721C686.66 106.387 687.047 107.425 687.047 108.836V116.839H685.253L684.77 115.152H684.684C684.347 115.582 684 115.937 683.642 116.216C683.284 116.495 682.868 116.703 682.396 116.839C681.93 116.982 681.361 117.054 680.688 117.054C679.979 117.054 679.345 116.925 678.786 116.667C678.228 116.402 677.787 116.001 677.465 115.464C677.143 114.927 676.982 114.246 676.982 113.423C676.982 112.198 677.436 111.278 678.346 110.662C679.263 110.046 680.645 109.706 682.492 109.642L684.555 109.566V108.943C684.555 108.12 684.362 107.533 683.975 107.182C683.595 106.831 683.058 106.655 682.363 106.655C681.769 106.655 681.193 106.741 680.634 106.913C680.075 107.085 679.531 107.296 679.001 107.547L678.185 105.764C678.765 105.456 679.424 105.205 680.161 105.012C680.906 104.818 681.68 104.722 682.482 104.722ZM684.544 111.156L683.008 111.21C681.748 111.253 680.863 111.468 680.355 111.855C679.846 112.241 679.592 112.771 679.592 113.444C679.592 114.032 679.767 114.461 680.118 114.733C680.469 114.998 680.931 115.131 681.504 115.131C682.378 115.131 683.101 114.884 683.674 114.39C684.254 113.888 684.544 113.154 684.544 112.188V111.156ZM694.216 116.839H691.681V100.124H694.216V116.839ZM711.939 104.722C713.278 104.722 714.32 105.069 715.065 105.764C715.817 106.451 716.193 107.558 716.193 109.083V116.839H713.668V109.556C713.668 108.632 713.479 107.941 713.099 107.482C712.719 107.017 712.132 106.784 711.337 106.784C710.184 106.784 709.382 107.139 708.931 107.848C708.487 108.557 708.265 109.584 708.265 110.931V116.839H705.741V104.947H707.706L708.061 106.559H708.201C708.458 106.143 708.777 105.803 709.157 105.538C709.543 105.266 709.973 105.062 710.446 104.926C710.926 104.79 711.423 104.722 711.939 104.722ZM725.564 104.722C726.624 104.722 727.534 104.94 728.293 105.377C729.052 105.814 729.636 106.433 730.044 107.235C730.452 108.037 730.656 108.997 730.656 110.114V111.468H722.718C722.746 112.621 723.054 113.509 723.641 114.132C724.236 114.755 725.067 115.066 726.134 115.066C726.893 115.066 727.573 114.995 728.175 114.852C728.783 114.701 729.41 114.483 730.054 114.196V116.248C729.46 116.527 728.855 116.731 728.239 116.86C727.623 116.989 726.886 117.054 726.026 117.054C724.859 117.054 723.831 116.828 722.943 116.377C722.062 115.919 721.371 115.238 720.87 114.336C720.376 113.434 720.129 112.313 720.129 110.974C720.129 109.642 720.354 108.51 720.805 107.579C721.257 106.648 721.89 105.939 722.707 105.452C723.523 104.965 724.476 104.722 725.564 104.722ZM725.564 106.623C724.769 106.623 724.125 106.881 723.631 107.397C723.144 107.912 722.857 108.668 722.771 109.663H728.185C728.178 109.069 728.078 108.542 727.885 108.084C727.698 107.626 727.412 107.268 727.025 107.01C726.646 106.752 726.159 106.623 725.564 106.623ZM739.34 104.722C740.4 104.722 741.309 104.94 742.069 105.377C742.828 105.814 743.411 106.433 743.82 107.235C744.228 108.037 744.432 108.997 744.432 110.114V111.468H736.493C736.522 112.621 736.83 113.509 737.417 114.132C738.012 114.755 738.842 115.066 739.909 115.066C740.668 115.066 741.349 114.995 741.95 114.852C742.559 114.701 743.186 114.483 743.83 114.196V116.248C743.236 116.527 742.631 116.731 742.015 116.86C741.399 116.989 740.661 117.054 739.802 117.054C738.635 117.054 737.607 116.828 736.719 116.377C735.838 115.919 735.147 115.238 734.646 114.336C734.152 113.434 733.904 112.313 733.904 110.974C733.904 109.642 734.13 108.51 734.581 107.579C735.032 106.648 735.666 105.939 736.483 105.452C737.299 104.965 738.252 104.722 739.34 104.722ZM739.34 106.623C738.545 106.623 737.901 106.881 737.406 107.397C736.919 107.912 736.633 108.668 736.547 109.663H741.961C741.954 109.069 741.854 108.542 741.66 108.084C741.474 107.626 741.188 107.268 740.801 107.01C740.421 106.752 739.934 106.623 739.34 106.623ZM752.375 117.054C750.957 117.054 749.818 116.538 748.959 115.507C748.106 114.468 747.68 112.939 747.68 110.92C747.68 108.879 748.114 107.336 748.98 106.29C749.854 105.244 751.003 104.722 752.428 104.722C753.03 104.722 753.556 104.804 754.007 104.969C754.459 105.126 754.845 105.341 755.168 105.613C755.497 105.885 755.776 106.19 756.005 106.526H756.124C756.088 106.304 756.045 105.986 755.995 105.57C755.952 105.148 755.93 104.758 755.93 104.399V100.124H758.465V116.839H756.489L756.038 115.217H755.93C755.715 115.561 755.443 115.872 755.114 116.151C754.792 116.424 754.405 116.642 753.954 116.807C753.51 116.971 752.983 117.054 752.375 117.054ZM753.084 115.002C754.165 115.002 754.928 114.69 755.372 114.067C755.816 113.444 756.045 112.51 756.059 111.264V110.931C756.059 109.599 755.844 108.578 755.415 107.869C754.985 107.153 754.201 106.795 753.062 106.795C752.153 106.795 751.458 107.164 750.978 107.901C750.505 108.632 750.269 109.652 750.269 110.963C750.269 112.273 750.505 113.276 750.978 113.971C751.458 114.658 752.16 115.002 753.084 115.002ZM771.178 113.444C771.178 114.225 770.988 114.884 770.608 115.421C770.229 115.958 769.674 116.366 768.943 116.646C768.22 116.918 767.332 117.054 766.279 117.054C765.449 117.054 764.732 116.993 764.131 116.871C763.536 116.757 762.974 116.578 762.444 116.334V114.153C763.01 114.418 763.644 114.647 764.346 114.841C765.055 115.034 765.724 115.131 766.354 115.131C767.185 115.131 767.783 115.002 768.148 114.744C768.514 114.479 768.696 114.128 768.696 113.691C768.696 113.434 768.621 113.204 768.471 113.004C768.327 112.796 768.055 112.585 767.654 112.37C767.26 112.148 766.68 111.883 765.914 111.575C765.162 111.274 764.528 110.974 764.013 110.673C763.497 110.372 763.107 110.01 762.842 109.588C762.577 109.158 762.444 108.61 762.444 107.944C762.444 106.892 762.86 106.093 763.69 105.549C764.528 104.997 765.635 104.722 767.01 104.722C767.74 104.722 768.428 104.797 769.072 104.947C769.724 105.091 770.361 105.302 770.984 105.581L770.189 107.482C769.652 107.246 769.112 107.053 768.567 106.902C768.03 106.745 767.482 106.666 766.924 106.666C766.272 106.666 765.774 106.766 765.431 106.967C765.094 107.167 764.926 107.454 764.926 107.826C764.926 108.105 765.008 108.342 765.173 108.535C765.338 108.729 765.62 108.922 766.021 109.115C766.43 109.309 766.995 109.549 767.719 109.835C768.428 110.107 769.04 110.394 769.556 110.694C770.078 110.988 770.479 111.35 770.759 111.779C771.038 112.209 771.178 112.764 771.178 113.444ZM785.216 122.124C783.604 122.124 782.369 121.834 781.51 121.254C780.65 120.674 780.221 119.861 780.221 118.815C780.221 118.085 780.45 117.466 780.908 116.957C781.366 116.456 782.022 116.108 782.874 115.915C782.552 115.772 782.272 115.55 782.036 115.249C781.807 114.941 781.692 114.601 781.692 114.229C781.692 113.785 781.818 113.405 782.068 113.09C782.319 112.775 782.695 112.47 783.196 112.177C782.573 111.912 782.072 111.482 781.692 110.888C781.32 110.286 781.134 109.581 781.134 108.772C781.134 107.912 781.316 107.182 781.681 106.58C782.047 105.971 782.58 105.509 783.282 105.194C783.984 104.872 784.832 104.711 785.828 104.711C786.043 104.711 786.276 104.725 786.526 104.754C786.784 104.775 787.02 104.804 787.235 104.84C787.457 104.869 787.625 104.901 787.74 104.937H791.854V106.344L789.835 106.72C790.028 106.992 790.182 107.303 790.297 107.654C790.411 107.998 790.469 108.374 790.469 108.782C790.469 110.014 790.042 110.984 789.19 111.693C788.345 112.395 787.178 112.746 785.688 112.746C785.33 112.732 784.983 112.703 784.646 112.66C784.388 112.818 784.192 112.993 784.055 113.187C783.919 113.373 783.851 113.584 783.851 113.82C783.851 114.014 783.919 114.171 784.055 114.293C784.192 114.408 784.392 114.494 784.657 114.551C784.929 114.608 785.259 114.637 785.645 114.637H787.697C789 114.637 789.996 114.912 790.683 115.464C791.371 116.015 791.715 116.825 791.715 117.892C791.715 119.245 791.156 120.287 790.039 121.018C788.922 121.755 787.314 122.124 785.216 122.124ZM785.312 120.352C786.193 120.352 786.934 120.266 787.536 120.094C788.137 119.922 788.592 119.675 788.9 119.353C789.208 119.037 789.362 118.661 789.362 118.225C789.362 117.838 789.265 117.541 789.072 117.333C788.879 117.125 788.589 116.982 788.202 116.903C787.815 116.825 787.335 116.785 786.762 116.785H784.893C784.428 116.785 784.016 116.857 783.658 117C783.3 117.15 783.021 117.365 782.82 117.645C782.627 117.924 782.53 118.26 782.53 118.654C782.53 119.199 782.77 119.618 783.25 119.911C783.737 120.205 784.424 120.352 785.312 120.352ZM785.806 111.092C786.544 111.092 787.092 110.891 787.45 110.49C787.808 110.082 787.987 109.509 787.987 108.772C787.987 107.969 787.801 107.368 787.429 106.967C787.063 106.566 786.519 106.365 785.796 106.365C785.087 106.365 784.546 106.569 784.174 106.978C783.808 107.386 783.626 107.991 783.626 108.793C783.626 109.516 783.808 110.082 784.174 110.49C784.546 110.891 785.09 111.092 785.806 111.092ZM801.151 104.722C801.351 104.722 801.57 104.732 801.806 104.754C802.042 104.775 802.246 104.804 802.418 104.84L802.182 107.203C802.031 107.16 801.845 107.128 801.623 107.106C801.408 107.085 801.215 107.074 801.043 107.074C800.592 107.074 800.162 107.149 799.754 107.3C799.346 107.443 798.984 107.665 798.669 107.966C798.354 108.259 798.107 108.628 797.928 109.072C797.749 109.516 797.659 110.032 797.659 110.619V116.839H795.124V104.947H797.101L797.445 107.042H797.563C797.799 106.619 798.093 106.233 798.444 105.882C798.794 105.531 799.196 105.252 799.647 105.044C800.105 104.829 800.606 104.722 801.151 104.722ZM810.458 104.722C811.518 104.722 812.427 104.94 813.186 105.377C813.945 105.814 814.529 106.433 814.937 107.235C815.345 108.037 815.549 108.997 815.549 110.114V111.468H807.611C807.64 112.621 807.948 113.509 808.535 114.132C809.129 114.755 809.96 115.066 811.027 115.066C811.786 115.066 812.466 114.995 813.068 114.852C813.677 114.701 814.303 114.483 814.948 114.196V116.248C814.353 116.527 813.748 116.731 813.132 116.86C812.517 116.989 811.779 117.054 810.92 117.054C809.752 117.054 808.725 116.828 807.837 116.377C806.956 115.919 806.265 115.238 805.763 114.336C805.269 113.434 805.022 112.313 805.022 110.974C805.022 109.642 805.248 108.51 805.699 107.579C806.15 106.648 806.784 105.939 807.6 105.452C808.417 104.965 809.369 104.722 810.458 104.722ZM810.458 106.623C809.663 106.623 809.018 106.881 808.524 107.397C808.037 107.912 807.751 108.668 807.665 109.663H813.079C813.072 109.069 812.971 108.542 812.778 108.084C812.592 107.626 812.305 107.268 811.919 107.01C811.539 106.752 811.052 106.623 810.458 106.623ZM824.158 104.722C825.662 104.722 826.797 105.055 827.563 105.721C828.337 106.387 828.724 107.425 828.724 108.836V116.839H826.93L826.446 115.152H826.36C826.024 115.582 825.676 115.937 825.318 116.216C824.96 116.495 824.545 116.703 824.072 116.839C823.607 116.982 823.037 117.054 822.364 117.054C821.655 117.054 821.021 116.925 820.463 116.667C819.904 116.402 819.464 116.001 819.142 115.464C818.819 114.927 818.658 114.246 818.658 113.423C818.658 112.198 819.113 111.278 820.022 110.662C820.939 110.046 822.321 109.706 824.169 109.642L826.231 109.566V108.943C826.231 108.12 826.038 107.533 825.651 107.182C825.272 106.831 824.735 106.655 824.04 106.655C823.446 106.655 822.869 106.741 822.311 106.913C821.752 107.085 821.208 107.296 820.678 107.547L819.861 105.764C820.441 105.456 821.1 105.205 821.838 105.012C822.583 104.818 823.356 104.722 824.158 104.722ZM826.221 111.156L824.685 111.21C823.424 111.253 822.54 111.468 822.031 111.855C821.523 112.241 821.269 112.771 821.269 113.444C821.269 114.032 821.444 114.461 821.795 114.733C822.146 114.998 822.608 115.131 823.181 115.131C824.054 115.131 824.778 114.884 825.351 114.39C825.931 113.888 826.221 113.154 826.221 112.188V111.156ZM837.784 115.013C838.113 115.013 838.439 114.984 838.761 114.927C839.083 114.862 839.377 114.787 839.642 114.701V116.613C839.363 116.735 839.001 116.839 838.557 116.925C838.113 117.011 837.651 117.054 837.171 117.054C836.498 117.054 835.893 116.943 835.356 116.721C834.819 116.492 834.393 116.101 834.078 115.55C833.762 114.998 833.605 114.236 833.605 113.262V106.87H831.983V105.742L833.723 104.851L834.55 102.305H836.14V104.947H839.545V106.87H836.14V113.23C836.14 113.831 836.29 114.279 836.591 114.572C836.892 114.866 837.289 115.013 837.784 115.013ZM856.075 104.722C857.486 104.722 858.618 105.237 859.47 106.269C860.329 107.3 860.759 108.832 860.759 110.866C860.759 112.213 860.558 113.348 860.157 114.272C859.764 115.188 859.209 115.883 858.492 116.355C857.783 116.821 856.956 117.054 856.011 117.054C855.409 117.054 854.887 116.975 854.443 116.817C853.999 116.66 853.619 116.456 853.304 116.205C852.989 115.947 852.724 115.668 852.509 115.367H852.359C852.394 115.654 852.427 115.972 852.455 116.323C852.491 116.667 852.509 116.982 852.509 117.269V122.113H849.974V104.947H852.036L852.391 106.591H852.509C852.731 106.254 853 105.943 853.315 105.656C853.637 105.37 854.024 105.144 854.475 104.98C854.933 104.808 855.467 104.722 856.075 104.722ZM855.399 106.784C854.704 106.784 854.145 106.924 853.723 107.203C853.307 107.475 853.003 107.887 852.81 108.439C852.624 108.99 852.523 109.681 852.509 110.512V110.866C852.509 111.747 852.598 112.495 852.778 113.111C852.964 113.72 853.268 114.186 853.691 114.508C854.12 114.823 854.7 114.98 855.431 114.98C856.047 114.98 856.555 114.812 856.956 114.476C857.364 114.139 857.669 113.659 857.869 113.036C858.07 112.413 858.17 111.679 858.17 110.834C858.17 109.552 857.941 108.557 857.483 107.848C857.031 107.139 856.337 106.784 855.399 106.784ZM869.518 104.722C870.578 104.722 871.488 104.94 872.247 105.377C873.006 105.814 873.589 106.433 873.998 107.235C874.406 108.037 874.61 108.997 874.61 110.114V111.468H866.671C866.7 112.621 867.008 113.509 867.595 114.132C868.19 114.755 869.02 115.066 870.087 115.066C870.847 115.066 871.527 114.995 872.129 114.852C872.737 114.701 873.364 114.483 874.008 114.196V116.248C873.414 116.527 872.809 116.731 872.193 116.86C871.577 116.989 870.839 117.054 869.98 117.054C868.813 117.054 867.785 116.828 866.897 116.377C866.016 115.919 865.325 115.238 864.824 114.336C864.33 113.434 864.083 112.313 864.083 110.974C864.083 109.642 864.308 108.51 864.759 107.579C865.211 106.648 865.844 105.939 866.661 105.452C867.477 104.965 868.43 104.722 869.518 104.722ZM869.518 106.623C868.723 106.623 868.079 106.881 867.585 107.397C867.098 107.912 866.811 108.668 866.725 109.663H872.139C872.132 109.069 872.032 108.542 871.838 108.084C871.652 107.626 871.366 107.268 870.979 107.01C870.6 106.752 870.113 106.623 869.518 106.623ZM889.084 110.866C889.084 111.855 888.955 112.732 888.697 113.498C888.439 114.264 888.063 114.912 887.569 115.442C887.075 115.965 886.481 116.366 885.786 116.646C885.091 116.918 884.307 117.054 883.434 117.054C882.617 117.054 881.869 116.918 881.188 116.646C880.508 116.366 879.917 115.965 879.416 115.442C878.922 114.912 878.539 114.264 878.267 113.498C877.994 112.732 877.858 111.855 877.858 110.866C877.858 109.556 878.084 108.446 878.535 107.536C878.993 106.619 879.645 105.921 880.49 105.441C881.335 104.962 882.341 104.722 883.509 104.722C884.604 104.722 885.571 104.962 886.409 105.441C887.247 105.921 887.902 106.619 888.375 107.536C888.848 108.453 889.084 109.563 889.084 110.866ZM880.458 110.866C880.458 111.733 880.562 112.474 880.77 113.09C880.984 113.706 881.314 114.178 881.758 114.508C882.202 114.83 882.775 114.991 883.477 114.991C884.178 114.991 884.751 114.83 885.195 114.508C885.639 114.178 885.965 113.706 886.173 113.09C886.381 112.474 886.484 111.733 886.484 110.866C886.484 110 886.381 109.266 886.173 108.664C885.965 108.055 885.639 107.593 885.195 107.278C884.751 106.956 884.175 106.795 883.466 106.795C882.42 106.795 881.658 107.146 881.178 107.848C880.698 108.55 880.458 109.556 880.458 110.866ZM899.186 104.722C900.597 104.722 901.728 105.237 902.58 106.269C903.44 107.3 903.87 108.832 903.87 110.866C903.87 112.213 903.669 113.348 903.268 114.272C902.874 115.188 902.319 115.883 901.603 116.355C900.894 116.821 900.067 117.054 899.121 117.054C898.52 117.054 897.997 116.975 897.553 116.817C897.109 116.66 896.73 116.456 896.414 116.205C896.099 115.947 895.834 115.668 895.62 115.367H895.469C895.505 115.654 895.537 115.972 895.566 116.323C895.602 116.667 895.62 116.982 895.62 117.269V122.113H893.084V104.947H895.147L895.501 106.591H895.62C895.842 106.254 896.11 105.943 896.425 105.656C896.747 105.37 897.134 105.144 897.585 104.98C898.044 104.808 898.577 104.722 899.186 104.722ZM898.509 106.784C897.815 106.784 897.256 106.924 896.833 107.203C896.418 107.475 896.114 107.887 895.92 108.439C895.734 108.99 895.634 109.681 895.62 110.512V110.866C895.62 111.747 895.709 112.495 895.888 113.111C896.074 113.72 896.379 114.186 896.801 114.508C897.231 114.823 897.811 114.98 898.541 114.98C899.157 114.98 899.666 114.812 900.067 114.476C900.475 114.139 900.779 113.659 900.98 113.036C901.18 112.413 901.281 111.679 901.281 110.834C901.281 109.552 901.052 108.557 900.593 107.848C900.142 107.139 899.447 106.784 898.509 106.784ZM910.427 116.839H907.891V100.124H910.427V116.839ZM919.873 104.722C920.933 104.722 921.843 104.94 922.602 105.377C923.361 105.814 923.945 106.433 924.353 107.235C924.761 108.037 924.965 108.997 924.965 110.114V111.468H917.027C917.055 112.621 917.363 113.509 917.95 114.132C918.545 114.755 919.376 115.066 920.443 115.066C921.202 115.066 921.882 114.995 922.484 114.852C923.092 114.701 923.719 114.483 924.363 114.196V116.248C923.769 116.527 923.164 116.731 922.548 116.86C921.932 116.989 921.195 117.054 920.335 117.054C919.168 117.054 918.14 116.828 917.252 116.377C916.371 115.919 915.68 115.238 915.179 114.336C914.685 113.434 914.438 112.313 914.438 110.974C914.438 109.642 914.663 108.51 915.114 107.579C915.566 106.648 916.199 105.939 917.016 105.452C917.832 104.965 918.785 104.722 919.873 104.722ZM919.873 106.623C919.078 106.623 918.434 106.881 917.94 107.397C917.453 107.912 917.166 108.668 917.08 109.663H922.494C922.487 109.069 922.387 108.542 922.194 108.084C922.007 107.626 921.721 107.268 921.334 107.01C920.955 106.752 920.468 106.623 919.873 106.623ZM940.389 104.722C941.893 104.722 943.028 105.055 943.794 105.721C944.567 106.387 944.954 107.425 944.954 108.836V116.839H943.16L942.677 115.152H942.591C942.254 115.582 941.907 115.937 941.549 116.216C941.191 116.495 940.775 116.703 940.303 116.839C939.837 116.982 939.268 117.054 938.595 117.054C937.886 117.054 937.252 116.925 936.693 116.667C936.135 116.402 935.694 116.001 935.372 115.464C935.05 114.927 934.889 114.246 934.889 113.423C934.889 112.198 935.343 111.278 936.253 110.662C937.17 110.046 938.552 109.706 940.399 109.642L942.462 109.566V108.943C942.462 108.12 942.269 107.533 941.882 107.182C941.502 106.831 940.965 106.655 940.271 106.655C939.676 106.655 939.1 106.741 938.541 106.913C937.982 107.085 937.438 107.296 936.908 107.547L936.092 105.764C936.672 105.456 937.331 105.205 938.068 105.012C938.813 104.818 939.587 104.722 940.389 104.722ZM942.451 111.156L940.915 111.21C939.655 111.253 938.77 111.468 938.262 111.855C937.753 112.241 937.499 112.771 937.499 113.444C937.499 114.032 937.674 114.461 938.025 114.733C938.376 114.998 938.838 115.131 939.411 115.131C940.285 115.131 941.008 114.884 941.581 114.39C942.161 113.888 942.451 113.154 942.451 112.188V111.156ZM955.787 104.722C957.126 104.722 958.168 105.069 958.913 105.764C959.664 106.451 960.04 107.558 960.04 109.083V116.839H957.516V109.556C957.516 108.632 957.326 107.941 956.947 107.482C956.567 107.017 955.98 106.784 955.185 106.784C954.032 106.784 953.23 107.139 952.779 107.848C952.335 108.557 952.113 109.584 952.113 110.931V116.839H949.588V104.947H951.554L951.909 106.559H952.048C952.306 106.143 952.625 105.803 953.004 105.538C953.391 105.266 953.821 105.062 954.293 104.926C954.773 104.79 955.271 104.722 955.787 104.722ZM968.671 117.054C967.253 117.054 966.114 116.538 965.255 115.507C964.402 114.468 963.976 112.939 963.976 110.92C963.976 108.879 964.41 107.336 965.276 106.29C966.15 105.244 967.299 104.722 968.724 104.722C969.326 104.722 969.852 104.804 970.304 104.969C970.755 105.126 971.141 105.341 971.464 105.613C971.793 105.885 972.072 106.19 972.302 106.526H972.42C972.384 106.304 972.341 105.986 972.291 105.57C972.248 105.148 972.226 104.758 972.226 104.399V100.124H974.762V116.839H972.785L972.334 115.217H972.226C972.012 115.561 971.739 115.872 971.41 116.151C971.088 116.424 970.701 116.642 970.25 116.807C969.806 116.971 969.279 117.054 968.671 117.054ZM969.38 115.002C970.461 115.002 971.224 114.69 971.668 114.067C972.112 113.444 972.341 112.51 972.355 111.264V110.931C972.355 109.599 972.14 108.578 971.711 107.869C971.281 107.153 970.497 106.795 969.358 106.795C968.449 106.795 967.754 107.164 967.274 107.901C966.802 108.632 966.565 109.652 966.565 110.963C966.565 112.273 966.802 113.276 967.274 113.971C967.754 114.658 968.456 115.002 969.38 115.002ZM996.018 116.828L994.514 111.296C994.443 111.024 994.357 110.694 994.256 110.308C994.156 109.921 994.056 109.523 993.956 109.115C993.855 108.7 993.762 108.317 993.676 107.966C993.598 107.615 993.537 107.343 993.494 107.149H993.408C993.372 107.343 993.315 107.615 993.236 107.966C993.157 108.317 993.068 108.7 992.967 109.115C992.867 109.531 992.767 109.935 992.667 110.329C992.573 110.723 992.488 111.06 992.409 111.339L990.83 116.828H988.058L984.728 104.937H987.285L988.832 110.845C988.932 111.246 989.029 111.679 989.122 112.145C989.222 112.61 989.308 113.054 989.379 113.477C989.451 113.899 989.505 114.246 989.541 114.519H989.627C989.655 114.325 989.695 114.082 989.745 113.788C989.795 113.487 989.852 113.176 989.917 112.854C989.981 112.524 990.046 112.216 990.11 111.93C990.174 111.636 990.235 111.4 990.293 111.221L992.119 104.937H994.879L996.63 111.221C996.709 111.493 996.795 111.837 996.888 112.252C996.981 112.66 997.064 113.072 997.135 113.487C997.214 113.896 997.264 114.236 997.286 114.508H997.372C997.4 114.264 997.45 113.935 997.522 113.52C997.601 113.097 997.69 112.649 997.791 112.177C997.891 111.697 997.995 111.253 998.102 110.845L999.681 104.937H1002.19L998.843 116.828H996.018ZM1010.07 104.722C1011.13 104.722 1012.04 104.94 1012.8 105.377C1013.56 105.814 1014.14 106.433 1014.55 107.235C1014.96 108.037 1015.17 108.997 1015.17 110.114V111.468H1007.23C1007.26 112.621 1007.56 113.509 1008.15 114.132C1008.74 114.755 1009.58 115.066 1010.64 115.066C1011.4 115.066 1012.08 114.995 1012.68 114.852C1013.29 114.701 1013.92 114.483 1014.56 114.196V116.248C1013.97 116.527 1013.36 116.731 1012.75 116.86C1012.13 116.989 1011.39 117.054 1010.54 117.054C1009.37 117.054 1008.34 116.828 1007.45 116.377C1006.57 115.919 1005.88 115.238 1005.38 114.336C1004.88 113.434 1004.64 112.313 1004.64 110.974C1004.64 109.642 1004.86 108.51 1005.31 107.579C1005.77 106.648 1006.4 105.939 1007.22 105.452C1008.03 104.965 1008.98 104.722 1010.07 104.722ZM1010.07 106.623C1009.28 106.623 1008.63 106.881 1008.14 107.397C1007.65 107.912 1007.37 108.668 1007.28 109.663H1012.69C1012.69 109.069 1012.59 108.542 1012.39 108.084C1012.21 107.626 1011.92 107.268 1011.53 107.01C1011.15 106.752 1010.67 106.623 1010.07 106.623ZM1032.12 104.722C1033.46 104.722 1034.51 105.069 1035.25 105.764C1036 106.451 1036.38 107.558 1036.38 109.083V116.839H1033.85V109.556C1033.85 108.632 1033.66 107.941 1033.28 107.482C1032.91 107.017 1032.32 106.784 1031.52 106.784C1030.37 106.784 1029.57 107.139 1029.12 107.848C1028.67 108.557 1028.45 109.584 1028.45 110.931V116.839H1025.93V104.947H1027.89L1028.25 106.559H1028.39C1028.64 106.143 1028.96 105.803 1029.34 105.538C1029.73 105.266 1030.16 105.062 1030.63 104.926C1031.11 104.79 1031.61 104.722 1032.12 104.722ZM1045.75 104.722C1046.81 104.722 1047.72 104.94 1048.48 105.377C1049.24 105.814 1049.82 106.433 1050.23 107.235C1050.64 108.037 1050.84 108.997 1050.84 110.114V111.468H1042.9C1042.93 112.621 1043.24 113.509 1043.83 114.132C1044.42 114.755 1045.25 115.066 1046.32 115.066C1047.08 115.066 1047.76 114.995 1048.36 114.852C1048.97 114.701 1049.6 114.483 1050.24 114.196V116.248C1049.65 116.527 1049.04 116.731 1048.42 116.86C1047.81 116.989 1047.07 117.054 1046.21 117.054C1045.04 117.054 1044.02 116.828 1043.13 116.377C1042.25 115.919 1041.56 115.238 1041.06 114.336C1040.56 113.434 1040.31 112.313 1040.31 110.974C1040.31 109.642 1040.54 108.51 1040.99 107.579C1041.44 106.648 1042.08 105.939 1042.89 105.452C1043.71 104.965 1044.66 104.722 1045.75 104.722ZM1045.75 106.623C1044.96 106.623 1044.31 106.881 1043.82 107.397C1043.33 107.912 1043.04 108.668 1042.96 109.663H1048.37C1048.36 109.069 1048.26 108.542 1048.07 108.084C1047.88 107.626 1047.6 107.268 1047.21 107.01C1046.83 106.752 1046.34 106.623 1045.75 106.623ZM1059.53 104.722C1060.59 104.722 1061.5 104.94 1062.25 105.377C1063.01 105.814 1063.6 106.433 1064.01 107.235C1064.41 108.037 1064.62 108.997 1064.62 110.114V111.468H1056.68C1056.71 112.621 1057.02 113.509 1057.6 114.132C1058.2 114.755 1059.03 115.066 1060.1 115.066C1060.85 115.066 1061.53 114.995 1062.14 114.852C1062.75 114.701 1063.37 114.483 1064.02 114.196V116.248C1063.42 116.527 1062.82 116.731 1062.2 116.86C1061.58 116.989 1060.85 117.054 1059.99 117.054C1058.82 117.054 1057.79 116.828 1056.9 116.377C1056.02 115.919 1055.33 115.238 1054.83 114.336C1054.34 113.434 1054.09 112.313 1054.09 110.974C1054.09 109.642 1054.32 108.51 1054.77 107.579C1055.22 106.648 1055.85 105.939 1056.67 105.452C1057.48 104.965 1058.44 104.722 1059.53 104.722ZM1059.53 106.623C1058.73 106.623 1058.09 106.881 1057.59 107.397C1057.11 107.912 1056.82 108.668 1056.73 109.663H1062.15C1062.14 109.069 1062.04 108.542 1061.85 108.084C1061.66 107.626 1061.37 107.268 1060.99 107.01C1060.61 106.752 1060.12 106.623 1059.53 106.623ZM1072.56 117.054C1071.14 117.054 1070 116.538 1069.14 115.507C1068.29 114.468 1067.87 112.939 1067.87 110.92C1067.87 108.879 1068.3 107.336 1069.17 106.29C1070.04 105.244 1071.19 104.722 1072.61 104.722C1073.22 104.722 1073.74 104.804 1074.19 104.969C1074.64 105.126 1075.03 105.341 1075.35 105.613C1075.68 105.885 1075.96 106.19 1076.19 106.526H1076.31C1076.27 106.304 1076.23 105.986 1076.18 105.57C1076.14 105.148 1076.12 104.758 1076.12 104.399V100.124H1078.65V116.839H1076.67L1076.22 115.217H1076.12C1075.9 115.561 1075.63 115.872 1075.3 116.151C1074.98 116.424 1074.59 116.642 1074.14 116.807C1073.7 116.971 1073.17 117.054 1072.56 117.054ZM1073.27 115.002C1074.35 115.002 1075.11 114.69 1075.56 114.067C1076 113.444 1076.23 112.51 1076.25 111.264V110.931C1076.25 109.599 1076.03 108.578 1075.6 107.869C1075.17 107.153 1074.39 106.795 1073.25 106.795C1072.34 106.795 1071.64 107.164 1071.16 107.901C1070.69 108.632 1070.46 109.652 1070.46 110.963C1070.46 112.273 1070.69 113.276 1071.16 113.971C1071.64 114.658 1072.35 115.002 1073.27 115.002ZM1094.89 108.299L1098.62 101.134H1101.4L1096.18 110.737V116.839H1093.61V110.834L1088.38 101.134H1091.19L1094.89 108.299ZM1118.51 108.965C1118.51 110.175 1118.35 111.278 1118.05 112.273C1117.74 113.262 1117.29 114.114 1116.68 114.83C1116.07 115.539 1115.31 116.087 1114.39 116.474C1113.48 116.86 1112.4 117.054 1111.17 117.054C1109.92 117.054 1108.83 116.86 1107.9 116.474C1106.99 116.087 1106.23 115.536 1105.62 114.819C1105.01 114.103 1104.56 113.247 1104.26 112.252C1103.96 111.257 1103.81 110.154 1103.81 108.943C1103.81 107.325 1104.08 105.914 1104.61 104.711C1105.14 103.501 1105.96 102.563 1107.05 101.897C1108.14 101.223 1109.52 100.887 1111.19 100.887C1112.82 100.887 1114.18 101.22 1115.26 101.886C1116.34 102.552 1117.15 103.49 1117.69 104.7C1118.23 105.903 1118.51 107.325 1118.51 108.965ZM1106.52 108.965C1106.52 110.175 1106.68 111.224 1107.01 112.112C1107.34 112.993 1107.85 113.674 1108.53 114.153C1109.22 114.626 1110.1 114.862 1111.17 114.862C1112.25 114.862 1113.13 114.626 1113.81 114.153C1114.49 113.674 1114.99 112.993 1115.32 112.112C1115.64 111.224 1115.8 110.175 1115.8 108.965C1115.8 107.124 1115.43 105.685 1114.69 104.647C1113.96 103.601 1112.8 103.078 1111.19 103.078C1110.12 103.078 1109.23 103.314 1108.54 103.787C1107.85 104.26 1107.34 104.937 1107.01 105.817C1106.68 106.691 1106.52 107.74 1106.52 108.965ZM1135.31 101.134V111.296C1135.31 112.392 1135.08 113.373 1134.61 114.239C1134.16 115.106 1133.46 115.793 1132.53 116.302C1131.6 116.803 1130.43 117.054 1129.02 117.054C1127 117.054 1125.47 116.527 1124.42 115.475C1123.37 114.415 1122.85 113.008 1122.85 111.253V101.134H1125.43V111.027C1125.43 112.338 1125.74 113.305 1126.35 113.928C1126.97 114.551 1127.89 114.862 1129.11 114.862C1129.96 114.862 1130.65 114.716 1131.18 114.422C1131.71 114.121 1132.11 113.684 1132.36 113.111C1132.62 112.531 1132.74 111.833 1132.74 111.017V101.134H1135.31ZM1139.81 115.507C1139.81 114.92 1139.96 114.508 1140.26 114.272C1140.57 114.028 1140.94 113.906 1141.38 113.906C1141.81 113.906 1142.18 114.028 1142.49 114.272C1142.81 114.508 1142.96 114.92 1142.96 115.507C1142.96 116.08 1142.81 116.495 1142.49 116.753C1142.18 117.004 1141.81 117.129 1141.38 117.129C1140.94 117.129 1140.57 117.004 1140.26 116.753C1139.96 116.495 1139.81 116.08 1139.81 115.507ZM1146.94 115.507C1146.94 114.92 1147.09 114.508 1147.39 114.272C1147.7 114.028 1148.08 113.906 1148.51 113.906C1148.95 113.906 1149.32 114.028 1149.63 114.272C1149.94 114.508 1150.1 114.92 1150.1 115.507C1150.1 116.08 1149.94 116.495 1149.63 116.753C1149.32 117.004 1148.95 117.129 1148.51 117.129C1148.08 117.129 1147.7 117.004 1147.39 116.753C1147.09 116.495 1146.94 116.08 1146.94 115.507ZM1154.08 115.507C1154.08 114.92 1154.23 114.508 1154.53 114.272C1154.84 114.028 1155.21 113.906 1155.65 113.906C1156.09 113.906 1156.46 114.028 1156.77 114.272C1157.08 114.508 1157.24 114.92 1157.24 115.507C1157.24 116.08 1157.08 116.495 1156.77 116.753C1156.46 117.004 1156.09 117.129 1155.65 117.129C1155.21 117.129 1154.84 117.004 1154.53 116.753C1154.23 116.495 1154.08 116.08 1154.08 115.507ZM582.252 147.839H580.758V134.989H587.912V136.308H582.252V141.019H587.569V142.328H582.252V147.839ZM593.906 138.03C594.726 138.03 595.429 138.212 596.015 138.575C596.601 138.939 597.049 139.448 597.36 140.105C597.671 140.755 597.826 141.517 597.826 142.39V143.295H591.172C591.19 144.426 591.471 145.287 592.016 145.879C592.561 146.471 593.329 146.767 594.319 146.767C594.928 146.767 595.467 146.711 595.936 146.6C596.405 146.488 596.891 146.324 597.395 146.107V147.391C596.909 147.607 596.425 147.766 595.945 147.865C595.47 147.965 594.908 148.015 594.257 148.015C593.332 148.015 592.523 147.827 591.832 147.452C591.146 147.071 590.613 146.515 590.232 145.782C589.851 145.05 589.661 144.153 589.661 143.093C589.661 142.056 589.834 141.159 590.179 140.403C590.531 139.642 591.023 139.056 591.656 138.646C592.295 138.235 593.045 138.03 593.906 138.03ZM593.888 139.226C593.109 139.226 592.488 139.48 592.025 139.99C591.562 140.5 591.287 141.212 591.199 142.126H596.297C596.291 141.552 596.2 141.048 596.024 140.614C595.854 140.175 595.593 139.835 595.242 139.595C594.89 139.349 594.439 139.226 593.888 139.226ZM604.373 138.03C605.194 138.03 605.897 138.212 606.483 138.575C607.069 138.939 607.517 139.448 607.827 140.105C608.138 140.755 608.293 141.517 608.293 142.39V143.295H601.64C601.657 144.426 601.939 145.287 602.484 145.879C603.029 146.471 603.796 146.767 604.786 146.767C605.396 146.767 605.935 146.711 606.404 146.6C606.872 146.488 607.359 146.324 607.863 146.107V147.391C607.376 147.607 606.893 147.766 606.412 147.865C605.938 147.965 605.375 148.015 604.725 148.015C603.799 148.015 602.991 147.827 602.299 147.452C601.614 147.071 601.08 146.515 600.699 145.782C600.319 145.05 600.128 144.153 600.128 143.093C600.128 142.056 600.301 141.159 600.647 140.403C600.998 139.642 601.491 139.056 602.123 138.646C602.762 138.235 603.512 138.03 604.373 138.03ZM604.356 139.226C603.576 139.226 602.955 139.48 602.492 139.99C602.03 140.5 601.754 141.212 601.666 142.126H606.764C606.758 141.552 606.667 141.048 606.491 140.614C606.322 140.175 606.061 139.835 605.709 139.595C605.358 139.349 604.907 139.226 604.356 139.226ZM612.6 147.839H611.132V134.163H612.6V147.839ZM625.369 139.349H622.97V147.839H621.511V139.349H619.806V138.646L621.511 138.162V137.521C621.511 136.712 621.631 136.056 621.871 135.552C622.112 135.042 622.46 134.667 622.917 134.427C623.374 134.187 623.931 134.066 624.587 134.066C624.956 134.066 625.293 134.099 625.598 134.163C625.908 134.228 626.181 134.301 626.415 134.383L626.037 135.534C625.838 135.47 625.612 135.411 625.361 135.358C625.114 135.3 624.862 135.271 624.605 135.271C624.048 135.271 623.635 135.452 623.365 135.815C623.102 136.173 622.97 136.735 622.97 137.503V138.206H625.369V139.349ZM631.882 138.03C632.075 138.03 632.277 138.042 632.488 138.065C632.699 138.083 632.887 138.109 633.051 138.145L632.866 139.498C632.708 139.457 632.532 139.425 632.339 139.401C632.145 139.378 631.964 139.366 631.794 139.366C631.407 139.366 631.041 139.445 630.695 139.604C630.355 139.756 630.056 139.979 629.799 140.272C629.541 140.559 629.339 140.907 629.192 141.317C629.046 141.722 628.972 142.173 628.972 142.671V147.839H627.505V138.206H628.718L628.876 139.981H628.937C629.137 139.624 629.377 139.299 629.658 139.006C629.939 138.707 630.264 138.47 630.634 138.294C631.009 138.118 631.425 138.03 631.882 138.03ZM638.939 138.03C639.759 138.03 640.462 138.212 641.048 138.575C641.634 138.939 642.083 139.448 642.393 140.105C642.704 140.755 642.859 141.517 642.859 142.39V143.295H636.206C636.223 144.426 636.504 145.287 637.049 145.879C637.594 146.471 638.362 146.767 639.352 146.767C639.961 146.767 640.5 146.711 640.969 146.6C641.438 146.488 641.924 146.324 642.428 146.107V147.391C641.942 147.607 641.458 147.766 640.978 147.865C640.503 147.965 639.941 148.015 639.291 148.015C638.365 148.015 637.556 147.827 636.865 147.452C636.179 147.071 635.646 146.515 635.265 145.782C634.884 145.05 634.694 144.153 634.694 143.093C634.694 142.056 634.867 141.159 635.212 140.403C635.564 139.642 636.056 139.056 636.689 138.646C637.328 138.235 638.078 138.03 638.939 138.03ZM638.921 139.226C638.142 139.226 637.521 139.48 637.058 139.99C636.595 140.5 636.32 141.212 636.232 142.126H641.33C641.324 141.552 641.233 141.048 641.057 140.614C640.887 140.175 640.626 139.835 640.275 139.595C639.923 139.349 639.472 139.226 638.921 139.226ZM649.406 138.03C650.227 138.03 650.93 138.212 651.516 138.575C652.102 138.939 652.55 139.448 652.86 140.105C653.171 140.755 653.326 141.517 653.326 142.39V143.295H646.673C646.691 144.426 646.972 145.287 647.517 145.879C648.062 146.471 648.829 146.767 649.819 146.767C650.429 146.767 650.968 146.711 651.437 146.6C651.905 146.488 652.392 146.324 652.896 146.107V147.391C652.409 147.607 651.926 147.766 651.445 147.865C650.971 147.965 650.408 148.015 649.758 148.015C648.832 148.015 648.024 147.827 647.332 147.452C646.647 147.071 646.113 146.515 645.733 145.782C645.352 145.05 645.161 144.153 645.161 143.093C645.161 142.056 645.334 141.159 645.68 140.403C646.031 139.642 646.524 139.056 647.156 138.646C647.795 138.235 648.545 138.03 649.406 138.03ZM649.389 139.226C648.609 139.226 647.988 139.48 647.526 139.99C647.063 140.5 646.787 141.212 646.699 142.126H651.797C651.791 141.552 651.7 141.048 651.525 140.614C651.355 140.175 651.094 139.835 650.742 139.595C650.391 139.349 649.94 139.226 649.389 139.226ZM664.312 146.819C664.552 146.819 664.798 146.799 665.05 146.758C665.302 146.717 665.507 146.667 665.665 146.608V147.742C665.496 147.818 665.258 147.883 664.954 147.936C664.655 147.988 664.362 148.015 664.075 148.015C663.565 148.015 663.102 147.927 662.686 147.751C662.27 147.569 661.936 147.265 661.684 146.837C661.438 146.409 661.315 145.817 661.315 145.062V139.349H659.944V138.637L661.324 138.065L661.904 135.974H662.783V138.206H665.604V139.349H662.783V145.018C662.783 145.621 662.92 146.072 663.196 146.371C663.477 146.67 663.849 146.819 664.312 146.819ZM676.282 143.005C676.282 143.796 676.18 144.502 675.975 145.123C675.77 145.744 675.474 146.269 675.087 146.696C674.7 147.124 674.231 147.452 673.681 147.681C673.136 147.903 672.518 148.015 671.826 148.015C671.182 148.015 670.59 147.903 670.051 147.681C669.518 147.452 669.055 147.124 668.662 146.696C668.275 146.269 667.974 145.744 667.757 145.123C667.546 144.502 667.44 143.796 667.44 143.005C667.44 141.95 667.619 141.054 667.977 140.315C668.334 139.571 668.844 139.006 669.506 138.619C670.174 138.227 670.968 138.03 671.888 138.03C672.767 138.03 673.534 138.227 674.19 138.619C674.853 139.012 675.365 139.58 675.729 140.324C676.098 141.063 676.282 141.956 676.282 143.005ZM668.952 143.005C668.952 143.778 669.055 144.449 669.26 145.018C669.465 145.586 669.781 146.025 670.209 146.336C670.637 146.647 671.188 146.802 671.861 146.802C672.529 146.802 673.077 146.647 673.505 146.336C673.939 146.025 674.258 145.586 674.463 145.018C674.668 144.449 674.771 143.778 674.771 143.005C674.771 142.237 674.668 141.575 674.463 141.019C674.258 140.456 673.941 140.022 673.514 139.718C673.086 139.413 672.532 139.261 671.853 139.261C670.851 139.261 670.115 139.592 669.647 140.254C669.184 140.916 668.952 141.833 668.952 143.005ZM687.628 148.015C686.409 148.015 685.443 147.599 684.728 146.767C684.019 145.935 683.664 144.698 683.664 143.058C683.664 141.399 684.028 140.148 684.754 139.305C685.481 138.455 686.448 138.03 687.655 138.03C688.164 138.03 688.61 138.098 688.991 138.232C689.371 138.367 689.7 138.549 689.975 138.777C690.25 139 690.482 139.255 690.669 139.542H690.775C690.751 139.36 690.728 139.111 690.704 138.795C690.681 138.479 690.669 138.221 690.669 138.022V134.163H692.128V147.839H690.951L690.731 146.468H690.669C690.488 146.755 690.256 147.016 689.975 147.25C689.7 147.484 689.368 147.672 688.982 147.813C688.601 147.947 688.15 148.015 687.628 148.015ZM687.857 146.802C688.888 146.802 689.618 146.509 690.045 145.923C690.473 145.337 690.687 144.467 690.687 143.313V143.049C690.687 141.824 690.482 140.884 690.072 140.228C689.667 139.571 688.929 139.243 687.857 139.243C686.96 139.243 686.289 139.589 685.844 140.28C685.399 140.966 685.176 141.903 685.176 143.093C685.176 144.276 685.396 145.19 685.835 145.835C686.281 146.48 686.954 146.802 687.857 146.802ZM699.959 138.03C700.152 138.03 700.354 138.042 700.565 138.065C700.776 138.083 700.964 138.109 701.128 138.145L700.943 139.498C700.785 139.457 700.609 139.425 700.416 139.401C700.223 139.378 700.041 139.366 699.871 139.366C699.484 139.366 699.118 139.445 698.772 139.604C698.433 139.756 698.134 139.979 697.876 140.272C697.618 140.559 697.416 140.907 697.269 141.317C697.123 141.722 697.05 142.173 697.05 142.671V147.839H695.582V138.206H696.795L696.953 139.981H697.015C697.214 139.624 697.454 139.299 697.735 139.006C698.017 138.707 698.342 138.47 698.711 138.294C699.086 138.118 699.502 138.03 699.959 138.03ZM711.613 143.005C711.613 143.796 711.51 144.502 711.305 145.123C711.1 145.744 710.804 146.269 710.418 146.696C710.031 147.124 709.562 147.452 709.011 147.681C708.466 147.903 707.848 148.015 707.157 148.015C706.512 148.015 705.921 147.903 705.381 147.681C704.848 147.452 704.385 147.124 703.993 146.696C703.606 146.269 703.304 145.744 703.088 145.123C702.877 144.502 702.771 143.796 702.771 143.005C702.771 141.95 702.95 141.054 703.307 140.315C703.665 139.571 704.174 139.006 704.837 138.619C705.504 138.227 706.298 138.03 707.218 138.03C708.097 138.03 708.865 138.227 709.521 138.619C710.183 139.012 710.696 139.58 711.059 140.324C711.428 141.063 711.613 141.956 711.613 143.005ZM704.283 143.005C704.283 143.778 704.385 144.449 704.59 145.018C704.796 145.586 705.112 146.025 705.54 146.336C705.967 146.647 706.518 146.802 707.192 146.802C707.86 146.802 708.408 146.647 708.836 146.336C709.269 146.025 709.588 145.586 709.794 145.018C709.999 144.449 710.101 143.778 710.101 143.005C710.101 142.237 709.999 141.575 709.794 141.019C709.588 140.456 709.272 140.022 708.844 139.718C708.417 139.413 707.863 139.261 707.183 139.261C706.181 139.261 705.446 139.592 704.977 140.254C704.514 140.916 704.283 141.833 704.283 143.005ZM719.022 138.03C720.223 138.03 721.181 138.443 721.896 139.27C722.611 140.096 722.968 141.338 722.968 142.996C722.968 144.092 722.804 145.012 722.476 145.756C722.148 146.5 721.685 147.063 721.087 147.443C720.495 147.824 719.795 148.015 718.987 148.015C718.477 148.015 718.029 147.947 717.642 147.813C717.255 147.678 716.924 147.496 716.649 147.268C716.373 147.039 716.145 146.79 715.963 146.521H715.858C715.875 146.749 715.896 147.024 715.919 147.347C715.948 147.669 715.963 147.95 715.963 148.19V152.146H714.495V138.206H715.699L715.893 139.63H715.963C716.151 139.337 716.379 139.07 716.649 138.83C716.918 138.584 717.246 138.391 717.633 138.25C718.026 138.104 718.489 138.03 719.022 138.03ZM718.767 139.261C718.099 139.261 717.56 139.39 717.15 139.647C716.745 139.905 716.449 140.292 716.262 140.808C716.074 141.317 715.975 141.959 715.963 142.732V143.014C715.963 143.828 716.051 144.517 716.227 145.079C716.408 145.642 716.704 146.069 717.114 146.362C717.531 146.655 718.087 146.802 718.784 146.802C719.382 146.802 719.88 146.641 720.279 146.318C720.677 145.996 720.973 145.548 721.166 144.974C721.365 144.394 721.465 143.729 721.465 142.979C721.465 141.842 721.242 140.939 720.797 140.272C720.358 139.598 719.681 139.261 718.767 139.261ZM738.867 138.206V147.839H737.671L737.46 146.485H737.381C737.182 146.819 736.924 147.101 736.608 147.329C736.292 147.558 735.934 147.728 735.536 147.839C735.143 147.956 734.724 148.015 734.279 148.015C733.517 148.015 732.878 147.892 732.363 147.646C731.847 147.399 731.458 147.019 731.194 146.503C730.936 145.987 730.807 145.325 730.807 144.517V138.206H732.284V144.411C732.284 145.214 732.465 145.814 732.829 146.213C733.192 146.605 733.746 146.802 734.49 146.802C735.205 146.802 735.773 146.667 736.195 146.397C736.623 146.128 736.93 145.732 737.118 145.211C737.305 144.684 737.399 144.039 737.399 143.277V138.206H738.867ZM748.543 145.202C748.543 145.817 748.388 146.336 748.077 146.758C747.773 147.174 747.333 147.487 746.759 147.698C746.191 147.909 745.511 148.015 744.72 148.015C744.046 148.015 743.463 147.962 742.971 147.856C742.479 147.751 742.048 147.602 741.679 147.408V146.064C742.071 146.257 742.54 146.433 743.085 146.591C743.63 146.749 744.187 146.828 744.755 146.828C745.587 146.828 746.191 146.693 746.566 146.424C746.941 146.154 747.128 145.788 747.128 145.325C747.128 145.062 747.052 144.83 746.9 144.631C746.753 144.426 746.504 144.23 746.152 144.042C745.801 143.849 745.315 143.638 744.694 143.409C744.078 143.175 743.545 142.943 743.094 142.715C742.649 142.48 742.303 142.196 742.057 141.862C741.817 141.528 741.696 141.095 741.696 140.562C741.696 139.747 742.025 139.123 742.681 138.689C743.343 138.25 744.21 138.03 745.282 138.03C745.862 138.03 746.404 138.089 746.908 138.206C747.418 138.317 747.893 138.47 748.332 138.663L747.84 139.832C747.442 139.662 747.017 139.519 746.566 139.401C746.114 139.284 745.654 139.226 745.186 139.226C744.512 139.226 743.993 139.337 743.63 139.56C743.273 139.782 743.094 140.087 743.094 140.474C743.094 140.772 743.176 141.019 743.34 141.212C743.51 141.405 743.779 141.587 744.149 141.757C744.518 141.927 745.004 142.126 745.608 142.355C746.211 142.577 746.733 142.809 747.172 143.049C747.611 143.283 747.948 143.57 748.183 143.91C748.423 144.244 748.543 144.675 748.543 145.202ZM759.889 138.048C761.038 138.048 761.89 138.306 762.447 138.821C763.003 139.337 763.282 140.16 763.282 141.291V147.839H762.218L761.937 146.415H761.867C761.597 146.767 761.316 147.063 761.023 147.303C760.73 147.537 760.39 147.716 760.003 147.839C759.622 147.956 759.154 148.015 758.597 148.015C758.011 148.015 757.49 147.912 757.033 147.707C756.581 147.502 756.224 147.191 755.96 146.775C755.703 146.359 755.574 145.832 755.574 145.193C755.574 144.232 755.955 143.494 756.716 142.979C757.478 142.463 758.638 142.182 760.197 142.135L761.858 142.064V141.476C761.858 140.644 761.679 140.061 761.322 139.727C760.964 139.393 760.46 139.226 759.81 139.226C759.306 139.226 758.826 139.299 758.369 139.445C757.912 139.592 757.478 139.765 757.068 139.964L756.62 138.856C757.053 138.634 757.551 138.443 758.114 138.285C758.676 138.127 759.268 138.048 759.889 138.048ZM761.84 143.093L760.372 143.154C759.171 143.201 758.325 143.397 757.832 143.743C757.34 144.089 757.094 144.578 757.094 145.211C757.094 145.762 757.261 146.169 757.595 146.433C757.929 146.696 758.372 146.828 758.922 146.828C759.778 146.828 760.478 146.591 761.023 146.116C761.568 145.642 761.84 144.93 761.84 143.98V143.093ZM771.209 138.03C772.352 138.03 773.216 138.312 773.802 138.874C774.388 139.431 774.681 140.327 774.681 141.564V147.839H773.239V141.66C773.239 140.857 773.055 140.257 772.686 139.858C772.322 139.46 771.763 139.261 771.007 139.261C769.941 139.261 769.191 139.563 768.757 140.166C768.323 140.77 768.107 141.646 768.107 142.794V147.839H766.648V138.206H767.825L768.045 139.595H768.124C768.329 139.255 768.59 138.971 768.906 138.742C769.223 138.508 769.577 138.332 769.97 138.215C770.362 138.092 770.775 138.03 771.209 138.03ZM786.791 138.03C787.612 138.03 788.315 138.212 788.901 138.575C789.487 138.939 789.935 139.448 790.245 140.105C790.556 140.755 790.711 141.517 790.711 142.39V143.295H784.058C784.076 144.426 784.357 145.287 784.902 145.879C785.447 146.471 786.214 146.767 787.204 146.767C787.814 146.767 788.353 146.711 788.822 146.6C789.29 146.488 789.777 146.324 790.281 146.107V147.391C789.794 147.607 789.311 147.766 788.83 147.865C788.356 147.965 787.793 148.015 787.143 148.015C786.217 148.015 785.409 147.827 784.717 147.452C784.032 147.071 783.498 146.515 783.118 145.782C782.737 145.05 782.546 144.153 782.546 143.093C782.546 142.056 782.719 141.159 783.065 140.403C783.416 139.642 783.909 139.056 784.541 138.646C785.18 138.235 785.93 138.03 786.791 138.03ZM786.774 139.226C785.994 139.226 785.373 139.48 784.911 139.99C784.448 140.5 784.172 141.212 784.084 142.126H789.182C789.176 141.552 789.085 141.048 788.91 140.614C788.74 140.175 788.479 139.835 788.127 139.595C787.776 139.349 787.325 139.226 786.774 139.226ZM804.009 138.03C805.069 138.03 805.869 138.309 806.408 138.865C806.947 139.416 807.217 140.304 807.217 141.528V147.839H805.775V141.599C805.775 140.819 805.605 140.236 805.266 139.85C804.932 139.457 804.434 139.261 803.771 139.261C802.84 139.261 802.163 139.53 801.741 140.069C801.319 140.608 801.108 141.402 801.108 142.451V147.839H799.658V141.599C799.658 141.077 799.582 140.644 799.43 140.298C799.283 139.952 799.061 139.694 798.762 139.524C798.469 139.349 798.097 139.261 797.646 139.261C797.007 139.261 796.494 139.393 796.107 139.656C795.721 139.92 795.439 140.313 795.264 140.834C795.094 141.35 795.009 141.985 795.009 142.741V147.839H793.55V138.206H794.728L794.947 139.568H795.026C795.22 139.234 795.463 138.953 795.756 138.725C796.049 138.496 796.377 138.323 796.74 138.206C797.104 138.089 797.49 138.03 797.9 138.03C798.633 138.03 799.245 138.168 799.737 138.443C800.235 138.713 800.596 139.126 800.818 139.683H800.897C801.214 139.126 801.647 138.713 802.198 138.443C802.749 138.168 803.353 138.03 804.009 138.03ZM814.177 138.048C815.326 138.048 816.178 138.306 816.735 138.821C817.292 139.337 817.57 140.16 817.57 141.291V147.839H816.506L816.225 146.415H816.155C815.885 146.767 815.604 147.063 815.311 147.303C815.018 147.537 814.678 147.716 814.292 147.839C813.911 147.956 813.442 148.015 812.885 148.015C812.299 148.015 811.778 147.912 811.321 147.707C810.87 147.502 810.512 147.191 810.249 146.775C809.991 146.359 809.862 145.832 809.862 145.193C809.862 144.232 810.243 143.494 811.005 142.979C811.766 142.463 812.926 142.182 814.485 142.135L816.146 142.064V141.476C816.146 140.644 815.967 140.061 815.61 139.727C815.253 139.393 814.749 139.226 814.098 139.226C813.594 139.226 813.114 139.299 812.657 139.445C812.2 139.592 811.766 139.765 811.356 139.964L810.908 138.856C811.341 138.634 811.839 138.443 812.402 138.285C812.964 138.127 813.556 138.048 814.177 138.048ZM816.129 143.093L814.661 143.154C813.46 143.201 812.613 143.397 812.121 143.743C811.629 144.089 811.382 144.578 811.382 145.211C811.382 145.762 811.549 146.169 811.883 146.433C812.217 146.696 812.66 146.828 813.211 146.828C814.066 146.828 814.766 146.591 815.311 146.116C815.856 145.642 816.129 144.93 816.129 143.98V143.093ZM822.395 138.206V147.839H820.936V138.206H822.395ZM821.683 134.603C821.923 134.603 822.128 134.682 822.298 134.84C822.474 134.992 822.562 135.232 822.562 135.561C822.562 135.883 822.474 136.123 822.298 136.281C822.128 136.439 821.923 136.519 821.683 136.519C821.431 136.519 821.22 136.439 821.05 136.281C820.886 136.123 820.804 135.883 820.804 135.561C820.804 135.232 820.886 134.992 821.05 134.84C821.22 134.682 821.431 134.603 821.683 134.603ZM827.316 147.839H825.849V134.163H827.316V147.839ZM839.401 138.048C840.549 138.048 841.402 138.306 841.958 138.821C842.515 139.337 842.793 140.16 842.793 141.291V147.839H841.73L841.448 146.415H841.378C841.109 146.767 840.827 147.063 840.534 147.303C840.241 147.537 839.902 147.716 839.515 147.839C839.134 147.956 838.665 148.015 838.109 148.015C837.523 148.015 837.001 147.912 836.544 147.707C836.093 147.502 835.736 147.191 835.472 146.775C835.214 146.359 835.085 145.832 835.085 145.193C835.085 144.232 835.466 143.494 836.228 142.979C836.989 142.463 838.15 142.182 839.708 142.135L841.369 142.064V141.476C841.369 140.644 841.191 140.061 840.833 139.727C840.476 139.393 839.972 139.226 839.321 139.226C838.818 139.226 838.337 139.299 837.88 139.445C837.423 139.592 836.989 139.765 836.579 139.964L836.131 138.856C836.565 138.634 837.063 138.443 837.625 138.285C838.188 138.127 838.779 138.048 839.401 138.048ZM841.352 143.093L839.884 143.154C838.683 143.201 837.836 143.397 837.344 143.743C836.852 144.089 836.606 144.578 836.606 145.211C836.606 145.762 836.773 146.169 837.107 146.433C837.441 146.696 837.883 146.828 838.434 146.828C839.289 146.828 839.989 146.591 840.534 146.116C841.079 145.642 841.352 144.93 841.352 143.98V143.093ZM849.27 146.819C849.511 146.819 849.757 146.799 850.009 146.758C850.261 146.717 850.466 146.667 850.624 146.608V147.742C850.454 147.818 850.217 147.883 849.912 147.936C849.613 147.988 849.32 148.015 849.033 148.015C848.523 148.015 848.06 147.927 847.644 147.751C847.228 147.569 846.894 147.265 846.642 146.837C846.396 146.409 846.273 145.817 846.273 145.062V139.349H844.902V138.637L846.282 138.065L846.862 135.974H847.741V138.206H850.562V139.349H847.741V145.018C847.741 145.621 847.879 146.072 848.154 146.371C848.435 146.67 848.807 146.819 849.27 146.819ZM852.715 146.925C852.715 146.515 852.815 146.225 853.014 146.055C853.213 145.879 853.457 145.791 853.744 145.791C854.042 145.791 854.294 145.879 854.499 146.055C854.705 146.225 854.807 146.515 854.807 146.925C854.807 147.329 854.705 147.625 854.499 147.813C854.294 147.994 854.042 148.085 853.744 148.085C853.457 148.085 853.213 147.994 853.014 147.813C852.815 147.625 852.715 147.329 852.715 146.925ZM852.715 139.129C852.715 138.707 852.815 138.411 853.014 138.241C853.213 138.065 853.457 137.978 853.744 137.978C854.042 137.978 854.294 138.065 854.499 138.241C854.705 138.411 854.807 138.707 854.807 139.129C854.807 139.527 854.705 139.817 854.499 139.999C854.294 140.181 854.042 140.272 853.744 140.272C853.457 140.272 853.213 140.181 853.014 139.999C852.815 139.817 852.715 139.527 852.715 139.129Z" fill="white"/>
<path d="M866.918 148.015C865.998 148.015 865.201 147.836 864.527 147.479C863.853 147.121 863.335 146.573 862.971 145.835C862.608 145.097 862.427 144.159 862.427 143.022C862.427 141.839 862.626 140.872 863.024 140.122C863.423 139.372 863.973 138.818 864.677 138.461C865.385 138.104 866.197 137.925 867.111 137.925C867.691 137.925 868.216 137.983 868.684 138.101C869.159 138.212 869.56 138.35 869.888 138.514L869.273 140.166C868.916 140.02 868.55 139.897 868.175 139.797C867.8 139.697 867.439 139.647 867.094 139.647C866.525 139.647 866.051 139.773 865.67 140.025C865.295 140.277 865.013 140.652 864.826 141.15C864.644 141.648 864.553 142.267 864.553 143.005C864.553 143.72 864.647 144.323 864.835 144.815C865.022 145.302 865.301 145.671 865.67 145.923C866.039 146.169 866.493 146.292 867.032 146.292C867.565 146.292 868.043 146.228 868.465 146.099C868.886 145.97 869.285 145.803 869.66 145.598V147.391C869.291 147.602 868.895 147.757 868.473 147.856C868.052 147.962 867.533 148.015 866.918 148.015ZM876.12 137.925C877.35 137.925 878.279 138.197 878.906 138.742C879.538 139.287 879.855 140.137 879.855 141.291V147.839H878.387L877.992 146.459H877.921C877.646 146.811 877.362 147.101 877.069 147.329C876.776 147.558 876.436 147.728 876.049 147.839C875.668 147.956 875.203 148.015 874.652 148.015C874.072 148.015 873.553 147.909 873.096 147.698C872.639 147.481 872.279 147.153 872.015 146.714C871.751 146.274 871.62 145.718 871.62 145.044C871.62 144.042 871.992 143.289 872.736 142.785C873.486 142.281 874.617 142.003 876.128 141.95L877.816 141.889V141.379C877.816 140.705 877.658 140.225 877.341 139.938C877.031 139.65 876.591 139.507 876.023 139.507C875.537 139.507 875.065 139.577 874.608 139.718C874.151 139.858 873.705 140.031 873.272 140.236L872.604 138.777C873.079 138.525 873.618 138.32 874.221 138.162C874.83 138.004 875.463 137.925 876.12 137.925ZM877.807 143.189L876.55 143.233C875.519 143.269 874.795 143.444 874.379 143.761C873.963 144.077 873.755 144.511 873.755 145.062C873.755 145.542 873.899 145.894 874.186 146.116C874.473 146.333 874.851 146.441 875.32 146.441C876.035 146.441 876.626 146.239 877.095 145.835C877.57 145.425 877.807 144.824 877.807 144.033V143.189ZM888.037 137.925C888.201 137.925 888.38 137.934 888.573 137.951C888.767 137.969 888.934 137.992 889.074 138.022L888.881 139.955C888.758 139.92 888.605 139.894 888.424 139.876C888.248 139.858 888.09 139.85 887.949 139.85C887.58 139.85 887.229 139.911 886.895 140.034C886.561 140.151 886.265 140.333 886.007 140.579C885.749 140.819 885.547 141.121 885.4 141.484C885.254 141.848 885.181 142.27 885.181 142.75V147.839H883.106V138.109H884.724L885.005 139.823H885.102C885.295 139.478 885.535 139.161 885.822 138.874C886.109 138.587 886.438 138.358 886.807 138.189C887.182 138.013 887.592 137.925 888.037 137.925ZM895.112 137.925C895.979 137.925 896.723 138.104 897.344 138.461C897.966 138.818 898.443 139.325 898.777 139.981C899.111 140.638 899.278 141.423 899.278 142.337V143.444H892.783C892.806 144.388 893.058 145.114 893.539 145.624C894.025 146.134 894.705 146.389 895.578 146.389C896.199 146.389 896.756 146.33 897.248 146.213C897.746 146.09 898.258 145.911 898.786 145.677V147.355C898.299 147.584 897.804 147.751 897.3 147.856C896.797 147.962 896.193 148.015 895.49 148.015C894.535 148.015 893.694 147.83 892.967 147.461C892.247 147.086 891.681 146.529 891.271 145.791C890.867 145.053 890.665 144.136 890.665 143.04C890.665 141.95 890.849 141.024 891.218 140.263C891.588 139.501 892.106 138.921 892.774 138.522C893.442 138.124 894.221 137.925 895.112 137.925ZM895.112 139.48C894.462 139.48 893.934 139.691 893.53 140.113C893.132 140.535 892.897 141.153 892.827 141.968H897.257C897.251 141.481 897.169 141.051 897.01 140.676C896.858 140.301 896.624 140.008 896.307 139.797C895.997 139.586 895.598 139.48 895.112 139.48ZM905.843 137.925C906.71 137.925 907.454 138.104 908.076 138.461C908.697 138.818 909.174 139.325 909.508 139.981C909.842 140.638 910.009 141.423 910.009 142.337V143.444H903.514C903.537 144.388 903.789 145.114 904.27 145.624C904.756 146.134 905.436 146.389 906.309 146.389C906.93 146.389 907.487 146.33 907.979 146.213C908.477 146.09 908.99 145.911 909.517 145.677V147.355C909.031 147.584 908.535 147.751 908.032 147.856C907.528 147.962 906.924 148.015 906.221 148.015C905.266 148.015 904.425 147.83 903.699 147.461C902.978 147.086 902.412 146.529 902.002 145.791C901.598 145.053 901.396 144.136 901.396 143.04C901.396 141.95 901.58 141.024 901.95 140.263C902.319 139.501 902.837 138.921 903.505 138.522C904.173 138.124 904.952 137.925 905.843 137.925ZM905.843 139.48C905.193 139.48 904.665 139.691 904.261 140.113C903.863 140.535 903.628 141.153 903.558 141.968H907.988C907.982 141.481 907.9 141.051 907.742 140.676C907.589 140.301 907.355 140.008 907.038 139.797C906.728 139.586 906.329 139.48 905.843 139.48ZM917.629 137.925C917.793 137.925 917.972 137.934 918.165 137.951C918.358 137.969 918.525 137.992 918.666 138.022L918.473 139.955C918.35 139.92 918.197 139.894 918.016 139.876C917.84 139.858 917.682 139.85 917.541 139.85C917.172 139.85 916.82 139.911 916.486 140.034C916.152 140.151 915.856 140.333 915.599 140.579C915.341 140.819 915.139 141.121 914.992 141.484C914.846 141.848 914.772 142.27 914.772 142.75V147.839H912.698V138.109H914.315L914.597 139.823H914.693C914.887 139.478 915.127 139.161 915.414 138.874C915.701 138.587 916.029 138.358 916.398 138.189C916.773 138.013 917.184 137.925 917.629 137.925ZM934.53 141.405C934.53 141.962 934.465 142.51 934.337 143.049C934.208 143.582 934.011 144.065 933.748 144.499C933.484 144.927 933.153 145.27 932.754 145.527C932.362 145.785 931.896 145.914 931.357 145.914C930.865 145.914 930.455 145.782 930.127 145.519C929.798 145.255 929.585 144.93 929.485 144.543H929.371C929.136 144.924 928.811 145.249 928.395 145.519C927.985 145.782 927.481 145.914 926.883 145.914C925.887 145.914 925.12 145.604 924.581 144.982C924.047 144.355 923.781 143.529 923.781 142.504C923.781 141.707 923.945 141.004 924.273 140.395C924.601 139.779 925.067 139.296 925.671 138.944C926.28 138.593 926.995 138.417 927.815 138.417C928.36 138.417 928.905 138.467 929.45 138.566C930.001 138.66 930.434 138.763 930.751 138.874L930.575 142.486C930.563 142.656 930.554 142.803 930.548 142.926C930.548 143.043 930.548 143.125 930.548 143.172C930.548 143.74 930.639 144.121 930.821 144.314C931.003 144.502 931.216 144.596 931.462 144.596C931.791 144.596 932.066 144.452 932.289 144.165C932.517 143.872 932.69 143.485 932.807 143.005C932.924 142.519 932.983 141.982 932.983 141.397C932.983 140.336 932.766 139.431 932.333 138.681C931.905 137.931 931.316 137.359 930.566 136.967C929.816 136.574 928.961 136.378 928 136.378C927.015 136.378 926.142 136.533 925.38 136.844C924.625 137.154 923.986 137.591 923.464 138.153C922.949 138.716 922.559 139.384 922.296 140.157C922.032 140.925 921.9 141.772 921.9 142.697C921.9 143.834 922.102 144.801 922.506 145.598C922.911 146.389 923.505 146.989 924.291 147.399C925.082 147.81 926.046 148.015 927.182 148.015C927.891 148.015 928.597 147.939 929.3 147.786C930.009 147.628 930.651 147.44 931.225 147.224V148.639C930.68 148.867 930.071 149.052 929.397 149.192C928.723 149.333 927.997 149.403 927.217 149.403C925.77 149.403 924.531 149.14 923.5 148.612C922.474 148.085 921.686 147.323 921.135 146.327C920.59 145.331 920.318 144.139 920.318 142.75C920.318 141.637 920.494 140.611 920.845 139.674C921.203 138.73 921.715 137.91 922.383 137.213C923.051 136.51 923.857 135.965 924.8 135.578C925.75 135.191 926.813 134.998 927.991 134.998C929.262 134.998 930.39 135.259 931.375 135.78C932.359 136.296 933.129 137.031 933.686 137.986C934.249 138.941 934.53 140.081 934.53 141.405ZM925.451 142.539C925.451 143.254 925.597 143.775 925.89 144.104C926.183 144.432 926.582 144.596 927.086 144.596C927.73 144.596 928.193 144.358 928.474 143.884C928.755 143.409 928.92 142.785 928.966 142.012L929.072 139.894C928.92 139.853 928.741 139.82 928.536 139.797C928.331 139.768 928.111 139.753 927.877 139.753C927.291 139.753 926.819 139.888 926.462 140.157C926.11 140.421 925.852 140.767 925.688 141.194C925.53 141.616 925.451 142.064 925.451 142.539ZM942.413 137.925C943.509 137.925 944.362 138.209 944.971 138.777C945.586 139.34 945.894 140.245 945.894 141.493V147.839H943.828V141.88C943.828 141.124 943.673 140.559 943.363 140.184C943.052 139.803 942.572 139.612 941.921 139.612C940.978 139.612 940.322 139.902 939.952 140.482C939.589 141.063 939.407 141.903 939.407 143.005V147.839H937.342V138.109H938.95L939.24 139.428H939.355C939.566 139.088 939.826 138.81 940.137 138.593C940.453 138.37 940.805 138.203 941.192 138.092C941.584 137.98 941.991 137.925 942.413 137.925ZM953.021 137.925C953.889 137.925 954.633 138.104 955.254 138.461C955.875 138.818 956.352 139.325 956.686 139.981C957.02 140.638 957.187 141.423 957.187 142.337V143.444H950.692C950.716 144.388 950.968 145.114 951.448 145.624C951.934 146.134 952.614 146.389 953.487 146.389C954.108 146.389 954.665 146.33 955.157 146.213C955.655 146.09 956.168 145.911 956.695 145.677V147.355C956.209 147.584 955.714 147.751 955.21 147.856C954.706 147.962 954.102 148.015 953.399 148.015C952.444 148.015 951.603 147.83 950.877 147.461C950.156 147.086 949.591 146.529 949.181 145.791C948.776 145.053 948.574 144.136 948.574 143.04C948.574 141.95 948.759 141.024 949.128 140.263C949.497 139.501 950.016 138.921 950.683 138.522C951.351 138.124 952.131 137.925 953.021 137.925ZM953.021 139.48C952.371 139.48 951.844 139.691 951.439 140.113C951.041 140.535 950.807 141.153 950.736 141.968H955.166C955.16 141.481 955.078 141.051 954.92 140.676C954.767 140.301 954.533 140.008 954.217 139.797C953.906 139.586 953.508 139.48 953.021 139.48ZM963.752 137.925C964.62 137.925 965.364 138.104 965.985 138.461C966.606 138.818 967.084 139.325 967.418 139.981C967.751 140.638 967.918 141.423 967.918 142.337V143.444H961.423C961.447 144.388 961.699 145.114 962.179 145.624C962.666 146.134 963.345 146.389 964.218 146.389C964.839 146.389 965.396 146.33 965.888 146.213C966.386 146.09 966.899 145.911 967.426 145.677V147.355C966.94 147.584 966.445 147.751 965.941 147.856C965.437 147.962 964.834 148.015 964.13 148.015C963.175 148.015 962.335 147.83 961.608 147.461C960.887 147.086 960.322 146.529 959.912 145.791C959.507 145.053 959.305 144.136 959.305 143.04C959.305 141.95 959.49 141.024 959.859 140.263C960.228 139.501 960.747 138.921 961.415 138.522C962.083 138.124 962.862 137.925 963.752 137.925ZM963.752 139.48C963.102 139.48 962.575 139.691 962.17 140.113C961.772 140.535 961.538 141.153 961.467 141.968H965.897C965.891 141.481 965.809 141.051 965.651 140.676C965.499 140.301 965.264 140.008 964.948 139.797C964.637 139.586 964.239 139.48 963.752 139.48ZM975.679 137.925C976.775 137.925 977.627 138.209 978.236 138.777C978.852 139.34 979.159 140.245 979.159 141.493V147.839H977.094V141.88C977.094 141.124 976.939 140.559 976.628 140.184C976.318 139.803 975.837 139.612 975.187 139.612C974.243 139.612 973.587 139.902 973.218 140.482C972.855 141.063 972.673 141.903 972.673 143.005V147.839H970.608V138.109H972.216L972.506 139.428H972.62C972.831 139.088 973.092 138.81 973.402 138.593C973.719 138.37 974.07 138.203 974.457 138.092C974.85 137.98 975.257 137.925 975.679 137.925ZM985.68 148.015C984.52 148.015 983.589 147.593 982.886 146.749C982.188 145.899 981.84 144.648 981.84 142.996C981.84 141.326 982.194 140.064 982.903 139.208C983.618 138.353 984.558 137.925 985.724 137.925C986.217 137.925 986.647 137.992 987.016 138.127C987.386 138.256 987.702 138.432 987.966 138.654C988.235 138.877 988.464 139.126 988.651 139.401H988.748C988.719 139.22 988.683 138.959 988.642 138.619C988.607 138.273 988.59 137.954 988.59 137.661V134.163H990.664V147.839H989.047L988.678 146.512H988.59C988.414 146.793 988.191 147.048 987.922 147.276C987.658 147.499 987.342 147.678 986.972 147.813C986.609 147.947 986.179 148.015 985.68 148.015ZM986.261 146.336C987.145 146.336 987.769 146.081 988.133 145.571C988.496 145.062 988.683 144.297 988.695 143.277V143.005C988.695 141.915 988.519 141.08 988.168 140.5C987.816 139.914 987.175 139.621 986.243 139.621C985.499 139.621 984.93 139.923 984.538 140.526C984.151 141.124 983.958 141.959 983.958 143.031C983.958 144.104 984.151 144.924 984.538 145.492C984.93 146.055 985.505 146.336 986.261 146.336ZM993.687 146.749C993.687 146.269 993.81 145.932 994.056 145.738C994.308 145.539 994.613 145.439 994.97 145.439C995.328 145.439 995.632 145.539 995.884 145.738C996.142 145.932 996.271 146.269 996.271 146.749C996.271 147.218 996.142 147.558 995.884 147.769C995.632 147.974 995.328 148.076 994.97 148.076C994.613 148.076 994.308 147.974 994.056 147.769C993.81 147.558 993.687 147.218 993.687 146.749ZM1003.1 137.925C1004.33 137.925 1005.26 138.197 1005.89 138.742C1006.52 139.287 1006.84 140.137 1006.84 141.291V147.839H1005.37L1004.97 146.459H1004.9C1004.63 146.811 1004.34 147.101 1004.05 147.329C1003.76 147.558 1003.42 147.728 1003.03 147.839C1002.65 147.956 1002.18 148.015 1001.63 148.015C1001.05 148.015 1000.53 147.909 1000.08 147.698C999.619 147.481 999.259 147.153 998.995 146.714C998.732 146.274 998.6 145.718 998.6 145.044C998.6 144.042 998.972 143.289 999.716 142.785C1000.47 142.281 1001.6 142.003 1003.11 141.95L1004.8 141.889V141.379C1004.8 140.705 1004.64 140.225 1004.32 139.938C1004.01 139.65 1003.57 139.507 1003 139.507C1002.52 139.507 1002.05 139.577 1001.59 139.718C1001.13 139.858 1000.69 140.031 1000.25 140.236L999.584 138.777C1000.06 138.525 1000.6 138.32 1001.2 138.162C1001.81 138.004 1002.44 137.925 1003.1 137.925ZM1004.79 143.189L1003.53 143.233C1002.5 143.269 1001.78 143.444 1001.36 143.761C1000.94 144.077 1000.74 144.511 1000.74 145.062C1000.74 145.542 1000.88 145.894 1001.17 146.116C1001.45 146.333 1001.83 146.441 1002.3 146.441C1003.01 146.441 1003.61 146.239 1004.08 145.835C1004.55 145.425 1004.79 144.824 1004.79 144.033V143.189ZM1015.08 137.925C1016.23 137.925 1017.16 138.347 1017.86 139.19C1018.56 140.034 1018.91 141.288 1018.91 142.952C1018.91 144.054 1018.75 144.982 1018.42 145.738C1018.1 146.488 1017.64 147.057 1017.06 147.443C1016.48 147.824 1015.8 148.015 1015.03 148.015C1014.53 148.015 1014.11 147.95 1013.74 147.821C1013.38 147.692 1013.07 147.525 1012.81 147.32C1012.55 147.109 1012.34 146.881 1012.16 146.635H1012.04C1012.07 146.869 1012.09 147.13 1012.12 147.417C1012.15 147.698 1012.16 147.956 1012.16 148.19V152.154H1010.09V138.109H1011.77L1012.06 139.454H1012.16C1012.34 139.179 1012.56 138.924 1012.82 138.689C1013.08 138.455 1013.4 138.271 1013.77 138.136C1014.14 137.995 1014.58 137.925 1015.08 137.925ZM1014.53 139.612C1013.96 139.612 1013.5 139.727 1013.15 139.955C1012.81 140.178 1012.57 140.515 1012.41 140.966C1012.25 141.417 1012.17 141.982 1012.16 142.662V142.952C1012.16 143.673 1012.23 144.285 1012.38 144.789C1012.53 145.287 1012.78 145.668 1013.13 145.932C1013.48 146.189 1013.95 146.318 1014.55 146.318C1015.06 146.318 1015.47 146.181 1015.8 145.905C1016.13 145.63 1016.38 145.237 1016.55 144.728C1016.71 144.218 1016.79 143.617 1016.79 142.926C1016.79 141.877 1016.61 141.063 1016.23 140.482C1015.86 139.902 1015.29 139.612 1014.53 139.612ZM1026.65 137.925C1027.81 137.925 1028.73 138.347 1029.43 139.19C1030.13 140.034 1030.49 141.288 1030.49 142.952C1030.49 144.054 1030.32 144.982 1029.99 145.738C1029.67 146.488 1029.22 147.057 1028.63 147.443C1028.05 147.824 1027.37 148.015 1026.6 148.015C1026.11 148.015 1025.68 147.95 1025.32 147.821C1024.95 147.692 1024.64 147.525 1024.39 147.32C1024.13 147.109 1023.91 146.881 1023.74 146.635H1023.61C1023.64 146.869 1023.67 147.13 1023.69 147.417C1023.72 147.698 1023.74 147.956 1023.74 148.19V152.154H1021.66V138.109H1023.35L1023.64 139.454H1023.74C1023.92 139.179 1024.14 138.924 1024.39 138.689C1024.66 138.455 1024.97 138.271 1025.34 138.136C1025.72 137.995 1026.16 137.925 1026.65 137.925ZM1026.1 139.612C1025.53 139.612 1025.07 139.727 1024.73 139.955C1024.39 140.178 1024.14 140.515 1023.98 140.966C1023.83 141.417 1023.75 141.982 1023.74 142.662V142.952C1023.74 143.673 1023.81 144.285 1023.96 144.789C1024.11 145.287 1024.36 145.668 1024.7 145.932C1025.05 146.189 1025.53 146.318 1026.13 146.318C1026.63 146.318 1027.05 146.181 1027.37 145.905C1027.71 145.63 1027.96 145.237 1028.12 144.728C1028.29 144.218 1028.37 143.617 1028.37 142.926C1028.37 141.877 1028.18 141.063 1027.81 140.482C1027.44 139.902 1026.87 139.612 1026.1 139.612Z" fill="#F8E71C"/>
<path d="M366.156 127.839V111.42H368.852V125.548H375.826V127.839H366.156ZM390.553 121.595C390.553 122.628 390.419 123.545 390.149 124.346C389.879 125.147 389.486 125.825 388.97 126.379C388.453 126.926 387.832 127.345 387.106 127.637C386.379 127.921 385.56 128.064 384.646 128.064C383.793 128.064 383.01 127.921 382.299 127.637C381.588 127.345 380.97 126.926 380.446 126.379C379.929 125.825 379.529 125.147 379.244 124.346C378.96 123.545 378.817 122.628 378.817 121.595C378.817 120.225 379.053 119.064 379.525 118.113C380.004 117.155 380.685 116.425 381.569 115.924C382.452 115.422 383.504 115.171 384.725 115.171C385.87 115.171 386.881 115.422 387.757 115.924C388.633 116.425 389.318 117.155 389.812 118.113C390.306 119.072 390.553 120.232 390.553 121.595ZM381.535 121.595C381.535 122.501 381.644 123.276 381.861 123.92C382.086 124.563 382.43 125.058 382.894 125.402C383.358 125.739 383.957 125.907 384.691 125.907C385.425 125.907 386.024 125.739 386.488 125.402C386.952 125.058 387.293 124.563 387.51 123.92C387.727 123.276 387.836 122.501 387.836 121.595C387.836 120.689 387.727 119.922 387.51 119.293C387.293 118.656 386.952 118.173 386.488 117.844C386.024 117.507 385.421 117.339 384.68 117.339C383.587 117.339 382.789 117.705 382.288 118.439C381.786 119.173 381.535 120.225 381.535 121.595ZM405.741 121.595C405.741 122.628 405.607 123.545 405.337 124.346C405.068 125.147 404.675 125.825 404.158 126.379C403.641 126.926 403.02 127.345 402.294 127.637C401.567 127.921 400.748 128.064 399.834 128.064C398.981 128.064 398.198 127.921 397.487 127.637C396.776 127.345 396.158 126.926 395.634 126.379C395.117 125.825 394.717 125.147 394.432 124.346C394.148 123.545 394.006 122.628 394.006 121.595C394.006 120.225 394.241 119.064 394.713 118.113C395.192 117.155 395.874 116.425 396.757 115.924C397.64 115.422 398.692 115.171 399.913 115.171C401.058 115.171 402.069 115.422 402.945 115.924C403.821 116.425 404.506 117.155 405 118.113C405.494 119.072 405.741 120.232 405.741 121.595ZM396.723 121.595C396.723 122.501 396.832 123.276 397.049 123.92C397.274 124.563 397.618 125.058 398.082 125.402C398.546 125.739 399.145 125.907 399.879 125.907C400.613 125.907 401.212 125.739 401.676 125.402C402.14 125.058 402.481 124.563 402.698 123.92C402.915 123.276 403.024 122.501 403.024 121.595C403.024 120.689 402.915 119.922 402.698 119.293C402.481 118.656 402.14 118.173 401.676 117.844C401.212 117.507 400.609 117.339 399.868 117.339C398.775 117.339 397.977 117.705 397.476 118.439C396.974 119.173 396.723 120.225 396.723 121.595ZM412.563 110.364V118.81C412.563 119.192 412.548 119.611 412.518 120.068C412.488 120.517 412.458 120.94 412.428 121.337H412.484C412.679 121.075 412.911 120.768 413.18 120.416C413.457 120.064 413.72 119.757 413.967 119.495L417.763 115.407H420.795L415.82 120.753L421.12 127.839H418.021L414.045 122.381L412.563 123.65V127.839H409.924V110.364H412.563ZM426.897 115.407V127.839H424.258V115.407H426.897ZM425.595 110.645C425.999 110.645 426.347 110.754 426.639 110.971C426.939 111.188 427.088 111.562 427.088 112.094C427.088 112.618 426.939 112.992 426.639 113.217C426.347 113.434 425.999 113.543 425.595 113.543C425.175 113.543 424.82 113.434 424.528 113.217C424.243 112.992 424.101 112.618 424.101 112.094C424.101 111.562 424.243 111.188 424.528 110.971C424.82 110.754 425.175 110.645 425.595 110.645ZM438.312 115.171C439.712 115.171 440.801 115.534 441.58 116.26C442.366 116.979 442.759 118.136 442.759 119.731V127.839H440.12V120.225C440.12 119.259 439.922 118.536 439.525 118.057C439.128 117.571 438.514 117.327 437.683 117.327C436.478 117.327 435.639 117.698 435.167 118.439C434.703 119.18 434.471 120.255 434.471 121.662V127.839H431.832V115.407H433.887L434.258 117.091H434.404C434.673 116.657 435.007 116.302 435.403 116.025C435.808 115.74 436.257 115.527 436.751 115.384C437.253 115.242 437.773 115.171 438.312 115.171ZM451.153 133.364C449.468 133.364 448.177 133.061 447.278 132.455C446.38 131.848 445.931 130.999 445.931 129.905C445.931 129.142 446.17 128.494 446.65 127.963C447.129 127.438 447.814 127.075 448.705 126.873C448.368 126.723 448.076 126.491 447.829 126.177C447.589 125.855 447.469 125.499 447.469 125.11C447.469 124.646 447.6 124.249 447.862 123.92C448.124 123.59 448.518 123.272 449.042 122.965C448.39 122.688 447.866 122.239 447.469 121.617C447.08 120.988 446.885 120.251 446.885 119.405C446.885 118.507 447.076 117.743 447.458 117.114C447.84 116.478 448.398 115.995 449.131 115.665C449.865 115.328 450.752 115.16 451.793 115.16C452.018 115.16 452.261 115.175 452.523 115.205C452.793 115.227 453.04 115.257 453.264 115.295C453.496 115.325 453.672 115.358 453.792 115.396H458.093V116.867L455.982 117.26C456.184 117.544 456.345 117.87 456.465 118.237C456.585 118.596 456.645 118.989 456.645 119.416C456.645 120.704 456.199 121.718 455.308 122.46C454.425 123.193 453.204 123.56 451.647 123.56C451.273 123.545 450.91 123.515 450.558 123.47C450.288 123.635 450.082 123.819 449.94 124.021C449.798 124.215 449.727 124.436 449.727 124.683C449.727 124.885 449.798 125.05 449.94 125.177C450.082 125.297 450.292 125.387 450.569 125.447C450.853 125.507 451.198 125.537 451.602 125.537H453.747C455.11 125.537 456.15 125.825 456.869 126.402C457.588 126.978 457.947 127.824 457.947 128.94C457.947 130.355 457.363 131.444 456.195 132.208C455.027 132.979 453.347 133.364 451.153 133.364ZM451.254 131.511C452.175 131.511 452.95 131.422 453.579 131.242C454.208 131.062 454.683 130.804 455.005 130.467C455.327 130.138 455.488 129.744 455.488 129.288C455.488 128.883 455.387 128.573 455.185 128.356C454.983 128.139 454.679 127.989 454.275 127.906C453.871 127.824 453.369 127.783 452.77 127.783H450.816C450.329 127.783 449.899 127.858 449.525 128.008C449.15 128.165 448.858 128.389 448.649 128.681C448.446 128.973 448.345 129.325 448.345 129.737C448.345 130.306 448.596 130.744 449.098 131.051C449.607 131.358 450.326 131.511 451.254 131.511ZM451.771 121.831C452.542 121.831 453.115 121.621 453.489 121.202C453.863 120.775 454.05 120.176 454.05 119.405C454.05 118.566 453.856 117.938 453.466 117.518C453.085 117.099 452.516 116.889 451.759 116.889C451.018 116.889 450.453 117.103 450.064 117.529C449.682 117.956 449.491 118.589 449.491 119.427C449.491 120.184 449.682 120.775 450.064 121.202C450.453 121.621 451.022 121.831 451.771 121.831ZM474.847 117.417H471.826V127.839H469.187V117.417H467.154V116.148L469.187 115.373V114.508C469.187 113.453 469.352 112.614 469.681 111.993C470.018 111.371 470.497 110.926 471.118 110.656C471.747 110.379 472.496 110.241 473.365 110.241C473.934 110.241 474.454 110.29 474.926 110.387C475.397 110.477 475.794 110.582 476.116 110.701L475.431 112.7C475.176 112.618 474.892 112.543 474.577 112.476C474.263 112.401 473.926 112.363 473.567 112.363C472.968 112.363 472.526 112.551 472.242 112.925C471.964 113.299 471.826 113.846 471.826 114.565V115.407H474.847V117.417ZM489.125 121.595C489.125 122.628 488.991 123.545 488.721 124.346C488.452 125.147 488.058 125.825 487.542 126.379C487.025 126.926 486.404 127.345 485.678 127.637C484.951 127.921 484.132 128.064 483.218 128.064C482.365 128.064 481.582 127.921 480.871 127.637C480.16 127.345 479.542 126.926 479.018 126.379C478.501 125.825 478.101 125.147 477.816 124.346C477.532 123.545 477.39 122.628 477.39 121.595C477.39 120.225 477.625 119.064 478.097 118.113C478.576 117.155 479.258 116.425 480.141 115.924C481.024 115.422 482.076 115.171 483.297 115.171C484.442 115.171 485.453 115.422 486.329 115.924C487.205 116.425 487.89 117.155 488.384 118.113C488.878 119.072 489.125 120.232 489.125 121.595ZM480.107 121.595C480.107 122.501 480.216 123.276 480.433 123.92C480.658 124.563 481.002 125.058 481.466 125.402C481.93 125.739 482.529 125.907 483.263 125.907C483.997 125.907 484.596 125.739 485.06 125.402C485.524 125.058 485.865 124.563 486.082 123.92C486.299 123.276 486.408 122.501 486.408 121.595C486.408 120.689 486.299 119.922 486.082 119.293C485.865 118.656 485.524 118.173 485.06 117.844C484.596 117.507 483.993 117.339 483.252 117.339C482.159 117.339 481.361 117.705 480.86 118.439C480.358 119.173 480.107 120.225 480.107 121.595ZM499.608 115.171C499.818 115.171 500.046 115.182 500.293 115.205C500.54 115.227 500.753 115.257 500.933 115.295L500.686 117.765C500.529 117.72 500.334 117.687 500.102 117.664C499.877 117.642 499.675 117.631 499.496 117.631C499.024 117.631 498.575 117.709 498.148 117.866C497.721 118.016 497.343 118.248 497.014 118.563C496.684 118.87 496.426 119.255 496.239 119.719C496.052 120.184 495.958 120.723 495.958 121.337V127.839H493.308V115.407H495.374L495.733 117.597H495.857C496.104 117.155 496.411 116.751 496.778 116.384C497.145 116.017 497.564 115.725 498.036 115.508C498.515 115.283 499.039 115.171 499.608 115.171Z" fill="#F8E71C"/>
<path d="M397.331 95.8391L395.725 91.2795H389.447L387.841 95.8391H385L391.109 79.3527H394.097L400.195 95.8391H397.331ZM395.029 88.966L393.468 84.4738C393.408 84.2792 393.322 84.0059 393.209 83.654C393.097 83.2946 392.985 82.9315 392.873 82.5646C392.76 82.1903 392.667 81.8758 392.592 81.6213C392.517 81.9282 392.423 82.2726 392.311 82.6545C392.206 83.0288 392.101 83.3807 391.997 83.7101C391.899 84.0396 391.824 84.2941 391.772 84.4738L390.2 88.966H395.029ZM405.893 95.8391H403.243V78.3644H405.893V95.8391ZM420.98 95.8278L419.408 90.0441C419.333 89.7596 419.243 89.4152 419.138 89.0109C419.034 88.6066 418.929 88.1911 418.824 87.7643C418.719 87.3301 418.622 86.9295 418.532 86.5627C418.45 86.1958 418.386 85.9113 418.341 85.7092H418.251C418.214 85.9113 418.154 86.1958 418.071 86.5627C417.989 86.9295 417.896 87.3301 417.791 87.7643C417.686 88.1986 417.581 88.6216 417.476 89.0334C417.379 89.4452 417.289 89.7971 417.207 90.0891L415.556 95.8278H412.658L409.177 83.3957H411.85L413.467 89.5724C413.572 89.9917 413.673 90.4447 413.77 90.9313C413.875 91.418 413.965 91.8822 414.04 92.3239C414.115 92.7656 414.171 93.1288 414.208 93.4133H414.298C414.328 93.2111 414.369 92.9566 414.422 92.6496C414.474 92.3351 414.534 92.0095 414.601 91.6725C414.669 91.3281 414.736 91.0062 414.803 90.7067C414.871 90.3998 414.934 90.1527 414.994 89.9655L416.904 83.3957H419.79L421.62 89.9655C421.703 90.25 421.793 90.6094 421.89 91.0436C421.987 91.4704 422.073 91.9009 422.148 92.3351C422.231 92.7619 422.283 93.1175 422.305 93.402H422.395C422.425 93.1475 422.478 92.8031 422.552 92.3688C422.635 91.9271 422.728 91.4592 422.833 90.965C422.938 90.4634 423.047 89.9992 423.159 89.5724L424.81 83.3957H427.438L423.934 95.8278H420.98ZM435.596 83.1711C437.168 83.1711 438.354 83.5192 439.156 84.2155C439.964 84.9118 440.368 85.9974 440.368 87.4724V95.8391H438.493L437.988 94.0759H437.898C437.546 94.5251 437.183 94.8957 436.808 95.1877C436.434 95.4797 436 95.6968 435.506 95.8391C435.019 95.9888 434.424 96.0637 433.72 96.0637C432.979 96.0637 432.316 95.9289 431.732 95.6594C431.148 95.3823 430.688 94.9631 430.351 94.4016C430.014 93.84 429.846 93.1288 429.846 92.2678C429.846 90.9875 430.321 90.0254 431.272 89.3815C432.23 88.7377 433.675 88.382 435.607 88.3146L437.763 88.236V87.5847C437.763 86.7237 437.561 86.1097 437.157 85.7429C436.76 85.376 436.198 85.1926 435.472 85.1926C434.851 85.1926 434.248 85.2824 433.664 85.4621C433.08 85.6418 432.511 85.8627 431.957 86.1247L431.103 84.2604C431.71 83.9385 432.399 83.6765 433.17 83.4743C433.948 83.2722 434.757 83.1711 435.596 83.1711ZM437.752 89.8981L436.146 89.9543C434.828 89.9992 433.903 90.2238 433.372 90.6281C432.84 91.0324 432.575 91.5864 432.575 92.2902C432.575 92.9042 432.758 93.3534 433.125 93.6379C433.492 93.9149 433.975 94.0534 434.574 94.0534C435.487 94.0534 436.243 93.7951 436.842 93.2785C437.449 92.7544 437.752 91.987 437.752 90.9763V89.8981ZM443.338 83.4069H446.213L448.762 90.5046C448.874 90.8265 448.975 91.1447 449.065 91.4592C449.163 91.7661 449.245 92.0694 449.312 92.3688C449.387 92.6683 449.447 92.9678 449.492 93.2673H449.559C449.634 92.878 449.739 92.4437 449.874 91.9645C450.016 91.4779 450.173 90.9912 450.346 90.5046L452.794 83.4069H455.635L450.301 97.5461C449.994 98.3547 449.616 99.0435 449.166 99.6125C448.725 100.189 448.201 100.623 447.594 100.915C446.988 101.215 446.295 101.364 445.517 101.364C445.142 101.364 444.816 101.342 444.539 101.297C444.262 101.26 444.027 101.218 443.832 101.174V99.0622C443.989 99.0996 444.188 99.1333 444.427 99.1633C444.667 99.1932 444.914 99.2082 445.168 99.2082C445.64 99.2082 446.048 99.1146 446.392 98.9274C446.737 98.7403 447.029 98.4745 447.268 98.1301C447.508 97.7932 447.706 97.4076 447.864 96.9733L448.302 95.8054L443.338 83.4069ZM467.027 92.2902C467.027 93.1063 466.829 93.7951 466.432 94.3566C466.035 94.9182 465.455 95.3449 464.691 95.6369C463.935 95.9214 463.007 96.0637 461.906 96.0637C461.038 96.0637 460.289 96 459.66 95.8727C459.039 95.753 458.451 95.5658 457.897 95.3112V93.0314C458.488 93.3085 459.151 93.548 459.885 93.7502C460.626 93.9523 461.326 94.0534 461.985 94.0534C462.853 94.0534 463.479 93.9186 463.86 93.6491C464.242 93.3721 464.433 93.0052 464.433 92.5485C464.433 92.279 464.354 92.0394 464.197 91.8298C464.048 91.6127 463.763 91.3918 463.344 91.1672C462.932 90.9351 462.326 90.6581 461.524 90.3361C460.738 90.0217 460.076 89.7072 459.537 89.3928C458.998 89.0783 458.59 88.7002 458.312 88.2585C458.035 87.8093 457.897 87.2365 457.897 86.5402C457.897 85.4396 458.331 84.6048 459.2 84.0358C460.076 83.4593 461.232 83.1711 462.67 83.1711C463.434 83.1711 464.152 83.2497 464.826 83.4069C465.507 83.5567 466.174 83.7775 466.825 84.0695L465.994 86.0573C465.433 85.8102 464.867 85.6081 464.298 85.4509C463.737 85.2862 463.164 85.2038 462.58 85.2038C461.899 85.2038 461.378 85.3086 461.019 85.5182C460.667 85.7279 460.491 86.0274 460.491 86.4167C460.491 86.7087 460.577 86.9557 460.75 87.1579C460.922 87.36 461.217 87.5622 461.637 87.7643C462.063 87.9665 462.655 88.2173 463.411 88.5168C464.152 88.8013 464.792 89.1008 465.332 89.4152C465.878 89.7222 466.297 90.1003 466.589 90.5495C466.881 90.9987 467.027 91.579 467.027 92.2902ZM473.692 93.1662L473.849 93.4245C473.714 93.9636 473.542 94.5438 473.332 95.1652C473.122 95.7866 472.894 96.4081 472.647 97.0295C472.4 97.6584 472.149 98.2499 471.895 98.8039H469.963C470.12 98.1974 470.27 97.5611 470.412 96.8947C470.562 96.2359 470.697 95.5845 470.817 94.9406C470.944 94.2892 471.045 93.6978 471.12 93.1662H473.692Z" fill="#F8E71C"/>
<path d="M375.762 163.685C376.331 163.685 376.894 163.635 377.45 163.536C378.007 163.425 378.514 163.295 378.972 163.147V166.449C378.489 166.66 377.865 166.839 377.098 166.987C376.331 167.136 375.533 167.21 374.704 167.21C373.541 167.21 372.496 167.018 371.568 166.635C370.641 166.239 369.905 165.565 369.36 164.612C368.816 163.66 368.544 162.343 368.544 160.66V149.62H365.742V147.672L368.748 146.132L370.177 141.735H372.923V146.299H378.805V149.62H372.923V160.605C372.923 161.644 373.183 162.417 373.702 162.924C374.222 163.431 374.908 163.685 375.762 163.685ZM393.099 145.909C395.697 145.909 397.657 146.485 398.981 147.635C400.317 148.785 400.985 150.579 400.985 153.016V166.839H397.886L397.051 163.926H396.903C396.322 164.668 395.722 165.28 395.103 165.763C394.485 166.245 393.767 166.604 392.951 166.839C392.147 167.086 391.163 167.21 390.001 167.21C388.776 167.21 387.681 166.987 386.716 166.542C385.752 166.084 384.991 165.392 384.434 164.464C383.878 163.536 383.599 162.361 383.599 160.939C383.599 158.823 384.385 157.234 385.956 156.17C387.539 155.106 389.926 154.519 393.118 154.407L396.68 154.278V153.201C396.68 151.779 396.346 150.765 395.678 150.158C395.023 149.552 394.095 149.249 392.895 149.249C391.868 149.249 390.873 149.398 389.908 149.695C388.943 149.991 388.003 150.356 387.087 150.789L385.677 147.709C386.679 147.177 387.817 146.744 389.091 146.41C390.378 146.076 391.714 145.909 393.099 145.909ZM396.662 157.024L394.008 157.116C391.831 157.191 390.304 157.562 389.425 158.23C388.547 158.898 388.108 159.813 388.108 160.976C388.108 161.99 388.411 162.732 389.017 163.202C389.623 163.66 390.421 163.889 391.411 163.889C392.92 163.889 394.169 163.462 395.159 162.609C396.161 161.743 396.662 160.475 396.662 158.805V157.024ZM413.368 166.839H408.989V137.968H413.368V166.839ZM429.685 145.909C431.516 145.909 433.087 146.287 434.398 147.041C435.709 147.796 436.718 148.866 437.423 150.251C438.128 151.637 438.48 153.294 438.48 155.224V157.562H424.768C424.818 159.553 425.35 161.087 426.364 162.163C427.391 163.239 428.826 163.778 430.669 163.778C431.98 163.778 433.155 163.654 434.194 163.406C435.246 163.147 436.328 162.769 437.441 162.275V165.819C436.415 166.301 435.369 166.654 434.305 166.876C433.242 167.099 431.968 167.21 430.483 167.21C428.467 167.21 426.692 166.82 425.158 166.041C423.637 165.25 422.443 164.074 421.577 162.516C420.723 160.957 420.297 159.021 420.297 156.708C420.297 154.407 420.686 152.453 421.466 150.845C422.245 149.237 423.34 148.012 424.75 147.171C426.16 146.33 427.805 145.909 429.685 145.909ZM429.685 149.194C428.312 149.194 427.199 149.639 426.346 150.529C425.504 151.42 425.01 152.725 424.861 154.445H434.213C434.2 153.418 434.027 152.509 433.693 151.717C433.372 150.925 432.877 150.307 432.209 149.862C431.553 149.416 430.712 149.194 429.685 149.194ZM456.003 145.909C458.316 145.909 460.116 146.509 461.403 147.709C462.702 148.897 463.351 150.808 463.351 153.443V166.839H458.991V154.259C458.991 152.663 458.663 151.47 458.007 150.678C457.352 149.874 456.337 149.472 454.964 149.472C452.973 149.472 451.587 150.084 450.808 151.309C450.041 152.533 449.658 154.308 449.658 156.634V166.839H445.297V146.299H448.693L449.305 149.082H449.546C449.992 148.365 450.542 147.777 451.198 147.32C451.866 146.849 452.608 146.497 453.424 146.262C454.253 146.027 455.113 145.909 456.003 145.909ZM479 163.685C479.569 163.685 480.132 163.635 480.688 163.536C481.245 163.425 481.752 163.295 482.21 163.147V166.449C481.728 166.66 481.103 166.839 480.336 166.987C479.569 167.136 478.771 167.21 477.942 167.21C476.78 167.21 475.734 167.018 474.807 166.635C473.879 166.239 473.143 165.565 472.599 164.612C472.054 163.66 471.782 162.343 471.782 160.66V149.62H468.98V147.672L471.986 146.132L473.415 141.735H476.161V146.299H482.043V149.62H476.161V160.605C476.161 161.644 476.421 162.417 476.94 162.924C477.46 163.431 478.146 163.685 479 163.685ZM492.051 158.564H488.767L487.877 139.712H492.942L492.051 158.564ZM487.654 164.538C487.654 163.524 487.914 162.813 488.433 162.404C488.965 161.984 489.615 161.774 490.381 161.774C491.136 161.774 491.779 161.984 492.311 162.404C492.843 162.813 493.109 163.524 493.109 164.538C493.109 165.528 492.843 166.245 492.311 166.691C491.779 167.124 491.136 167.34 490.381 167.34C489.615 167.34 488.965 167.124 488.433 166.691C487.914 166.245 487.654 165.528 487.654 164.538Z" fill="#F8E71C"/>
<rect x="311.228" y="115.326" width="10.6415" height="30.4963" transform="rotate(-17.4766 311.228 115.326)" fill="#A795E6"/>
<g filter="url(#filter1_d_103_50)">
<path fill-rule="evenodd" clip-rule="evenodd" d="M306.964 78.5742C305.768 74.8981 307.778 70.948 311.454 69.7514L398.937 41.2774L486.42 12.8034C490.096 11.6069 494.046 13.617 495.242 17.2932L552.191 192.259C553.387 195.935 551.377 199.885 547.701 201.081L372.735 258.03C369.059 259.226 365.109 257.216 363.912 253.54L332.403 156.733L330.476 157.274L362.011 254.159C363.549 258.885 368.628 261.47 373.354 259.931L548.32 202.983C553.046 201.445 555.631 196.366 554.092 191.64L497.144 16.6742C495.606 11.9477 490.527 9.36319 485.801 10.9016L398.318 39.3756L310.835 67.8496C306.109 69.388 303.524 74.4667 305.063 79.1933L316.537 114.448L318.464 113.906L306.964 78.5742Z" fill="#F8E71C"/>
</g>
<path d="M376.383 41.3763H361.383C356.216 43.7097 344.783 48.6763 340.383 49.8763C334.883 51.3763 333.383 60.8763 336.883 67.8763C340.383 74.8763 356.383 69.8763 357.383 67.8763C358.183 66.2763 362.049 61.8763 363.883 59.8763L370.383 55.3763L395.883 56.8763C400.383 58.3763 404.6 61.0763 405 59.8763C405.4 58.6763 400.5 45.3763 398 40.3763L394.383 37.3763L376.383 41.3763Z" fill="#937DE2"/>
<rect x="282" y="79.3763" width="39" height="52" fill="#A795E6"/>
<path d="M368.6 36.8591C368.279 36.9222 367.935 36.8457 367.68 36.6207C367.262 36.2534 367.251 35.6248 367.652 35.2203L380.987 21.8469C381.388 21.4425 382.055 21.4151 382.474 21.7824C382.892 22.1496 382.903 22.7783 382.502 23.1827L369.167 36.5561C369.008 36.7149 368.81 36.8177 368.6 36.8591Z" fill="#F8E71C"/>
<path d="M390.48 60.2763C390.421 60.2731 390.362 60.2669 390.303 60.2579L373.842 57.7778C373.153 57.6731 372.693 57.2094 372.818 56.7403C372.942 56.2712 373.6 55.9736 374.289 56.0783L390.749 58.5584C391.438 58.6632 391.899 59.1268 391.774 59.5959C391.664 60.0281 391.101 60.3106 390.48 60.2763Z" fill="#F8E71C"/>
<path d="M373.309 46.9906C372.775 47.0189 372.273 46.733 372.11 46.2745C371.919 45.7316 372.282 45.1525 372.912 44.9817L390.929 40.0635C391.56 39.8927 392.23 40.1904 392.417 40.73C392.608 41.2729 392.245 41.852 391.614 42.0228L373.598 46.941C373.503 46.97 373.408 46.9854 373.309 46.9906Z" fill="#F8E71C"/>
<g filter="url(#filter2_d_103_50)">
<circle cx="354.645" cy="52.1385" r="12.292" transform="rotate(4.45576 354.645 52.1385)" fill="#F8E71C"/>
</g>
<rect width="12.7843" height="110.96" rx="5" transform="matrix(0.908456 -0.417981 0.418383 0.90827 276.137 56.7124)" fill="#D15460"/>
<rect width="12.7843" height="14.6551" rx="5" transform="matrix(0.908456 -0.417981 0.418383 0.90827 272.407 79.17)" fill="white"/>
<path d="M281.253 88.3129C278.538 88.4601 277.042 85.2114 278.919 83.2461L333.547 26.0486C335.01 24.5172 337.557 24.9426 338.443 26.8664L362.816 79.7777C363.702 81.7015 362.37 83.912 360.254 84.0268L281.253 88.3129Z" fill="white"/>
<path d="M275.926 71.5321C274.771 69.024 275.868 66.055 278.377 64.9008L304.805 52.7412L320.571 86.969L294.143 99.1286C291.635 100.283 288.664 99.1853 287.509 96.6772L275.926 71.5321Z" fill="#D15460"/>
<rect width="7.10884" height="71.182" rx="3.55442" transform="matrix(0.908456 -0.417981 0.418383 0.90827 332.95 22.5941)" fill="#D15460"/>
<rect width="8.52285" height="52.3397" rx="4.26143" transform="matrix(0.908456 -0.417981 0.418383 0.90827 300.817 46.8005)" fill="#D15460"/>
<defs>
<filter id="filter0_d_103_50" x="327.244" y="33.0827" width="208" height="208" filterUnits="userSpaceOnUse" color-interpolation-filters="sRGB">
<feFlood flood-opacity="0" result="BackgroundImageFix"/>
<feColorMatrix in="SourceAlpha" type="matrix" values="0 0 0 0 0 0 0 0 0 0 0 0 0 0 0 0 0 0 127 0" result="hardAlpha"/>
<feOffset dy="4"/>
<feGaussianBlur stdDeviation="2"/>
<feComposite in2="hardAlpha" operator="out"/>
<feColorMatrix type="matrix" values="0 0 0 0 0 0 0 0 0 0 0 0 0 0 0 0 0 0 0.25 0"/>
<feBlend mode="normal" in2="BackgroundImageFix" result="effect1_dropShadow_103_50"/>
<feBlend mode="normal" in="SourceGraphic" in2="effect1_dropShadow_103_50" result="shape"/>
</filter>
<filter id="filter1_d_103_50" x="300.618" y="10.4573" width="257.918" height="257.918" filterUnits="userSpaceOnUse" color-interpolation-filters="sRGB">
<feFlood flood-opacity="0" result="BackgroundImageFix"/>
<feColorMatrix in="SourceAlpha" type="matrix" values="0 0 0 0 0 0 0 0 0 0 0 0 0 0 0 0 0 0 127 0" result="hardAlpha"/>
<feOffset dy="4"/>
<feGaussianBlur stdDeviation="2"/>
<feComposite in2="hardAlpha" operator="out"/>
<feColorMatrix type="matrix" values="0 0 0 0 0 0 0 0 0 0 0 0 0 0 0 0 0 0 0.25 0"/>
<feBlend mode="normal" in2="BackgroundImageFix" result="effect1_dropShadow_103_50"/>
<feBlend mode="normal" in="SourceGraphic" in2="effect1_dropShadow_103_50" result="shape"/>
</filter>
<filter id="filter2_d_103_50" x="338.352" y="39.8459" width="32.5852" height="32.5851" filterUnits="userSpaceOnUse" color-interpolation-filters="sRGB">
<feFlood flood-opacity="0" result="BackgroundImageFix"/>
<feColorMatrix in="SourceAlpha" type="matrix" values="0 0 0 0 0 0 0 0 0 0 0 0 0 0 0 0 0 0 127 0" result="hardAlpha"/>
<feOffset dy="4"/>
<feGaussianBlur stdDeviation="2"/>
<feComposite in2="hardAlpha" operator="out"/>
<feColorMatrix type="matrix" values="0 0 0 0 0 0 0 0 0 0 0 0 0 0 0 0 0 0 0.25 0"/>
<feBlend mode="normal" in2="BackgroundImageFix" result="effect1_dropShadow_103_50"/>
<feBlend mode="normal" in="SourceGraphic" in2="effect1_dropShadow_103_50" result="shape"/>
</filter>
</defs>
</svg>
