<svg width="246" height="165" viewBox="0 0 246 165" fill="none" xmlns="http://www.w3.org/2000/svg">
<rect width="246" height="165" rx="8" fill="#937DE2" fill-opacity="0.8"/>
<path d="M106 81C105.448 81 105 81.4477 105 82C105 82.5523 105.448 83 106 83V81ZM140.707 82.7071C141.098 82.3166 141.098 81.6834 140.707 81.2929L134.343 74.9289C133.953 74.5384 133.319 74.5384 132.929 74.9289C132.538 75.3195 132.538 75.9526 132.929 76.3431L138.586 82L132.929 87.6569C132.538 88.0474 132.538 88.6805 132.929 89.0711C133.319 89.4616 133.953 89.4616 134.343 89.0711L140.707 82.7071ZM106 83L140 83V81L106 81V83Z" fill="white"/>
</svg>
