<svg width="20" height="20" viewBox="0 0 20 20" fill="none" xmlns="http://www.w3.org/2000/svg">
<mask id="mask0" mask-type="alpha" maskUnits="userSpaceOnUse" x="0" y="0" width="20" height="20">
<path fill-rule="evenodd" clip-rule="evenodd" d="M0 0.000183105H20V20H0V0.000183105Z" fill="white"/>
</mask>
<g mask="url(#mask0)">
<path fill-rule="evenodd" clip-rule="evenodd" d="M18.3333 16.6668C18.3333 17.5868 17.5867 18.3335 16.6667 18.3335H3.33333C2.41333 18.3335 1.66667 17.5868 1.66667 16.6668V3.33352C1.66667 2.41268 2.41333 1.66685 3.33333 1.66685H16.6667C17.5867 1.66685 18.3333 2.41268 18.3333 3.33352V16.6668ZM16.6667 0.000183105H3.33333C1.4925 0.000183105 0 1.49268 0 3.33352V16.6668C0 18.5077 1.4925 20.0002 3.33333 20.0002H16.6667C18.5075 20.0002 20 18.5077 20 16.6668V3.33352C20 1.49268 18.5075 0.000183105 16.6667 0.000183105Z" fill="white"/>
</g>
<path fill-rule="evenodd" clip-rule="evenodd" d="M10 13.3333C8.15917 13.3333 6.66667 11.8408 6.66667 10C6.66667 8.15917 8.15917 6.66667 10 6.66667C11.8408 6.66667 13.3333 8.15917 13.3333 10C13.3333 11.8408 11.8408 13.3333 10 13.3333ZM10 5C7.23917 5 5 7.23833 5 10C5 12.7608 7.23917 15 10 15C12.7608 15 15 12.7608 15 10C15 7.23833 12.7608 5 10 5Z" fill="white"/>
<path fill-rule="evenodd" clip-rule="evenodd" d="M15.5 3C16.328 3 17 3.671 17 4.5C17 5.328 16.328 6 15.5 6C14.672 6 14 5.328 14 4.5C14 3.671 14.672 3 15.5 3Z" fill="white"/>
</svg>
