<svg width="18" height="18" viewBox="0 0 18 18" fill="none" xmlns="http://www.w3.org/2000/svg">
<path fill-rule="evenodd" clip-rule="evenodd" d="M0 18H3V6H0V18ZM2.5 0C0.972222 0 0 1.06061 0 2.5C0 3.93939 0.972222 5 2.5 5C4.02778 5 5 3.86364 5 2.5C5 1.13636 4.02778 0 2.5 0ZM18 11.2727V18H14.4082V11.697C14.4082 10.1212 13.9031 9.0303 12.5561 9.0303C11.5459 9.0303 10.9847 9.75758 10.7041 10.4848C10.5918 10.7273 10.5918 11.0909 10.5918 11.4545V18H7C7 18 7.05612 7.39394 7 6.30303H10.5918V7.93939V8V7.93939C11.0969 7.15152 11.9388 6 13.8469 6C16.2041 6 18 7.63636 18 11.2727Z" fill="white"/>
</svg>
