<svg xmlns="http://www.w3.org/2000/svg" width="24" height="24" viewBox="0 0 24 24" fill="none">
  <path d="M23.8156 20.2961C23.7236 19.9064 23.4327 19.5691 22.98 19.323C22.555 19.0864 22.2593 18.8015 22.0802 18.4504C21.6875 17.6867 21.3091 16.9037 20.9482 16.1531L20.8204 15.8847C20.7144 15.6598 20.6124 15.4346 20.5062 15.206C20.3906 14.9481 20.2714 14.6941 20.1483 14.4404C20.0563 14.2556 19.951 14.0418 19.803 13.8975C19.2346 13.3227 18.9541 12.5527 18.6907 11.8115C18.5935 11.5339 18.5011 11.2747 18.3937 11.0237L18.157 10.4784C17.8045 9.67153 17.4426 8.83535 17.1841 7.97465C16.959 7.2238 16.4906 6.83699 15.7092 6.75114C15.4474 6.72136 15.1994 6.66099 14.9516 6.60433C14.857 6.57992 14.7663 6.55528 14.6681 6.5348C14.5344 6.50517 14.4007 6.47554 14.267 6.4459C14.031 6.3923 13.8028 6.33825 13.5672 6.29207C12.9663 6.16986 12.482 5.50456 12.5773 4.92544C12.595 4.82757 12.6487 4.74629 12.6924 4.69537C13.0897 4.2406 13.2989 3.68479 13.3813 2.87917C13.4264 2.37369 13.4605 1.88002 13.3054 1.40457C13.103 0.779095 12.4154 0.0881316 11.385 0.0611703L10.8202 0.0970823C9.81869 0.236114 9.2137 1.00074 9.08332 1.64518C8.983 2.13518 9.07273 2.6218 9.1747 3.1189C9.34383 3.91018 9.6184 4.43842 10.0647 4.84512C10.1138 4.89074 10.1763 4.96541 10.205 5.06063C10.3654 5.62891 9.95952 6.34493 9.37627 6.53463C9.14744 6.60727 8.92291 6.68712 8.69837 6.76697C8.5689 6.8116 8.43943 6.85623 8.30996 6.90086C8.21856 6.93215 8.13123 6.96693 8.03617 7.00215C7.80024 7.08637 7.55677 7.17475 7.30001 7.23409C6.5334 7.40816 6.11174 7.84569 5.97304 8.61727C5.81745 9.50156 5.54857 10.3737 5.28962 11.2155L5.11611 11.7841C5.03777 12.0456 4.97533 12.3137 4.91007 12.6005C4.73225 13.3669 4.54043 14.1601 4.04093 14.7995C3.91412 14.9595 3.8298 15.1841 3.75928 15.3781C3.66954 15.644 3.57593 15.9101 3.49027 16.1794C3.41432 16.4147 3.33837 16.65 3.2549 16.8895L3.15826 17.1706C2.88088 17.9613 2.59744 18.7821 2.29339 19.5817C2.15516 19.9509 1.89359 20.2676 1.49812 20.5509C1.07641 20.8506 0.829184 21.2149 0.777988 21.6127C0.73411 22.0026 0.880913 22.4003 1.21221 22.7651C1.55617 23.1478 1.89346 23.3447 2.28017 23.3859C2.35391 23.3855 2.41562 23.3782 2.45734 23.3609L2.51863 23.3463C2.56852 23.336 2.58661 23.3126 2.59371 23.301C2.60082 23.2894 2.61483 23.2626 2.6054 23.2333C2.54653 23.0169 2.48745 22.7967 2.42858 22.5803C2.39454 22.4593 2.31103 22.356 2.40491 22.2315C2.46606 22.146 2.63057 22.1031 2.7174 22.128C3.00988 22.2193 3.14197 22.6998 3.28724 22.9337C3.60741 23.4444 4.10956 23.6728 4.82937 23.6318C5.37503 23.6007 5.96299 23.4257 6.46948 23.2515C7.14759 23.0229 7.83562 22.7639 8.50106 22.5173C10.3526 21.827 12.2685 21.1068 14.2648 20.8441C14.4688 20.8138 14.6739 20.8021 14.8904 20.7861C15.1882 20.7654 15.4782 20.7451 15.7431 20.6928C15.8775 20.6665 15.9776 20.5826 16.0009 20.5142C16.0035 20.4917 16.0203 20.446 15.946 20.3683C15.7073 20.1286 15.4224 20.1038 15.0559 20.0763C14.9155 20.0657 14.7672 20.0518 14.6183 20.0267C14.3283 19.9799 14.0416 19.9218 13.7659 19.8518C13.4744 19.779 13.0898 19.637 12.7895 19.751C12.6299 19.8122 12.5182 19.9639 12.3841 20.0646C12.209 20.1938 12.0167 20.2942 11.7931 20.3218C11.6619 20.3368 11.5267 20.3482 11.3994 20.3629L11.2024 20.3816C10.8627 20.4158 10.4806 20.4562 10.1014 20.4778L10.0549 20.4805C9.81867 20.4902 9.57423 20.493 9.33366 20.4955C9.10062 20.4939 8.85619 20.4967 8.62399 20.5099C8.15573 20.5366 7.78737 20.6134 7.46904 20.7508C7.11306 20.9089 6.82708 21.1376 6.5639 21.3574C6.34914 21.541 5.98712 21.5244 5.78894 21.3159C5.69382 21.2133 5.64345 21.0783 5.6548 20.9361C5.66248 20.7979 5.72498 20.6676 5.83602 20.5719C6.13234 20.3203 6.46286 20.0556 6.90145 19.8481C7.24927 19.683 7.65556 19.522 8.04861 19.4698C8.46488 19.4163 8.91287 19.4429 9.33209 19.4414C9.55739 19.4434 9.78248 19.4418 9.99533 19.4296L10.0379 19.4272C10.3862 19.4074 10.7491 19.3718 11.0656 19.3389L11.243 19.3176C11.5014 19.2879 11.8082 19.1513 12.0126 18.9906C12.2577 18.7941 12.5166 18.7048 12.8417 18.6863C13.1706 18.6676 13.5696 18.7193 14.0343 18.8344C14.2784 18.895 14.5376 18.9473 14.8001 18.9882C14.9058 19.0045 15.0268 19.0163 15.1399 19.0247C15.5649 19.0564 16.2046 19.1093 16.7316 19.6381C17.0571 19.9697 17.1714 20.4102 17.0318 20.8242C16.7962 21.5305 16.1599 22.0846 16.6996 22.2215C17.5034 22.429 18.3344 22.6387 19.1425 22.7156C19.4548 22.7462 19.7463 22.7519 20.0134 22.7367C20.5203 22.7078 21.1731 22.5812 21.4194 22.1313C21.5915 21.8123 21.6334 21.456 21.6794 21.1033C21.6883 21.0543 21.761 21.0353 21.7967 21.0481C21.9118 21.0937 22.0785 21.0209 22.1954 21.0962C22.4652 21.2671 22.2276 21.8692 22.1757 22.118C22.1697 22.1482 22.1866 22.1733 22.195 22.184C22.2034 22.1947 22.224 22.2159 22.2554 22.2215L22.3373 22.228C22.3611 22.2379 22.3923 22.2398 22.4271 22.2378C22.4542 22.2363 22.4811 22.231 22.5118 22.2255C22.8916 22.1443 23.2042 21.9067 23.5027 21.4874C23.7985 21.0905 23.9033 20.6785 23.8156 20.2961ZM8.72126 15.0394C8.49574 15.7861 7.8973 16.461 6.89345 17.1068C6.6086 17.2869 6.31538 17.4564 6.02216 17.6258C5.75132 17.7791 5.4809 17.9398 5.21457 18.104C5.8245 17.1528 6.40073 16.1551 6.75469 15.1403C6.85802 14.8401 6.94544 14.5334 7.02534 14.2308C7.11558 13.9053 7.20926 13.5722 7.32336 13.2565C7.35052 13.1879 7.44427 12.9925 7.54941 12.7928C7.76512 12.3521 7.91833 12.0417 8.01039 11.8166C8.57929 12.8794 9.03075 13.9936 8.72126 15.0394ZM19.015 17.3212C18.7318 17.1884 18.445 17.0594 18.1585 16.9379C17.848 16.8029 17.5375 16.6678 17.2342 16.5212C16.1637 15.9936 15.4887 15.3876 15.1843 14.6748C14.7546 13.6712 15.0808 12.5089 15.5301 11.3955C15.647 11.6087 15.8344 11.8997 16.0985 12.3131C16.2217 12.4998 16.337 12.6832 16.3756 12.7481C16.5249 13.0525 16.6515 13.3693 16.7819 13.6823C16.8955 13.9738 17.0132 14.2689 17.1537 14.5552C17.616 15.5197 18.2975 16.4457 19.015 17.3212Z" fill="white"/>
</svg>