<svg width="362" height="107" viewBox="0 0 362 107" fill="none" xmlns="http://www.w3.org/2000/svg">
<rect y="34" width="362" height="40" fill="#A795E6"/>
<g filter="url(#filter0_d_8_50)">
<rect x="146.647" y="10.0622" width="84.1036" height="84.8937" rx="8" fill="#937DE2"/>
</g>
<path d="M137.451 33.8886C136.095 29.6835 138.399 25.1567 142.596 23.7776L174.983 13.1373L207.37 2.497C211.567 1.11794 216.069 3.40888 217.425 7.61395L238.545 73.1114C239.901 77.3165 237.597 81.8433 233.4 83.2224L168.626 104.503C164.429 105.882 159.927 103.591 158.571 99.386L137.451 33.8886Z" stroke="#F8E71C"/>
<rect width="18.3527" height="8.90505" transform="matrix(0.944385 -0.328842 0.323392 0.946265 146.652 18.3448)" fill="#937DE2"/>
<g filter="url(#filter1_d_8_50)">
<ellipse rx="3.73501" ry="3.77001" transform="matrix(0.986179 0.165743 -0.164851 0.986308 154.396 21.5776)" fill="#F8E71C"/>
</g>
<rect width="3.89256" height="33.9635" rx="1.94628" transform="matrix(0.940326 -0.339698 0.33323 0.943047 130.508 20.8786)" fill="#D15460"/>
<rect width="3.89256" height="4.48574" rx="1.94628" transform="matrix(0.940326 -0.339698 0.33323 0.943047 128.77 27.6399)" fill="white"/>
<path d="M131.43 30.667C130.525 30.6402 130.127 29.5128 130.81 28.9121L148.885 13.0261C149.416 12.5595 150.245 12.7743 150.48 13.4393L156.344 30.0337C156.579 30.6988 156.072 31.3962 155.369 31.3753L131.43 30.667Z" fill="white"/>
<path d="M130.532 26.7863C129.98 25.2238 130.795 23.5009 132.353 22.9381L139.293 20.431L143.137 31.3089L136.197 33.8159C134.639 34.3787 132.929 33.5683 132.377 32.0058L130.532 26.7863Z" fill="#D15460"/>
<rect width="2.1645" height="21.7879" rx="1.08225" transform="matrix(0.940326 -0.339698 0.33323 0.943047 148.63 11.9727)" fill="#D15460"/>
<rect width="2.59504" height="16.0205" rx="1.29752" transform="matrix(0.940326 -0.339698 0.33323 0.943047 138.247 18.5097)" fill="#D15460"/>
<path d="M159.004 19.4508C158.849 19.4723 158.694 19.4068 158.635 19.2854C158.565 19.1417 158.657 18.9738 158.838 18.9109L163.999 17.1029C164.179 17.04 164.383 17.1043 164.452 17.2473C164.521 17.3911 164.429 17.5589 164.249 17.6218L159.088 19.4298C159.061 19.4402 159.034 19.4468 159.004 19.4508Z" fill="#F8E71C"/>
<path d="M157.37 16.7972C157.278 16.8227 157.175 16.8106 157.095 16.7555C156.963 16.6656 156.944 16.4938 157.051 16.3728L160.627 12.3695C160.735 12.2485 160.93 12.2239 161.062 12.3137C161.194 12.4036 161.212 12.5755 161.105 12.6965L157.529 16.6998C157.486 16.7473 157.431 16.7805 157.37 16.7972Z" fill="#F8E71C"/>
<path d="M164.373 22.649C164.355 22.6496 164.338 22.6495 164.321 22.6485L159.431 22.3909C159.226 22.3799 159.08 22.2647 159.105 22.1331C159.129 22.0014 159.315 21.9031 159.519 21.9141L164.409 22.1717C164.614 22.1828 164.76 22.2979 164.735 22.4296C164.714 22.5507 164.556 22.6425 164.373 22.649Z" fill="#F8E71C"/>
<path d="M151.219 53V43.7197H152.742V51.705H156.684V53H151.219ZM165.009 49.4707C165.009 50.0547 164.932 50.573 164.78 51.0258C164.628 51.4786 164.406 51.8616 164.114 52.1748C163.822 52.4837 163.47 52.7207 163.06 52.8857C162.649 53.0465 162.186 53.1269 161.67 53.1269C161.187 53.1269 160.745 53.0465 160.343 52.8857C159.941 52.7207 159.592 52.4837 159.296 52.1748C159.004 51.8616 158.777 51.4786 158.616 51.0258C158.456 50.573 158.375 50.0547 158.375 49.4707C158.375 48.6963 158.509 48.0403 158.775 47.5029C159.046 46.9612 159.431 46.5486 159.93 46.2651C160.43 45.9816 161.024 45.8398 161.714 45.8398C162.362 45.8398 162.933 45.9816 163.428 46.2651C163.923 46.5486 164.31 46.9612 164.59 47.5029C164.869 48.0446 165.009 48.7005 165.009 49.4707ZM159.911 49.4707C159.911 49.9827 159.973 50.4207 160.095 50.7846C160.222 51.1486 160.417 51.4279 160.679 51.6225C160.942 51.813 161.28 51.9082 161.695 51.9082C162.11 51.9082 162.448 51.813 162.711 51.6225C162.973 51.4279 163.166 51.1486 163.288 50.7846C163.411 50.4207 163.472 49.9827 163.472 49.4707C163.472 48.9586 163.411 48.5249 163.288 48.1694C163.166 47.8097 162.973 47.5368 162.711 47.3506C162.448 47.1601 162.108 47.0649 161.689 47.0649C161.071 47.0649 160.62 47.2723 160.337 47.687C160.053 48.1017 159.911 48.6963 159.911 49.4707ZM173.593 49.4707C173.593 50.0547 173.517 50.573 173.365 51.0258C173.212 51.4786 172.99 51.8616 172.698 52.1748C172.406 52.4837 172.055 52.7207 171.644 52.8857C171.234 53.0465 170.771 53.1269 170.254 53.1269C169.772 53.1269 169.33 53.0465 168.928 52.8857C168.526 52.7207 168.176 52.4837 167.88 52.1748C167.588 51.8616 167.362 51.4786 167.201 51.0258C167.04 50.573 166.96 50.0547 166.96 49.4707C166.96 48.6963 167.093 48.0403 167.36 47.5029C167.631 46.9612 168.016 46.5486 168.515 46.2651C169.014 45.9816 169.609 45.8398 170.299 45.8398C170.946 45.8398 171.517 45.9816 172.013 46.2651C172.508 46.5486 172.895 46.9612 173.174 47.5029C173.453 48.0446 173.593 48.7005 173.593 49.4707ZM168.496 49.4707C168.496 49.9827 168.557 50.4207 168.68 50.7846C168.807 51.1486 169.002 51.4279 169.264 51.6225C169.526 51.813 169.865 51.9082 170.28 51.9082C170.694 51.9082 171.033 51.813 171.295 51.6225C171.558 51.4279 171.75 51.1486 171.873 50.7846C171.996 50.4207 172.057 49.9827 172.057 49.4707C172.057 48.9586 171.996 48.5249 171.873 48.1694C171.75 47.8097 171.558 47.5368 171.295 47.3506C171.033 47.1601 170.692 47.0649 170.273 47.0649C169.655 47.0649 169.205 47.2723 168.921 47.687C168.638 48.1017 168.496 48.6963 168.496 49.4707ZM177.449 43.123V47.8965C177.449 48.1123 177.44 48.3493 177.423 48.6074C177.406 48.8613 177.389 49.1004 177.373 49.3247H177.404C177.514 49.1766 177.645 49.0031 177.798 48.8042C177.954 48.6053 178.103 48.4318 178.242 48.2837L180.388 45.9731H182.102L179.29 48.9946L182.286 53H180.534L178.287 49.915L177.449 50.6323V53H175.957V43.123H177.449ZM185.551 45.9731V53H184.059V45.9731H185.551ZM184.815 43.2817C185.043 43.2817 185.24 43.3431 185.405 43.4658C185.574 43.5885 185.659 43.8001 185.659 44.1006C185.659 44.3968 185.574 44.6084 185.405 44.7353C185.24 44.858 185.043 44.9194 184.815 44.9194C184.578 44.9194 184.377 44.858 184.211 44.7353C184.051 44.6084 183.97 44.3968 183.97 44.1006C183.97 43.8001 184.051 43.5885 184.211 43.4658C184.377 43.3431 184.578 43.2817 184.815 43.2817ZM192.003 45.8398C192.794 45.8398 193.41 46.0451 193.85 46.4555C194.294 46.8618 194.516 47.5156 194.516 48.417V53H193.025V48.6963C193.025 48.1504 192.912 47.742 192.688 47.4712C192.464 47.1961 192.117 47.0586 191.647 47.0586C190.966 47.0586 190.492 47.268 190.225 47.687C189.963 48.1059 189.832 48.7132 189.832 49.5088V53H188.34V45.9731H189.502L189.711 46.9253H189.794C189.946 46.6798 190.134 46.4788 190.359 46.3222C190.587 46.1614 190.841 46.0408 191.12 45.9604C191.404 45.88 191.698 45.8398 192.003 45.8398ZM199.261 56.123C198.308 56.123 197.578 55.9516 197.071 55.6089C196.563 55.2661 196.309 54.7858 196.309 54.1679C196.309 53.7363 196.444 53.3702 196.715 53.0698C196.986 52.7736 197.373 52.5683 197.877 52.4541C197.686 52.3694 197.521 52.2383 197.382 52.0605C197.246 51.8786 197.178 51.6775 197.178 51.4575C197.178 51.1951 197.253 50.9708 197.401 50.7846C197.549 50.5984 197.771 50.4186 198.067 50.2451C197.699 50.0885 197.403 49.8346 197.178 49.4834C196.958 49.1279 196.848 48.7111 196.848 48.2329C196.848 47.7251 196.956 47.2934 197.172 46.938C197.388 46.5783 197.703 46.3053 198.118 46.1191C198.533 45.9287 199.034 45.8335 199.622 45.8335C199.749 45.8335 199.887 45.8419 200.035 45.8589C200.187 45.8716 200.327 45.8885 200.454 45.9096C200.585 45.9266 200.685 45.9456 200.752 45.9668H203.183V46.7983L201.99 47.0205C202.104 47.1813 202.195 47.3654 202.263 47.5727C202.331 47.7758 202.365 47.998 202.365 48.2392C202.365 48.9671 202.113 49.5405 201.609 49.9594C201.11 50.3742 200.42 50.5815 199.54 50.5815C199.328 50.573 199.123 50.5561 198.924 50.5307C198.772 50.6238 198.655 50.7275 198.575 50.8418C198.495 50.9518 198.454 51.0766 198.454 51.2163C198.454 51.3305 198.495 51.4236 198.575 51.4956C198.655 51.5633 198.774 51.6141 198.93 51.6479C199.091 51.6818 199.286 51.6987 199.514 51.6987H200.727C201.497 51.6987 202.085 51.8616 202.491 52.1875C202.898 52.5133 203.101 52.9915 203.101 53.622C203.101 54.4218 202.771 55.0376 202.111 55.4692C201.45 55.9051 200.5 56.123 199.261 56.123ZM199.318 55.0757C199.838 55.0757 200.276 55.0249 200.632 54.9233C200.987 54.8217 201.256 54.6758 201.438 54.4853C201.62 54.2991 201.711 54.077 201.711 53.8188C201.711 53.5903 201.654 53.4147 201.539 53.292C201.425 53.1692 201.254 53.0846 201.025 53.0381C200.797 52.9915 200.513 52.9682 200.175 52.9682H199.07C198.795 52.9682 198.552 53.0105 198.34 53.0952C198.129 53.1841 197.963 53.311 197.845 53.476C197.731 53.6411 197.674 53.84 197.674 54.0727C197.674 54.3943 197.815 54.6419 198.099 54.8154C198.387 54.9889 198.793 55.0757 199.318 55.0757ZM199.61 49.604C200.046 49.604 200.369 49.4855 200.581 49.2485C200.792 49.0073 200.898 48.6688 200.898 48.2329C200.898 47.7589 200.788 47.4035 200.568 47.1665C200.352 46.9295 200.031 46.811 199.603 46.811C199.184 46.811 198.865 46.9316 198.645 47.1728C198.429 47.414 198.321 47.7716 198.321 48.2456C198.321 48.673 198.429 49.0073 198.645 49.2485C198.865 49.4855 199.186 49.604 199.61 49.604ZM212.653 47.1093H210.945V53H209.454V47.1093H208.305V46.3921L209.454 45.9541V45.4653C209.454 44.8686 209.547 44.3947 209.733 44.0434C209.923 43.6922 210.194 43.4404 210.545 43.2881C210.901 43.1315 211.324 43.0532 211.815 43.0532C212.137 43.0532 212.431 43.0807 212.697 43.1357C212.964 43.1865 213.188 43.2457 213.37 43.3134L212.983 44.4433C212.839 44.3968 212.678 44.3545 212.5 44.3164C212.323 44.2741 212.132 44.2529 211.929 44.2529C211.591 44.2529 211.341 44.3587 211.18 44.5703C211.024 44.7819 210.945 45.0908 210.945 45.497V45.9731H212.653V47.1093ZM220.723 49.4707C220.723 50.0547 220.647 50.573 220.495 51.0258C220.342 51.4786 220.12 51.8616 219.828 52.1748C219.536 52.4837 219.185 52.7207 218.774 52.8857C218.364 53.0465 217.901 53.1269 217.384 53.1269C216.902 53.1269 216.46 53.0465 216.058 52.8857C215.656 52.7207 215.307 52.4837 215.01 52.1748C214.718 51.8616 214.492 51.4786 214.331 51.0258C214.17 50.573 214.09 50.0547 214.09 49.4707C214.09 48.6963 214.223 48.0403 214.49 47.5029C214.761 46.9612 215.146 46.5486 215.645 46.2651C216.144 45.9816 216.739 45.8398 217.429 45.8398C218.076 45.8398 218.648 45.9816 219.143 46.2651C219.638 46.5486 220.025 46.9612 220.304 47.5029C220.584 48.0446 220.723 48.7005 220.723 49.4707ZM215.626 49.4707C215.626 49.9827 215.687 50.4207 215.81 50.7846C215.937 51.1486 216.132 51.4279 216.394 51.6225C216.656 51.813 216.995 51.9082 217.41 51.9082C217.824 51.9082 218.163 51.813 218.425 51.6225C218.688 51.4279 218.88 51.1486 219.003 50.7846C219.126 50.4207 219.187 49.9827 219.187 49.4707C219.187 48.9586 219.126 48.5249 219.003 48.1694C218.88 47.8097 218.688 47.5368 218.425 47.3506C218.163 47.1601 217.822 47.0649 217.403 47.0649C216.786 47.0649 216.335 47.2723 216.051 47.687C215.768 48.1017 215.626 48.6963 215.626 49.4707ZM226.648 45.8398C226.767 45.8398 226.896 45.8462 227.035 45.8589C227.175 45.8716 227.296 45.8885 227.397 45.9096L227.257 47.3061C227.169 47.2807 227.059 47.2617 226.927 47.249C226.8 47.2363 226.686 47.2299 226.585 47.2299C226.318 47.2299 226.064 47.2744 225.823 47.3633C225.582 47.4479 225.368 47.5791 225.182 47.7568C224.996 47.9303 224.85 48.1482 224.744 48.4106C224.638 48.673 224.585 48.9777 224.585 49.3247V53H223.087V45.9731H224.255L224.458 47.2109H224.528C224.668 46.9612 224.841 46.7327 225.049 46.5254C225.256 46.318 225.493 46.153 225.759 46.0302C226.03 45.9033 226.327 45.8398 226.648 45.8398Z" fill="#F8E71C"/>
<path d="M169.97 35L169.062 32.4228H165.514L164.606 35H163L166.453 25.6816H168.142L171.589 35H169.97ZM168.669 31.1152L167.786 28.5761C167.752 28.4661 167.704 28.3117 167.64 28.1128C167.577 27.9096 167.513 27.7044 167.45 27.497C167.386 27.2855 167.334 27.1077 167.291 26.9638C167.249 27.1373 167.196 27.332 167.132 27.5478C167.073 27.7594 167.014 27.9583 166.955 28.1445C166.9 28.3307 166.857 28.4746 166.828 28.5761L165.939 31.1152H168.669ZM174.809 35H173.311V25.123H174.809V35ZM183.337 34.9936L182.448 31.7246C182.406 31.5638 182.355 31.3691 182.296 31.1406C182.237 30.9121 182.177 30.6772 182.118 30.436C182.059 30.1906 182.004 29.9642 181.953 29.7568C181.906 29.5494 181.87 29.3886 181.845 29.2744H181.794C181.773 29.3886 181.739 29.5494 181.693 29.7568C181.646 29.9642 181.593 30.1906 181.534 30.436C181.475 30.6814 181.416 30.9205 181.356 31.1533C181.301 31.386 181.251 31.5849 181.204 31.75L180.271 34.9936H178.633L176.665 27.9668H178.176L179.09 31.458C179.149 31.695 179.207 31.951 179.262 32.226C179.321 32.5011 179.372 32.7635 179.414 33.0132C179.456 33.2628 179.488 33.4681 179.509 33.6289H179.56C179.577 33.5146 179.6 33.3707 179.63 33.1972C179.659 33.0195 179.693 32.8354 179.731 32.645C179.769 32.4503 179.807 32.2684 179.846 32.0991C179.884 31.9256 179.92 31.7859 179.953 31.6801L181.033 27.9668H182.664L183.699 31.6801C183.745 31.841 183.796 32.0441 183.851 32.2895C183.906 32.5307 183.955 32.7741 183.997 33.0195C184.043 33.2607 184.073 33.4617 184.086 33.6225H184.137C184.154 33.4786 184.183 33.284 184.225 33.0385C184.272 32.7889 184.325 32.5244 184.384 32.2451C184.443 31.9616 184.505 31.6992 184.568 31.458L185.501 27.9668H186.987L185.006 34.9936H183.337ZM191.598 27.8398C192.486 27.8398 193.157 28.0366 193.61 28.4301C194.067 28.8237 194.295 29.4373 194.295 30.271V35H193.235L192.95 34.0034H192.899C192.7 34.2573 192.495 34.4668 192.283 34.6318C192.072 34.7968 191.826 34.9196 191.547 35C191.272 35.0846 190.935 35.1269 190.538 35.1269C190.119 35.1269 189.744 35.0508 189.414 34.8984C189.084 34.7418 188.824 34.5049 188.633 34.1875C188.443 33.8701 188.348 33.4681 188.348 32.9814C188.348 32.2578 188.616 31.714 189.154 31.3501C189.695 30.9861 190.512 30.7851 191.604 30.747L192.823 30.7026V30.3344C192.823 29.8478 192.708 29.5008 192.48 29.2934C192.256 29.0861 191.938 28.9824 191.528 28.9824C191.177 28.9824 190.836 29.0332 190.506 29.1347C190.176 29.2363 189.854 29.3611 189.541 29.5092L189.059 28.4555C189.401 28.2736 189.791 28.1255 190.227 28.0112C190.667 27.8969 191.124 27.8398 191.598 27.8398ZM192.816 31.6421L191.909 31.6738C191.164 31.6992 190.641 31.8261 190.341 32.0547C190.04 32.2832 189.89 32.5963 189.89 32.9941C189.89 33.3411 189.994 33.595 190.201 33.7558C190.409 33.9124 190.681 33.9907 191.02 33.9907C191.536 33.9907 191.964 33.8447 192.302 33.5527C192.645 33.2565 192.816 32.8227 192.816 32.2514V31.6421ZM195.974 27.9731H197.599L199.04 31.9848C199.103 32.1668 199.16 32.3466 199.211 32.5244C199.266 32.6979 199.313 32.8693 199.351 33.0385C199.393 33.2078 199.427 33.3771 199.452 33.5464H199.49C199.533 33.3263 199.592 33.0809 199.668 32.81C199.748 32.535 199.837 32.2599 199.935 31.9848L201.318 27.9731H202.924L199.909 35.9648C199.736 36.4218 199.522 36.8112 199.268 37.1328C199.018 37.4586 198.722 37.7041 198.379 37.8691C198.037 38.0384 197.645 38.123 197.205 38.123C196.994 38.123 196.809 38.1103 196.653 38.0849C196.496 38.0638 196.363 38.0405 196.253 38.0151V36.8217C196.342 36.8429 196.454 36.8619 196.589 36.8789C196.725 36.8958 196.864 36.9043 197.008 36.9043C197.275 36.9043 197.506 36.8514 197.7 36.7456C197.895 36.6398 198.06 36.4896 198.195 36.2949C198.331 36.1045 198.443 35.8865 198.532 35.6411L198.779 34.9809L195.974 27.9731ZM209.363 32.9941C209.363 33.4554 209.251 33.8447 209.027 34.1621C208.803 34.4795 208.475 34.7207 208.043 34.8857C207.616 35.0465 207.091 35.1269 206.469 35.1269C205.978 35.1269 205.555 35.091 205.199 35.019C204.848 34.9513 204.516 34.8455 204.203 34.7016V33.4131C204.537 33.5696 204.912 33.705 205.326 33.8193C205.745 33.9336 206.141 33.9907 206.513 33.9907C207.004 33.9907 207.358 33.9145 207.573 33.7622C207.789 33.6056 207.897 33.3982 207.897 33.1401C207.897 32.9878 207.853 32.8523 207.764 32.7339C207.679 32.6111 207.518 32.4863 207.281 32.3593C207.049 32.2282 206.706 32.0716 206.253 31.8896C205.809 31.7119 205.434 31.5341 205.13 31.3564C204.825 31.1787 204.594 30.965 204.438 30.7153C204.281 30.4614 204.203 30.1377 204.203 29.7441C204.203 29.122 204.448 28.6502 204.939 28.3286C205.434 28.0027 206.088 27.8398 206.901 27.8398C207.332 27.8398 207.738 27.8842 208.119 27.9731C208.504 28.0577 208.881 28.1826 209.249 28.3476L208.779 29.4712C208.462 29.3315 208.143 29.2173 207.821 29.1284C207.504 29.0353 207.18 28.9887 206.85 28.9887C206.465 28.9887 206.171 29.048 205.967 29.1665C205.769 29.285 205.669 29.4542 205.669 29.6743C205.669 29.8393 205.718 29.979 205.815 30.0932C205.912 30.2075 206.08 30.3217 206.317 30.436C206.558 30.5503 206.892 30.692 207.32 30.8613C207.738 31.0221 208.1 31.1914 208.405 31.3691C208.714 31.5426 208.951 31.7563 209.116 32.0102C209.281 32.2641 209.363 32.5921 209.363 32.9941ZM213.13 33.4892L213.219 33.6352C213.143 33.9399 213.046 34.2679 212.927 34.6191C212.809 34.9703 212.679 35.3216 212.54 35.6728C212.4 36.0283 212.258 36.3626 212.115 36.6758H211.023C211.112 36.333 211.196 35.9733 211.277 35.5966C211.361 35.2243 211.437 34.8561 211.505 34.4922C211.577 34.124 211.634 33.7897 211.677 33.4892H213.13Z" fill="#F8E71C"/>
<path d="M159.664 74.3398C159.964 74.3398 160.26 74.3138 160.553 74.2617C160.846 74.2031 161.113 74.1347 161.354 74.0566V75.7949C161.1 75.9056 160.771 76 160.367 76.0781C159.964 76.1562 159.544 76.1953 159.108 76.1953C158.496 76.1953 157.945 76.0944 157.457 75.8925C156.969 75.6842 156.582 75.3294 156.295 74.8281C156.009 74.3268 155.865 73.6334 155.865 72.748V66.9375H154.391V65.9121L155.973 65.1015L156.725 62.7871H158.17V65.1894H161.266V66.9375H158.17V72.7187C158.17 73.2656 158.307 73.6725 158.58 73.9394C158.854 74.2063 159.215 74.3398 159.664 74.3398ZM168.789 64.9843C170.156 64.9843 171.188 65.2871 171.885 65.8925C172.588 66.498 172.94 67.442 172.94 68.7246V76H171.309L170.869 74.4668H170.791C170.485 74.8574 170.169 75.1797 169.844 75.4336C169.518 75.6875 169.141 75.8763 168.711 76C168.288 76.1302 167.77 76.1953 167.158 76.1953C166.514 76.1953 165.938 76.0781 165.43 75.8437C164.922 75.6028 164.522 75.2383 164.229 74.75C163.936 74.2617 163.789 73.6432 163.789 72.8945C163.789 71.7812 164.203 70.9446 165.029 70.3847C165.863 69.8248 167.119 69.5156 168.799 69.457L170.674 69.3886V68.8222C170.674 68.0735 170.498 67.5397 170.147 67.2207C169.802 66.9017 169.313 66.7422 168.682 66.7422C168.141 66.7422 167.617 66.8203 167.11 66.9765C166.602 67.1328 166.107 67.3248 165.625 67.5527L164.883 65.9316C165.41 65.6517 166.009 65.4238 166.68 65.248C167.357 65.0722 168.06 64.9843 168.789 64.9843ZM170.664 70.834L169.268 70.8828C168.122 70.9218 167.318 71.1172 166.856 71.4687C166.393 71.8203 166.162 72.3021 166.162 72.914C166.162 73.4479 166.322 73.8385 166.641 74.0859C166.96 74.3268 167.38 74.4472 167.901 74.4472C168.695 74.4472 169.352 74.2226 169.873 73.7734C170.401 73.3177 170.664 72.6504 170.664 71.7715V70.834ZM179.457 76H177.153V60.8047H179.457V76ZM188.045 64.9843C189.009 64.9843 189.835 65.1829 190.526 65.58C191.216 65.9772 191.746 66.5403 192.117 67.2695C192.488 67.9987 192.674 68.8711 192.674 69.8867V71.1172H185.457C185.483 72.1653 185.763 72.9726 186.297 73.539C186.837 74.1054 187.593 74.3886 188.563 74.3886C189.253 74.3886 189.871 74.3235 190.418 74.1933C190.972 74.0566 191.541 73.858 192.127 73.5976V75.4629C191.587 75.7168 191.037 75.9023 190.477 76.0195C189.917 76.1367 189.246 76.1953 188.465 76.1953C187.404 76.1953 186.47 75.9902 185.662 75.58C184.861 75.1634 184.233 74.5449 183.778 73.7246C183.328 72.9043 183.104 71.8854 183.104 70.6679C183.104 69.457 183.309 68.4284 183.719 67.582C184.129 66.7356 184.705 66.0911 185.447 65.6484C186.19 65.2057 187.056 64.9843 188.045 64.9843ZM188.045 66.7129C187.322 66.7129 186.736 66.9472 186.287 67.416C185.845 67.8847 185.584 68.5716 185.506 69.4765H190.428C190.421 68.9362 190.33 68.4577 190.154 68.041C189.985 67.6243 189.725 67.2988 189.373 67.0644C189.028 66.83 188.585 66.7129 188.045 66.7129ZM201.897 64.9843C203.114 64.9843 204.061 65.3001 204.738 65.9316C205.422 66.5566 205.764 67.5625 205.764 68.9492V76H203.469V69.3789C203.469 68.539 203.296 67.9108 202.951 67.4941C202.606 67.0709 202.072 66.8593 201.35 66.8593C200.302 66.8593 199.572 67.1816 199.162 67.8261C198.759 68.4707 198.557 69.4049 198.557 70.6289V76H196.262V65.1894H198.049L198.371 66.6543H198.498C198.733 66.2767 199.022 65.9674 199.367 65.7265C199.719 65.4791 200.11 65.2936 200.539 65.1699C200.975 65.0462 201.428 64.9843 201.897 64.9843ZM214 74.3398C214.3 74.3398 214.596 74.3138 214.889 74.2617C215.182 74.2031 215.449 74.1347 215.69 74.0566V75.7949C215.436 75.9056 215.107 76 214.703 76.0781C214.3 76.1562 213.88 76.1953 213.444 76.1953C212.832 76.1953 212.281 76.0944 211.793 75.8925C211.305 75.6842 210.917 75.3294 210.631 74.8281C210.345 74.3268 210.201 73.6334 210.201 72.748V66.9375H208.727V65.9121L210.309 65.1015L211.061 62.7871H212.506V65.1894H215.602V66.9375H212.506V72.7187C212.506 73.2656 212.643 73.6725 212.916 73.9394C213.19 74.2063 213.551 74.3398 214 74.3398ZM220.869 71.6445H219.141L218.672 61.7226H221.338L220.869 71.6445ZM218.555 74.789C218.555 74.2552 218.692 73.8808 218.965 73.666C219.245 73.4446 219.587 73.334 219.99 73.334C220.388 73.334 220.726 73.4446 221.006 73.666C221.286 73.8808 221.426 74.2552 221.426 74.789C221.426 75.3099 221.286 75.6875 221.006 75.9218C220.726 76.1497 220.388 76.2636 219.99 76.2636C219.587 76.2636 219.245 76.1497 218.965 75.9218C218.692 75.6875 218.555 75.3099 218.555 74.789Z" fill="#F8E71C"/>
<defs>
<filter id="filter0_d_8_50" x="142.647" y="10.0622" width="92.1036" height="92.8937" filterUnits="userSpaceOnUse" color-interpolation-filters="sRGB">
<feFlood flood-opacity="0" result="BackgroundImageFix"/>
<feColorMatrix in="SourceAlpha" type="matrix" values="0 0 0 0 0 0 0 0 0 0 0 0 0 0 0 0 0 0 127 0" result="hardAlpha"/>
<feOffset dy="4"/>
<feGaussianBlur stdDeviation="2"/>
<feComposite in2="hardAlpha" operator="out"/>
<feColorMatrix type="matrix" values="0 0 0 0 0 0 0 0 0 0 0 0 0 0 0 0 0 0 0.25 0"/>
<feBlend mode="normal" in2="BackgroundImageFix" result="effect1_dropShadow_8_50"/>
<feBlend mode="normal" in="SourceGraphic" in2="effect1_dropShadow_8_50" result="shape"/>
</filter>
<filter id="filter1_d_8_50" x="146.66" y="17.8074" width="15.4721" height="15.5403" filterUnits="userSpaceOnUse" color-interpolation-filters="sRGB">
<feFlood flood-opacity="0" result="BackgroundImageFix"/>
<feColorMatrix in="SourceAlpha" type="matrix" values="0 0 0 0 0 0 0 0 0 0 0 0 0 0 0 0 0 0 127 0" result="hardAlpha"/>
<feOffset dy="4"/>
<feGaussianBlur stdDeviation="2"/>
<feComposite in2="hardAlpha" operator="out"/>
<feColorMatrix type="matrix" values="0 0 0 0 0 0 0 0 0 0 0 0 0 0 0 0 0 0 0.25 0"/>
<feBlend mode="normal" in2="BackgroundImageFix" result="effect1_dropShadow_8_50"/>
<feBlend mode="normal" in="SourceGraphic" in2="effect1_dropShadow_8_50" result="shape"/>
</filter>
</defs>
</svg>
