<svg width="362" height="232" viewBox="0 0 362 232" fill="none" xmlns="http://www.w3.org/2000/svg">
<g opacity="0.59">
<path fill-rule="evenodd" clip-rule="evenodd" d="M361.77 72L349.713 66.7753C343.124 63.9191 332.404 63.9191 325.815 66.7753C319.105 69.6825 308.189 69.6825 301.479 66.7753C294.891 63.9191 284.172 63.9191 277.584 66.7753C270.875 69.6813 259.958 69.6825 253.248 66.7753C246.659 63.9179 235.939 63.9191 229.349 66.7753C222.641 69.6825 211.722 69.6825 205.01 66.7753C198.422 63.9191 187.702 63.9191 181.114 66.7753C174.405 69.6813 163.489 69.6825 156.78 66.7753C150.191 63.9179 139.47 63.9191 132.882 66.7753C126.172 69.6825 115.253 69.6813 108.544 66.7753C101.954 63.9179 91.234 63.9191 84.6437 66.7753C77.9336 69.6825 67.0167 69.6825 60.3043 66.7753C53.7151 63.9179 42.9922 63.9191 36.403 66.7753C29.6918 69.6825 18.7726 69.6825 12.0613 66.7753L0 61.5482L0.219068 61L12.2815 66.2271C18.8707 69.0833 29.5936 69.0833 36.1839 66.2271C42.8941 63.3198 53.8144 63.3198 60.5245 66.2271C67.1125 69.0833 77.8343 69.0833 84.4247 66.2271C91.1359 63.3198 102.053 63.3198 108.763 66.2271C115.353 69.0833 126.075 69.0821 132.662 66.2271C139.372 63.3198 150.289 63.3198 156.999 66.2271C163.587 69.0821 174.305 69.0833 180.895 66.2271C187.604 63.321 198.521 63.3198 205.231 66.2271C211.821 69.0833 222.543 69.0821 229.13 66.2271C235.84 63.3198 246.757 63.3198 253.467 66.2271C260.056 69.0833 270.775 69.0833 277.363 66.2271C284.072 63.3198 294.991 63.3198 301.699 66.2271C308.288 69.0833 319.007 69.0833 325.596 66.2271C332.306 63.3198 343.222 63.3198 349.932 66.2271L361.989 71.4518L361.77 72Z" fill="#937DE2"/>
<path fill-rule="evenodd" clip-rule="evenodd" d="M361.77 62L349.713 56.7741C343.124 53.9179 332.404 53.9179 325.815 56.7741C319.105 59.6813 308.189 59.6813 301.479 56.7741C294.891 53.9179 284.172 53.9179 277.584 56.7741C270.875 59.6813 259.958 59.6825 253.248 56.7741C246.659 53.9179 235.939 53.9191 229.349 56.7741C222.641 59.6825 211.722 59.6813 205.01 56.7741C198.422 53.9179 187.702 53.9179 181.114 56.7741C174.405 59.6813 163.489 59.6825 156.78 56.7741C150.191 53.9179 139.47 53.9191 132.882 56.7741C126.172 59.6825 115.253 59.6813 108.544 56.7741C101.954 53.9179 91.234 53.9191 84.6437 56.7741C77.9336 59.6825 67.0167 59.6813 60.3043 56.7741C53.7151 53.9179 42.9922 53.9191 36.403 56.7741C29.6918 59.6813 18.7726 59.6813 12.0613 56.7741L0 51.5482L0.219068 51L12.2815 56.2259C18.8707 59.0821 29.5936 59.0821 36.1839 56.2259C42.8941 53.3187 53.8144 53.3187 60.5245 56.2259C67.1125 59.0821 77.8343 59.0821 84.4247 56.2259C91.1359 53.3187 102.053 53.3187 108.763 56.2259C115.353 59.0833 126.075 59.0821 132.662 56.2259C139.372 53.3187 150.289 53.3187 156.999 56.2259C163.587 59.0821 174.305 59.0833 180.895 56.2259C187.604 53.3198 198.521 53.3187 205.231 56.2259C211.821 59.0833 222.543 59.0821 229.13 56.2259C235.84 53.3187 246.757 53.3187 253.467 56.2259C260.056 59.0821 270.775 59.0821 277.363 56.2259C284.072 53.3187 294.991 53.3187 301.699 56.2259C308.288 59.0821 319.007 59.0821 325.596 56.2259C332.306 53.3187 343.222 53.3187 349.932 56.2259L361.989 61.4518L361.77 62Z" fill="#937DE2"/>
<path fill-rule="evenodd" clip-rule="evenodd" d="M361.77 52L349.713 46.7753C343.124 43.9191 332.404 43.9191 325.815 46.7753C319.105 49.6825 308.189 49.6825 301.479 46.7753C294.891 43.9191 284.172 43.9191 277.584 46.7753C270.875 49.6825 259.958 49.6825 253.248 46.7753C246.659 43.9179 235.939 43.9191 229.349 46.7753C222.641 49.6825 211.722 49.6825 205.01 46.7753C198.422 43.9191 187.702 43.9191 181.114 46.7753C174.405 49.6825 163.489 49.6825 156.78 46.7753C150.191 43.9179 139.47 43.9191 132.882 46.7753C126.172 49.6825 115.253 49.6813 108.544 46.7753C101.954 43.9179 91.234 43.9191 84.6437 46.7753C77.9336 49.6825 67.0167 49.6825 60.3043 46.7753C53.7151 43.9179 42.9922 43.9191 36.403 46.7753C29.6918 49.6825 18.7726 49.6825 12.0613 46.7753L0 41.5482L0.219068 41L12.2815 46.2271C18.8707 49.0833 29.5936 49.0833 36.1839 46.2271C42.8941 43.3198 53.8144 43.3198 60.5245 46.2271C67.1125 49.0833 77.8343 49.0833 84.4247 46.2271C91.1359 43.3198 102.053 43.3198 108.763 46.2271C115.353 49.0833 126.075 49.0821 132.662 46.2271C139.372 43.3198 150.289 43.3198 156.999 46.2271C163.587 49.0821 174.305 49.0833 180.895 46.2271C187.604 43.321 198.521 43.3198 205.231 46.2271C211.821 49.0833 222.543 49.0821 229.13 46.2271C235.84 43.3198 246.757 43.3198 253.467 46.2271C260.056 49.0833 270.775 49.0833 277.363 46.2271C284.072 43.3198 294.991 43.3198 301.699 46.2271C308.288 49.0833 319.007 49.0833 325.596 46.2271C332.306 43.3198 343.222 43.3198 349.932 46.2271L361.989 51.4518L361.77 52Z" fill="#937DE2"/>
<path fill-rule="evenodd" clip-rule="evenodd" d="M361.77 41L349.713 35.7741C343.124 32.9179 332.404 32.9179 325.815 35.7741C319.105 38.6813 308.189 38.6813 301.479 35.7741C294.891 32.9179 284.172 32.9179 277.584 35.7741C270.875 38.6802 259.958 38.6813 253.248 35.7741C246.659 32.9179 235.938 32.9179 229.349 35.7741C222.641 38.6813 211.722 38.6813 205.01 35.7741C198.422 32.9179 187.702 32.9179 181.114 35.7741C174.405 38.6813 163.489 38.6813 156.78 35.7741C150.191 32.9179 139.47 32.9179 132.882 35.7741C126.173 38.6813 115.254 38.6813 108.544 35.7741C101.955 32.9179 91.234 32.9179 84.6437 35.7741C77.9325 38.6813 67.0144 38.6813 60.3043 35.7741C53.7151 32.9179 42.9922 32.9191 36.403 35.7741C29.6918 38.6813 18.7726 38.6813 12.0613 35.7741L0 30.5482L0.219068 30L12.2815 35.2259C18.8707 38.0809 29.5936 38.0809 36.1839 35.2259C42.8941 32.3187 53.8144 32.3187 60.5245 35.2259C67.1125 38.0809 77.8343 38.0809 84.4247 35.2259C91.1348 32.3187 102.053 32.3187 108.763 35.2259C115.353 38.0809 126.075 38.0809 132.662 35.2259C139.371 32.3187 150.289 32.3187 156.999 35.2259C163.587 38.0809 174.305 38.0809 180.895 35.2259C187.604 32.3198 198.521 32.3187 205.231 35.2259C211.821 38.0809 222.543 38.0809 229.13 35.2259C235.84 32.3187 246.757 32.3187 253.467 35.2259C260.056 38.0809 270.775 38.0809 277.363 35.2259C284.072 32.3187 294.991 32.3187 301.699 35.2259C308.288 38.0809 319.007 38.0809 325.596 35.2259C332.306 32.3187 343.222 32.3187 349.932 35.2259L361.989 40.4518L361.77 41Z" fill="#937DE2"/>
<path fill-rule="evenodd" clip-rule="evenodd" d="M361.77 31L349.713 25.7753C343.124 22.9179 332.404 22.9179 325.815 25.7753C319.105 28.6825 308.189 28.6825 301.479 25.7753C294.891 22.9179 284.172 22.9179 277.584 25.7753C270.875 28.6813 259.958 28.6825 253.248 25.7753C246.659 22.9179 235.938 22.9179 229.349 25.7753C222.641 28.6825 211.722 28.6825 205.01 25.7753C198.422 22.9179 187.702 22.9179 181.114 25.7753C174.405 28.6825 163.489 28.6825 156.78 25.7753C150.191 22.9179 139.47 22.9179 132.882 25.7753C126.173 28.6825 115.254 28.6825 108.544 25.7753C101.955 22.9179 91.234 22.9179 84.6437 25.7753C77.9325 28.6825 67.0144 28.6825 60.3043 25.7753C53.7163 22.9179 42.9933 22.9179 36.403 25.7753C29.6918 28.6825 18.7726 28.6825 12.0613 25.7753L0 20.5482L0.219068 20L12.2815 25.2271C18.8707 28.0821 29.5936 28.0821 36.1839 25.2271C42.8952 22.3198 53.8144 22.3198 60.5245 25.2271C67.1137 28.0821 77.8332 28.0809 84.4247 25.2271C91.1359 22.3198 102.053 22.3198 108.763 25.2271C115.352 28.0821 126.074 28.0809 132.662 25.2271C139.371 22.3187 150.289 22.3198 156.999 25.2271C163.587 28.0821 174.305 28.0821 180.895 25.2271C187.604 22.3198 198.521 22.3198 205.231 25.2271C211.82 28.0821 222.542 28.0809 229.13 25.2271C235.84 22.3187 246.757 22.3198 253.467 25.2271C260.056 28.0821 270.775 28.0821 277.363 25.2271C284.072 22.3198 294.991 22.3198 301.699 25.2271C308.288 28.0821 319.007 28.0821 325.596 25.2271C332.306 22.3198 343.222 22.3198 349.932 25.2271L361.989 30.4518L361.77 31Z" fill="#937DE2"/>
<path fill-rule="evenodd" clip-rule="evenodd" d="M361.77 21L349.713 15.7741C343.124 12.9167 332.404 12.9167 325.815 15.7741C319.105 18.6813 308.189 18.6813 301.479 15.7741C294.891 12.9167 284.172 12.9167 277.584 15.7741C270.875 18.6802 259.958 18.6813 253.248 15.7741C246.659 12.9167 235.938 12.9167 229.349 15.7741C222.641 18.6813 211.722 18.6813 205.01 15.7741C198.422 12.9167 187.702 12.9167 181.114 15.7741C174.405 18.6813 163.489 18.6813 156.78 15.7741C150.191 12.9167 139.47 12.9167 132.882 15.7741C126.173 18.6813 115.254 18.6813 108.544 15.7741C101.955 12.9167 91.234 12.9167 84.6437 15.7741C77.9325 18.6813 67.0144 18.6813 60.3043 15.7741C53.7163 12.9167 42.9933 12.9167 36.403 15.7741C29.6918 18.6813 18.7726 18.6813 12.0613 15.7741L0 10.5482L0.219068 10L12.2815 15.2259C18.8707 18.0809 29.5936 18.0809 36.1839 15.2259C42.8952 12.3187 53.8144 12.3198 60.5245 15.2259C67.1137 18.0809 77.8332 18.0809 84.4247 15.2259C91.1359 12.3187 102.053 12.3198 108.763 15.2259C115.352 18.0809 126.074 18.0809 132.662 15.2259C139.371 12.3187 150.289 12.3187 156.999 15.2259C163.587 18.0809 174.305 18.0809 180.895 15.2259C187.604 12.3198 198.521 12.3187 205.231 15.2259C211.82 18.0809 222.542 18.0809 229.13 15.2259C235.84 12.3187 246.757 12.3187 253.467 15.2259C260.056 18.0809 270.775 18.0809 277.363 15.2259C284.072 12.3198 294.991 12.3187 301.699 15.2259C308.288 18.0809 319.007 18.0809 325.596 15.2259C332.306 12.3198 343.222 12.3187 349.932 15.2259L361.989 20.4518L361.77 21Z" fill="#937DE2"/>
<path fill-rule="evenodd" clip-rule="evenodd" d="M361.77 11L349.713 5.7753C343.124 2.91791 332.404 2.91791 325.815 5.7753C319.105 8.68252 308.189 8.68252 301.479 5.7753C294.891 2.91791 284.172 2.91791 277.584 5.7753C270.875 8.68134 259.958 8.68252 253.248 5.7753C246.659 2.91791 235.938 2.91791 229.349 5.7753C222.641 8.68252 211.722 8.68252 205.01 5.7753C198.422 2.91791 187.702 2.91791 181.114 5.7753C174.405 8.68252 163.489 8.68252 156.78 5.7753C150.191 2.91791 139.47 2.91791 132.882 5.7753C126.173 8.68252 115.254 8.68252 108.544 5.7753C101.955 2.91791 91.234 2.91791 84.6437 5.7753C77.9325 8.68252 67.0144 8.68252 60.3043 5.7753C53.7163 2.91791 42.9933 2.91791 36.403 5.7753C29.6918 8.68252 18.7726 8.68252 12.0613 5.7753L0 0.54822L0.219068 0L12.2815 5.22708C18.8707 8.08209 29.5936 8.08209 36.1839 5.22708C42.8952 2.31985 53.8144 2.32104 60.5245 5.22708C67.1137 8.08209 77.8332 8.08209 84.4247 5.22708C91.1359 2.31985 102.053 2.32104 108.763 5.22708C115.352 8.08209 126.074 8.08209 132.662 5.22708C139.371 2.31866 150.289 2.31985 156.999 5.22708C163.587 8.08209 174.305 8.08209 180.895 5.22708C187.604 2.31985 198.521 2.31866 205.231 5.22708C211.82 8.08209 222.542 8.08209 229.13 5.22708C235.84 2.31866 246.757 2.31985 253.467 5.22708C260.056 8.08209 270.775 8.08209 277.363 5.22708C284.072 2.31985 294.991 2.31866 301.699 5.22708C308.288 8.08209 319.007 8.08209 325.596 5.22708C332.306 2.31985 343.222 2.31866 349.932 5.22708L361.989 10.4518L361.77 11Z" fill="#937DE2"/>
<path fill-rule="evenodd" clip-rule="evenodd" d="M361.77 172L349.713 166.775C343.124 163.919 332.404 163.919 325.815 166.775C319.105 169.683 308.189 169.683 301.479 166.775C294.891 163.919 284.172 163.919 277.584 166.775C270.875 169.681 259.958 169.683 253.248 166.775C246.659 163.918 235.939 163.919 229.349 166.775C222.641 169.683 211.722 169.683 205.01 166.775C198.422 163.919 187.702 163.919 181.114 166.775C174.405 169.681 163.489 169.683 156.78 166.775C150.191 163.918 139.47 163.919 132.882 166.775C126.172 169.683 115.253 169.681 108.544 166.775C101.954 163.918 91.234 163.919 84.6437 166.775C77.9336 169.683 67.0167 169.683 60.3043 166.775C53.7151 163.918 42.9922 163.919 36.403 166.775C29.6918 169.683 18.7726 169.683 12.0613 166.775L0 161.548L0.219068 161L12.2815 166.227C18.8707 169.083 29.5936 169.083 36.1839 166.227C42.8941 163.32 53.8144 163.32 60.5245 166.227C67.1125 169.083 77.8343 169.083 84.4247 166.227C91.1359 163.32 102.053 163.32 108.763 166.227C115.353 169.083 126.075 169.082 132.662 166.227C139.372 163.32 150.289 163.32 156.999 166.227C163.587 169.082 174.305 169.083 180.895 166.227C187.604 163.321 198.521 163.32 205.231 166.227C211.821 169.083 222.543 169.082 229.13 166.227C235.84 163.32 246.757 163.32 253.467 166.227C260.056 169.083 270.775 169.083 277.363 166.227C284.072 163.32 294.991 163.32 301.699 166.227C308.288 169.083 319.007 169.083 325.596 166.227C332.306 163.32 343.222 163.32 349.932 166.227L361.989 171.452L361.77 172Z" fill="#937DE2"/>
<path fill-rule="evenodd" clip-rule="evenodd" d="M361.77 162L349.713 156.774C343.124 153.918 332.404 153.918 325.815 156.774C319.105 159.681 308.189 159.681 301.479 156.774C294.891 153.918 284.172 153.918 277.584 156.774C270.875 159.681 259.958 159.683 253.248 156.774C246.659 153.918 235.939 153.919 229.349 156.774C222.641 159.683 211.722 159.681 205.01 156.774C198.422 153.918 187.702 153.918 181.114 156.774C174.405 159.681 163.489 159.683 156.78 156.774C150.191 153.918 139.47 153.919 132.882 156.774C126.172 159.683 115.253 159.681 108.544 156.774C101.954 153.918 91.234 153.919 84.6437 156.774C77.9336 159.683 67.0167 159.681 60.3043 156.774C53.7151 153.918 42.9922 153.919 36.403 156.774C29.6918 159.681 18.7726 159.681 12.0613 156.774L0 151.548L0.219068 151L12.2815 156.226C18.8707 159.082 29.5936 159.082 36.1839 156.226C42.8941 153.319 53.8144 153.319 60.5245 156.226C67.1125 159.082 77.8343 159.082 84.4247 156.226C91.1359 153.319 102.053 153.319 108.763 156.226C115.353 159.083 126.075 159.082 132.662 156.226C139.372 153.319 150.289 153.319 156.999 156.226C163.587 159.082 174.305 159.083 180.895 156.226C187.604 153.32 198.521 153.319 205.231 156.226C211.821 159.083 222.543 159.082 229.13 156.226C235.84 153.319 246.757 153.319 253.467 156.226C260.056 159.082 270.775 159.082 277.363 156.226C284.072 153.319 294.991 153.319 301.699 156.226C308.288 159.082 319.007 159.082 325.596 156.226C332.306 153.319 343.222 153.319 349.932 156.226L361.989 161.452L361.77 162Z" fill="#937DE2"/>
<path fill-rule="evenodd" clip-rule="evenodd" d="M361.77 152L349.713 146.775C343.124 143.919 332.404 143.919 325.815 146.775C319.105 149.683 308.189 149.683 301.479 146.775C294.891 143.919 284.172 143.919 277.584 146.775C270.875 149.683 259.958 149.683 253.248 146.775C246.659 143.918 235.939 143.919 229.349 146.775C222.641 149.683 211.722 149.683 205.01 146.775C198.422 143.919 187.702 143.919 181.114 146.775C174.405 149.683 163.489 149.683 156.78 146.775C150.191 143.918 139.47 143.919 132.882 146.775C126.172 149.683 115.253 149.681 108.544 146.775C101.954 143.918 91.234 143.919 84.6437 146.775C77.9336 149.683 67.0167 149.683 60.3043 146.775C53.7151 143.918 42.9922 143.919 36.403 146.775C29.6918 149.683 18.7726 149.683 12.0613 146.775L0 141.548L0.219068 141L12.2815 146.227C18.8707 149.083 29.5936 149.083 36.1839 146.227C42.8941 143.32 53.8144 143.32 60.5245 146.227C67.1125 149.083 77.8343 149.083 84.4247 146.227C91.1359 143.32 102.053 143.32 108.763 146.227C115.353 149.083 126.075 149.082 132.662 146.227C139.372 143.32 150.289 143.32 156.999 146.227C163.587 149.082 174.305 149.083 180.895 146.227C187.604 143.321 198.521 143.32 205.231 146.227C211.821 149.083 222.543 149.082 229.13 146.227C235.84 143.32 246.757 143.32 253.467 146.227C260.056 149.083 270.775 149.083 277.363 146.227C284.072 143.32 294.991 143.32 301.699 146.227C308.288 149.083 319.007 149.083 325.596 146.227C332.306 143.32 343.222 143.32 349.932 146.227L361.989 151.452L361.77 152Z" fill="#937DE2"/>
<path fill-rule="evenodd" clip-rule="evenodd" d="M361.77 141L349.713 135.774C343.124 132.918 332.404 132.918 325.815 135.774C319.105 138.681 308.189 138.681 301.479 135.774C294.891 132.918 284.172 132.918 277.584 135.774C270.875 138.68 259.958 138.681 253.248 135.774C246.659 132.918 235.938 132.918 229.349 135.774C222.641 138.681 211.722 138.681 205.01 135.774C198.422 132.918 187.702 132.918 181.114 135.774C174.405 138.681 163.489 138.681 156.78 135.774C150.191 132.918 139.47 132.918 132.882 135.774C126.173 138.681 115.254 138.681 108.544 135.774C101.955 132.918 91.234 132.918 84.6437 135.774C77.9325 138.681 67.0144 138.681 60.3043 135.774C53.7151 132.918 42.9922 132.919 36.403 135.774C29.6918 138.681 18.7726 138.681 12.0613 135.774L0 130.548L0.219068 130L12.2815 135.226C18.8707 138.081 29.5936 138.081 36.1839 135.226C42.8941 132.319 53.8144 132.319 60.5245 135.226C67.1125 138.081 77.8343 138.081 84.4247 135.226C91.1348 132.319 102.053 132.319 108.763 135.226C115.353 138.081 126.075 138.081 132.662 135.226C139.371 132.319 150.289 132.319 156.999 135.226C163.587 138.081 174.305 138.081 180.895 135.226C187.604 132.32 198.521 132.319 205.231 135.226C211.821 138.081 222.543 138.081 229.13 135.226C235.84 132.319 246.757 132.319 253.467 135.226C260.056 138.081 270.775 138.081 277.363 135.226C284.072 132.319 294.991 132.319 301.699 135.226C308.288 138.081 319.007 138.081 325.596 135.226C332.306 132.319 343.222 132.319 349.932 135.226L361.989 140.452L361.77 141Z" fill="#937DE2"/>
<path fill-rule="evenodd" clip-rule="evenodd" d="M361.77 131L349.713 125.775C343.124 122.918 332.404 122.918 325.815 125.775C319.105 128.683 308.189 128.683 301.479 125.775C294.891 122.918 284.172 122.918 277.584 125.775C270.875 128.681 259.958 128.683 253.248 125.775C246.659 122.918 235.938 122.918 229.349 125.775C222.641 128.683 211.722 128.683 205.01 125.775C198.422 122.918 187.702 122.918 181.114 125.775C174.405 128.683 163.489 128.683 156.78 125.775C150.191 122.918 139.47 122.918 132.882 125.775C126.173 128.683 115.254 128.683 108.544 125.775C101.955 122.918 91.234 122.918 84.6437 125.775C77.9325 128.683 67.0144 128.683 60.3043 125.775C53.7163 122.918 42.9933 122.918 36.403 125.775C29.6918 128.683 18.7726 128.683 12.0613 125.775L0 120.548L0.219068 120L12.2815 125.227C18.8707 128.082 29.5936 128.082 36.1839 125.227C42.8952 122.32 53.8144 122.32 60.5245 125.227C67.1137 128.082 77.8332 128.081 84.4247 125.227C91.1359 122.32 102.053 122.32 108.763 125.227C115.352 128.082 126.074 128.081 132.662 125.227C139.371 122.319 150.289 122.32 156.999 125.227C163.587 128.082 174.305 128.082 180.895 125.227C187.604 122.32 198.521 122.32 205.231 125.227C211.82 128.082 222.542 128.081 229.13 125.227C235.84 122.319 246.757 122.32 253.467 125.227C260.056 128.082 270.775 128.082 277.363 125.227C284.072 122.32 294.991 122.32 301.699 125.227C308.288 128.082 319.007 128.082 325.596 125.227C332.306 122.32 343.222 122.32 349.932 125.227L361.989 130.452L361.77 131Z" fill="#937DE2"/>
<path fill-rule="evenodd" clip-rule="evenodd" d="M361.77 121L349.713 115.774C343.124 112.917 332.404 112.917 325.815 115.774C319.105 118.681 308.189 118.681 301.479 115.774C294.891 112.917 284.172 112.917 277.584 115.774C270.875 118.68 259.958 118.681 253.248 115.774C246.659 112.917 235.938 112.917 229.349 115.774C222.641 118.681 211.722 118.681 205.01 115.774C198.422 112.917 187.702 112.917 181.114 115.774C174.405 118.681 163.489 118.681 156.78 115.774C150.191 112.917 139.47 112.917 132.882 115.774C126.173 118.681 115.254 118.681 108.544 115.774C101.955 112.917 91.234 112.917 84.6437 115.774C77.9325 118.681 67.0144 118.681 60.3043 115.774C53.7163 112.917 42.9933 112.917 36.403 115.774C29.6918 118.681 18.7726 118.681 12.0613 115.774L0 110.548L0.219068 110L12.2815 115.226C18.8707 118.081 29.5936 118.081 36.1839 115.226C42.8952 112.319 53.8144 112.32 60.5245 115.226C67.1137 118.081 77.8332 118.081 84.4247 115.226C91.1359 112.319 102.053 112.32 108.763 115.226C115.352 118.081 126.074 118.081 132.662 115.226C139.371 112.319 150.289 112.319 156.999 115.226C163.587 118.081 174.305 118.081 180.895 115.226C187.604 112.32 198.521 112.319 205.231 115.226C211.82 118.081 222.542 118.081 229.13 115.226C235.84 112.319 246.757 112.319 253.467 115.226C260.056 118.081 270.775 118.081 277.363 115.226C284.072 112.32 294.991 112.319 301.699 115.226C308.288 118.081 319.007 118.081 325.596 115.226C332.306 112.32 343.222 112.319 349.932 115.226L361.989 120.452L361.77 121Z" fill="#937DE2"/>
<path fill-rule="evenodd" clip-rule="evenodd" d="M361.77 111L349.713 105.775C343.124 102.918 332.404 102.918 325.815 105.775C319.105 108.683 308.189 108.683 301.479 105.775C294.891 102.918 284.172 102.918 277.584 105.775C270.875 108.681 259.958 108.683 253.248 105.775C246.659 102.918 235.938 102.918 229.349 105.775C222.641 108.683 211.722 108.683 205.01 105.775C198.422 102.918 187.702 102.918 181.114 105.775C174.405 108.683 163.489 108.683 156.78 105.775C150.191 102.918 139.47 102.918 132.882 105.775C126.173 108.683 115.254 108.683 108.544 105.775C101.955 102.918 91.234 102.918 84.6437 105.775C77.9325 108.683 67.0144 108.683 60.3043 105.775C53.7163 102.918 42.9933 102.918 36.403 105.775C29.6918 108.683 18.7726 108.683 12.0613 105.775L0 100.548L0.219068 100L12.2815 105.227C18.8707 108.082 29.5936 108.082 36.1839 105.227C42.8952 102.32 53.8144 102.321 60.5245 105.227C67.1137 108.082 77.8332 108.082 84.4247 105.227C91.1359 102.32 102.053 102.321 108.763 105.227C115.352 108.082 126.074 108.082 132.662 105.227C139.371 102.319 150.289 102.32 156.999 105.227C163.587 108.082 174.305 108.082 180.895 105.227C187.604 102.32 198.521 102.319 205.231 105.227C211.82 108.082 222.542 108.082 229.13 105.227C235.84 102.319 246.757 102.32 253.467 105.227C260.056 108.082 270.775 108.082 277.363 105.227C284.072 102.32 294.991 102.319 301.699 105.227C308.288 108.082 319.007 108.082 325.596 105.227C332.306 102.32 343.222 102.319 349.932 105.227L361.989 110.452L361.77 111Z" fill="#937DE2"/>
<path fill-rule="evenodd" clip-rule="evenodd" d="M361.77 101L349.713 95.7741C343.124 92.9167 332.404 92.9167 325.815 95.7741C319.105 98.6813 308.189 98.6813 301.479 95.7741C294.891 92.9167 284.172 92.9167 277.584 95.7741C270.875 98.6802 259.958 98.6813 253.248 95.7741C246.659 92.9167 235.938 92.9167 229.349 95.7741C222.641 98.6813 211.722 98.6813 205.01 95.7741C198.422 92.9167 187.702 92.9179 181.114 95.7741C174.405 98.6813 163.489 98.6813 156.78 95.7741C150.191 92.9167 139.47 92.9167 132.882 95.7741C126.173 98.6813 115.254 98.6813 108.544 95.7741C101.955 92.9167 91.234 92.9167 84.6437 95.7741C77.9325 98.6813 67.0144 98.6813 60.3043 95.7741C53.7163 92.9167 42.9933 92.9179 36.403 95.7741C29.6918 98.6813 18.7726 98.6813 12.0613 95.7741L0 90.5482L0.219068 90L12.2815 95.2259C18.8707 98.0809 29.5936 98.0809 36.1839 95.2259C42.8952 92.3187 53.8144 92.3198 60.5245 95.2259C67.1137 98.0821 77.8332 98.0809 84.4247 95.2259C91.1359 92.3187 102.053 92.3198 108.763 95.2259C115.352 98.0821 126.074 98.0809 132.662 95.2259C139.371 92.3175 150.289 92.3187 156.999 95.2259C163.587 98.0809 174.305 98.0809 180.895 95.2259C187.604 92.3198 198.521 92.3187 205.231 95.2259C211.82 98.0821 222.542 98.0809 229.13 95.2259C235.84 92.3175 246.757 92.3187 253.467 95.2259C260.056 98.0809 270.775 98.0809 277.363 95.2259C284.072 92.3198 294.991 92.3187 301.699 95.2259C308.288 98.0809 319.007 98.0809 325.596 95.2259C332.306 92.3198 343.222 92.3187 349.932 95.2259L361.989 100.452L361.77 101Z" fill="#937DE2"/>
<path fill-rule="evenodd" clip-rule="evenodd" d="M361.77 91L349.713 85.7741C343.124 82.9179 332.404 82.9179 325.815 85.7741C319.105 88.6813 308.189 88.6813 301.479 85.7741C294.891 82.9179 284.172 82.9179 277.584 85.7741C270.875 88.6813 259.958 88.6813 253.248 85.7741C246.659 82.9179 235.939 82.9179 229.349 85.7741C222.641 88.6825 211.722 88.6813 205.01 85.7741C198.422 82.9179 187.702 82.9179 181.114 85.7741C174.405 88.6813 163.489 88.6813 156.78 85.7741C150.191 82.9179 139.47 82.9179 132.882 85.7741C126.172 88.6825 115.253 88.6813 108.544 85.7741C101.954 82.9179 91.234 82.9179 84.6437 85.7741C77.9336 88.6825 67.0167 88.6813 60.3043 85.7741C53.7151 82.9179 42.9922 82.9179 36.403 85.7741C29.6918 88.6813 18.7726 88.6813 12.0613 85.7741L0 80.5482L0.219068 80L12.2815 85.2259C18.8707 88.0821 29.5936 88.0821 36.1839 85.2259C42.8941 82.3187 53.8144 82.3187 60.5245 85.2259C67.1125 88.0821 77.8343 88.0821 84.4247 85.2259C91.1359 82.3187 102.053 82.3187 108.763 85.2259C115.353 88.0821 126.075 88.0821 132.662 85.2259C139.372 82.3187 150.289 82.3187 156.999 85.2259C163.587 88.0821 174.305 88.0821 180.895 85.2259C187.604 82.321 198.521 82.3187 205.231 85.2259C211.821 88.0821 222.543 88.0821 229.13 85.2259C235.84 82.3187 246.757 82.3187 253.467 85.2259C260.056 88.0821 270.775 88.0821 277.363 85.2259C284.072 82.3198 294.991 82.3187 301.699 85.2259C308.288 88.0821 319.007 88.0821 325.596 85.2259C332.306 82.3198 343.222 82.3187 349.932 85.2259L361.989 90.4518L361.77 91Z" fill="#937DE2"/>
<path fill-rule="evenodd" clip-rule="evenodd" d="M361.77 81L349.713 75.7753C343.124 72.9191 332.404 72.9191 325.815 75.7753C319.105 78.6825 308.189 78.6825 301.479 75.7753C294.891 72.9191 284.172 72.9191 277.584 75.7753C270.875 78.6813 259.958 78.6825 253.248 75.7753C246.659 72.9179 235.939 72.9191 229.349 75.7753C222.641 78.6837 211.722 78.6825 205.01 75.7753C198.422 72.9191 187.702 72.9191 181.114 75.7753C174.405 78.6813 163.489 78.6825 156.78 75.7753C150.191 72.9179 139.47 72.9191 132.882 75.7753C126.172 78.6825 115.253 78.6813 108.544 75.7753C101.954 72.9179 91.234 72.9191 84.6437 75.7753C77.9336 78.6837 67.0167 78.6825 60.3043 75.7753C53.7151 72.9179 42.9922 72.9191 36.403 75.7753C29.6918 78.6825 18.7726 78.6825 12.0613 75.7753L0 70.5482L0.219068 70L12.2815 75.2271C18.8707 78.0833 29.5936 78.0833 36.1839 75.2271C42.8941 72.3198 53.8144 72.3198 60.5245 75.2271C67.1125 78.0833 77.8343 78.0833 84.4247 75.2271C91.1359 72.3198 102.053 72.3198 108.763 75.2271C115.353 78.0833 126.075 78.0821 132.662 75.2271C139.372 72.3198 150.289 72.3198 156.999 75.2271C163.587 78.0821 174.305 78.0833 180.895 75.2271C187.604 72.321 198.521 72.3198 205.231 75.2271C211.821 78.0833 222.543 78.0821 229.13 75.2271C235.84 72.3198 246.757 72.3198 253.467 75.2271C260.056 78.0833 270.775 78.0833 277.363 75.2271C284.072 72.3198 294.991 72.3198 301.699 75.2271C308.288 78.0833 319.007 78.0833 325.596 75.2271C332.306 72.3198 343.222 72.3198 349.932 75.2271L361.989 80.4518L361.77 81Z" fill="#937DE2"/>
<path fill-rule="evenodd" clip-rule="evenodd" d="M361.77 232L349.713 226.775C343.124 223.918 332.404 223.918 325.815 226.775C319.105 229.683 308.189 229.683 301.479 226.775C294.891 223.918 284.172 223.918 277.584 226.775C270.875 229.681 259.958 229.683 253.248 226.775C246.659 223.918 235.938 223.918 229.349 226.775C222.641 229.683 211.722 229.683 205.01 226.775C198.422 223.918 187.702 223.918 181.114 226.775C174.405 229.683 163.489 229.683 156.78 226.775C150.191 223.918 139.47 223.918 132.882 226.775C126.173 229.683 115.254 229.683 108.544 226.775C101.955 223.918 91.234 223.918 84.6437 226.775C77.9325 229.683 67.0144 229.683 60.3043 226.775C53.7163 223.918 42.9933 223.918 36.403 226.775C29.6918 229.683 18.7726 229.683 12.0613 226.775L0 221.548L0.219068 221L12.2815 226.227C18.8707 229.082 29.5936 229.082 36.1839 226.227C42.8952 223.32 53.8144 223.32 60.5245 226.227C67.1137 229.082 77.8332 229.081 84.4247 226.227C91.1359 223.32 102.053 223.32 108.763 226.227C115.352 229.082 126.074 229.081 132.662 226.227C139.371 223.319 150.289 223.32 156.999 226.227C163.587 229.082 174.305 229.082 180.895 226.227C187.604 223.32 198.521 223.32 205.231 226.227C211.82 229.082 222.542 229.081 229.13 226.227C235.84 223.319 246.757 223.32 253.467 226.227C260.056 229.082 270.775 229.082 277.363 226.227C284.072 223.32 294.991 223.32 301.699 226.227C308.288 229.082 319.007 229.082 325.596 226.227C332.306 223.32 343.222 223.32 349.932 226.227L361.989 231.452L361.77 232Z" fill="#937DE2"/>
<path fill-rule="evenodd" clip-rule="evenodd" d="M361.77 222L349.713 216.774C343.124 213.917 332.404 213.917 325.815 216.774C319.105 219.681 308.189 219.681 301.479 216.774C294.891 213.917 284.172 213.917 277.584 216.774C270.875 219.68 259.958 219.681 253.248 216.774C246.659 213.917 235.938 213.917 229.349 216.774C222.641 219.681 211.722 219.681 205.01 216.774C198.422 213.917 187.702 213.917 181.114 216.774C174.405 219.681 163.489 219.681 156.78 216.774C150.191 213.917 139.47 213.917 132.882 216.774C126.173 219.681 115.254 219.681 108.544 216.774C101.955 213.917 91.234 213.917 84.6437 216.774C77.9325 219.681 67.0144 219.681 60.3043 216.774C53.7163 213.917 42.9933 213.917 36.403 216.774C29.6918 219.681 18.7726 219.681 12.0613 216.774L0 211.548L0.219068 211L12.2815 216.226C18.8707 219.081 29.5936 219.081 36.1839 216.226C42.8952 213.319 53.8144 213.32 60.5245 216.226C67.1137 219.081 77.8332 219.081 84.4247 216.226C91.1359 213.319 102.053 213.32 108.763 216.226C115.352 219.081 126.074 219.081 132.662 216.226C139.371 213.319 150.289 213.319 156.999 216.226C163.587 219.081 174.305 219.081 180.895 216.226C187.604 213.32 198.521 213.319 205.231 216.226C211.82 219.081 222.542 219.081 229.13 216.226C235.84 213.319 246.757 213.319 253.467 216.226C260.056 219.081 270.775 219.081 277.363 216.226C284.072 213.32 294.991 213.319 301.699 216.226C308.288 219.081 319.007 219.081 325.596 216.226C332.306 213.32 343.222 213.319 349.932 216.226L361.989 221.452L361.77 222Z" fill="#937DE2"/>
<path fill-rule="evenodd" clip-rule="evenodd" d="M361.77 212L349.713 206.775C343.124 203.918 332.404 203.918 325.815 206.775C319.105 209.683 308.189 209.683 301.479 206.775C294.891 203.918 284.172 203.918 277.584 206.775C270.875 209.681 259.958 209.683 253.248 206.775C246.659 203.918 235.938 203.918 229.349 206.775C222.641 209.683 211.722 209.683 205.01 206.775C198.422 203.918 187.702 203.918 181.114 206.775C174.405 209.683 163.489 209.683 156.78 206.775C150.191 203.918 139.47 203.918 132.882 206.775C126.173 209.683 115.254 209.683 108.544 206.775C101.955 203.918 91.234 203.918 84.6437 206.775C77.9325 209.683 67.0144 209.683 60.3043 206.775C53.7163 203.918 42.9933 203.918 36.403 206.775C29.6918 209.683 18.7726 209.683 12.0613 206.775L0 201.548L0.219068 201L12.2815 206.227C18.8707 209.082 29.5936 209.082 36.1839 206.227C42.8952 203.32 53.8144 203.321 60.5245 206.227C67.1137 209.082 77.8332 209.082 84.4247 206.227C91.1359 203.32 102.053 203.321 108.763 206.227C115.352 209.082 126.074 209.082 132.662 206.227C139.371 203.319 150.289 203.32 156.999 206.227C163.587 209.082 174.305 209.082 180.895 206.227C187.604 203.32 198.521 203.319 205.231 206.227C211.82 209.082 222.542 209.082 229.13 206.227C235.84 203.319 246.757 203.32 253.467 206.227C260.056 209.082 270.775 209.082 277.363 206.227C284.072 203.32 294.991 203.319 301.699 206.227C308.288 209.082 319.007 209.082 325.596 206.227C332.306 203.32 343.222 203.319 349.932 206.227L361.989 211.452L361.77 212Z" fill="#937DE2"/>
<path fill-rule="evenodd" clip-rule="evenodd" d="M361.77 202L349.713 196.774C343.124 193.917 332.404 193.917 325.815 196.774C319.105 199.681 308.189 199.681 301.479 196.774C294.891 193.917 284.172 193.917 277.584 196.774C270.875 199.68 259.958 199.681 253.248 196.774C246.659 193.917 235.938 193.917 229.349 196.774C222.641 199.681 211.722 199.681 205.01 196.774C198.422 193.917 187.702 193.918 181.114 196.774C174.405 199.681 163.489 199.681 156.78 196.774C150.191 193.917 139.47 193.917 132.882 196.774C126.173 199.681 115.254 199.681 108.544 196.774C101.955 193.917 91.234 193.917 84.6437 196.774C77.9325 199.681 67.0144 199.681 60.3043 196.774C53.7163 193.917 42.9933 193.918 36.403 196.774C29.6918 199.681 18.7726 199.681 12.0613 196.774L0 191.548L0.219068 191L12.2815 196.226C18.8707 199.081 29.5936 199.081 36.1839 196.226C42.8952 193.319 53.8144 193.32 60.5245 196.226C67.1137 199.082 77.8332 199.081 84.4247 196.226C91.1359 193.319 102.053 193.32 108.763 196.226C115.352 199.082 126.074 199.081 132.662 196.226C139.371 193.317 150.289 193.319 156.999 196.226C163.587 199.081 174.305 199.081 180.895 196.226C187.604 193.32 198.521 193.319 205.231 196.226C211.82 199.082 222.542 199.081 229.13 196.226C235.84 193.317 246.757 193.319 253.467 196.226C260.056 199.081 270.775 199.081 277.363 196.226C284.072 193.32 294.991 193.319 301.699 196.226C308.288 199.081 319.007 199.081 325.596 196.226C332.306 193.32 343.222 193.319 349.932 196.226L361.989 201.452L361.77 202Z" fill="#937DE2"/>
<path fill-rule="evenodd" clip-rule="evenodd" d="M361.77 192L349.713 186.774C343.124 183.918 332.404 183.918 325.815 186.774C319.105 189.681 308.189 189.681 301.479 186.774C294.891 183.918 284.172 183.918 277.584 186.774C270.875 189.681 259.958 189.681 253.248 186.774C246.659 183.918 235.939 183.918 229.349 186.774C222.641 189.683 211.722 189.681 205.01 186.774C198.422 183.918 187.702 183.918 181.114 186.774C174.405 189.681 163.489 189.681 156.78 186.774C150.191 183.918 139.47 183.918 132.882 186.774C126.172 189.683 115.253 189.681 108.544 186.774C101.954 183.918 91.234 183.918 84.6437 186.774C77.9336 189.683 67.0167 189.681 60.3043 186.774C53.7151 183.918 42.9922 183.918 36.403 186.774C29.6918 189.681 18.7726 189.681 12.0613 186.774L0 181.548L0.219068 181L12.2815 186.226C18.8707 189.082 29.5936 189.082 36.1839 186.226C42.8941 183.319 53.8144 183.319 60.5245 186.226C67.1125 189.082 77.8343 189.082 84.4247 186.226C91.1359 183.319 102.053 183.319 108.763 186.226C115.353 189.082 126.075 189.082 132.662 186.226C139.372 183.319 150.289 183.319 156.999 186.226C163.587 189.082 174.305 189.082 180.895 186.226C187.604 183.321 198.521 183.319 205.231 186.226C211.821 189.082 222.543 189.082 229.13 186.226C235.84 183.319 246.757 183.319 253.467 186.226C260.056 189.082 270.775 189.082 277.363 186.226C284.072 183.32 294.991 183.319 301.699 186.226C308.288 189.082 319.007 189.082 325.596 186.226C332.306 183.32 343.222 183.319 349.932 186.226L361.989 191.452L361.77 192Z" fill="#937DE2"/>
<path fill-rule="evenodd" clip-rule="evenodd" d="M361.77 182L349.713 176.775C343.124 173.919 332.404 173.919 325.815 176.775C319.105 179.683 308.189 179.683 301.479 176.775C294.891 173.919 284.172 173.919 277.584 176.775C270.875 179.681 259.958 179.683 253.248 176.775C246.659 173.918 235.939 173.919 229.349 176.775C222.641 179.684 211.722 179.683 205.01 176.775C198.422 173.919 187.702 173.919 181.114 176.775C174.405 179.681 163.489 179.683 156.78 176.775C150.191 173.918 139.47 173.919 132.882 176.775C126.172 179.683 115.253 179.681 108.544 176.775C101.954 173.918 91.234 173.919 84.6437 176.775C77.9336 179.684 67.0167 179.683 60.3043 176.775C53.7151 173.918 42.9922 173.919 36.403 176.775C29.6918 179.683 18.7726 179.683 12.0613 176.775L0 171.548L0.219068 171L12.2815 176.227C18.8707 179.083 29.5936 179.083 36.1839 176.227C42.8941 173.32 53.8144 173.32 60.5245 176.227C67.1125 179.083 77.8343 179.083 84.4247 176.227C91.1359 173.32 102.053 173.32 108.763 176.227C115.353 179.083 126.075 179.082 132.662 176.227C139.372 173.32 150.289 173.32 156.999 176.227C163.587 179.082 174.305 179.083 180.895 176.227C187.604 173.321 198.521 173.32 205.231 176.227C211.821 179.083 222.543 179.082 229.13 176.227C235.84 173.32 246.757 173.32 253.467 176.227C260.056 179.083 270.775 179.083 277.363 176.227C284.072 173.32 294.991 173.32 301.699 176.227C308.288 179.083 319.007 179.083 325.596 176.227C332.306 173.32 343.222 173.32 349.932 176.227L361.989 181.452L361.77 182Z" fill="#937DE2"/>
</g>
</svg>
