<svg width="25" height="25" viewBox="0 0 25 25" fill="none" xmlns="http://www.w3.org/2000/svg">
<path d="M1.2117 13.0339C1.36029 12.959 1.54 12.9888 1.6566 13.107C2.35397 13.8175 3.18677 14.3818 4.10549 14.7666C5.02465 15.1514 6.01088 15.3488 7.00718 15.3475H7.01594C8.61275 15.3475 10.1679 14.8397 11.4561 13.898C12.7444 12.9559 13.699 11.6291 14.1816 10.1091C14.6642 8.58919 14.6497 6.955 14.14 5.44382C13.6302 3.93263 12.6523 2.62283 11.3474 1.70395C11.2164 1.61158 11.1563 1.44741 11.198 1.29244C11.2392 1.13747 11.3729 1.02453 11.5328 1.00965C11.585 0.999139 11.6385 0.99695 11.6915 1.00439C14.328 1.00352 16.8733 1.96749 18.8467 3.71375C20.82 5.46001 22.0845 7.86775 22.401 10.4817C22.7179 13.096 22.0644 15.7353 20.5653 17.901C21.2631 18.4994 21.7255 19.3255 21.8706 20.233C21.8934 20.3814 21.9083 20.5197 21.9158 20.6528C22.5268 20.8721 23.0554 21.2749 23.4284 21.8055C23.8014 22.3356 24.0013 22.9686 24 23.6174C24 23.8288 23.8282 24 23.6165 24H23.616L12.4936 23.9873C12.3919 23.9873 12.2942 23.9466 12.2223 23.8748C12.1504 23.803 12.1101 23.7054 12.1105 23.6038C12.1127 23.247 12.1763 22.8933 12.2973 22.558C12.0899 22.5698 11.8839 22.5768 11.6806 22.5768H11.667C9.09358 22.5611 6.60874 21.6334 4.65602 19.9589C2.70331 18.2845 1.40939 15.9722 1.00438 13.4336C0.979393 13.2694 1.06311 13.1079 1.2117 13.0339ZM23.2027 23.2339C23.1286 22.7747 22.9213 22.3474 22.6066 22.0046C22.2919 21.6619 21.8833 21.4189 21.4319 21.3051C21.2618 21.2622 21.1421 21.109 21.1421 20.9339C21.1404 20.9015 21.1443 20.8691 21.154 20.838C21.1527 20.6747 21.1391 20.5114 21.1132 20.3503C20.9804 19.5194 20.5153 18.7778 19.8246 18.2959C19.3086 17.9329 18.6932 17.7386 18.0621 17.739H18.0581C17.4936 17.7381 16.9395 17.8922 16.4569 18.1855C15.9743 18.4784 15.582 18.8987 15.3234 19.3999C15.1639 19.6923 15.0561 20.0106 15.0057 20.3402C14.9811 20.4926 14.9666 20.6467 14.9618 20.8012C14.9701 20.8424 14.9745 20.884 14.975 20.9255C14.975 21.1011 14.8557 21.2543 14.6852 21.2972C14.0926 21.4434 13.5794 21.8125 13.2519 22.3268C13.0766 22.5987 12.96 22.9034 12.9087 23.2225L23.2027 23.2339ZM11.6678 21.8112H11.6806C12.0246 21.8107 12.3687 21.7932 12.7115 21.7577C12.7496 21.7052 12.7952 21.6601 12.836 21.6102C12.8794 21.5572 12.9214 21.5034 12.9683 21.4539C13.0376 21.3804 13.1125 21.3134 13.1888 21.2469C13.237 21.2044 13.2831 21.1597 13.3339 21.1203C13.4224 21.0542 13.514 20.993 13.6092 20.9365C13.6556 20.9076 13.699 20.8748 13.7477 20.8485C13.8936 20.7684 14.0457 20.6997 14.2026 20.6436C14.2105 20.5123 14.2254 20.3731 14.2487 20.2212C14.3122 19.8062 14.4477 19.4056 14.6489 19.037C14.9728 18.4132 15.4619 17.8909 16.0633 17.5267C16.6647 17.1625 17.3551 16.9707 18.0586 16.9729H18.0629C18.2124 16.9738 18.3614 16.9834 18.5096 17.0018C18.5354 17.0049 18.5613 17.0071 18.5867 17.0106C18.7279 17.0298 18.8677 17.0574 19.0058 17.092C19.0312 17.0986 19.0562 17.106 19.0816 17.1126C19.2236 17.1507 19.363 17.1971 19.4998 17.2518L19.5085 17.2557C19.6448 17.3122 19.7772 17.3761 19.9061 17.4479C19.9184 17.4545 19.9315 17.4593 19.9438 17.4658C21.2657 15.5471 21.8768 13.2282 21.6721 10.9081C21.4674 8.58788 20.4597 6.41172 18.8225 4.75301C17.1854 3.09474 15.0206 2.05767 12.701 1.82039C13.9077 2.95728 14.7449 4.42994 15.1038 6.0475C15.4633 7.66506 15.3278 9.3531 14.7155 10.8932C14.1032 12.4328 13.042 13.7536 11.6692 14.6843C10.2963 15.615 8.67586 16.1123 7.01682 16.1127H7.00718C5.19691 16.1158 3.43662 15.5226 1.99849 14.4251C2.58803 16.5382 3.85039 18.4022 5.59535 19.7348C7.33986 21.0683 9.47185 21.7967 11.6678 21.8112Z" fill="#937DE2" stroke="#937DE2" stroke-width="0.3"/>
</svg>
