<svg xmlns="http://www.w3.org/2000/svg" width="37" height="36" viewBox="0 0 37 36" fill="none">
  <path d="M16.6708 11.3763C15.4157 10.7102 14.1027 9.85478 13.0932 8.73207L12.2094 7.74927C12.0222 7.54106 11.721 7.48032 11.4669 7.59934C11.2134 7.71889 11.0681 7.99039 11.1087 8.26794L12.5539 18.1542C12.1507 17.9917 11.7052 17.9208 11.2451 17.9883C9.85809 18.192 8.89542 19.488 9.09863 20.8781C9.30183 22.2681 10.595 23.2329 11.982 23.0292C13.3691 22.8256 14.3317 21.5296 14.1285 20.1395L12.6686 10.1522C13.7215 11.1473 14.9689 11.9141 16.0759 12.502C16.6197 12.7905 16.9829 13.3054 17.072 13.9146C17.2243 14.957 16.5022 15.9292 15.4621 16.0819C15.1146 16.1329 14.8745 16.456 14.9254 16.8043C14.9764 17.1526 15.2988 17.3931 15.6463 17.3421C17.3796 17.0876 18.5834 15.4671 18.3294 13.7299C18.1833 12.73 17.5636 11.8505 16.6708 11.3763Z" fill="white"/>
  <path d="M28.6477 10.3072L20.1299 14.1323C19.8711 14.2495 19.7212 14.5242 19.7623 14.8054L21.011 23.3475C20.6079 23.1849 20.1624 23.114 19.7023 23.1816C18.3153 23.3852 17.3526 24.6812 17.5558 26.0713C17.759 27.4614 19.0522 28.4262 20.4392 28.2225C21.8262 28.0189 22.7889 26.7229 22.5857 25.3328C22.5647 25.1891 21.4578 17.6168 21.4578 17.6168L28.7706 14.3363L29.5287 19.5223C29.1256 19.3598 28.6801 19.2889 28.22 19.3564C26.833 19.5601 25.8703 20.8561 26.0735 22.2461C26.2767 23.6362 27.5699 24.601 28.9569 24.3974C30.344 24.1937 31.3066 22.8977 31.1034 21.5076C31.0824 21.364 29.5375 10.7957 29.5375 10.7957C29.4766 10.3789 29.0344 10.1337 28.6477 10.3072Z" fill="white"/>
</svg>