<svg width="50" height="50" viewBox="0 0 50 50" fill="none" xmlns="http://www.w3.org/2000/svg">
<rect x="1" y="0.977173" width="48" height="47.9502" rx="4" fill="black" stroke="#A6A6A6"/>
<path fill-rule="evenodd" clip-rule="evenodd" d="M18.2937 14.3049C18.0463 14.5685 17.9033 14.9778 17.9033 15.5079V34.396C17.9033 34.9261 18.0463 35.3354 18.302 35.5908L18.368 35.6485L28.9642 25.0659V24.827L18.3597 14.2472L18.2937 14.3049Z" fill="url(#paint0_linear_3435_358)"/>
<path fill-rule="evenodd" clip-rule="evenodd" d="M32.4866 28.6062L28.9536 25.0769V24.8297L32.4894 21.2976L32.5664 21.3443L36.7483 23.7173C37.9443 24.3902 37.9443 25.5026 36.7483 26.1865L32.5664 28.5595C32.5636 28.5595 32.4866 28.6062 32.4866 28.6062Z" fill="url(#paint1_linear_3435_358)"/>
<path fill-rule="evenodd" clip-rule="evenodd" d="M32.563 28.5596L28.953 24.9533L18.2935 35.6018C18.6839 36.0192 19.3382 36.0659 20.0696 35.6594L32.563 28.5596Z" fill="url(#paint2_linear_3435_358)"/>
<path fill-rule="evenodd" clip-rule="evenodd" d="M32.563 21.3471L20.0696 14.2554C19.3382 13.8379 18.6811 13.8956 18.2935 14.3131L28.953 24.9533L32.563 21.3471Z" fill="url(#paint3_linear_3435_358)"/>
<defs>
<linearGradient id="paint0_linear_3435_358" x1="35.2747" y1="8.0419" x2="12.4159" y2="14.1429" gradientUnits="userSpaceOnUse">
<stop stop-color="#047ED6"/>
<stop offset="1" stop-color="#50E6FF"/>
</linearGradient>
<linearGradient id="paint1_linear_3435_358" x1="38.3053" y1="24.9524" x2="26.4521" y2="24.9524" gradientUnits="userSpaceOnUse">
<stop stop-color="#FFDA1C"/>
<stop offset="1" stop-color="#FEB705"/>
</linearGradient>
<linearGradient id="paint2_linear_3435_358" x1="30.5995" y1="26.9144" x2="16.9984" y2="49.8327" gradientUnits="userSpaceOnUse">
<stop stop-color="#D9414F"/>
<stop offset="1" stop-color="#8C193F"/>
</linearGradient>
<linearGradient id="paint3_linear_3435_358" x1="15.6081" y1="8.01732" x2="21.6752" y2="18.2545" gradientUnits="userSpaceOnUse">
<stop stop-color="#33C481"/>
<stop offset="1" stop-color="#61E3A7"/>
</linearGradient>
</defs>
</svg>
