<svg width="84" height="73" viewBox="0 0 84 73" fill="none" xmlns="http://www.w3.org/2000/svg">
<g opacity="0.350842">
<path fill-rule="evenodd" clip-rule="evenodd" d="M0 47.4017C0 20.7689 24.7211 4.54187 28.5606 2.51915C31.3415 1.01228 33.916 0 35.6801 0C37.2164 0 38.2332 0.743266 38.2332 2.02364C38.2332 3.3031 36.9459 4.81089 35.6801 5.82225C32.1306 8.36174 22.167 21.5538 22.167 33.9822C22.167 37.265 23.9525 40.3 25.9861 41.3317C28.2901 42.5908 39 44.8825 39 58.302C39 66.1682 32.6278 73 23.7024 73C11.9767 73.0009 0 64.1446 0 47.4017Z" fill="#7F6ECC"/>
<path fill-rule="evenodd" clip-rule="evenodd" d="M45 47.4011C45 20.7687 69.7277 4.54182 73.5445 2.51912C76.346 1.01227 78.8967 0 80.6802 0C82.2147 0 83.2123 0.743257 83.2123 2.02362C83.2123 3.30305 81.9472 4.81083 80.6802 5.82218C77.1133 8.36164 67.177 21.5535 67.177 33.9818C67.177 37.2645 68.9605 40.2995 70.9938 41.3312C73.2965 42.5912 84 44.882 84 58.3022C84 66.1683 77.6102 73 68.6902 73C56.99 73 45 64.1438 45 47.4011Z" fill="#7F6ECC"/>
</g>
</svg>
