<svg width="360" height="96" viewBox="0 0 360 96" fill="none" xmlns="http://www.w3.org/2000/svg">
<path fill-rule="evenodd" clip-rule="evenodd" d="M179.891 40.115L173.896 37.204C170.619 35.6127 165.289 35.6127 162.013 37.204C158.676 38.8238 153.248 38.8238 149.911 37.204C146.635 35.6127 141.305 35.6127 138.029 37.204C134.693 38.8231 129.265 38.8238 125.928 37.204C122.652 35.612 117.321 35.6127 114.044 37.204C110.709 38.8238 105.279 38.8238 101.942 37.204C98.6661 35.6127 93.3352 35.6127 90.0593 37.204C86.7232 38.8231 81.2953 38.8238 77.9593 37.204C74.6828 35.612 69.3519 35.6127 66.076 37.204C62.7394 38.8238 57.3098 38.8231 53.9737 37.204C50.6967 35.612 45.3664 35.6127 42.0893 37.204C38.7527 38.8238 33.3242 38.8238 29.9865 37.204C26.71 35.612 21.378 35.6127 18.1015 37.204C14.7643 38.8238 9.33471 38.8238 5.99752 37.204L0 34.2918L0.108932 33.9863L6.10702 36.8986C9.3835 38.4899 14.7155 38.4899 17.9926 36.8986C21.3292 35.2788 26.7594 35.2788 30.096 36.8986C33.3719 38.4899 38.7033 38.4899 41.9804 36.8986C45.3176 35.2788 50.746 35.2788 54.0827 36.8986C57.3597 38.4899 62.6912 38.4893 65.9665 36.8986C69.3031 35.2788 74.7316 35.2788 78.0682 36.8986C81.3441 38.4893 86.6739 38.4899 89.9504 36.8986C93.2864 35.2795 98.7149 35.2788 102.051 36.8986C105.329 38.4899 110.66 38.4893 113.935 36.8986C117.272 35.2788 122.7 35.2788 126.037 36.8986C129.314 38.4899 134.644 38.4899 137.92 36.8986C141.256 35.2788 146.685 35.2788 150.021 36.8986C153.297 38.4899 158.627 38.4899 161.904 36.8986C165.24 35.2788 170.668 35.2788 174.005 36.8986L180 39.8095L179.891 40.115Z" fill="#937DE2"/>
<path fill-rule="evenodd" clip-rule="evenodd" d="M179.891 34.5436L173.896 31.632C170.619 30.0406 165.289 30.0406 162.013 31.632C158.676 33.2517 153.248 33.2517 149.911 31.632C146.635 30.0406 141.305 30.0406 138.029 31.632C134.693 33.2517 129.265 33.2524 125.928 31.632C122.652 30.0406 117.321 30.0413 114.044 31.632C110.709 33.2524 105.279 33.2517 101.942 31.632C98.6661 30.0406 93.3352 30.0406 90.0593 31.632C86.7232 33.2517 81.2953 33.2524 77.9593 31.632C74.6828 30.0406 69.3519 30.0413 66.076 31.632C62.7394 33.2524 57.3098 33.2517 53.9737 31.632C50.6967 30.0406 45.3664 30.0413 42.0893 31.632C38.7527 33.2524 33.3242 33.2517 29.9865 31.632C26.71 30.0406 21.378 30.0413 18.1015 31.632C14.7643 33.2517 9.33471 33.2517 5.99752 31.632L0 28.7204L0.108932 28.4149L6.10702 31.3265C9.3835 32.9179 14.7155 32.9179 17.9926 31.3265C21.3292 29.7068 26.7594 29.7068 30.096 31.3265C33.3719 32.9179 38.7033 32.9179 41.9804 31.3265C45.3176 29.7068 50.746 29.7068 54.0827 31.3265C57.3597 32.9185 62.6912 32.9179 65.9665 31.3265C69.3031 29.7068 74.7316 29.7068 78.0682 31.3265C81.3441 32.9179 86.6739 32.9185 89.9504 31.3265C93.2864 29.7074 98.7149 29.7068 102.051 31.3265C105.329 32.9185 110.66 32.9179 113.935 31.3265C117.272 29.7068 122.7 29.7068 126.037 31.3265C129.314 32.9179 134.644 32.9179 137.92 31.3265C141.256 29.7068 146.685 29.7068 150.021 31.3265C153.297 32.9179 158.627 32.9179 161.904 31.3265C165.24 29.7068 170.668 29.7068 174.005 31.3265L180 34.2381L179.891 34.5436Z" fill="#937DE2"/>
<path fill-rule="evenodd" clip-rule="evenodd" d="M179.891 28.9718L173.896 26.0609C170.619 24.4695 165.289 24.4695 162.013 26.0609C158.676 27.6806 153.248 27.6806 149.911 26.0609C146.635 24.4695 141.305 24.4695 138.029 26.0609C134.693 27.6806 129.265 27.6806 125.928 26.0609C122.652 24.4689 117.321 24.4695 114.044 26.0609C110.709 27.6806 105.279 27.6806 101.942 26.0609C98.6661 24.4695 93.3352 24.4695 90.0593 26.0609C86.7232 27.6806 81.2953 27.6806 77.9593 26.0609C74.6828 24.4689 69.3519 24.4695 66.076 26.0609C62.7394 27.6806 57.3098 27.68 53.9737 26.0609C50.6967 24.4689 45.3664 24.4695 42.0893 26.0609C38.7527 27.6806 33.3242 27.6806 29.9865 26.0609C26.71 24.4689 21.378 24.4695 18.1015 26.0609C14.7643 27.6806 9.33471 27.6806 5.99752 26.0609L0 23.1486L0.108932 22.8431L6.10702 25.7554C9.3835 27.3467 14.7155 27.3467 17.9926 25.7554C21.3292 24.1356 26.7594 24.1356 30.096 25.7554C33.3719 27.3467 38.7033 27.3467 41.9804 25.7554C45.3176 24.1356 50.746 24.1356 54.0827 25.7554C57.3597 27.3467 62.6912 27.3461 65.9665 25.7554C69.3031 24.1356 74.7316 24.1356 78.0682 25.7554C81.3441 27.3461 86.6739 27.3467 89.9504 25.7554C93.2864 24.1363 98.7149 24.1356 102.051 25.7554C105.329 27.3467 110.66 27.3461 113.935 25.7554C117.272 24.1356 122.7 24.1356 126.037 25.7554C129.314 27.3467 134.644 27.3467 137.92 25.7554C141.256 24.1356 146.685 24.1356 150.021 25.7554C153.297 27.3467 158.627 27.3467 161.904 25.7554C165.24 24.1356 170.668 24.1356 174.005 25.7554L180 28.6664L179.891 28.9718Z" fill="#937DE2"/>
<path fill-rule="evenodd" clip-rule="evenodd" d="M179.891 22.8431L173.896 19.9315C170.619 18.3402 165.289 18.3402 162.013 19.9315C158.676 21.5513 153.248 21.5513 149.911 19.9315C146.635 18.3402 141.305 18.3402 138.029 19.9315C134.693 21.5506 129.265 21.5513 125.928 19.9315C122.652 18.3402 117.321 18.3402 114.044 19.9315C110.709 21.5513 105.279 21.5513 101.942 19.9315C98.6661 18.3402 93.3352 18.3402 90.0593 19.9315C86.7232 21.5513 81.2953 21.5513 77.9593 19.9315C74.6828 18.3402 69.3519 18.3402 66.076 19.9315C62.7399 21.5513 57.3104 21.5513 53.9737 19.9315C50.6973 18.3402 45.3664 18.3402 42.0893 19.9315C38.7521 21.5513 33.3231 21.5513 29.9865 19.9315C26.71 18.3402 21.378 18.3409 18.1015 19.9315C14.7643 21.5513 9.33471 21.5513 5.99752 19.9315L0 17.0199L0.108932 16.7145L6.10702 19.6261C9.3835 21.2168 14.7155 21.2168 17.9926 19.6261C21.3292 18.0063 26.7594 18.0063 30.096 19.6261C33.3719 21.2168 38.7033 21.2168 41.9804 19.6261C45.317 18.0063 50.746 18.0063 54.0827 19.6261C57.3597 21.2168 62.6912 21.2168 65.9665 19.6261C69.3026 18.0063 74.7316 18.0063 78.0682 19.6261C81.3441 21.2168 86.6739 21.2168 89.9504 19.6261C93.2864 18.007 98.7149 18.0063 102.051 19.6261C105.329 21.2168 110.66 21.2168 113.935 19.6261C117.272 18.0063 122.7 18.0063 126.037 19.6261C129.314 21.2168 134.644 21.2168 137.92 19.6261C141.256 18.0063 146.685 18.0063 150.021 19.6261C153.297 21.2168 158.627 21.2168 161.904 19.6261C165.24 18.0063 170.668 18.0063 174.005 19.6261L180 22.5377L179.891 22.8431Z" fill="#937DE2"/>
<path fill-rule="evenodd" clip-rule="evenodd" d="M179.891 17.2716L173.896 14.3607C170.619 12.7687 165.289 12.7687 162.013 14.3607C158.676 15.9804 153.248 15.9804 149.911 14.3607C146.635 12.7687 141.305 12.7687 138.029 14.3607C134.693 15.9798 129.265 15.9804 125.928 14.3607C122.652 12.7687 117.321 12.7687 114.044 14.3607C110.709 15.9804 105.279 15.9804 101.942 14.3607C98.6661 12.7687 93.3352 12.7687 90.0593 14.3607C86.7232 15.9804 81.2953 15.9804 77.9593 14.3607C74.6828 12.7687 69.3519 12.7687 66.076 14.3607C62.7399 15.9804 57.3104 15.9804 53.9737 14.3607C50.6973 12.7687 45.3664 12.7687 42.0893 14.3607C38.7521 15.9804 33.3231 15.9804 29.9865 14.3607C26.7106 12.7687 21.3785 12.7687 18.1015 14.3607C14.7643 15.9804 9.33471 15.9804 5.99752 14.3607L0 11.4484L0.108932 11.1429L6.10702 14.0552C9.3835 15.6459 14.7155 15.6459 17.9926 14.0552C21.3298 12.4355 26.7594 12.4355 30.096 14.0552C33.3725 15.6459 38.7028 15.6452 41.9804 14.0552C45.3176 12.4355 50.746 12.4355 54.0827 14.0552C57.3591 15.6459 62.6906 15.6452 65.9665 14.0552C69.3026 12.4348 74.7316 12.4355 78.0682 14.0552C81.3441 15.6459 86.6739 15.6459 89.9504 14.0552C93.2864 12.4355 98.7149 12.4355 102.051 14.0552C105.328 15.6459 110.659 15.6452 113.935 14.0552C117.272 12.4348 122.7 12.4355 126.037 14.0552C129.314 15.6459 134.644 15.6459 137.92 14.0552C141.256 12.4355 146.685 12.4355 150.021 14.0552C153.297 15.6459 158.627 15.6459 161.904 14.0552C165.24 12.4355 170.668 12.4355 174.005 14.0552L180 16.9662L179.891 17.2716Z" fill="#937DE2"/>
<path fill-rule="evenodd" clip-rule="evenodd" d="M179.891 11.6999L173.896 8.78834C170.619 7.19634 165.289 7.19634 162.013 8.78834C158.676 10.4081 153.248 10.4081 149.911 8.78834C146.635 7.19634 141.305 7.19634 138.029 8.78834C134.693 10.4074 129.265 10.4081 125.928 8.78834C122.652 7.19634 117.321 7.19634 114.044 8.78834C110.709 10.4081 105.279 10.4081 101.942 8.78834C98.6661 7.19634 93.3352 7.19634 90.0593 8.78834C86.7232 10.4081 81.2953 10.4081 77.9593 8.78834C74.6828 7.19634 69.3519 7.19634 66.076 8.78834C62.7399 10.4081 57.3104 10.4081 53.9737 8.78834C50.6973 7.19634 45.3664 7.19634 42.0893 8.78834C38.7521 10.4081 33.3231 10.4081 29.9865 8.78834C26.7106 7.19634 21.3785 7.19634 18.1015 8.78834C14.7643 10.4081 9.33471 10.4081 5.99752 8.78834L0 5.87673L0.108932 5.57129L6.10702 8.4829C9.3835 10.0736 14.7155 10.0736 17.9926 8.4829C21.3298 6.86313 26.7594 6.8638 30.096 8.4829C33.3725 10.0736 38.7028 10.0736 41.9804 8.4829C45.3176 6.86313 50.746 6.8638 54.0827 8.4829C57.3591 10.0736 62.6906 10.0736 65.9665 8.4829C69.3026 6.86313 74.7316 6.86313 78.0682 8.4829C81.3441 10.0736 86.6739 10.0736 89.9504 8.4829C93.2864 6.8638 98.7149 6.86313 102.051 8.4829C105.328 10.0736 110.659 10.0736 113.935 8.4829C117.272 6.86313 122.7 6.86313 126.037 8.4829C129.314 10.0736 134.644 10.0736 137.92 8.4829C141.256 6.8638 146.685 6.86313 150.021 8.4829C153.297 10.0736 158.627 10.0736 161.904 8.4829C165.24 6.8638 170.668 6.86313 174.005 8.4829L180 11.3945L179.891 11.6999Z" fill="#937DE2"/>
<path fill-rule="evenodd" clip-rule="evenodd" d="M179.891 6.12866L173.896 3.21771C170.619 1.62571 165.289 1.62571 162.013 3.21771C158.676 4.83748 153.248 4.83748 149.911 3.21771C146.635 1.62571 141.305 1.62571 138.029 3.21771C134.693 4.83681 129.265 4.83748 125.928 3.21771C122.652 1.62571 117.321 1.62571 114.044 3.21771C110.709 4.83748 105.279 4.83748 101.942 3.21771C98.6661 1.62571 93.3352 1.62571 90.0593 3.21771C86.7232 4.83748 81.2953 4.83748 77.9593 3.21771C74.6828 1.62571 69.3519 1.62571 66.076 3.21771C62.7399 4.83748 57.3104 4.83748 53.9737 3.21771C50.6973 1.62571 45.3664 1.62571 42.0893 3.21771C38.7521 4.83748 33.3231 4.83748 29.9865 3.21771C26.7106 1.62571 21.3785 1.62571 18.1015 3.21771C14.7643 4.83748 9.33471 4.83748 5.99752 3.21771L0 0.305441L0.108932 0L6.10702 2.91227C9.3835 4.50295 14.7155 4.50295 17.9926 2.91227C21.3298 1.29251 26.7594 1.29317 30.096 2.91227C33.3725 4.50295 38.7028 4.50295 41.9804 2.91227C45.3176 1.29251 50.746 1.29317 54.0827 2.91227C57.3591 4.50295 62.6906 4.50295 65.9665 2.91227C69.3026 1.29184 74.7316 1.29251 78.0682 2.91227C81.3441 4.50295 86.6739 4.50295 89.9504 2.91227C93.2864 1.29251 98.7149 1.29184 102.051 2.91227C105.328 4.50295 110.659 4.50295 113.935 2.91227C117.272 1.29184 122.7 1.29251 126.037 2.91227C129.314 4.50295 134.644 4.50295 137.92 2.91227C141.256 1.29251 146.685 1.29184 150.021 2.91227C153.297 4.50295 158.627 4.50295 161.904 2.91227C165.24 1.29251 170.668 1.29184 174.005 2.91227L180 5.82322L179.891 6.12866Z" fill="#937DE2"/>
<path fill-rule="evenodd" clip-rule="evenodd" d="M179.891 95.8304L173.896 92.9195C170.619 91.3282 165.289 91.3282 162.013 92.9195C158.676 94.5393 153.248 94.5393 149.911 92.9195C146.635 91.3282 141.305 91.3282 138.029 92.9195C134.693 94.5386 129.265 94.5393 125.928 92.9195C122.652 91.3275 117.321 91.3282 114.044 92.9195C110.709 94.5393 105.279 94.5393 101.942 92.9195C98.6661 91.3282 93.3352 91.3282 90.0593 92.9195C86.7232 94.5386 81.2953 94.5393 77.9593 92.9195C74.6828 91.3275 69.3519 91.3282 66.076 92.9195C62.7394 94.5393 57.3098 94.5386 53.9737 92.9195C50.6967 91.3275 45.3664 91.3282 42.0893 92.9195C38.7527 94.5393 33.3242 94.5393 29.9865 92.9195C26.71 91.3275 21.378 91.3282 18.1015 92.9195C14.7643 94.5393 9.33471 94.5393 5.99752 92.9195L0 90.0072L0.108932 89.7018L6.10702 92.6141C9.3835 94.2054 14.7155 94.2054 17.9926 92.6141C21.3292 90.9943 26.7594 90.9943 30.096 92.6141C33.3719 94.2054 38.7033 94.2054 41.9804 92.6141C45.3176 90.9943 50.746 90.9943 54.0827 92.6141C57.3597 94.2054 62.6912 94.2047 65.9665 92.6141C69.3031 90.9943 74.7316 90.9943 78.0682 92.6141C81.3441 94.2047 86.6739 94.2054 89.9504 92.6141C93.2864 90.9949 98.7149 90.9943 102.051 92.6141C105.329 94.2054 110.66 94.2047 113.935 92.6141C117.272 90.9943 122.7 90.9943 126.037 92.6141C129.314 94.2054 134.644 94.2054 137.92 92.6141C141.256 90.9943 146.685 90.9943 150.021 92.6141C153.297 94.2054 158.627 94.2054 161.904 92.6141C165.24 90.9943 170.668 90.9943 174.005 92.6141L180 95.525L179.891 95.8304Z" fill="#937DE2"/>
<path fill-rule="evenodd" clip-rule="evenodd" d="M179.891 90.2587L173.896 87.3471C170.619 85.7557 165.289 85.7557 162.013 87.3471C158.676 88.9668 153.248 88.9668 149.911 87.3471C146.635 85.7557 141.305 85.7557 138.029 87.3471C134.693 88.9668 129.265 88.9675 125.928 87.3471C122.652 85.7557 117.321 85.7564 114.044 87.3471C110.709 88.9675 105.279 88.9668 101.942 87.3471C98.6661 85.7557 93.3352 85.7557 90.0593 87.3471C86.7232 88.9668 81.2953 88.9675 77.9593 87.3471C74.6828 85.7557 69.3519 85.7564 66.076 87.3471C62.7394 88.9675 57.3098 88.9668 53.9737 87.3471C50.6967 85.7557 45.3664 85.7564 42.0893 87.3471C38.7527 88.9675 33.3242 88.9668 29.9865 87.3471C26.71 85.7557 21.378 85.7564 18.1015 87.3471C14.7643 88.9668 9.33471 88.9668 5.99752 87.3471L0 84.4354L0.108932 84.13L6.10702 87.0416C9.3835 88.633 14.7155 88.633 17.9926 87.0416C21.3292 85.4218 26.7594 85.4218 30.096 87.0416C33.3719 88.633 38.7033 88.633 41.9804 87.0416C45.3176 85.4218 50.746 85.4218 54.0827 87.0416C57.3597 88.6336 62.6912 88.633 65.9665 87.0416C69.3031 85.4218 74.7316 85.4218 78.0682 87.0416C81.3441 88.633 86.6739 88.6336 89.9504 87.0416C93.2864 85.4225 98.7149 85.4218 102.051 87.0416C105.329 88.6336 110.66 88.633 113.935 87.0416C117.272 85.4218 122.7 85.4218 126.037 87.0416C129.314 88.633 134.644 88.633 137.92 87.0416C141.256 85.4218 146.685 85.4218 150.021 87.0416C153.297 88.633 158.627 88.633 161.904 87.0416C165.24 85.4218 170.668 85.4218 174.005 87.0416L180 89.9532L179.891 90.2587Z" fill="#937DE2"/>
<path fill-rule="evenodd" clip-rule="evenodd" d="M179.891 84.6874L173.896 81.7764C170.619 80.1851 165.289 80.1851 162.013 81.7764C158.676 83.3962 153.248 83.3962 149.911 81.7764C146.635 80.1851 141.305 80.1851 138.029 81.7764C134.693 83.3962 129.265 83.3962 125.928 81.7764C122.652 80.1844 117.321 80.1851 114.044 81.7764C110.709 83.3962 105.279 83.3962 101.942 81.7764C98.6661 80.1851 93.3352 80.1851 90.0593 81.7764C86.7232 83.3962 81.2953 83.3962 77.9593 81.7764C74.6828 80.1844 69.3519 80.1851 66.076 81.7764C62.7394 83.3962 57.3098 83.3955 53.9737 81.7764C50.6967 80.1844 45.3664 80.1851 42.0893 81.7764C38.7527 83.3962 33.3242 83.3962 29.9865 81.7764C26.71 80.1844 21.378 80.1851 18.1015 81.7764C14.7643 83.3962 9.33471 83.3962 5.99752 81.7764L0 78.8642L0.108932 78.5587L6.10702 81.471C9.3835 83.0623 14.7155 83.0623 17.9926 81.471C21.3292 79.8512 26.7594 79.8512 30.096 81.471C33.3719 83.0623 38.7033 83.0623 41.9804 81.471C45.3176 79.8512 50.746 79.8512 54.0827 81.471C57.3597 83.0623 62.6912 83.0617 65.9665 81.471C69.3031 79.8512 74.7316 79.8512 78.0682 81.471C81.3441 83.0617 86.6739 83.0623 89.9504 81.471C93.2864 79.8519 98.7149 79.8512 102.051 81.471C105.329 83.0623 110.66 83.0617 113.935 81.471C117.272 79.8512 122.7 79.8512 126.037 81.471C129.314 83.0623 134.644 83.0623 137.92 81.471C141.256 79.8512 146.685 79.8512 150.021 81.471C153.297 83.0623 158.627 83.0623 161.904 81.471C165.24 79.8512 170.668 79.8512 174.005 81.471L180 84.3819L179.891 84.6874Z" fill="#937DE2"/>
<path fill-rule="evenodd" clip-rule="evenodd" d="M179.891 78.5588L173.896 75.6472C170.619 74.0559 165.289 74.0559 162.013 75.6472C158.676 77.267 153.248 77.267 149.911 75.6472C146.635 74.0559 141.305 74.0559 138.029 75.6472C134.693 77.2663 129.265 77.267 125.928 75.6472C122.652 74.0559 117.321 74.0559 114.044 75.6472C110.709 77.267 105.279 77.267 101.942 75.6472C98.6661 74.0559 93.3352 74.0559 90.0593 75.6472C86.7232 77.267 81.2953 77.267 77.9593 75.6472C74.6828 74.0559 69.3519 74.0559 66.076 75.6472C62.7399 77.267 57.3104 77.267 53.9737 75.6472C50.6973 74.0559 45.3664 74.0559 42.0893 75.6472C38.7521 77.267 33.3231 77.267 29.9865 75.6472C26.71 74.0559 21.378 74.0566 18.1015 75.6472C14.7643 77.267 9.33471 77.267 5.99752 75.6472L0 72.7356L0.108932 72.4302L6.10702 75.3418C9.3835 76.9325 14.7155 76.9325 17.9926 75.3418C21.3292 73.722 26.7594 73.722 30.096 75.3418C33.3719 76.9325 38.7033 76.9325 41.9804 75.3418C45.317 73.722 50.746 73.722 54.0827 75.3418C57.3597 76.9325 62.6912 76.9325 65.9665 75.3418C69.3026 73.722 74.7316 73.722 78.0682 75.3418C81.3441 76.9325 86.6739 76.9325 89.9504 75.3418C93.2864 73.7227 98.7149 73.722 102.051 75.3418C105.329 76.9325 110.66 76.9325 113.935 75.3418C117.272 73.722 122.7 73.722 126.037 75.3418C129.314 76.9325 134.644 76.9325 137.92 75.3418C141.256 73.722 146.685 73.722 150.021 75.3418C153.297 76.9325 158.627 76.9325 161.904 75.3418C165.24 73.722 170.668 73.722 174.005 75.3418L180 78.2534L179.891 78.5588Z" fill="#937DE2"/>
<path fill-rule="evenodd" clip-rule="evenodd" d="M179.891 72.9869L173.896 70.076C170.619 68.484 165.289 68.484 162.013 70.076C158.676 71.6958 153.248 71.6958 149.911 70.076C146.635 68.484 141.305 68.484 138.029 70.076C134.693 71.6951 129.265 71.6958 125.928 70.076C122.652 68.484 117.321 68.484 114.044 70.076C110.709 71.6958 105.279 71.6958 101.942 70.076C98.6661 68.484 93.3352 68.484 90.0593 70.076C86.7232 71.6958 81.2953 71.6958 77.9593 70.076C74.6828 68.484 69.3519 68.484 66.076 70.076C62.7399 71.6958 57.3104 71.6958 53.9737 70.076C50.6973 68.484 45.3664 68.484 42.0893 70.076C38.7521 71.6958 33.3231 71.6958 29.9865 70.076C26.7106 68.484 21.3785 68.484 18.1015 70.076C14.7643 71.6958 9.33471 71.6958 5.99752 70.076L0 67.1637L0.108932 66.8583L6.10702 69.7705C9.3835 71.3612 14.7155 71.3612 17.9926 69.7705C21.3298 68.1508 26.7594 68.1508 30.096 69.7705C33.3725 71.3612 38.7028 71.3606 41.9804 69.7705C45.3176 68.1508 50.746 68.1508 54.0827 69.7705C57.3591 71.3612 62.6906 71.3606 65.9665 69.7705C69.3026 68.1501 74.7316 68.1508 78.0682 69.7705C81.3441 71.3612 86.6739 71.3612 89.9504 69.7705C93.2864 68.1508 98.7149 68.1508 102.051 69.7705C105.328 71.3612 110.659 71.3606 113.935 69.7705C117.272 68.1501 122.7 68.1508 126.037 69.7705C129.314 71.3612 134.644 71.3612 137.92 69.7705C141.256 68.1508 146.685 68.1508 150.021 69.7705C153.297 71.3612 158.627 71.3612 161.904 69.7705C165.24 68.1508 170.668 68.1508 174.005 69.7705L180 72.6815L179.891 72.9869Z" fill="#937DE2"/>
<path fill-rule="evenodd" clip-rule="evenodd" d="M179.891 67.4157L173.896 64.504C170.619 62.912 165.289 62.912 162.013 64.504C158.676 66.1238 153.248 66.1238 149.911 64.504C146.635 62.912 141.305 62.912 138.029 64.504C134.693 66.1231 129.265 66.1238 125.928 64.504C122.652 62.912 117.321 62.912 114.044 64.504C110.709 66.1238 105.279 66.1238 101.942 64.504C98.6661 62.912 93.3352 62.912 90.0593 64.504C86.7232 66.1238 81.2953 66.1238 77.9593 64.504C74.6828 62.912 69.3519 62.912 66.076 64.504C62.7399 66.1238 57.3104 66.1238 53.9737 64.504C50.6973 62.912 45.3664 62.912 42.0893 64.504C38.7521 66.1238 33.3231 66.1238 29.9865 64.504C26.7106 62.912 21.3785 62.912 18.1015 64.504C14.7643 66.1238 9.33471 66.1238 5.99752 64.504L0 61.5923L0.108932 61.2869L6.10702 64.1985C9.3835 65.7892 14.7155 65.7892 17.9926 64.1985C21.3298 62.5787 26.7594 62.5794 30.096 64.1985C33.3725 65.7892 38.7028 65.7892 41.9804 64.1985C45.3176 62.5787 50.746 62.5794 54.0827 64.1985C57.3591 65.7892 62.6906 65.7892 65.9665 64.1985C69.3026 62.5787 74.7316 62.5787 78.0682 64.1985C81.3441 65.7892 86.6739 65.7892 89.9504 64.1985C93.2864 62.5794 98.7149 62.5787 102.051 64.1985C105.328 65.7892 110.659 65.7892 113.935 64.1985C117.272 62.5787 122.7 62.5787 126.037 64.1985C129.314 65.7892 134.644 65.7892 137.92 64.1985C141.256 62.5794 146.685 62.5787 150.021 64.1985C153.297 65.7892 158.627 65.7892 161.904 64.1985C165.24 62.5794 170.668 62.5787 174.005 64.1985L180 67.1102L179.891 67.4157Z" fill="#937DE2"/>
<path fill-rule="evenodd" clip-rule="evenodd" d="M179.891 61.8439L173.896 58.9329C170.619 57.3409 165.289 57.3409 162.013 58.9329C158.676 60.5527 153.248 60.5527 149.911 58.9329C146.635 57.3409 141.305 57.3409 138.029 58.9329C134.693 60.552 129.265 60.5527 125.928 58.9329C122.652 57.3409 117.321 57.3409 114.044 58.9329C110.709 60.5527 105.279 60.5527 101.942 58.9329C98.6661 57.3409 93.3352 57.3409 90.0593 58.9329C86.7232 60.5527 81.2953 60.5527 77.9593 58.9329C74.6828 57.3409 69.3519 57.3409 66.076 58.9329C62.7399 60.5527 57.3104 60.5527 53.9737 58.9329C50.6973 57.3409 45.3664 57.3409 42.0893 58.9329C38.7521 60.5527 33.3231 60.5527 29.9865 58.9329C26.7106 57.3409 21.3785 57.3409 18.1015 58.9329C14.7643 60.5527 9.33471 60.5527 5.99752 58.9329L0 56.0207L0.108932 55.7152L6.10702 58.6275C9.3835 60.2182 14.7155 60.2182 17.9926 58.6275C21.3298 57.0077 26.7594 57.0084 30.096 58.6275C33.3725 60.2182 38.7028 60.2182 41.9804 58.6275C45.3176 57.0077 50.746 57.0084 54.0827 58.6275C57.3591 60.2182 62.6906 60.2182 65.9665 58.6275C69.3026 57.0071 74.7316 57.0077 78.0682 58.6275C81.3441 60.2182 86.6739 60.2182 89.9504 58.6275C93.2864 57.0077 98.7149 57.0071 102.051 58.6275C105.328 60.2182 110.659 60.2182 113.935 58.6275C117.272 57.0071 122.7 57.0077 126.037 58.6275C129.314 60.2182 134.644 60.2182 137.92 58.6275C141.256 57.0077 146.685 57.0071 150.021 58.6275C153.297 60.2182 158.627 60.2182 161.904 58.6275C165.24 57.0077 170.668 57.0071 174.005 58.6275L180 61.5384L179.891 61.8439Z" fill="#937DE2"/>
<path fill-rule="evenodd" clip-rule="evenodd" d="M179.891 56.2722L173.896 53.3606C170.619 51.7686 165.289 51.7686 162.013 53.3606C158.676 54.9804 153.248 54.9804 149.911 53.3606C146.635 51.7686 141.305 51.7686 138.029 53.3606C134.693 54.9797 129.265 54.9804 125.928 53.3606C122.652 51.7686 117.321 51.7686 114.044 53.3606C110.709 54.9804 105.279 54.9804 101.942 53.3606C98.6661 51.7686 93.3352 51.7693 90.0593 53.3606C86.7232 54.9804 81.2953 54.9804 77.9593 53.3606C74.6828 51.7686 69.3519 51.7686 66.076 53.3606C62.7399 54.9804 57.3104 54.9804 53.9737 53.3606C50.6973 51.7686 45.3664 51.7686 42.0893 53.3606C38.7521 54.9804 33.3231 54.9804 29.9865 53.3606C26.7106 51.7686 21.3785 51.7693 18.1015 53.3606C14.7643 54.9804 9.33471 54.9804 5.99752 53.3606L0 50.449L0.108932 50.1436L6.10702 53.0552C9.3835 54.6458 14.7155 54.6458 17.9926 53.0552C21.3298 51.4354 26.7594 51.4361 30.096 53.0552C33.3725 54.6465 38.7028 54.6458 41.9804 53.0552C45.3176 51.4354 50.746 51.4361 54.0827 53.0552C57.3591 54.6465 62.6906 54.6458 65.9665 53.0552C69.3026 51.4347 74.7316 51.4354 78.0682 53.0552C81.3441 54.6458 86.6739 54.6458 89.9504 53.0552C93.2864 51.4361 98.7149 51.4354 102.051 53.0552C105.328 54.6465 110.659 54.6458 113.935 53.0552C117.272 51.4347 122.7 51.4354 126.037 53.0552C129.314 54.6458 134.644 54.6458 137.92 53.0552C141.256 51.4361 146.685 51.4354 150.021 53.0552C153.297 54.6458 158.627 54.6458 161.904 53.0552C165.24 51.4361 170.668 51.4354 174.005 53.0552L180 55.9668L179.891 56.2722Z" fill="#937DE2"/>
<path fill-rule="evenodd" clip-rule="evenodd" d="M179.891 50.701L173.896 47.7894C170.619 46.1981 165.289 46.1981 162.013 47.7894C158.676 49.4092 153.248 49.4092 149.911 47.7894C146.635 46.1981 141.305 46.1981 138.029 47.7894C134.693 49.4092 129.265 49.4092 125.928 47.7894C122.652 46.1981 117.321 46.1981 114.044 47.7894C110.709 49.4099 105.279 49.4092 101.942 47.7894C98.6661 46.1981 93.3352 46.1981 90.0593 47.7894C86.7232 49.4092 81.2953 49.4092 77.9593 47.7894C74.6828 46.1981 69.3519 46.1981 66.076 47.7894C62.7394 49.4099 57.3098 49.4092 53.9737 47.7894C50.6967 46.1981 45.3664 46.1981 42.0893 47.7894C38.7527 49.4099 33.3242 49.4092 29.9865 47.7894C26.71 46.1981 21.378 46.1981 18.1015 47.7894C14.7643 49.4092 9.33471 49.4092 5.99752 47.7894L0 44.8778L0.108932 44.5724L6.10702 47.484C9.3835 49.0753 14.7155 49.0753 17.9926 47.484C21.3292 45.8642 26.7594 45.8642 30.096 47.484C33.3719 49.0753 38.7033 49.0753 41.9804 47.484C45.3176 45.8642 50.746 45.8642 54.0827 47.484C57.3597 49.0753 62.6912 49.0753 65.9665 47.484C69.3031 45.8642 74.7316 45.8642 78.0682 47.484C81.3441 49.0753 86.6739 49.0753 89.9504 47.484C93.2864 45.8656 98.7149 45.8642 102.051 47.484C105.329 49.0753 110.66 49.0753 113.935 47.484C117.272 45.8642 122.7 45.8642 126.037 47.484C129.314 49.0753 134.644 49.0753 137.92 47.484C141.256 45.8649 146.685 45.8642 150.021 47.484C153.297 49.0753 158.627 49.0753 161.904 47.484C165.24 45.8649 170.668 45.8642 174.005 47.484L180 50.3956L179.891 50.701Z" fill="#937DE2"/>
<path fill-rule="evenodd" clip-rule="evenodd" d="M179.891 45.1294L173.896 42.2184C170.619 40.6271 165.289 40.6271 162.013 42.2184C158.676 43.8382 153.248 43.8382 149.911 42.2184C146.635 40.6271 141.305 40.6271 138.029 42.2184C134.693 43.8375 129.265 43.8382 125.928 42.2184C122.652 40.6264 117.321 40.6271 114.044 42.2184C110.709 43.8389 105.279 43.8382 101.942 42.2184C98.6661 40.6271 93.3352 40.6271 90.0593 42.2184C86.7232 43.8375 81.2953 43.8382 77.9593 42.2184C74.6828 40.6264 69.3519 40.6271 66.076 42.2184C62.7394 43.8382 57.3098 43.8375 53.9737 42.2184C50.6967 40.6264 45.3664 40.6271 42.0893 42.2184C38.7527 43.8389 33.3242 43.8382 29.9865 42.2184C26.71 40.6264 21.378 40.6271 18.1015 42.2184C14.7643 43.8382 9.33471 43.8382 5.99752 42.2184L0 39.3062L0.108932 39.0007L6.10702 41.913C9.3835 43.5043 14.7155 43.5043 17.9926 41.913C21.3292 40.2932 26.7594 40.2932 30.096 41.913C33.3719 43.5043 38.7033 43.5043 41.9804 41.913C45.3176 40.2932 50.746 40.2932 54.0827 41.913C57.3597 43.5043 62.6912 43.5037 65.9665 41.913C69.3031 40.2932 74.7316 40.2932 78.0682 41.913C81.3441 43.5037 86.6739 43.5043 89.9504 41.913C93.2864 40.2939 98.7149 40.2932 102.051 41.913C105.329 43.5043 110.66 43.5037 113.935 41.913C117.272 40.2932 122.7 40.2932 126.037 41.913C129.314 43.5043 134.644 43.5043 137.92 41.913C141.256 40.2932 146.685 40.2932 150.021 41.913C153.297 43.5043 158.627 43.5043 161.904 41.913C165.24 40.2932 170.668 40.2932 174.005 41.913L180 44.824L179.891 45.1294Z" fill="#937DE2"/>
<path fill-rule="evenodd" clip-rule="evenodd" d="M180.109 40.115L186.104 37.204C189.381 35.6127 194.711 35.6127 197.987 37.204C201.324 38.8238 206.752 38.8238 210.089 37.204C213.365 35.6127 218.695 35.6127 221.971 37.204C225.307 38.8231 230.735 38.8238 234.072 37.204C237.348 35.612 242.679 35.6127 245.956 37.204C249.291 38.8238 254.721 38.8238 258.058 37.204C261.334 35.6127 266.665 35.6127 269.941 37.204C273.277 38.8231 278.705 38.8238 282.041 37.204C285.317 35.612 290.648 35.6127 293.924 37.204C297.261 38.8238 302.69 38.8231 306.026 37.204C309.303 35.612 314.634 35.6127 317.911 37.204C321.247 38.8238 326.676 38.8238 330.014 37.204C333.29 35.612 338.622 35.6127 341.899 37.204C345.236 38.8238 350.665 38.8238 354.002 37.204L360 34.2918L359.891 33.9863L353.893 36.8986C350.616 38.4899 345.284 38.4899 342.007 36.8986C338.671 35.2788 333.241 35.2788 329.904 36.8986C326.628 38.4899 321.297 38.4899 318.02 36.8986C314.682 35.2788 309.254 35.2788 305.917 36.8986C302.64 38.4899 297.309 38.4893 294.033 36.8986C290.697 35.2788 285.268 35.2788 281.932 36.8986C278.656 38.4893 273.326 38.4899 270.05 36.8986C266.714 35.2795 261.285 35.2788 257.949 36.8986C254.671 38.4899 249.34 38.4893 246.065 36.8986C242.728 35.2788 237.3 35.2788 233.963 36.8986C230.686 38.4899 225.356 38.4899 222.08 36.8986C218.744 35.2788 213.315 35.2788 209.979 36.8986C206.703 38.4899 201.373 38.4899 198.096 36.8986C194.76 35.2788 189.332 35.2788 185.995 36.8986L180 39.8095L180.109 40.115Z" fill="#937DE2"/>
<path fill-rule="evenodd" clip-rule="evenodd" d="M180.109 34.5436L186.104 31.632C189.381 30.0406 194.711 30.0406 197.987 31.632C201.324 33.2517 206.752 33.2517 210.089 31.632C213.365 30.0406 218.695 30.0406 221.971 31.632C225.307 33.2517 230.735 33.2524 234.072 31.632C237.348 30.0406 242.679 30.0413 245.956 31.632C249.291 33.2524 254.721 33.2517 258.058 31.632C261.334 30.0406 266.665 30.0406 269.941 31.632C273.277 33.2517 278.705 33.2524 282.041 31.632C285.317 30.0406 290.648 30.0413 293.924 31.632C297.261 33.2524 302.69 33.2517 306.026 31.632C309.303 30.0406 314.634 30.0413 317.911 31.632C321.247 33.2524 326.676 33.2517 330.014 31.632C333.29 30.0406 338.622 30.0413 341.899 31.632C345.236 33.2517 350.665 33.2517 354.002 31.632L360 28.7204L359.891 28.4149L353.893 31.3265C350.616 32.9179 345.284 32.9179 342.007 31.3265C338.671 29.7068 333.241 29.7068 329.904 31.3265C326.628 32.9179 321.297 32.9179 318.02 31.3265C314.682 29.7068 309.254 29.7068 305.917 31.3265C302.64 32.9185 297.309 32.9179 294.033 31.3265C290.697 29.7068 285.268 29.7068 281.932 31.3265C278.656 32.9179 273.326 32.9185 270.05 31.3265C266.714 29.7074 261.285 29.7068 257.949 31.3265C254.671 32.9185 249.34 32.9179 246.065 31.3265C242.728 29.7068 237.3 29.7068 233.963 31.3265C230.686 32.9179 225.356 32.9179 222.08 31.3265C218.744 29.7068 213.315 29.7068 209.979 31.3265C206.703 32.9179 201.373 32.9179 198.096 31.3265C194.76 29.7068 189.332 29.7068 185.995 31.3265L180 34.2381L180.109 34.5436Z" fill="#937DE2"/>
<path fill-rule="evenodd" clip-rule="evenodd" d="M180.109 28.9718L186.104 26.0609C189.381 24.4695 194.711 24.4695 197.987 26.0609C201.324 27.6806 206.752 27.6806 210.089 26.0609C213.365 24.4695 218.695 24.4695 221.971 26.0609C225.307 27.6806 230.735 27.6806 234.072 26.0609C237.348 24.4689 242.679 24.4695 245.956 26.0609C249.291 27.6806 254.721 27.6806 258.058 26.0609C261.334 24.4695 266.665 24.4695 269.941 26.0609C273.277 27.6806 278.705 27.6806 282.041 26.0609C285.317 24.4689 290.648 24.4695 293.924 26.0609C297.261 27.6806 302.69 27.68 306.026 26.0609C309.303 24.4689 314.634 24.4695 317.911 26.0609C321.247 27.6806 326.676 27.6806 330.014 26.0609C333.29 24.4689 338.622 24.4695 341.899 26.0609C345.236 27.6806 350.665 27.6806 354.002 26.0609L360 23.1486L359.891 22.8431L353.893 25.7554C350.616 27.3467 345.284 27.3467 342.007 25.7554C338.671 24.1356 333.241 24.1356 329.904 25.7554C326.628 27.3467 321.297 27.3467 318.02 25.7554C314.682 24.1356 309.254 24.1356 305.917 25.7554C302.64 27.3467 297.309 27.3461 294.033 25.7554C290.697 24.1356 285.268 24.1356 281.932 25.7554C278.656 27.3461 273.326 27.3467 270.05 25.7554C266.714 24.1363 261.285 24.1356 257.949 25.7554C254.671 27.3467 249.34 27.3461 246.065 25.7554C242.728 24.1356 237.3 24.1356 233.963 25.7554C230.686 27.3467 225.356 27.3467 222.08 25.7554C218.744 24.1356 213.315 24.1356 209.979 25.7554C206.703 27.3467 201.373 27.3467 198.096 25.7554C194.76 24.1356 189.332 24.1356 185.995 25.7554L180 28.6664L180.109 28.9718Z" fill="#937DE2"/>
<path fill-rule="evenodd" clip-rule="evenodd" d="M180.109 22.8431L186.104 19.9315C189.381 18.3402 194.711 18.3402 197.987 19.9315C201.324 21.5513 206.752 21.5513 210.089 19.9315C213.365 18.3402 218.695 18.3402 221.971 19.9315C225.307 21.5506 230.735 21.5513 234.072 19.9315C237.348 18.3402 242.679 18.3402 245.956 19.9315C249.291 21.5513 254.721 21.5513 258.058 19.9315C261.334 18.3402 266.665 18.3402 269.941 19.9315C273.277 21.5513 278.705 21.5513 282.041 19.9315C285.317 18.3402 290.648 18.3402 293.924 19.9315C297.26 21.5513 302.69 21.5513 306.026 19.9315C309.303 18.3402 314.634 18.3402 317.911 19.9315C321.248 21.5513 326.677 21.5513 330.014 19.9315C333.29 18.3402 338.622 18.3409 341.899 19.9315C345.236 21.5513 350.665 21.5513 354.002 19.9315L360 17.0199L359.891 16.7145L353.893 19.6261C350.616 21.2168 345.284 21.2168 342.007 19.6261C338.671 18.0063 333.241 18.0063 329.904 19.6261C326.628 21.2168 321.297 21.2168 318.02 19.6261C314.683 18.0063 309.254 18.0063 305.917 19.6261C302.64 21.2168 297.309 21.2168 294.033 19.6261C290.697 18.0063 285.268 18.0063 281.932 19.6261C278.656 21.2168 273.326 21.2168 270.05 19.6261C266.714 18.007 261.285 18.0063 257.949 19.6261C254.671 21.2168 249.34 21.2168 246.065 19.6261C242.728 18.0063 237.3 18.0063 233.963 19.6261C230.686 21.2168 225.356 21.2168 222.08 19.6261C218.744 18.0063 213.315 18.0063 209.979 19.6261C206.703 21.2168 201.373 21.2168 198.096 19.6261C194.76 18.0063 189.332 18.0063 185.995 19.6261L180 22.5377L180.109 22.8431Z" fill="#937DE2"/>
<path fill-rule="evenodd" clip-rule="evenodd" d="M180.109 17.2716L186.104 14.3607C189.381 12.7687 194.711 12.7687 197.987 14.3607C201.324 15.9804 206.752 15.9804 210.089 14.3607C213.365 12.7687 218.695 12.7687 221.971 14.3607C225.307 15.9798 230.735 15.9804 234.072 14.3607C237.348 12.7687 242.679 12.7687 245.956 14.3607C249.291 15.9804 254.721 15.9804 258.058 14.3607C261.334 12.7687 266.665 12.7687 269.941 14.3607C273.277 15.9804 278.705 15.9804 282.041 14.3607C285.317 12.7687 290.648 12.7687 293.924 14.3607C297.26 15.9804 302.69 15.9804 306.026 14.3607C309.303 12.7687 314.634 12.7687 317.911 14.3607C321.248 15.9804 326.677 15.9804 330.014 14.3607C333.289 12.7687 338.621 12.7687 341.899 14.3607C345.236 15.9804 350.665 15.9804 354.002 14.3607L360 11.4484L359.891 11.1429L353.893 14.0552C350.616 15.6459 345.284 15.6459 342.007 14.0552C338.67 12.4355 333.241 12.4355 329.904 14.0552C326.628 15.6459 321.297 15.6452 318.02 14.0552C314.682 12.4355 309.254 12.4355 305.917 14.0552C302.641 15.6459 297.309 15.6452 294.033 14.0552C290.697 12.4348 285.268 12.4355 281.932 14.0552C278.656 15.6459 273.326 15.6459 270.05 14.0552C266.714 12.4355 261.285 12.4355 257.949 14.0552C254.672 15.6459 249.341 15.6452 246.065 14.0552C242.728 12.4348 237.3 12.4355 233.963 14.0552C230.686 15.6459 225.356 15.6459 222.08 14.0552C218.744 12.4355 213.315 12.4355 209.979 14.0552C206.703 15.6459 201.373 15.6459 198.096 14.0552C194.76 12.4355 189.332 12.4355 185.995 14.0552L180 16.9662L180.109 17.2716Z" fill="#937DE2"/>
<path fill-rule="evenodd" clip-rule="evenodd" d="M180.109 11.6999L186.104 8.78834C189.381 7.19634 194.711 7.19634 197.987 8.78834C201.324 10.4081 206.752 10.4081 210.089 8.78834C213.365 7.19634 218.695 7.19634 221.971 8.78834C225.307 10.4074 230.735 10.4081 234.072 8.78834C237.348 7.19634 242.679 7.19634 245.956 8.78834C249.291 10.4081 254.721 10.4081 258.058 8.78834C261.334 7.19634 266.665 7.19634 269.941 8.78834C273.277 10.4081 278.705 10.4081 282.041 8.78834C285.317 7.19634 290.648 7.19634 293.924 8.78834C297.26 10.4081 302.69 10.4081 306.026 8.78834C309.303 7.19634 314.634 7.19634 317.911 8.78834C321.248 10.4081 326.677 10.4081 330.014 8.78834C333.289 7.19634 338.621 7.19634 341.899 8.78834C345.236 10.4081 350.665 10.4081 354.002 8.78834L360 5.87673L359.891 5.57129L353.893 8.4829C350.616 10.0736 345.284 10.0736 342.007 8.4829C338.67 6.86313 333.241 6.8638 329.904 8.4829C326.628 10.0736 321.297 10.0736 318.02 8.4829C314.682 6.86313 309.254 6.8638 305.917 8.4829C302.641 10.0736 297.309 10.0736 294.033 8.4829C290.697 6.86313 285.268 6.86313 281.932 8.4829C278.656 10.0736 273.326 10.0736 270.05 8.4829C266.714 6.8638 261.285 6.86313 257.949 8.4829C254.672 10.0736 249.341 10.0736 246.065 8.4829C242.728 6.86313 237.3 6.86313 233.963 8.4829C230.686 10.0736 225.356 10.0736 222.08 8.4829C218.744 6.8638 213.315 6.86313 209.979 8.4829C206.703 10.0736 201.373 10.0736 198.096 8.4829C194.76 6.8638 189.332 6.86313 185.995 8.4829L180 11.3945L180.109 11.6999Z" fill="#937DE2"/>
<path fill-rule="evenodd" clip-rule="evenodd" d="M180.109 6.12866L186.104 3.21771C189.381 1.62571 194.711 1.62571 197.987 3.21771C201.324 4.83748 206.752 4.83748 210.089 3.21771C213.365 1.62571 218.695 1.62571 221.971 3.21771C225.307 4.83681 230.735 4.83748 234.072 3.21771C237.348 1.62571 242.679 1.62571 245.956 3.21771C249.291 4.83748 254.721 4.83748 258.058 3.21771C261.334 1.62571 266.665 1.62571 269.941 3.21771C273.277 4.83748 278.705 4.83748 282.041 3.21771C285.317 1.62571 290.648 1.62571 293.924 3.21771C297.26 4.83748 302.69 4.83748 306.026 3.21771C309.303 1.62571 314.634 1.62571 317.911 3.21771C321.248 4.83748 326.677 4.83748 330.014 3.21771C333.289 1.62571 338.621 1.62571 341.899 3.21771C345.236 4.83748 350.665 4.83748 354.002 3.21771L360 0.305441L359.891 0L353.893 2.91227C350.616 4.50295 345.284 4.50295 342.007 2.91227C338.67 1.29251 333.241 1.29317 329.904 2.91227C326.628 4.50295 321.297 4.50295 318.02 2.91227C314.682 1.29251 309.254 1.29317 305.917 2.91227C302.641 4.50295 297.309 4.50295 294.033 2.91227C290.697 1.29184 285.268 1.29251 281.932 2.91227C278.656 4.50295 273.326 4.50295 270.05 2.91227C266.714 1.29251 261.285 1.29184 257.949 2.91227C254.672 4.50295 249.341 4.50295 246.065 2.91227C242.728 1.29184 237.3 1.29251 233.963 2.91227C230.686 4.50295 225.356 4.50295 222.08 2.91227C218.744 1.29251 213.315 1.29184 209.979 2.91227C206.703 4.50295 201.373 4.50295 198.096 2.91227C194.76 1.29251 189.332 1.29184 185.995 2.91227L180 5.82322L180.109 6.12866Z" fill="#937DE2"/>
<path fill-rule="evenodd" clip-rule="evenodd" d="M180.109 95.8304L186.104 92.9195C189.381 91.3282 194.711 91.3282 197.987 92.9195C201.324 94.5393 206.752 94.5393 210.089 92.9195C213.365 91.3282 218.695 91.3282 221.971 92.9195C225.307 94.5386 230.735 94.5393 234.072 92.9195C237.348 91.3275 242.679 91.3282 245.956 92.9195C249.291 94.5393 254.721 94.5393 258.058 92.9195C261.334 91.3282 266.665 91.3282 269.941 92.9195C273.277 94.5386 278.705 94.5393 282.041 92.9195C285.317 91.3275 290.648 91.3282 293.924 92.9195C297.261 94.5393 302.69 94.5386 306.026 92.9195C309.303 91.3275 314.634 91.3282 317.911 92.9195C321.247 94.5393 326.676 94.5393 330.014 92.9195C333.29 91.3275 338.622 91.3282 341.899 92.9195C345.236 94.5393 350.665 94.5393 354.002 92.9195L360 90.0072L359.891 89.7018L353.893 92.6141C350.616 94.2054 345.284 94.2054 342.007 92.6141C338.671 90.9943 333.241 90.9943 329.904 92.6141C326.628 94.2054 321.297 94.2054 318.02 92.6141C314.682 90.9943 309.254 90.9943 305.917 92.6141C302.64 94.2054 297.309 94.2047 294.033 92.6141C290.697 90.9943 285.268 90.9943 281.932 92.6141C278.656 94.2047 273.326 94.2054 270.05 92.6141C266.714 90.9949 261.285 90.9943 257.949 92.6141C254.671 94.2054 249.34 94.2047 246.065 92.6141C242.728 90.9943 237.3 90.9943 233.963 92.6141C230.686 94.2054 225.356 94.2054 222.08 92.6141C218.744 90.9943 213.315 90.9943 209.979 92.6141C206.703 94.2054 201.373 94.2054 198.096 92.6141C194.76 90.9943 189.332 90.9943 185.995 92.6141L180 95.525L180.109 95.8304Z" fill="#937DE2"/>
<path fill-rule="evenodd" clip-rule="evenodd" d="M180.109 90.2587L186.104 87.3471C189.381 85.7557 194.711 85.7557 197.987 87.3471C201.324 88.9668 206.752 88.9668 210.089 87.3471C213.365 85.7557 218.695 85.7557 221.971 87.3471C225.307 88.9668 230.735 88.9675 234.072 87.3471C237.348 85.7557 242.679 85.7564 245.956 87.3471C249.291 88.9675 254.721 88.9668 258.058 87.3471C261.334 85.7557 266.665 85.7557 269.941 87.3471C273.277 88.9668 278.705 88.9675 282.041 87.3471C285.317 85.7557 290.648 85.7564 293.924 87.3471C297.261 88.9675 302.69 88.9668 306.026 87.3471C309.303 85.7557 314.634 85.7564 317.911 87.3471C321.247 88.9675 326.676 88.9668 330.014 87.3471C333.29 85.7557 338.622 85.7564 341.899 87.3471C345.236 88.9668 350.665 88.9668 354.002 87.3471L360 84.4354L359.891 84.13L353.893 87.0416C350.616 88.633 345.284 88.633 342.007 87.0416C338.671 85.4218 333.241 85.4218 329.904 87.0416C326.628 88.633 321.297 88.633 318.02 87.0416C314.682 85.4218 309.254 85.4218 305.917 87.0416C302.64 88.6336 297.309 88.633 294.033 87.0416C290.697 85.4218 285.268 85.4218 281.932 87.0416C278.656 88.633 273.326 88.6336 270.05 87.0416C266.714 85.4225 261.285 85.4218 257.949 87.0416C254.671 88.6336 249.34 88.633 246.065 87.0416C242.728 85.4218 237.3 85.4218 233.963 87.0416C230.686 88.633 225.356 88.633 222.08 87.0416C218.744 85.4218 213.315 85.4218 209.979 87.0416C206.703 88.633 201.373 88.633 198.096 87.0416C194.76 85.4218 189.332 85.4218 185.995 87.0416L180 89.9532L180.109 90.2587Z" fill="#937DE2"/>
<path fill-rule="evenodd" clip-rule="evenodd" d="M180.109 84.6874L186.104 81.7764C189.381 80.1851 194.711 80.1851 197.987 81.7764C201.324 83.3962 206.752 83.3962 210.089 81.7764C213.365 80.1851 218.695 80.1851 221.971 81.7764C225.307 83.3962 230.735 83.3962 234.072 81.7764C237.348 80.1844 242.679 80.1851 245.956 81.7764C249.291 83.3962 254.721 83.3962 258.058 81.7764C261.334 80.1851 266.665 80.1851 269.941 81.7764C273.277 83.3962 278.705 83.3962 282.041 81.7764C285.317 80.1844 290.648 80.1851 293.924 81.7764C297.261 83.3962 302.69 83.3955 306.026 81.7764C309.303 80.1844 314.634 80.1851 317.911 81.7764C321.247 83.3962 326.676 83.3962 330.014 81.7764C333.29 80.1844 338.622 80.1851 341.899 81.7764C345.236 83.3962 350.665 83.3962 354.002 81.7764L360 78.8642L359.891 78.5587L353.893 81.471C350.616 83.0623 345.284 83.0623 342.007 81.471C338.671 79.8512 333.241 79.8512 329.904 81.471C326.628 83.0623 321.297 83.0623 318.02 81.471C314.682 79.8512 309.254 79.8512 305.917 81.471C302.64 83.0623 297.309 83.0617 294.033 81.471C290.697 79.8512 285.268 79.8512 281.932 81.471C278.656 83.0617 273.326 83.0623 270.05 81.471C266.714 79.8519 261.285 79.8512 257.949 81.471C254.671 83.0623 249.34 83.0617 246.065 81.471C242.728 79.8512 237.3 79.8512 233.963 81.471C230.686 83.0623 225.356 83.0623 222.08 81.471C218.744 79.8512 213.315 79.8512 209.979 81.471C206.703 83.0623 201.373 83.0623 198.096 81.471C194.76 79.8512 189.332 79.8512 185.995 81.471L180 84.3819L180.109 84.6874Z" fill="#937DE2"/>
<path fill-rule="evenodd" clip-rule="evenodd" d="M180.109 78.5588L186.104 75.6472C189.381 74.0559 194.711 74.0559 197.987 75.6472C201.324 77.267 206.752 77.267 210.089 75.6472C213.365 74.0559 218.695 74.0559 221.971 75.6472C225.307 77.2663 230.735 77.267 234.072 75.6472C237.348 74.0559 242.679 74.0559 245.956 75.6472C249.291 77.267 254.721 77.267 258.058 75.6472C261.334 74.0559 266.665 74.0559 269.941 75.6472C273.277 77.267 278.705 77.267 282.041 75.6472C285.317 74.0559 290.648 74.0559 293.924 75.6472C297.26 77.267 302.69 77.267 306.026 75.6472C309.303 74.0559 314.634 74.0559 317.911 75.6472C321.248 77.267 326.677 77.267 330.014 75.6472C333.29 74.0559 338.622 74.0566 341.899 75.6472C345.236 77.267 350.665 77.267 354.002 75.6472L360 72.7356L359.891 72.4302L353.893 75.3418C350.616 76.9325 345.284 76.9325 342.007 75.3418C338.671 73.722 333.241 73.722 329.904 75.3418C326.628 76.9325 321.297 76.9325 318.02 75.3418C314.683 73.722 309.254 73.722 305.917 75.3418C302.64 76.9325 297.309 76.9325 294.033 75.3418C290.697 73.722 285.268 73.722 281.932 75.3418C278.656 76.9325 273.326 76.9325 270.05 75.3418C266.714 73.7227 261.285 73.722 257.949 75.3418C254.671 76.9325 249.34 76.9325 246.065 75.3418C242.728 73.722 237.3 73.722 233.963 75.3418C230.686 76.9325 225.356 76.9325 222.08 75.3418C218.744 73.722 213.315 73.722 209.979 75.3418C206.703 76.9325 201.373 76.9325 198.096 75.3418C194.76 73.722 189.332 73.722 185.995 75.3418L180 78.2534L180.109 78.5588Z" fill="#937DE2"/>
<path fill-rule="evenodd" clip-rule="evenodd" d="M180.109 72.9869L186.104 70.076C189.381 68.484 194.711 68.484 197.987 70.076C201.324 71.6958 206.752 71.6958 210.089 70.076C213.365 68.484 218.695 68.484 221.971 70.076C225.307 71.6951 230.735 71.6958 234.072 70.076C237.348 68.484 242.679 68.484 245.956 70.076C249.291 71.6958 254.721 71.6958 258.058 70.076C261.334 68.484 266.665 68.484 269.941 70.076C273.277 71.6958 278.705 71.6958 282.041 70.076C285.317 68.484 290.648 68.484 293.924 70.076C297.26 71.6958 302.69 71.6958 306.026 70.076C309.303 68.484 314.634 68.484 317.911 70.076C321.248 71.6958 326.677 71.6958 330.014 70.076C333.289 68.484 338.621 68.484 341.899 70.076C345.236 71.6958 350.665 71.6958 354.002 70.076L360 67.1637L359.891 66.8583L353.893 69.7705C350.616 71.3612 345.284 71.3612 342.007 69.7705C338.67 68.1508 333.241 68.1508 329.904 69.7705C326.628 71.3612 321.297 71.3606 318.02 69.7705C314.682 68.1508 309.254 68.1508 305.917 69.7705C302.641 71.3612 297.309 71.3606 294.033 69.7705C290.697 68.1501 285.268 68.1508 281.932 69.7705C278.656 71.3612 273.326 71.3612 270.05 69.7705C266.714 68.1508 261.285 68.1508 257.949 69.7705C254.672 71.3612 249.341 71.3606 246.065 69.7705C242.728 68.1501 237.3 68.1508 233.963 69.7705C230.686 71.3612 225.356 71.3612 222.08 69.7705C218.744 68.1508 213.315 68.1508 209.979 69.7705C206.703 71.3612 201.373 71.3612 198.096 69.7705C194.76 68.1508 189.332 68.1508 185.995 69.7705L180 72.6815L180.109 72.9869Z" fill="#937DE2"/>
<path fill-rule="evenodd" clip-rule="evenodd" d="M180.109 67.4157L186.104 64.504C189.381 62.912 194.711 62.912 197.987 64.504C201.324 66.1238 206.752 66.1238 210.089 64.504C213.365 62.912 218.695 62.912 221.971 64.504C225.307 66.1231 230.735 66.1238 234.072 64.504C237.348 62.912 242.679 62.912 245.956 64.504C249.291 66.1238 254.721 66.1238 258.058 64.504C261.334 62.912 266.665 62.912 269.941 64.504C273.277 66.1238 278.705 66.1238 282.041 64.504C285.317 62.912 290.648 62.912 293.924 64.504C297.26 66.1238 302.69 66.1238 306.026 64.504C309.303 62.912 314.634 62.912 317.911 64.504C321.248 66.1238 326.677 66.1238 330.014 64.504C333.289 62.912 338.621 62.912 341.899 64.504C345.236 66.1238 350.665 66.1238 354.002 64.504L360 61.5923L359.891 61.2869L353.893 64.1985C350.616 65.7892 345.284 65.7892 342.007 64.1985C338.67 62.5787 333.241 62.5794 329.904 64.1985C326.628 65.7892 321.297 65.7892 318.02 64.1985C314.682 62.5787 309.254 62.5794 305.917 64.1985C302.641 65.7892 297.309 65.7892 294.033 64.1985C290.697 62.5787 285.268 62.5787 281.932 64.1985C278.656 65.7892 273.326 65.7892 270.05 64.1985C266.714 62.5794 261.285 62.5787 257.949 64.1985C254.672 65.7892 249.341 65.7892 246.065 64.1985C242.728 62.5787 237.3 62.5787 233.963 64.1985C230.686 65.7892 225.356 65.7892 222.08 64.1985C218.744 62.5794 213.315 62.5787 209.979 64.1985C206.703 65.7892 201.373 65.7892 198.096 64.1985C194.76 62.5794 189.332 62.5787 185.995 64.1985L180 67.1102L180.109 67.4157Z" fill="#937DE2"/>
<path fill-rule="evenodd" clip-rule="evenodd" d="M180.109 61.8439L186.104 58.9329C189.381 57.3409 194.711 57.3409 197.987 58.9329C201.324 60.5527 206.752 60.5527 210.089 58.9329C213.365 57.3409 218.695 57.3409 221.971 58.9329C225.307 60.552 230.735 60.5527 234.072 58.9329C237.348 57.3409 242.679 57.3409 245.956 58.9329C249.291 60.5527 254.721 60.5527 258.058 58.9329C261.334 57.3409 266.665 57.3409 269.941 58.9329C273.277 60.5527 278.705 60.5527 282.041 58.9329C285.317 57.3409 290.648 57.3409 293.924 58.9329C297.26 60.5527 302.69 60.5527 306.026 58.9329C309.303 57.3409 314.634 57.3409 317.911 58.9329C321.248 60.5527 326.677 60.5527 330.014 58.9329C333.289 57.3409 338.621 57.3409 341.899 58.9329C345.236 60.5527 350.665 60.5527 354.002 58.9329L360 56.0207L359.891 55.7152L353.893 58.6275C350.616 60.2182 345.284 60.2182 342.007 58.6275C338.67 57.0077 333.241 57.0084 329.904 58.6275C326.628 60.2182 321.297 60.2182 318.02 58.6275C314.682 57.0077 309.254 57.0084 305.917 58.6275C302.641 60.2182 297.309 60.2182 294.033 58.6275C290.697 57.0071 285.268 57.0077 281.932 58.6275C278.656 60.2182 273.326 60.2182 270.05 58.6275C266.714 57.0077 261.285 57.0071 257.949 58.6275C254.672 60.2182 249.341 60.2182 246.065 58.6275C242.728 57.0071 237.3 57.0077 233.963 58.6275C230.686 60.2182 225.356 60.2182 222.08 58.6275C218.744 57.0077 213.315 57.0071 209.979 58.6275C206.703 60.2182 201.373 60.2182 198.096 58.6275C194.76 57.0077 189.332 57.0071 185.995 58.6275L180 61.5384L180.109 61.8439Z" fill="#937DE2"/>
<path fill-rule="evenodd" clip-rule="evenodd" d="M180.109 56.2722L186.104 53.3606C189.381 51.7686 194.711 51.7686 197.987 53.3606C201.324 54.9804 206.752 54.9804 210.089 53.3606C213.365 51.7686 218.695 51.7686 221.971 53.3606C225.307 54.9797 230.735 54.9804 234.072 53.3606C237.348 51.7686 242.679 51.7686 245.956 53.3606C249.291 54.9804 254.721 54.9804 258.058 53.3606C261.334 51.7686 266.665 51.7693 269.941 53.3606C273.277 54.9804 278.705 54.9804 282.041 53.3606C285.317 51.7686 290.648 51.7686 293.924 53.3606C297.26 54.9804 302.69 54.9804 306.026 53.3606C309.303 51.7686 314.634 51.7686 317.911 53.3606C321.248 54.9804 326.677 54.9804 330.014 53.3606C333.289 51.7686 338.621 51.7693 341.899 53.3606C345.236 54.9804 350.665 54.9804 354.002 53.3606L360 50.449L359.891 50.1436L353.893 53.0552C350.616 54.6458 345.284 54.6458 342.007 53.0552C338.67 51.4354 333.241 51.4361 329.904 53.0552C326.628 54.6465 321.297 54.6458 318.02 53.0552C314.682 51.4354 309.254 51.4361 305.917 53.0552C302.641 54.6465 297.309 54.6458 294.033 53.0552C290.697 51.4347 285.268 51.4354 281.932 53.0552C278.656 54.6458 273.326 54.6458 270.05 53.0552C266.714 51.4361 261.285 51.4354 257.949 53.0552C254.672 54.6465 249.341 54.6458 246.065 53.0552C242.728 51.4347 237.3 51.4354 233.963 53.0552C230.686 54.6458 225.356 54.6458 222.08 53.0552C218.744 51.4361 213.315 51.4354 209.979 53.0552C206.703 54.6458 201.373 54.6458 198.096 53.0552C194.76 51.4361 189.332 51.4354 185.995 53.0552L180 55.9668L180.109 56.2722Z" fill="#937DE2"/>
<path fill-rule="evenodd" clip-rule="evenodd" d="M180.109 50.701L186.104 47.7894C189.381 46.1981 194.711 46.1981 197.987 47.7894C201.324 49.4092 206.752 49.4092 210.089 47.7894C213.365 46.1981 218.695 46.1981 221.971 47.7894C225.307 49.4092 230.735 49.4092 234.072 47.7894C237.348 46.1981 242.679 46.1981 245.956 47.7894C249.291 49.4099 254.721 49.4092 258.058 47.7894C261.334 46.1981 266.665 46.1981 269.941 47.7894C273.277 49.4092 278.705 49.4092 282.041 47.7894C285.317 46.1981 290.648 46.1981 293.924 47.7894C297.261 49.4099 302.69 49.4092 306.026 47.7894C309.303 46.1981 314.634 46.1981 317.911 47.7894C321.247 49.4099 326.676 49.4092 330.014 47.7894C333.29 46.1981 338.622 46.1981 341.899 47.7894C345.236 49.4092 350.665 49.4092 354.002 47.7894L360 44.8778L359.891 44.5724L353.893 47.484C350.616 49.0753 345.284 49.0753 342.007 47.484C338.671 45.8642 333.241 45.8642 329.904 47.484C326.628 49.0753 321.297 49.0753 318.02 47.484C314.682 45.8642 309.254 45.8642 305.917 47.484C302.64 49.0753 297.309 49.0753 294.033 47.484C290.697 45.8642 285.268 45.8642 281.932 47.484C278.656 49.0753 273.326 49.0753 270.05 47.484C266.714 45.8656 261.285 45.8642 257.949 47.484C254.671 49.0753 249.34 49.0753 246.065 47.484C242.728 45.8642 237.3 45.8642 233.963 47.484C230.686 49.0753 225.356 49.0753 222.08 47.484C218.744 45.8649 213.315 45.8642 209.979 47.484C206.703 49.0753 201.373 49.0753 198.096 47.484C194.76 45.8649 189.332 45.8642 185.995 47.484L180 50.3956L180.109 50.701Z" fill="#937DE2"/>
<path fill-rule="evenodd" clip-rule="evenodd" d="M180.109 45.1294L186.104 42.2184C189.381 40.6271 194.711 40.6271 197.987 42.2184C201.324 43.8382 206.752 43.8382 210.089 42.2184C213.365 40.6271 218.695 40.6271 221.971 42.2184C225.307 43.8375 230.735 43.8382 234.072 42.2184C237.348 40.6264 242.679 40.6271 245.956 42.2184C249.291 43.8389 254.721 43.8382 258.058 42.2184C261.334 40.6271 266.665 40.6271 269.941 42.2184C273.277 43.8375 278.705 43.8382 282.041 42.2184C285.317 40.6264 290.648 40.6271 293.924 42.2184C297.261 43.8382 302.69 43.8375 306.026 42.2184C309.303 40.6264 314.634 40.6271 317.911 42.2184C321.247 43.8389 326.676 43.8382 330.014 42.2184C333.29 40.6264 338.622 40.6271 341.899 42.2184C345.236 43.8382 350.665 43.8382 354.002 42.2184L360 39.3062L359.891 39.0007L353.893 41.913C350.616 43.5043 345.284 43.5043 342.007 41.913C338.671 40.2932 333.241 40.2932 329.904 41.913C326.628 43.5043 321.297 43.5043 318.02 41.913C314.682 40.2932 309.254 40.2932 305.917 41.913C302.64 43.5043 297.309 43.5037 294.033 41.913C290.697 40.2932 285.268 40.2932 281.932 41.913C278.656 43.5037 273.326 43.5043 270.05 41.913C266.714 40.2939 261.285 40.2932 257.949 41.913C254.671 43.5043 249.34 43.5037 246.065 41.913C242.728 40.2932 237.3 40.2932 233.963 41.913C230.686 43.5043 225.356 43.5043 222.08 41.913C218.744 40.2932 213.315 40.2932 209.979 41.913C206.703 43.5043 201.373 43.5043 198.096 41.913C194.76 40.2932 189.332 40.2932 185.995 41.913L180 44.824L180.109 45.1294Z" fill="#937DE2"/>
</svg>
