<svg xmlns="http://www.w3.org/2000/svg" width="30" height="30" viewBox="0 0 30 30" fill="none">
  <path d="M8.33934 8.28171C8.34996 8.00361 8.56636 7.78067 8.83783 7.76815L22.575 7.06285C22.8509 7.04773 23.0921 7.2538 23.1278 7.5352L24.9683 22.7033C24.9853 22.8552 24.9405 23.0069 24.8446 23.1234C24.746 23.242 24.6028 23.3113 24.4508 23.3134L8.62012 24.1262C8.47302 24.1356 8.32814 24.0806 8.22217 23.975C8.1162 23.8693 8.05841 23.7228 8.06308 23.5713L8.33934 8.28171ZM23.8435 22.2561L22.1384 8.15293L9.38701 8.80761L9.13157 23.0114L23.8435 22.2561Z" fill="white"/>
  <path d="M18.7885 8.46852L17.5813 8.5305L17.6492 9.8519C17.6907 10.1279 17.964 10.3272 18.2782 10.3111C18.5925 10.2949 18.8433 10.0687 18.8569 9.78989L18.7885 8.46852Z" fill="white"/>
  <path d="M12.6832 7.45359L12.6892 7.57047L13.7815 7.51438L13.7761 7.40993C13.774 6.76506 14.1178 6.16379 14.6841 5.82053C15.2508 5.47725 15.96 5.44084 16.5589 5.72427C17.1578 6.00771 17.5609 6.57063 17.6249 7.21233L17.6302 7.31678L18.7273 7.26045L18.7219 7.156C18.6685 6.11469 18.0438 5.1816 17.0825 4.70916C16.1213 4.23671 14.9708 4.29532 14.0635 4.86416C13.1561 5.43301 12.6299 6.42473 12.6833 7.46604" fill="white"/>
  <path d="M13.959 8.71602L12.7513 8.77803L12.8175 10.069C12.8323 10.3563 13.1145 10.5757 13.4479 10.5586C13.7813 10.5415 14.0395 10.2948 14.0247 10.007L13.9585 8.71605L13.959 8.71602Z" fill="white"/>
  <path d="M12.1498 20.9171L20.6331 20.4816C20.7848 20.4812 20.9337 20.4453 21.0424 20.3824C21.1516 20.3195 21.2113 20.2353 21.2069 20.1507C21.2026 20.0661 21.1346 19.9885 21.0196 19.9371C20.9045 19.8857 20.7532 19.8649 20.6022 19.8801L12.119 20.3156C11.9672 20.316 11.8183 20.3522 11.7096 20.4151C11.6005 20.478 11.5408 20.5619 11.5451 20.6468C11.5495 20.7314 11.6175 20.809 11.7325 20.8604C11.847 20.9118 11.9984 20.9326 12.1498 20.9171Z" fill="white"/>
</svg>