<svg xmlns="http://www.w3.org/2000/svg" width="27" height="27" viewBox="0 0 27 27" fill="none">
  <path d="M6.32053 5.19101C6.31995 5.191 6.3193 5.19099 6.31872 5.19098C6.11524 5.18729 5.92245 5.26331 5.77538 5.40516C5.62669 5.54857 5.54278 5.7416 5.53913 5.94864L5.3352 17.5179C5.32772 17.9422 5.66738 18.2944 6.09244 18.3032C7.88441 18.34 10.8802 18.7687 12.9131 20.9784L13.1266 8.87086C13.1291 8.72705 13.0948 8.59129 13.0276 8.47823C11.376 5.70386 8.11656 5.22779 6.32053 5.19101Z" fill="white"/>
  <path d="M21.8036 17.8168L22.0076 6.24744C22.0112 6.04039 21.9342 5.84445 21.7906 5.69574C21.6487 5.54865 21.4585 5.46569 21.2553 5.462C21.2546 5.46199 21.254 5.46198 21.2534 5.46197C19.4573 5.43369 16.1831 5.7913 14.4347 8.50403C14.3636 8.61457 14.3246 8.74901 14.3221 8.89282L14.1087 21.0003C16.2182 18.8657 19.2272 18.5458 21.0193 18.5741C21.4443 18.5807 21.7962 18.2409 21.8036 17.8168Z" fill="white"/>
  <path d="M23.7251 8.1754L23.1669 8.16528L22.9964 17.838C22.9773 18.9212 22.0811 19.7886 20.9985 19.7716C19.4784 19.7477 16.9668 20.0001 15.1621 21.6515C18.2453 20.9539 21.4729 21.5022 23.3098 21.9569C23.5392 22.0136 23.7781 21.9636 23.9652 21.8196C24.1517 21.6759 24.261 21.4581 24.2652 21.2222L24.4813 8.96077C24.4889 8.53543 24.1496 8.1831 23.7251 8.1754Z" fill="white"/>
  <path d="M4.13795 17.4965L4.30845 7.82373L3.75022 7.81361C3.32587 7.80591 2.97437 8.14572 2.96687 8.57106L2.75074 20.8323C2.74658 21.0682 2.84818 21.2898 3.02944 21.4402C3.21121 21.5908 3.448 21.6496 3.67958 21.6011C5.53135 21.2133 8.77627 20.7824 11.8327 21.5913C10.0875 19.8756 7.58641 19.5324 6.06645 19.5012C4.98402 19.4789 4.11885 18.5797 4.13795 17.4965Z" fill="white"/>
</svg>