<svg width="22" height="19" viewBox="0 0 22 19" fill="none" xmlns="http://www.w3.org/2000/svg">
<path fill-rule="evenodd" clip-rule="evenodd" d="M22 2.2582C21.196 2.64754 20.3189 2.88115 19.4419 3.03689C20.392 2.41393 21.0498 1.47951 21.4153 0.389344C20.5382 0.934426 19.588 1.32377 18.5648 1.55738C17.6877 0.545082 16.5183 0 15.2757 0C12.7907 0 10.7442 2.18033 10.7442 4.82787C10.7442 5.21721 10.8173 5.60656 10.8904 5.91803C7.16279 5.68443 3.80066 3.81557 1.60797 0.856557C1.24252 1.55738 1.02326 2.41393 1.02326 3.27049C1.02326 4.90574 1.82724 6.38525 2.99668 7.2418C2.26578 7.2418 1.53488 7.0082 0.950166 6.69672V6.77459C0.950166 9.11066 2.48505 11.0574 4.53156 11.4467C4.16611 11.5246 3.72757 11.6025 3.36213 11.6025C3.06977 11.6025 2.77741 11.6025 2.48505 11.5246C3.06977 13.3934 4.75083 14.7951 6.65116 14.873C5.11628 16.1967 3.14286 16.8975 1.09635 16.8975C0.730897 16.8975 0.365449 16.8975 0 16.8197C1.97342 18.1434 4.38538 19 6.87043 19C15.1296 19 19.6611 11.6803 19.6611 5.37295V4.75C20.6113 4.04918 21.4153 3.19262 22 2.2582Z" fill="white"/>
</svg>
