<svg width="112" height="83" viewBox="0 0 112 83" fill="none" xmlns="http://www.w3.org/2000/svg">
<path d="M67.6596 134.333C59.0121 84.7256 15.8914 48.0159 -34.477 47.385C-40.0506 47.3149 -44.6492 43.0055 -45.0937 37.4491L-46.9118 14.7817C-47.4144 8.49517 -42.4472 3.13622 -36.1373 3.11525C-20.0508 3.06415 -4.20949 5.59093 11.0941 10.6644C29.4288 16.7426 46.2098 26.1944 60.9738 38.7621C75.7378 51.3298 87.746 66.3864 96.6666 83.5115C104.113 97.8089 109.135 113.036 111.646 128.921C112.629 135.15 108.128 140.908 101.839 141.414L79.164 143.231C73.6057 143.676 68.6146 139.822 67.6596 134.333Z" fill="#252D6C"/>
</svg>
