<svg width="125" height="41" viewBox="0 0 125 41" fill="none" xmlns="http://www.w3.org/2000/svg">
<rect y="0.262695" width="124.782" height="39.7673" rx="4" fill="white"/>
<path d="M47.7747 13.2217C47.4479 12.0605 46.4895 11.1453 45.2756 10.8328C43.0561 10.2522 34.179 10.2522 34.179 10.2522C34.179 10.2522 25.3029 10.2522 23.0834 10.8107C21.8917 11.1232 20.9111 12.0605 20.5843 13.2217C20 15.3434 20 19.7424 20 19.7424C20 19.7424 20 24.1635 20.5843 26.2621C20.9111 27.4234 21.8695 28.3386 23.0834 28.6511C25.326 29.2317 34.179 29.2317 34.179 29.2317C34.179 29.2317 43.0561 29.2317 45.2746 28.6732C46.4895 28.3607 47.4469 27.4446 47.7737 26.2843C48.358 24.1626 48.358 19.7636 48.358 19.7636C48.358 19.7636 48.3821 15.3434 47.7747 13.2217Z" fill="#FF0000"/>
<path d="M31.353 15.6782V23.8057L38.7346 19.7424L31.353 15.6782Z" fill="white"/>
<path d="M61.1833 27.5347C60.6231 27.1771 60.2259 26.6195 59.9916 25.838C59.7583 25.0786 59.6416 24.0519 59.6416 22.8012V21.0815C59.6416 19.8087 59.7814 18.782 60.0388 18.0005C60.3194 17.2189 60.7398 16.6604 61.3 16.3038C61.8842 15.9462 62.6315 15.7683 63.5658 15.7683C64.4769 15.7683 65.2241 15.9471 65.7853 16.3038C66.3464 16.6604 66.7427 17.242 67.0001 18.0005C67.2575 18.7599 67.3973 19.7866 67.3973 21.0815V22.8012C67.3973 24.074 67.2807 25.0786 67.0232 25.8601C66.7658 26.6195 66.3695 27.2002 65.8084 27.5568C65.2482 27.9144 64.4769 28.0923 63.5195 28.0923C62.538 28.0711 61.7435 27.8923 61.1833 27.5347ZM64.3361 25.6592C64.5 25.2795 64.5694 24.6325 64.5694 23.7616V20.0548C64.5694 19.206 64.4991 18.5811 64.3361 18.1793C64.1722 17.7775 63.9157 17.5987 63.5185 17.5987C63.1444 17.5987 62.8648 17.7996 62.724 18.1793C62.5601 18.5811 62.4907 19.206 62.4907 20.0548V23.7616C62.4907 24.6325 62.5611 25.2795 62.724 25.6592C62.8638 26.0389 63.1444 26.2398 63.5416 26.2398C63.9157 26.2398 64.1732 26.061 64.3361 25.6592Z" fill="#282828"/>
<path d="M104.305 22.8234V23.4261C104.305 24.1856 104.328 24.7662 104.375 25.1459C104.421 25.5256 104.515 25.816 104.679 25.9717C104.818 26.1505 105.053 26.2399 105.38 26.2399C105.8 26.2399 106.081 26.0832 106.243 25.7708C106.406 25.4584 106.477 24.945 106.501 24.2077L108.906 24.3413C108.93 24.4529 108.93 24.5874 108.93 24.7653C108.93 25.8593 108.626 26.686 107.995 27.2215C107.365 27.7569 106.477 28.0251 105.332 28.0251C103.955 28.0251 102.996 27.6012 102.436 26.7745C101.876 25.9478 101.595 24.6759 101.595 22.934V20.8575C101.595 19.0714 101.876 17.7765 102.459 16.9497C103.042 16.123 104.024 15.7212 105.403 15.7212C106.36 15.7212 107.108 15.9 107.622 16.2345C108.136 16.5691 108.486 17.1055 108.696 17.7977C108.906 18.5119 109 19.4944 109 20.7451V22.7773H104.305V22.8234ZM104.655 17.8216C104.515 18.0004 104.421 18.2686 104.374 18.6474C104.328 19.0271 104.304 19.6078 104.304 20.3893V21.2382H106.359V20.3893C106.359 19.6299 106.336 19.0492 106.289 18.6474C106.242 18.2456 106.125 17.9774 105.985 17.8216C105.845 17.6649 105.611 17.5755 105.331 17.5755C105.005 17.5534 104.795 17.6428 104.655 17.8216Z" fill="#282828"/>
<path d="M54.362 22.6004L51.1851 11.5923H53.9647L55.0861 16.5719C55.3666 17.8005 55.5768 18.8493 55.7166 19.7203H55.787C55.8805 19.0954 56.0907 18.0678 56.4176 16.594L57.5852 11.5923H60.3649L57.1417 22.6004V27.8704H54.3851V22.6004H54.362Z" fill="#282828"/>
<path d="M76.4365 15.9915V27.8926H74.2411L74.0078 26.441H73.9374C73.3531 27.535 72.442 28.0935 71.2513 28.0935C70.4337 28.0935 69.8262 27.8253 69.429 27.312C69.0318 26.7986 68.8447 25.9949 68.8447 24.8779V15.9915H71.6475V24.7221C71.6475 25.2576 71.7179 25.6373 71.8346 25.8613C71.9512 26.0853 72.1614 26.1959 72.442 26.1959C72.6753 26.1959 72.9096 26.1286 73.143 25.9728C73.3763 25.8392 73.5402 25.6604 73.6337 25.4373V15.9915H76.4365Z" fill="#282828"/>
<path d="M90.8027 15.9915V27.8926H88.6073L88.374 26.441H88.3036C87.7193 27.535 86.8082 28.0935 85.6175 28.0935C84.7999 28.0935 84.1925 27.8253 83.7952 27.312C83.398 26.7986 83.2109 25.9949 83.2109 24.8779V15.9915H86.0137V24.7221C86.0137 25.2576 86.0841 25.6373 86.2008 25.8613C86.3175 26.0843 86.5276 26.1959 86.8082 26.1959C87.0415 26.1959 87.2758 26.1286 87.5092 25.9728C87.7425 25.8392 87.9064 25.6604 87.9999 25.4373V15.9915H90.8027Z" fill="#282828"/>
<path d="M84.0516 13.7581H81.2719V27.8704H78.5385V13.7581H75.7588V11.5923H84.0516V13.7581Z" fill="#282828"/>
<path d="M100.077 17.889C99.9128 17.1295 99.6332 16.594 99.2591 16.2586C98.885 15.924 98.348 15.7452 97.6943 15.7452C97.1804 15.7452 96.6896 15.8788 96.2461 16.1692C95.8026 16.4374 95.4516 16.8171 95.2183 17.2632H95.1951V10.9895H92.4858V27.8704H94.7989L95.0794 26.7543H95.1498C95.36 27.1561 95.6869 27.4686 96.1313 27.7147C96.5749 27.9377 97.0425 28.0723 97.5795 28.0723C98.5369 28.0723 99.2147 27.6483 99.6583 26.8216C100.102 25.9958 100.336 24.6778 100.336 22.9138V21.0382C100.31 19.6751 100.24 18.6254 100.077 17.889ZM97.5072 22.7341C97.5072 23.605 97.4609 24.2751 97.3905 24.7663C97.3202 25.2575 97.1804 25.6151 97.0164 25.8161C96.8294 26.017 96.5961 26.1285 96.3155 26.1285C96.0822 26.1285 95.872 26.0843 95.6849 25.9718C95.4979 25.8603 95.3349 25.7036 95.2173 25.5027V18.7599C95.3108 18.4475 95.4747 18.1793 95.7081 17.9562C95.9414 17.7553 96.1988 17.6438 96.4553 17.6438C96.7359 17.6438 96.9692 17.7553 97.109 17.9562C97.2729 18.1793 97.3664 18.5369 97.4359 19.0281C97.5062 19.5415 97.5294 20.2567 97.5294 21.1719V22.735H97.5072V22.7341Z" fill="#282828"/>
</svg>
